<svg xmlns="http://www.w3.org/2000/svg" viewBox="60 15 150 170" width="150" height="170" role="img" aria-label="CDCP logo">
  <path fill="#FFFFFF" d="M117.088890,114.826897 C115.561661,114.162865 114.384666,113.657463 112.465103,112.833199 C114.094650,122.621094 115.611900,131.734451 117.129150,140.847809 C116.855415,141.063873 116.581673,141.279938 116.307930,141.495987 C111.725304,136.982681 107.142677,132.469360 101.979050,127.383835 C101.639580,130.558548 101.401985,132.780579 101.099289,135.611343 C95.677490,134.454208 90.564041,133.362869 84.770782,132.126450 C85.575569,135.803864 86.015686,139.236282 87.104012,142.449097 C88.669159,147.069504 88.433762,150.630524 81.734634,152.345490 C91.320778,160.141617 100.090012,167.273376 108.803528,174.359833 C105.655983,181.873322 105.202698,182.126907 97.704697,180.409363 C80.541069,176.477783 72.126427,162.005920 73.813530,142.543732 C74.467987,134.993958 76.837234,127.609047 77.934433,120.077515 C79.471275,109.528137 75.938835,99.854744 72.381989,90.109779 C68.515076,79.515320 65.011070,68.750603 62.075188,57.864239 C58.817493,45.784607 61.591789,34.930767 71.586563,26.864464 C81.157211,19.140450 92.271774,19.269495 102.739151,23.907881 C113.000114,28.454794 122.446724,34.825043 132.310074,40.287933 C141.017303,45.110497 150.053497,49.064358 160.211899,49.914726 C150.866425,43.401379 140.314682,38.590134 132.739548,28.982519 C138.099182,28.439655 143.074905,28.332014 147.875656,27.360111 C155.844666,25.746801 163.642914,23.283989 171.617020,21.703102 C189.433060,18.171019 204.467010,30.616159 205.029083,48.891800 C205.447556,62.498337 200.353271,74.737495 194.974121,86.620712 C188.089630,101.829315 186.321091,116.902283 190.271866,133.196976 C192.029922,140.447922 192.120255,148.460770 191.223175,155.917969 C189.705704,168.532333 181.674316,176.370483 169.607880,179.992538 C161.518738,182.420715 161.240326,182.198837 158.151611,173.490067 C166.356522,166.844055 174.682571,160.099930 183.462814,152.987885 C181.163773,151.851639 179.601639,151.079605 177.685013,150.132355 C178.836456,144.318848 179.985397,138.517975 181.248932,132.138535 C175.876465,133.418625 170.992355,134.582352 165.984009,135.775665 C165.040619,133.052872 164.191132,130.601059 163.083923,127.405472 C158.229492,132.782593 153.833755,137.651642 149.438019,142.520691 C148.815933,142.152130 148.193848,141.783569 147.571777,141.415024 C149.097122,131.755249 150.622482,122.095482 152.280914,111.592979 C148.928925,113.741386 146.323044,115.411591 143.462616,117.244942 C140.035065,111.411537 136.711304,105.754738 132.995468,99.430679 C129.394806,105.641212 126.178062,111.189545 122.640465,117.291306 C120.920547,116.528854 119.179832,115.757195 117.088890,114.826897 z"/>
</svg>
