<svg id="Icons" viewBox="0 0 512 512" xmlns="http://www.w3.org/2000/svg"><path d="m16.06 112.69c23.63 2.12 71.62 6.45 95.38 8.58 7.08.54 13.22-3.51 18.18-11.29 12.88.99 39.53 4.09 52.07 3.85 17 0 33.92-2.1 50.5-6.29l107.38-27.1.7 18.44c.04 1.07.37 2.12.96 3.02.3.48.68.89 1.09 1.27 0 0 16.66 14.57 16.66 14.57l.58 15.43c.03.79.21 1.53.52 2.21-5.03 5.07-1.16 14.02 6.09 13.69 7.24-.22 10.45-9.43 5.04-14.11.25-.7.38-1.46.35-2.25l-.58-15.43 15.52-15.78c1.14-1.19 1.78-2.75 1.72-4.43 0 0-2.58-68.71-2.58-68.71-1.65-22.71-48.02-21.01-47.94 1.81 0 0 .49 12.97.49 12.97l-114.02 17.08c-26.32 4.91-63.07-.34-89.72-2.54-3.46-8.68-8.98-13.79-15.95-14.52-23.75-2.13-71.78-6.45-95.38-8.57-7.92-.44-8.97 10.96-1.07 11.95 0 0 27.96 2.51 27.96 2.51-9.38 13.44-11.56 39.83-4.87 54.21l-27.96-2.51c-7.94-.43-8.96 10.97-1.07 11.95zm88.23-31.44c1.49-16.38 10.03-30.54 15.63-24.72-1.6.21-3.06 1.06-4.04 2.38-10.58 14.39-12 30.03-4.22 46.48.69 1.46 1.93 2.56 3.42 3.09-6.45 4.35-12.24-10.88-10.79-27.22zm260.27 25.42-11.4-9.97c4.5-4.82 17.19-5.28 22.03-.84l-10.62 10.81zm-3.12-82.6c7.42-.27 12.11 2.92 12.18 4.74l2.02 53.76c-6.98-2.7-17.19-2.31-23.95.9-.27-7.11-1.73-45.81-2.03-53.76-.07-1.78 4.47-5.37 11.78-5.64zm-135.52 48.01 112.7-16.89.49 12.98-109.86 27.73c-21.28 5.38-43.16 7.11-65.03 5.14l-43.04-3.87c-3.89-10.09-3.06-19.44 2.51-28.41 29.56 2.3 73.12 8.82 102.23 3.32zm-125.1-18.47c-9.18 12.7-11.63 40.09-4.87 54.22-.25-.03-34.1-3.05-34.33-3.09-4.23-.44-9.66-11.85-8.2-28.06.7-7.81 2.92-15.22 6.1-20.33 2.34-3.77 5.02-5.99 7-5.82l34.29 3.08z"/><path d="m364.87 168.98c-3.81 0-8.5-2.44-13.94-5.26-17.19-10.21-46.79-18.28-81.05 3.91-27.8 19.29-34.86 55.89-35.88 83.2-1.98 50.95 23.54 65.84 32.61 109.3 7.32 41.03 17.56 98.58 34.82 110.72 18.27 15.59 38.41 9.66 38.66-14.54-.2-21.82-3.5-72.05 13.79-91.4 3.12-3.21 6.72-4.77 11-4.77 28.8 1.08 25.07 72.21 24.93 89.57-.08 2.79-.14 5-.14 6.6.25 22.02 17.77 31.57 38.67 14.55 17.25-12.08 27.51-69.75 34.81-110.73 9.06-43.46 34.59-58.35 32.61-109.29-1.03-27.39-8.12-64.08-36.07-83.34-34.08-21.97-63.84-13.96-80.87-3.77-5.44 2.82-10.13 5.26-13.94 5.26zm77.82 2.88c-2.07.88-4.04 1.8-5.9 2.77-5.54 2.92-3.38 11.34 2.79 11.32.94 0 1.89-.22 2.78-.69 3.89-2.04 8.59-3.92 13.68-5.5 21.21 17.06 26.82 48 27.71 71.51 1.05 27.92-7.19 44.57-15.91 62.19-6.37 12.88-12.96 26.19-16.48 44.38-.74 3.82-1.56 8.34-2.42 13.11-5.03 27.76-14.39 79.44-28.15 90.56-6.15 4.98-11.71 7.05-14.88 5.54-2.62-1.25-4.25-5.37-4.25-10.75.09-26.15 6.29-106.68-36.79-108.17-43.09 1.51-36.87 81.94-36.79 108.17 0 5.38-1.63 9.5-4.25 10.75-3.16 1.51-8.72-.56-14.87-5.54-13.77-11.12-23.13-62.81-28.16-90.58-.86-4.77-1.68-9.28-2.42-13.1-3.52-18.18-10.11-31.5-16.48-44.38-8.72-17.62-16.96-34.27-15.91-62.19.88-23.44 6.47-54.29 27.56-71.38 4.66 1.46 8.88 3.14 12.56 5 .87.44 1.79.65 2.7.65 6.21.02 8.34-8.49 2.71-11.36-1.51-.77-3.11-1.5-4.76-2.21 19.39-8.45 33.05-7.66 43.86-4.18 36.45 15.23 50.77 32.7 50.77 32.7 1.93 2.72 5.69 3.33 8.37 1.42 2.7-1.92 3.34-5.66 1.42-8.37-.31-.43-4.69-6.45-16.04-14.8 20.62-8.91 32.1-21.37 67.55-6.9z"/><path d="m313.74 206.86c-.37-1.44-.56-3.01-.56-4.67 0-5.13-1.58-9.98-4.7-14.42-4.79-6.34-14.16.24-9.82 6.9 1.69 2.41 2.52 4.87 2.52 7.52s.32 5.25.94 7.67c.7 2.71 3.13 4.5 5.81 4.5 3.85.05 6.84-3.77 5.81-7.5z"/><path d="m337.56 223.07c-6.1-1.31-11.15-3.14-15.01-5.44-6.95-3.84-12.83 5.99-6.15 10.3 5.17 3.02 12.34 5.87 19.91 7.01 7.11-.12 8.25-10.22 1.25-11.87z"/><path d="m372.88 225.31c-5.57.26-11.88.24-17.42-.04-7.96-.14-8.52 11.31-.62 11.98 5.89.31 12.66.32 18.59.04 7.93-.65 7.38-12.07-.55-11.99z"/><path d="m419.29 214.96c3.09.96 6.53-.81 7.48-4.01.83-2.74 1.25-5.69 1.25-8.76 0-2.46.7-4.74 2.15-6.98 4.08-6.81-5.54-13.03-10.08-6.51-2.7 4.18-4.07 8.72-4.07 13.49 0 1.9-.25 3.67-.73 5.29-.96 3.17.84 6.52 4.01 7.48z"/><path d="m386.13 230.31c.65 3.27 3.91 5.35 7.08 4.68 7.36-1.5 13.65-3.7 18.69-6.55 6.77-4.14 1.15-14.12-5.91-10.45-3.94 2.23-9.05 3.99-15.18 5.24-3.25.66-5.34 3.83-4.68 7.08z"/></svg>