<svg id="Icons" viewBox="0 0 512 512" xmlns="http://www.w3.org/2000/svg"><path d="m37.57 273.2c13.11 2.98 32.19 3.91 48 .45 1.49-.3 2.88-.85 4.14-1.59 3.65 4.75 8.97 8.21 15.25 9.44 20.62 4 39.18 4.65 58.99.62 2.43-.49 4.59-1.62 6.35-3.19 4.06 4.34 9.51 7.37 15.69 8.3 8.78 1.33 17.62 1.99 26.46 1.99 10.93 0 21.87-1.01 32.72-3.03 4.25-.79 7.98-2.85 10.86-5.73 2.87 2.89 6.61 4.94 10.86 5.73 8.81 1.64 17.7 2.61 26.54 2.92-3 16.65-3.96 33.44-4.21 45.22-.21 10.11 6.88 18.79 16.85 20.65 15.29 2.84 30.75 3.71 46.19 2.52 12.01 15.91 19.38 34.72 21.32 54.61l4.44 45.54c.31 3.31 3.31 5.72 6.55 5.39 3.3-.32 5.71-3.26 5.39-6.55l-4.44-45.54c-1.94-19.8-8.71-38.62-19.68-55.03.79-.14 1.56-.31 2.33-.51 25.48 31.12 23.06 64.92 27.37 102.25 1.02 7.84 12.44 6.8 11.94-1.16-4.42-42.19-2.86-77.83-32.81-112.06-.23-.24-18.34-20.44-19.29-21.43-2.19-2.09.95-5.29 3.06-3.1 0 0 18.91 16.74 18.91 16.74.23.2.46.42.68.62 38.63 34.79 35.17 73.41 39.65 120.32.91 7.83 12.36 6.96 11.96-1.02 0 0-4.21-49.15-4.21-49.15-2.51-29.47-15.65-56.67-37.09-76.96.12-16.85-1.32-32.95-3.64-45.95 7.11-.47 14.5-1.46 22.4-3 6.27-1.23 11.59-4.69 15.24-9.44 1.26.74 2.66 1.29 4.15 1.59 8.26 1.65 15.85 2.26 22.67 2.26 10.33 0 18.9-1.4 25.32-2.72 12.14-2.48 20.66-13.22 20.26-25.54-1.47-46.66-15.88-73.43-39.54-73.44-18.64 0-28.6 16.85-33.87 36.55-15.93-53.92-62.48-58.23-77.14-1.52-5.02-24.67-19.02-49.68-44.68-49.24-27.25.32-38.32 29.25-43.5 51.53-7.5-35.94-26.17-52.36-43.52-51.53-25.5 0-38.44 21.76-44.62 49.27-9.25-33.71-25.81-40.89-38.25-40.89-17.68.42-33.39 21.75-38.92 42.38-5.27-19.7-15.23-36.56-33.87-36.55-23.65 0-38.06 26.78-39.53 73.44-.39 12.32 8.13 23.06 20.26 25.54zm315.54 34.5c-6.18 1.62-10.53 7.36-10.47 13.68 0 3.64 1.38 7.09 3.88 9.73l12.35 13.69c-16.81 2.08-33.81 1.52-50.61-1.61-4.17-.78-7.14-4.4-7.05-8.6-.02-25.01 6.45-95.16 37.51-93.79 30.63-.02 36.38 49.19 37.46 78.8l-9.74-8.62c-3.62-3.35-8.6-4.58-13.34-3.28zm102.09-121.48c23.76 0 27.09 47.32 27.55 61.82.21 6.46-4.28 12.09-10.67 13.4-9.64 1.98-24.6 4.17-43.22.45-.75-.15-1.29-.8-1.28-1.56.07-9.94.84-29.13 5.22-45.94 4.87-18.7 12.4-28.17 22.4-28.17zm-72.8-5.83c21.03 4.27 32.31 35.9 33.21 75.89.14 6.53-4.41 12.19-10.81 13.45-8.07 1.58-15.55 2.53-22.71 2.9-5.96-22.4-16.09-36.33-30.17-41.53 3.15-20.97 11.03-50.71 30.48-50.71zm-120.37 85.34c-.14-20.4 5.3-94.71 37.5-93.72 25.51.5 32.43 31.71 35.84 56.97-22.65 2.17-33.87 26.17-39.4 48.21-8.93-.2-17.96-1.12-26.89-2.79-4.17-.77-7.16-4.47-7.05-8.67zm-78.22-68.42c6.45-17.02 15.84-25.3 28.71-25.3 32.22-.94 37.61 73.27 37.5 93.74.1 4.2-2.89 7.88-7.06 8.65-18.32 3.41-36.89 3.74-55.2.98-7.44-1.12-13-7.72-12.93-15.35.24-26.54 3.26-47.64 8.97-62.72zm-71.62-4.44c19.23-25.6 37.41-8.48 44.78 22.06 5.22 20.68 5.85 44.59 5.88 53.9 0 .74-.54 1.39-1.31 1.55-16.98 3.48-34.22 3.28-54.28-.64-6.41-1.26-10.96-6.92-10.82-13.45.79-35.46 8.99-54.06 15.74-63.42zm-75.13 10.86c4.89-11.78 11.36-17.51 19.79-17.51 24.22-.73 27.99 58.96 27.62 74.12 0 .75-.53 1.4-1.27 1.55-18.62 3.72-33.59 1.53-43.23-.44-6.39-1.31-10.88-6.94-10.68-13.4.57-18.12 3.26-33.44 7.76-44.31z"/></svg>