<svg viewBox="0 0 512 512" xmlns="http://www.w3.org/2000/svg"><path d="m443.79 345.73c-2.9-5.21-9.76-7.55-15.22-5.25l-14.45-24.67c77.28-68.41 18.11-193.8-84.05-177.31-3.29-29.44-14.54-64.83-47.89-79.95-37.63-17.06-59.02-5.97-74.63 2.13-5.81 3.02-10.84 5.62-14.97 5.62s-9.15-2.61-14.97-5.62c-15.62-8.1-37-19.2-74.64-2.13-21.07 9.56-46.66 33.67-48.94 94.29-1.23 32.77 8.63 52.69 18.16 71.96 6.4 12.93 13.02 26.3 16.43 43.96.77 3.98 1.63 8.73 2.54 13.76 8.48 46.82 17.49 89.98 34.29 103.55 13.63 11.02 23.23 10.11 28.89 7.41 7.34-3.5 11.55-11.73 11.55-22.57-.21-23.22-3.73-76.61 14.75-97.28 6.41-6.91 17.47-6.92 23.88 0 18.47 20.71 14.95 73.98 14.75 97.28.18 14.07 6.69 23.91 19.42 24.32 5.42 0 12.42-2.2 21.02-9.16 10.41-8.41 18.82-28.9 26.94-65.85 27.43 20.59 63.67 25.9 95.69 14.21l14.44 24.66c-4.68 3.65-6 10.75-2.89 15.84 0 0 45.94 78.48 45.94 78.48 5.18 8.82 14.75 14.3 24.98 14.3 22.02.19 36.25-24.55 24.93-43.52 0 0-45.94-78.47-45.94-78.47zm-36.74 7.15-13.61-23.24c3.8-1.92 7.55-4.11 11.08-6.49l13.61 23.24zm-154.88 23.86c-11.71 9.39-20.65 9.34-20.9-5.82.08-27.53 6.68-112.87-38.68-114.45-45.27 1.46-38.82 86.91-38.69 114.45 0 5.85-1.81 10.35-4.72 11.74-3.48 1.67-9.53-.55-16.17-5.92-14.72-11.9-24.67-66.84-30.02-96.36-.92-5.07-1.78-9.85-2.57-13.91-8.8-45.88-36.29-62.02-34.38-113.18 2.05-54.49 23.92-75.65 41.9-83.81 22.15-9.8 36.96-9.32 49.37-4.63 40.22 17.12 53.02 34.2 53.12 34.34 4.84 6.35 14.16-.36 9.79-6.95-.33-.46-5.09-6.99-17.48-16.02 3.43-1.3 6.84-3.07 10.35-4.89 14.18-7.35 31.82-16.51 64.15-1.86 28.8 13.06 38.35 45.28 41.08 71.82-73.55 21.73-96.94 116.54-42.03 170.02-7.64 36.66-15.75 58.66-24.12 65.42zm95.51-48.2c-91.15-.88-123.87-120.02-45.37-167.27 41.58-25.1 98.87-10.25 122.83 32.12 35.02 59.61-8.6 135.28-77.46 135.15zm125.65 124.86c-7.77 4.77-18.68 1.87-23.14-6.04-.04-.28-46.15-78.45-45.98-78.76.04-.14.14-.2.17-.22l28.57-16.72s.18-.07.26-.04c.15.05.19.12.22.17 0 0 45.95 78.48 45.95 78.48 4.71 8.05 1.99 18.42-6.05 23.13z"/><path d="m403.7 191.55c2.06 2.62 5.84 3.04 8.43 1 2.6-2.05 3.05-5.82 1-8.43-13.89-17.64-34.04-28.48-55.3-29.75-7.92-.22-8.64 11.23-.71 11.98 17.83 1.06 34.81 10.25 46.58 25.19z"/></svg>