<svg id="Icons" viewBox="0 0 512 512" xmlns="http://www.w3.org/2000/svg"><path d="m102.67 349.75 8.68.11-.15 8.75c-.06 3.31 2.58 6.04 5.9 6.1 3.3.06 6.05-2.58 6.1-5.9l.15-8.77 8.77.15s.07 0 .11 0c3.26 0 5.94-2.62 6-5.89.06-3.31-2.58-6.05-5.89-6.1l-8.8-.16.11-8.73c.04-3.31-2.61-6.03-5.92-6.08-3.31-.08-6.03 2.61-6.08 5.92l-.11 8.7c-8.73-.11-8.75-.11-8.78-.11 8.78.11.08 0 .08 0-7.97.27-8.05 11.63-.16 12z"/><path d="m394.61 170.24c-.04 3.31 2.61 6.03 5.92 6.08l8.68.11-.15 8.75c-.06 3.31 2.58 6.04 5.9 6.1 3.3.06 6.05-2.58 6.1-5.9l.15-8.77 8.76.15s.07 0 .11 0c3.26 0 5.94-2.62 6-5.89.06-3.31-2.58-6.05-5.89-6.1l-8.79-.15.11-8.73c.04-3.31-2.61-6.03-5.92-6.08-3.3-.05-6.04 2.61-6.08 5.92l-.11 8.7c-.17 0-8.61-.11-8.78-.11-3.28 0-5.96 2.64-6 5.92z"/><path d="m113.98 292.53c20.32.9 30.43 10.99 31.8 31.76.51 6.56 9.57 7.66 11.68 1.51 10.27 50.72 15.94 105.61 52.85 108.72 12.18-.38 18.49-9.82 18.64-23.26-.02-18.25-5.32-94.88 24.79-96.17 30.1 1.3 24.82 77.84 24.8 96.17 0 10.35 4.04 18.22 11.08 21.58 5.42 2.59 14.6 3.47 27.59-7.03 15.92-12.87 24.41-53.58 32.41-97.76.86-4.74 1.67-9.22 2.4-12.98 3.21-16.58 9.44-29.16 15.45-41.31 9-18.19 18.31-37 17.15-67.97-.78-20.64-4.59-38.4-11.32-52.93 4.53-2.81 10.45-4.49 17.72-4.98 3.17-.21 5.62-2.85 5.6-6.03-.02-3.17-2.51-5.78-5.68-5.95-12.97-.69-28.07-8.11-29.67-59.81-.1-3.24-2.76-5.81-6-5.81-3.26 0-5.92 2.6-6 5.86-.42 18.39-2.81 32.62-7.1 42.45-33.44-18.09-61.08-7.99-74.49.09-5.44 2.82-10.14 5.26-13.94 5.26s-8.5-2.44-13.94-5.26c-13.94-7.23-35-18.16-70.62-2.02-45.37 18.43-61.12 100.59-30.78 153.84-5.16 6-13.23 9.3-24.55 10.05-7.49.68-7.37 11.47.13 11.98zm241.31-174.62c3.12 9.31 7.81 17.47 14.91 22.93-6.37 3.15-11.44 7.79-14.99 13.89-3.52-6.17-8.51-10.87-14.91-14.02 7.26-5.58 11.91-13.7 14.99-22.8zm-220.44 88.33c1.92-51.16 22.42-71.01 39.28-78.65 20.2-9.16 34.29-8.39 45.37-4.82 36.47 15.26 50.76 32.69 50.76 32.69 4.81 6.32 14.16-.31 9.79-6.94-.31-.43-4.69-6.45-16.04-14.8 20.51-9.57 36.34-22.1 71.71-4.97-4.23 4.44-9.52 6.78-16.29 7.27-3.17.23-5.62 2.89-5.57 6.07.04 3.18 2.56 5.77 5.74 5.91 19.23.83 28.39 10 29.7 29.73.21 3.15 2.83 5.6 5.99 5.6 3.2 0 5.84-2.52 5.99-5.71.28-5.84 1.34-10.73 3.22-14.76 4.71 12.15 7.5 26.93 8.12 43.39 1.05 27.93-7.19 44.58-15.92 62.2-6.37 12.87-12.96 26.18-16.48 44.36-5.79 29.67-14.4 89.34-30.57 103.68-6.15 4.97-11.71 7.04-14.87 5.53-2.62-1.25-4.25-5.37-4.25-10.75.08-26.17 6.28-106.67-36.8-108.17-43.09 1.51-36.87 81.95-36.79 108.17-.21 13.97-8.31 13.88-19.12 5.22-18.48-17.5-25.01-82.04-33-113.89 5.15-6.11 13.25-9.47 24.69-10.23 3.18-.21 5.64-2.87 5.6-6.05-.03-3.18-2.55-5.79-5.73-5.93-20.32-.91-30.43-11-31.8-31.76-.21-3.16-2.83-5.6-5.99-5.6-3.21 0-5.85 2.53-6 5.73-.11 2.57-.4 4.98-.81 7.24-6.12-13.64-10.75-28.39-9.95-49.74zm15.59 68.16c.45-.7.88-1.41 1.29-2.15 3.39 6.1 8.13 10.87 14.15 14.23-6.1 3.37-10.9 8.18-14.24 14.17-3.39-6.11-8.12-10.87-14.15-14.23 5.35-2.97 9.68-6.98 12.94-12.03z"/></svg>