<svg id="Icons" viewBox="0 0 512 512" xmlns="http://www.w3.org/2000/svg"><path d="m62.81 60.13 53.26 35.13c7.1 4.87 17.4 4.15 23.75-1.52 25.99 20.11 47.48 47.76 64 82.3-23.44 20.09-29.63 53.75-30.58 79.1-1.17 30.96 8.14 49.77 17.14 67.96 6.02 12.16 12.24 24.74 15.45 41.32.73 3.75 1.53 8.21 2.39 12.95 10.34 51.07 16.07 103.26 52.44 106.5 12.19-.37 18.48-9.83 18.65-23.26 0-1.6-.06-3.81-.14-6.6-.16-17.2-3.86-88.55 24.93-89.56 28.81 1.08 25.08 72.22 24.94 89.57-.91 12.04 1.2 23.53 10.94 28.17 5.42 2.59 14.6 3.47 27.59-7.03 17.26-12.09 27.51-69.76 34.81-110.73 9.07-43.44 34.6-58.35 32.61-109.29-2.15-57.29-26.37-80.09-46.31-89.13-35.61-16.14-56.68-5.21-70.63 2.02-5.44 2.82-10.13 5.26-13.94 5.26s-8.5-2.44-13.94-5.26c-14.37-8.68-42.8-18.21-76.41.97-17.44-35.84-40.16-64.57-67.65-85.55 1.92-7.9-1.21-16.48-8.29-21.16l-53.26-35.12c-4.58-3.17-11.39-1.77-14.35 2.94 0 0-10.34 15.66-10.34 15.66-3.17 4.59-1.78 11.38 2.94 14.36zm161.69 116.82c20.2-9.16 34.29-8.39 45.37-4.83 36.48 15.26 50.76 32.69 50.76 32.69 1.93 2.72 5.69 3.32 8.37 1.42 2.7-1.92 3.34-5.66 1.42-8.37-.31-.43-4.69-6.45-16.04-14.8 21.07-9.18 32.65-21.77 69.34-6.13 16.85 7.64 37.35 27.49 39.27 78.65 1.05 27.92-7.19 44.57-15.91 62.2-6.37 12.87-12.96 26.18-16.48 44.36-.74 3.83-1.56 8.34-2.42 13.12-5.03 27.76-14.38 79.43-28.15 90.56-6.15 4.97-11.71 7.04-14.87 5.53-2.62-1.25-4.25-5.37-4.25-10.75.33-25 3.66-77-17.2-99.76-5.42-5.58-12.02-8.4-19.6-8.4-43.09 1.52-36.87 81.93-36.79 108.16 0 5.38-1.63 9.5-4.25 10.75-3.16 1.51-8.72-.56-14.87-5.53-16.17-14.39-24.78-73.97-30.58-103.68-3.52-18.18-10.11-31.49-16.48-44.37-8.72-17.62-16.96-34.27-15.91-62.19.82-21.89 5.75-50.49 23.8-68.08 5.73 13.35 10.83 27.79 15.24 43.06-30.52 27.41-20.42 67.01-6.14 92.87 6.54 12.84 9.47 38.27 12.05 60.7 3.83 33.27 6.29 50.8 16.12 54.47 4.36 1.38 7.71.62 12.32-3.38 5.06-4.65 4.47-13.68 3.58-27.35-1.16-17.84-2.75-42.26 9.82-55.67 6.88-7.34 17.35-10.91 32-10.91 43.08-.69 44.48 33.47 41.83 66.58-.89 13.67-1.48 22.7 3.58 27.36 3.33 3.06 6.36 4.01 8.85 4.01 14.23-1.38 15.15-20.64 19.59-55.11 2.58-22.43 5.51-47.86 12.04-60.69 12.79-25.08 24.22-57.73-1.07-87.84-18.52-22.03-48.9-14.89-69.01-10.17-6.3 1.48-12.25 2.88-15.81 2.88s-9.51-1.4-15.81-2.88c-15.53-3.65-36.09-8.48-53.33-1.34-4.65-15.67-10.04-30.46-16.07-44.15 1.83-1.1 3.72-2.12 5.68-3.01zm79.54 63.37c4.96 0 11.26-1.48 18.56-3.2 19.3-4.53 43.31-10.17 57.08 6.2 20.58 24.5 11.96 50.37-.43 74.67-7.52 14.76-10.45 40.18-13.27 64.77-1.78 15.51-4.42 38.46-8.04 43.95-1.23-2.39-.46-11.39-.09-18.06 3.85-39.42-2.44-79.6-53.8-79.36-51.37-.23-57.66 39.94-53.8 79.36.37 6.67 1.15 15.66-.09 18.06-3.62-5.5-6.26-28.44-8.04-43.94-2.83-24.59-5.76-50.01-13.28-64.78-12.28-24.1-20.84-49.73-.93-74.04 7.25 28.59 12.36 60.5 15.2 95.04.26 3.31 3.22 5.77 6.47 5.49 3.3-.27 5.76-3.17 5.49-6.47-3.07-37.31-8.75-71.67-16.89-102.24 13.8-6.51 32.24-2.19 47.31 1.35 7.3 1.71 13.6 3.2 18.56 3.2zm-224.72-202.23 51.89 34.22c3.39 2.24 4.47 6.75 2.48 10.26-2.04 3.85-7.41 5.16-11 2.67 0 0-51.89-34.23-51.9-34.23l8.53-12.93z"/></svg>