<svg version="1.1" id="Layer_1" xmlns="http://www.w3.org/2000/svg" xmlns:xlink="http://www.w3.org/1999/xlink" x="0px" y="0px"
	 width="100%" viewBox="0 0 240 240" enable-background="new 0 0 240 240" xml:space="preserve">
<g stroke-linejoin="round" stroke-linecap="round" stroke-width="4">

<path fill="#E36C23" opacity="1.000000" stroke="#E36C23"
	d="
M114.241661,154.929443
	C106.332298,159.679428 102.990936,167.067215 101.138008,175.174194
	C98.508789,186.677643 96.509598,198.326141 93.825729,209.815628
	C92.173256,216.889755 90.688759,224.126282 85.352699,229.775986
	C79.164810,236.327621 70.450409,238.109604 62.258820,234.359955
	C55.058010,231.063858 50.508469,225.259857 46.798428,218.608017
	C39.038094,204.694260 35.364628,189.594635 34.015221,173.853668
	C33.263145,165.080673 32.820091,156.279251 31.958242,147.518143
	C31.117001,138.966476 28.084642,131.039383 24.196875,123.435318
	C13.488461,102.490822 9.109131,80.233025 10.565989,56.827206
	C12.550249,24.948133 37.860340,3.960266 69.650787,7.324026
	C80.263634,8.446976 90.221115,11.482143 99.598045,16.238195
	C114.115013,23.601313 128.383209,24.199944 143.142899,16.914862
	C155.161301,10.982823 167.836868,7.651592 181.492020,7.607490
	C207.569702,7.523268 225.204056,23.044857 230.037003,47.859245
	C234.640808,71.497169 231.718582,94.677155 221.538116,116.102348
	C213.062378,133.939926 209.850372,152.242584 209.055176,171.535309
	C208.455597,186.082413 205.429169,200.211472 199.047806,213.471985
	C195.904587,220.003647 192.047714,226.002960 186.224228,230.441223
	C173.699432,239.986786 159.765747,236.458054 153.548828,221.956436
	C149.326538,212.107468 148.205139,201.405533 146.029816,191.004486
	C143.961029,181.112808 142.925385,170.897781 137.091263,162.174210
	C131.570740,153.919556 124.182487,151.490891 114.241661,154.929443
z"/>
<path fill="#FFFEFD" opacity="1.000000" stroke="#FFFEFD"
	d="
M199.790298,22.818556
	C215.648941,32.340168 220.425674,47.349628 220.873672,64.207077
	C221.353867,82.275635 217.649002,99.684792 209.621628,115.893158
	C202.058899,131.163269 199.125504,147.127975 198.782761,164.082581
	C198.441971,180.940109 195.211624,197.452148 186.839096,212.501663
	C184.806671,216.154922 182.544235,219.607285 178.937729,222.003433
	C172.345795,226.383102 166.022034,224.570480 163.334381,217.145721
	C160.153152,208.357361 158.516098,199.176895 156.978058,189.979126
	C155.305679,179.978073 153.813599,169.925369 149.468491,160.589966
	C144.316437,149.520874 136.445160,142.136414 123.639465,141.642410
	C110.171127,141.122849 100.858742,147.491531 94.920242,159.357193
	C89.383095,170.420929 88.117912,182.548370 86.005989,194.460052
	C84.755669,201.512177 83.428345,208.522797 80.960960,215.276855
	C76.698044,226.945862 68.727364,228.358932 60.593159,218.854523
	C52.862122,209.821121 49.765213,198.760300 47.031433,187.576233
	C43.970192,175.052536 44.239388,162.154694 43.102543,149.421539
	C42.232639,139.678299 39.782848,130.510101 35.487766,121.744446
	C26.288855,102.970757 20.459955,83.389832 21.265631,62.187996
	C22.133150,39.358654 33.334316,23.972366 53.263618,19.484116
	C64.422493,16.971037 75.470139,18.613085 86.127357,22.603409
	C90.482513,24.234085 94.789108,26.032238 98.997948,28.009331
	C115.803581,35.903759 132.174042,34.229553 148.483231,26.331766
	C164.122086,18.758587 180.295914,15.918313 197.587921,22.049801
	C198.579193,22.052805 199.122253,22.219097 199.790298,22.818556
z"/>
<path fill="#E36A20" opacity="1.000000" stroke="#E36A20"
	d="
M86.881248,92.812195
	C86.517998,93.815285 86.252815,94.425026 86.015373,95.045395
	C83.757050,100.945679 79.304115,102.843048 73.405884,100.665222
	C70.951187,99.758865 71.679733,97.979912 72.118126,96.588829
	C73.561432,92.009087 75.197723,87.485535 76.894211,82.991096
	C81.752518,70.120247 86.801186,57.319302 91.480293,44.384262
	C92.535698,41.466686 93.909973,40.669331 96.836914,40.684963
	C108.002831,40.744610 107.947639,40.667908 112.075371,51.285114
	C117.483276,65.195168 122.998825,79.063339 128.441879,92.959785
	C129.045593,94.501060 129.569656,96.087677 129.950333,97.695946
	C130.129318,98.452133 130.196777,99.741386 129.773712,100.051880
	C126.841759,102.203705 123.401031,100.707008 120.202415,101.134949
	C118.372261,101.379791 117.640114,100.280731 117.007896,98.713287
	C112.649445,87.907471 112.620552,87.920921 101.125038,87.981941
	C98.464302,87.996063 95.767265,88.271774 93.151421,87.931412
	C89.470245,87.452431 87.551208,88.876205 86.881248,92.812195
z"/>
<path fill="#E26E26" opacity="1.000000" stroke="#E26E26"
	d="
M131.808838,125.250343
	C137.130905,123.504341 140.879074,120.356621 143.787643,116.135170
	C144.952911,114.443924 146.203186,112.854591 148.563644,113.195480
	C150.661682,113.498482 153.061646,113.548332 154.158844,115.719658
	C155.107544,117.597176 153.661240,119.197121 152.699921,120.684082
	C139.109177,141.706131 104.457207,141.261551 90.782448,119.843552
	C89.578323,117.957596 86.766579,115.348831 89.657623,113.451523
	C92.383781,111.662430 95.755760,111.941788 98.563728,114.923416
	C107.522171,124.435883 118.483116,128.124512 131.808838,125.250343
z"/>
<path fill="#E16E28" opacity="1.000000" stroke="#E16E28"
	d="
M141.631866,69.380646
	C139.118607,69.016197 136.938538,68.753281 134.805893,68.966034
	C131.214218,69.324348 129.863342,68.202301 129.832458,64.324768
	C129.799576,60.194359 131.696045,59.765083 135.008499,59.806030
	C141.960861,59.891979 141.980209,59.770321 142.176163,52.741570
	C142.237091,50.556366 142.091705,48.318596 144.564728,47.215664
	C146.201828,46.485542 147.622559,46.862038 149.253479,47.667404
	C151.597107,48.824707 150.841446,50.730099 150.874054,52.406818
	C151.017197,59.767853 150.987579,60.009266 158.160095,59.723385
	C162.191849,59.562691 163.131805,60.940575 163.153442,64.784218
	C163.179031,69.325783 159.521591,68.741997 157.672318,68.566261
	C151.362167,67.966629 150.037598,70.822914 150.779510,76.292351
	C151.153152,79.046806 151.457642,81.988876 146.844788,81.965370
	C142.382004,81.942627 142.103668,79.507446 142.248001,76.160652
	C142.340607,74.013535 142.085587,71.851433 141.631866,69.380646
z"/>
<path fill="#FEFAF7" opacity="1.000000" stroke="#FEFAF7"
	d="
M93.844009,72.760574
	C95.991051,66.626106 98.019913,60.864285 100.466064,53.917370
	C103.129181,61.182041 105.367157,67.317780 107.631172,73.443893
	C108.296211,75.243385 108.005081,76.269928 105.807793,76.283875
	C102.493645,76.304916 99.180290,76.453148 95.866631,76.548271
	C93.214516,76.624413 92.657669,75.388489 93.844009,72.760574
z"/>
</g>
</svg>