<svg id="Icons" viewBox="0 0 512 512" xmlns="http://www.w3.org/2000/svg"><path d="m102.73 333.17 20.6-7.88c3.63-1.39 7.57.42 9.37 4.29 4.11 8.84 10.03 24.73 14.46 48.57 3.32 15.41 16.04 66.88 40.15 82.35 4.63 2.97 9.38 4.46 14.2 4.46 28.1 1.12 34.6-55.24 54.49-58.1 7.98 0 15.31 13.86 21.77 26.09 7.46 14.12 15.18 28.72 27.54 31.44 6.58 1.45 13.1.14 19.38-3.89 24.17-15.57 36.83-66.98 40.17-82.52 4.48-23.93 10.32-39.53 14.44-48.41 1.79-3.88 5.73-5.68 9.36-4.29l20.61 7.88c7.39 2.6 11.69-8.04 4.29-11.21 0 0-20.6-7.88-20.6-7.88-9.54-3.66-20.09.84-24.54 10.45-4.4 9.49-10.63 26.07-15.33 51.17-8.06 36.66-24.61 79.96-45.2 76.98-18.42-6.91-25.52-58.25-51.89-57.81-26.4-.42-33.43 50.84-51.89 57.81-20.6 2.99-37.14-40.33-45.21-76.97-4.69-25.1-10.92-41.68-15.32-51.17-4.46-9.61-15.01-14.09-24.55-10.45l-20.6 7.88c-7.27 3.08-3.29 13.78 4.29 11.21z"/><path d="m218.15 46.99c-21.21 5.41-49.03 23.62-61.19 79.64-6.56 30.28-.69 50.43 4.99 69.92 3.8 13.03 7.73 26.5 7.98 43.4.06 3.83.07 8.39.09 13.21.15 44.88 1.4 86.45 14.82 101.9 10.94 12.61 20.14 13.35 25.92 11.75 7.52-2.08 12.87-9.12 14.69-19.31 3.62-21.53 9.16-71.54 29.58-87.57 6.93-5.24 16.96-3.46 21.66 3.85 13.64 22.13 1.61 70.88-2.41 92.41-2.49 14.56 3.64 26.07 17.91 26.47 4.62 0 10.43-1.42 17.62-5.38 19.11-8.89 39.29-63.86 53.64-102.93 6.07-15.77 14.39-27.06 22.45-37.98 12.05-16.33 24.5-33.23 28.78-63.92 7.9-56.77-11.95-83.46-30-95.85-32.24-22.13-54.89-15.05-69.88-10.37-5.85 1.83-10.9 3.41-14.65 2.74-3.74-.67-7.94-3.89-12.8-7.61-12.46-9.56-31.29-24.01-69.19-14.34zm48.47 14.8c33.23 21.38 44.27 41.08 44.27 41.08 3.66 7.08 14 2.15 10.85-5.13-.23-.48-3.49-7.17-13.21-17.38 22.35-5.35 35.96-15.74 69.33 6.09 15.26 10.48 31.96 33.61 24.9 84.31-3.85 27.68-14.88 42.63-26.55 58.46-8.53 11.56-17.34 23.52-23.99 40.8-1.4 3.64-2.99 7.94-4.68 12.5-9.81 26.45-28.06 75.68-43.55 84.23-6.93 3.82-12.77 4.88-15.62 2.84-2.36-1.69-3.24-6.03-2.3-11.33 4.66-25.7 24.86-103.95-17.3-112.94-42.55-6.19-50.72 74.34-55.16 100.06-.94 5.3-3.27 9.07-6.06 9.85-3.37.94-8.48-2.08-13.67-8.05-11.61-13.36-11.78-65.86-11.88-94.07-.02-4.86-.03-9.46-.09-13.36-.58-44.01-23.42-63.5-13.25-110.58 10.86-50.03 34.5-65.99 52.43-70.56 21.49-5.48 35.22-2.27 45.51 3.18z"/><path d="m100.49 263.83c2.07-2.58 1.66-6.36-.92-8.43l-5.08-4.08c-6.36-4.76-13.54 4.17-7.51 9.36 0 0 5.08 4.08 5.08 4.08 2.57 2.07 6.35 1.67 8.44-.92z"/><path d="m103.78 266.46c-2.08 2.58-1.67 6.36.92 8.44l26.69 21.46c2.56 2.07 6.35 1.68 8.44-.92 2.08-2.58 1.67-6.36-.92-8.44l-26.69-21.46c-2.58-2.08-6.36-1.67-8.44.92z"/><path d="m145.89 269.83c4.61.09 7.64-5.36 5.05-9.23 0 0-20.91-32.75-20.91-32.75-4.49-6.54-14.16-.4-10.11 6.46 0 0 20.91 32.75 20.91 32.75 1.14 1.79 3.08 2.77 5.06 2.77z"/><path d="m458.47 259.13-5.93 3.29c-2.9 1.61-3.94 5.26-2.34 8.16 1.62 2.93 5.31 3.93 8.16 2.34 0 0 5.93-3.29 5.93-3.29 6.81-4.09 1.26-14.1-5.82-10.49z"/><path d="m445.97 272.93c-1.61-2.9-5.26-3.94-8.16-2.33l-31.13 17.28c-2.9 1.61-3.94 5.26-2.33 8.16 1.62 2.92 5.32 3.93 8.16 2.33 0 0 31.13-17.28 31.13-17.28 2.9-1.61 3.94-5.26 2.33-8.16z"/><path d="m396.52 271.88c2.3 2.39 6.1 2.45 8.48.15l29.36-28.36c2.38-2.3 2.45-6.1.15-8.48s-6.1-2.45-8.48-.15l-29.36 28.36c-2.38 2.3-2.45 6.1-.15 8.48z"/></svg>