<svg id="svg4593" height="512" viewBox="0 0 16.933333 16.933334" width="512" xmlns="http://www.w3.org/2000/svg" xmlns:svg="http://www.w3.org/2000/svg"><clipPath id="clipPath5337"><path id="rect5339" d="m34.774 274.321h35.435v25.702h-35.435z"/></clipPath><clipPath id="clipPath4542"><path id="rect4544" d="m-535.214-48.848h501.574v185.586h-501.574z"/></clipPath><clipPath id="clipPath11017"><path id="rect11019" d="m36.669 153.503h29.654v28.999h-29.654z" transform="rotate(-90)" vector-effect="none"/></clipPath><clipPath id="clipPath11444"><path id="rect11446" d="m-143.933 265.779h28.84v29.104h-28.84z" transform="rotate(-90)" vector-effect="none"/></clipPath><clipPath id="clipPath11781"><rect id="rect11783" height="32.411" rx=".634" transform="rotate(-90)" width="32.941" x="-145.124" y="181.377"/></clipPath><clipPath id="clipPath11499"><path id="rect11501" d="m-551.399-9.261h16.064v16.347h-16.064z" vector-effect="none"/></clipPath><g id="layer1" transform="translate(0 -280.067)"><g id="g20571" transform="translate(-.419)"><path id="path6616" d="m13.25551 280.30875c-2.12481 0-3.85351 1.72664-3.85351 3.85144 0 2.12482 1.7287 3.85352 3.85351 3.85352 2.12482 0 3.85145-1.7287 3.85145-3.85352 0-2.1248-1.72663-3.85144-3.85145-3.85144zm0 .52917c1.83883 0 3.32228 1.48345 3.32228 3.32227 0 1.83884-1.48345 3.32435-3.32228 3.32435s-3.32383-1.48551-3.32383-3.32435c0-1.83882 1.485-3.32227 3.32383-3.32227zm-.91984 2.15852-.001.2341-.231-.001c-1.30781 0-1.23793 1.85156-.0109 1.85156l.23203.001-.001.22996c0 1.30121 1.85156 1.20557 1.85156.0109l.001-.23151.23564.001c1.27891 0 1.19185-1.85105.009-1.85105-.16657-.001-.33314-.002-.49972-.003-.35732-.007-.36047.53167-.003.52917l.49971.003c.62503 0 .43164.79271-.0196.79271l-.48317-.003c-.14612-.00084-.26526.11692-.26613.26304l-.003.50488c0 .56478-.79323.54068-.79323-.005l.003-.50333c.00056-.14592-.11711-.26475-.26303-.26562l-.50539-.003c-.57918 0-.46243-.79323.005-.79323l.50436.003c.14612.00085.26526-.11691.26613-.26303l.003-.50023c0-.27845.19961-.42272.38499-.42272.1468-.007.2765.0476.3545.21394.14729.32641.63597.0971.47904-.22479-.55313-.92607-1.72042-.46768-1.74769.43202zm-11.25203 2.05621c-.58399 1.3958-.59421 3.34241.19172 5.66218.79797 2.3553 1.22505 3.81418 1.64435 4.72633.34543.7694.89891 1.30937 1.69705 1.31672 1.2795 0 1.6403-1.33467 1.88309-2.33785.18063-.66919.37497-1.9197 1.125-1.93373.84446 0 .95803 1.2412 1.12499 1.93373.23371 1.07974.78584 2.33785 1.88257 2.33785.89987 0 1.38678-.64384 1.69964-1.31672.4193-.91215.84638-2.37103 1.64435-4.72633.23883-.70494.402-1.37525.49971-2.00608.088-.37192-.49372-.46128-.52142-.0801-.0926.59787-.2502 1.23769-.48007 1.91617-.80075 2.36352-1.23746 3.83662-1.62316 4.67568-.25355.58703-.63722 1.00769-1.21905 1.00769-.87342 0-1.1786-1.15717-1.36684-1.93322-.21116-.96836-.35966-2.33784-1.64072-2.33784-1.2147 0-1.40857 1.38102-1.63866 2.33784-.19452.81915-.52779 1.91946-1.36943 1.93322-.67785-.0116-.99505-.53175-1.21646-1.00769-.3857-.83906-.82241-2.31216-1.62316-4.67568-.75642-2.23268-.72171-4.05239-.20515-5.28702.74377-1.70964 3.0298-2.67055 4.38267-1.03715.11477.13929.23008.28517.35916.42478-.28546-.0317-.43711-.0592-.62271-.0966-.34637-.0972-.4336.39273-.18551.4961.5845.17515 1.37452.19382 2.11925.21084.55295 0 .94905-.24053 1.2361-.52917.27052-.24958-.1262-.64466-.37466-.3731-.23124.23255-.44772.3731-.86144.3731-.60888-.0127-.94054-.45122-1.26194-.84181-1.41853-1.85285-4.19224-1.24236-5.27927 1.16789z" fill="#00003a" font-variant-ligatures="normal" font-variant-position="normal" font-variant-caps="normal" font-variant-numeric="normal" font-variant-alternates="normal" font-feature-settings="normal" text-indent="0" text-align="start" text-decoration-line="none" text-decoration-style="solid" text-decoration-color="#000000" text-transform="none" text-orientation="mixed" white-space="normal" shape-padding="0" isolation="auto" mix-blend-mode="normal" solid-color="#000000" solid-opacity="1" vector-effect="none"/></g></g></svg>