<svg id="svg4593" height="512" viewBox="0 0 16.933333 16.933334" width="512" xmlns="http://www.w3.org/2000/svg" xmlns:svg="http://www.w3.org/2000/svg"><clipPath id="clipPath5337"><path id="rect5339" d="m34.774 274.321h35.435v25.702h-35.435z"/></clipPath><clipPath id="clipPath4542"><path id="rect4544" d="m-535.214-48.848h501.574v185.586h-501.574z"/></clipPath><clipPath id="clipPath11017"><path id="rect11019" d="m36.669 153.503h29.654v28.999h-29.654z" transform="rotate(-90)" vector-effect="none"/></clipPath><clipPath id="clipPath11444"><path id="rect11446" d="m-143.933 265.779h28.84v29.104h-28.84z" transform="rotate(-90)" vector-effect="none"/></clipPath><clipPath id="clipPath11781"><rect id="rect11783" height="32.411" rx=".634" transform="rotate(-90)" width="32.941" x="-145.124" y="181.377"/></clipPath><clipPath id="clipPath11499"><path id="rect11501" d="m-551.399-9.261h16.064v16.347h-16.064z" vector-effect="none"/></clipPath><g id="layer1" fill="#00003a" transform="translate(0 -280.067)"><path id="path16913" d="m.52929688 284.55078c-.35286651 0-.35286651.5293 0 .5293h1.16601562c.3528667 0 .3528667-.5293 0-.5293z" font-variant-ligatures="normal" font-variant-position="normal" font-variant-caps="normal" font-variant-numeric="normal" font-variant-alternates="normal" font-feature-settings="normal" text-indent="0" text-align="start" text-decoration-line="none" text-decoration-style="solid" text-decoration-color="#000000" text-transform="none" text-orientation="mixed" white-space="normal" shape-padding="0" isolation="auto" mix-blend-mode="normal" solid-color="#000000" solid-opacity="1" vector-effect="none"/><path id="path16915" d="m4.1269531 280.5957v1.25977c0 .35286.5292969.35286.5292969 0v-1.25977c0-.40132-.5292969-.35955-.5292969 0z" font-variant-ligatures="normal" font-variant-position="normal" font-variant-caps="normal" font-variant-numeric="normal" font-variant-alternates="normal" font-feature-settings="normal" text-indent="0" text-align="start" text-decoration-line="none" text-decoration-style="solid" text-decoration-color="#000000" text-transform="none" text-orientation="mixed" white-space="normal" shape-padding="0" isolation="auto" mix-blend-mode="normal" solid-color="#000000" solid-opacity="1" vector-effect="none"/><path id="path16917" d="m1.2363281 281.75781.890625.73828c.2721332.22526.6100239-.18294.3378907-.4082l-.890625-.73633c-.289601-.21169-.59268231.18067-.3378907.40625z" font-variant-ligatures="normal" font-variant-position="normal" font-variant-caps="normal" font-variant-numeric="normal" font-variant-alternates="normal" font-feature-settings="normal" text-indent="0" text-align="start" text-decoration-line="none" text-decoration-style="solid" text-decoration-color="#000000" text-transform="none" text-orientation="mixed" white-space="normal" shape-padding="0" isolation="auto" mix-blend-mode="normal" solid-color="#000000" solid-opacity="1" vector-effect="none"/><path id="path16919" d="m11.035156 20.357422c-2.2538809 5.087206-2.2926717 12.187128.732422 20.61914 3.066254 8.546722 4.71033 13.834738 6.326172 17.154297 1.364669 2.873838 3.521266 4.752078 6.496094 4.777344 4.585922 0 6.253298-4.737062 7.21875-8.503906.697046-2.580002 1.485053-6.998047 4.339844-6.998047 3.305753 0 3.689803 4.422977 4.347656 6.998047.924239 4.07173 2.630835 8.503906 7.21289 8.503906 3.763843 0 5.268432-2.267599 6.503907-4.777344 1.615838-3.319559 3.259939-8.607575 6.326171-17.154297 3.025115-8.432012 2.984368-15.531934.730469-20.61914-3.394882-7.926533-13.717069-11.439459-20.234375-4.251953-1.43639 1.652739-2.995049 3.045621-4.886718 3.064453-2.311232-.02355-3.615472-1.613841-4.878907-3.064453-6.675382-7.2169829-16.644289-3.636845-20.234375 4.251953zm18.728516-2.9375c.402949.461816.808325.945019 1.253906 1.412109-1.495635-.169272-2.98717-.382122-3.888672-.666015-1.307783-.319595-1.938344 1.632209-.605468 1.912109 2.526043.633098 6.5948 1.305153 10.003906 1.0625 3.226331-.211574 4.415811-1.883438 6.013672-3.720703 5.274918-6.215171 14.61155-2.177372 16.898437 3.75 1.975695 4.459238 2.111356 11.037063-.791015 19.126953-3.077821 8.578961-4.752632 13.921012-6.230469 16.957031-1.005764 2.215866-2.06997 3.634444-4.708985 3.652344-3.229796 0-4.530273-4.090924-5.277343-6.998047-.826901-3.649067-1.726888-8.503906-6.283203-8.503906-4.148421 0-5.371927 4.935245-6.28125 8.503906-.759708 3.134215-2.134687 6.949656-5.277344 6.998047-2.542112.01621-3.834091-1.888143-4.703125-3.652344-1.477845-3.036019-3.16044-8.37807-6.238281-16.957031-2.902354-8.08989-2.756923-14.667715-.78125-19.126953 3.003147-6.389362 11.636753-9.744867 16.896484-3.75z" transform="matrix(.265 0 0 .265 0 280.067)" font-variant-ligatures="normal" font-variant-position="normal" font-variant-caps="normal" font-variant-numeric="normal" font-variant-alternates="normal" font-feature-settings="normal" text-indent="0" text-align="start" text-decoration-line="none" text-decoration-style="solid" text-decoration-color="#000000" text-transform="none" text-orientation="mixed" white-space="normal" shape-padding="0" isolation="auto" mix-blend-mode="normal" solid-color="#000000" solid-opacity="1" vector-effect="none"/></g></svg>