<svg id="svg4593" height="512" viewBox="0 0 16.933333 16.933334" width="512" xmlns="http://www.w3.org/2000/svg" xmlns:svg="http://www.w3.org/2000/svg"><clipPath id="clipPath5337"><path id="rect5339" d="m34.774 274.321h35.435v25.702h-35.435z"/></clipPath><clipPath id="clipPath4542"><path id="rect4544" d="m-535.214-48.848h501.574v185.586h-501.574z"/></clipPath><clipPath id="clipPath11017"><path id="rect11019" d="m36.669 153.503h29.654v28.999h-29.654z" transform="rotate(-90)" vector-effect="none"/></clipPath><clipPath id="clipPath11444"><path id="rect11446" d="m-143.933 265.779h28.84v29.104h-28.84z" transform="rotate(-90)" vector-effect="none"/></clipPath><clipPath id="clipPath11781"><rect id="rect11783" height="32.411" rx=".634" transform="rotate(-90)" width="32.941" x="-145.124" y="181.377"/></clipPath><clipPath id="clipPath11499"><path id="rect11501" d="m-551.399-9.261h16.064v16.347h-16.064z" vector-effect="none"/></clipPath><g id="layer1" transform="translate(0 -280.067)"><path id="path18253-9" d="m9.9895709 281.5818c-.2348098.28496-.4353549.54631-.6619751.72451-.5517798.35781-1.2197429.38824-1.722892 0-.2266201-.1782-.4271653-.43954-.6619753-.72451-2.1391634-2.45373-5.4312623-.81328-6.19703758 1.37666-.67314 1.60887-.69969102 3.84589.17104899 6.51278.0989999.36959.60676459.12927.53588459-.15658-.84578999-2.58231-.79800978-4.69583-.1932699-6.14122.7066878-1.89979 3.5006918-3.34265 5.2518758-1.23662.15876.19267.3168782.3952.501778.58188-.4433898-.0555-.3680845-.0297-1.3590899-.26149-.3430796-.0786-.4087212.41953-.1467612.50798.9904259.26052 3.0753568.81536 4.1640868-.0217.3034702-.23863.5229549-.53323.7482749-.80667 1.539194-1.78199 4.280206-1.02922 5.251876 1.23662.61662 1.47378.658114 3.64086-.240296 6.29264-.94884 2.80061-1.46667 4.54413-1.92598 5.54333-.346424.7363-.634913 1.21181-1.53324 1.21181v-5.73402c0-4.13068-7.0393447-4.20839-7.1117105 0v5.73505c-.3568396-.0113-.6157119-.13921-.8331279-.33643.0002646-1.93692.0001034-3.90137.0001034-5.84769 0-.77565-.2954266-1.78733-.6599081-2.71194-.5136073-1.34104.4823309-2.21989 1.5275598-1.83711 2.5749411.97337 4.9762044.59802 7.1210123.008 1.264062-.14875 1.916518.8751 1.550293 1.82934-.611382 1.51147-.659908 2.70165-.659908 2.70165-.000002 1.35302 0 2.70803 0 4.06176-.005.35778.534207.35778.529166 0v-4.04109s.04242-1.09185.621668-2.52388c.651336-1.78926-.826444-2.95715-2.197799-2.53318-2.0158086.62732-4.9047895.75892-6.7628942.009-1.7839439-.5952-2.8639929 1.05878-2.2143351 2.53577.3120447.7561.6159874 1.67053.6159874 2.51198v5.1046c-.4627354-.83893-1.2574873-3.46652-1.7368471-4.90513-.0888-.33159-.6458228-.26258-.5265829.18242.77068 2.31011 1.2410818 3.84665 1.6846517 4.81159.4041701.90032 1.0513147 1.53893 1.9828248 1.53893.7267199 0 1.2452783-.39834 1.5621785-.92605.6527999-1.11124.6061758-2.39225 1.1425658-3.49797.4785-.86991 1.3552982-.7122 1.7187582 0 .5184 1.14926.5422358 2.47122 1.1425659 3.49797.31691.52771.835975.92605 1.562695.92605 1.05194 0 1.617708-.75472 1.982308-1.53893.49473-1.07626.999718-2.80617 1.945618-5.59811.92953-2.7436.916129-5.04168.22841-6.68538-1.047671-2.5323-4.386598-3.6421-6.1975611-1.37662zm1.4531411 8.9054v5.60069c-.20093-.11063-.355126-.28512-.496093-.51986-.60066-1.10956-.605139-2.3973-1.1229294-3.46129-.6238798-1.25126-2.0749405-1.23748-2.7150795 0-.55675 1.12537-.514009 2.41699-1.122929 3.46129-.1637501.27267-.3437861.46557-.5963459.56896v-5.64979c.1738154-3.51594 6.0002658-3.24538 6.0533768 0z" fill="#00003a" font-variant-ligatures="normal" font-variant-position="normal" font-variant-caps="normal" font-variant-numeric="normal" font-variant-alternates="normal" font-feature-settings="normal" text-indent="0" text-align="start" text-decoration-line="none" text-decoration-style="solid" text-decoration-color="#000000" text-transform="none" text-orientation="mixed" white-space="normal" shape-padding="0" isolation="auto" mix-blend-mode="normal" solid-color="#000000" solid-opacity="1" vector-effect="none"/></g></svg>