<svg id="svg4593" height="512" viewBox="0 0 16.933333 16.933334" width="512" xmlns="http://www.w3.org/2000/svg" xmlns:svg="http://www.w3.org/2000/svg"><clipPath id="clipPath5337"><path id="rect5339" d="m34.774 274.321h35.435v25.702h-35.435z"/></clipPath><clipPath id="clipPath4542"><path id="rect4544" d="m-535.214-48.848h501.574v185.586h-501.574z"/></clipPath><clipPath id="clipPath11017"><path id="rect11019" d="m36.669 153.503h29.654v28.999h-29.654z" transform="rotate(-90)" vector-effect="none"/></clipPath><clipPath id="clipPath11444"><path id="rect11446" d="m-143.933 265.779h28.84v29.104h-28.84z" transform="rotate(-90)" vector-effect="none"/></clipPath><clipPath id="clipPath11781"><rect id="rect11783" height="32.411" rx=".634" transform="rotate(-90)" width="32.941" x="-145.124" y="181.377"/></clipPath><clipPath id="clipPath11499"><path id="rect11501" d="m-551.399-9.261h16.064v16.347h-16.064z" vector-effect="none"/></clipPath><g id="layer1" transform="translate(0 -280.067)"><g id="g20571" transform="translate(-.419)"><path id="path37404" d="m46.894531 1.0039062c-1.325471 0-1.209121 2.0327848.0957 2h4.126954v13.2792968h-6.185547c-2.039479.000038-3.712891 1.673382-3.712891 3.712891v1.646484c-.000038 2.039509 1.673367 3.712891 3.712891 3.712891h12.880862v13.074219c0 3.487013-3.334253 8.52539-5.699219 8.52539-2.333203 0-5.691406-5.021638-5.691406-8.52539v-10.238282c0-1.333644-2-1.333644-2 0v10.238282c0 4.051196 2.847114 9.293199 6.695313 10.384765v11.185547c-.03026 1.363256 2.030258 1.363256 2 0v-11.191406c3.834529-1.237541 6.695312-6.368308 6.695312-10.378906v-13.126954c1.79969-.252492 3.205082-1.794647 3.205078-3.660156v-1.646484c0-2.039509-1.673387-3.712891-3.71289-3.712891h-6.1875v-13.2792968h4.126953c1.363604.030615 1.363604-2.03061471 0-2-3.616887-.0167784-7.259941-.0005182-10.34961 0zm-7.388672 9.3066408c-2.769192.07062-5.422935 1.288233-7.492187 4.121094-1.27673 1.708559-2.892059 3.159865-4.777344 3.179687-2.300597-.04783-3.55375-1.704549-4.767578-3.179687-5.391605-7.1312536-16.8125284-4.135259-19.953125 4.414062-2.20721458 5.275465-2.24779819 12.632756.7226562 21.400391 3.0159395 8.901921 4.6242421 14.415747 6.2089844 17.863281 1.3078894 2.906554 3.1641424 4.974609 6.4218754 4.974609 4.685665 0 6.19785-5.045407 7.115234-8.835937.682684-2.528973 1.378102-7.306641 4.251953-7.306641 2.960216 0 3.62109 4.690086 4.251953 7.306641.883305 4.081758 2.646015 8.835937 7.117188 8.835937 2.500893 0 4.075413-.954064 5.402343-3.054687 1.326932-2.100624 2.422633-5.282769 4.06836-10.253906.510803-1.309485-1.52614-1.982871-1.896484-.626953-1.640675 4.955904-2.768913 8.081148-3.861329 9.810546-1.092412 1.729361-1.896264 2.125-3.71289 2.125-3.232322 0-4.456086-4.37358-5.167969-7.308593-.798121-3.659941-1.791037-8.835938-6.201172-8.835938-4.298201 0-5.32384 5.220611-6.193359 8.835938-.735117 3.095436-1.993718 7.256585-5.173828 7.308593-2.563038-.04364-3.762453-2.00904-4.59961-3.808593-1.4577485-3.171251-3.1141575-8.738886-6.1406248-17.671875-2.8589373-8.438476-2.719932-15.316104-.7675781-19.982422 2.8749527-6.648742 11.4447019-10.0929393 16.5566409-3.919922.423706.566845.887222 1.099022 1.382812 1.580078-1.575233-.179852-3.038925-.519586-3.943359-.746094-1.368716-.299851-1.66144 1.472585-.716797 1.867188 3.254057.924196 6.102515 1.094252 9.455078 1.216797 3.352092 0 5.014666-2.169726 6.460938-3.917969 3.19913-4.455949 8.780386-4.202571 12.902343-1.056641 1.05868.918524 2.377212-.763596 1.232422-1.572265-2.53171-1.755949-5.416354-2.832335-8.185547-2.761719zm5.425782 7.972656h14.373047c.966118 0 1.710937.746768 1.710937 1.712891v1.646484c.000004.966123-.744819 1.712891-1.710937 1.712891h-14.373047c-.966101 0-1.71291-.746844-1.712891-1.712891v-1.646484c0-.966085.746794-1.712891 1.712891-1.712891z" fill="#00003a" transform="matrix(.265 0 0 .265 .419 280.067)" font-variant-ligatures="normal" font-variant-position="normal" font-variant-caps="normal" font-variant-numeric="normal" font-variant-alternates="normal" font-feature-settings="normal" text-indent="0" text-align="start" text-decoration-line="none" text-decoration-style="solid" text-decoration-color="#000000" text-transform="none" text-orientation="mixed" white-space="normal" shape-padding="0" isolation="auto" mix-blend-mode="normal" solid-color="#000000" solid-opacity="1" vector-effect="none"/></g></g></svg>