<svg id="svg4593" height="512" viewBox="0 0 16.933333 16.933334" width="512" xmlns="http://www.w3.org/2000/svg" xmlns:svg="http://www.w3.org/2000/svg"><clipPath id="clipPath5337"><path id="rect5339" d="m34.774 274.321h35.435v25.702h-35.435z"/></clipPath><clipPath id="clipPath4542"><path id="rect4544" d="m-535.214-48.848h501.574v185.586h-501.574z"/></clipPath><clipPath id="clipPath11017"><path id="rect11019" d="m36.669 153.503h29.654v28.999h-29.654z" transform="rotate(-90)" vector-effect="none"/></clipPath><clipPath id="clipPath11444"><path id="rect11446" d="m-143.933 265.779h28.84v29.104h-28.84z" transform="rotate(-90)" vector-effect="none"/></clipPath><clipPath id="clipPath11781"><rect id="rect11783" height="32.411" rx=".634" transform="rotate(-90)" width="32.941" x="-145.124" y="181.377"/></clipPath><clipPath id="clipPath11499"><path id="rect11501" d="m-551.399-9.261h16.064v16.347h-16.064z" vector-effect="none"/></clipPath><g id="layer1" transform="translate(0 -280.067)"><g id="g20571" transform="translate(-.419)"><path id="rect4368" d="m17.515625 1.0039062c-2.502967 0-4.548828 2.0438829-4.548828 4.546875v43.5078128c0 1.334635 2.001953 1.334635 2.001953 0v-43.5078128c0-1.4295685 1.117306-2.546875 2.546875-2.546875h28.966797c1.429568 0 2.544922 1.1173065 2.544922 2.546875v47.0742188h-35.058594c-.552262.000055-.999945.447738-1 1v4.826172c0 2.502803 2.04599 4.548828 4.548828 4.548828h28.964844c2.502837 0 4.548828-2.046025 4.548828-4.548828-.0046-17.630146-.002-35.266835-.002-52.9003908 0-2.5029921-2.043909-4.546875-4.546875-4.546875zm2.125 18.7851558c-1.139361 2.571629-1.131148 6.066119.332031 10.144532 1.447227 4.033965 2.211083 6.519287 3.011719 8.164062.773902 1.663112 1.912013 2.560547 3.550781 2.560547 2.744976 0 3.521193-2.990337 4.177735-5.410156.439624-1.33094-1.620845-1.899345-1.925782-.53125-.358302 1.85771-.97194 3.941406-2.251953 3.941406-1.029379-.006-1.369391-.792272-1.755859-1.431641-.662636-1.36131-1.465015-3.906413-2.923828-7.972656-1.340438-3.736252-1.251777-6.708646-.390625-8.652344 1.289151-3.181513 5.237103-4.200133 7.115234-1.638671.108776.124672.232068.264391.351563.40039-.199824-.01447-.390035-.03876-.564453-.08203-1.30889-.344755-1.799071 1.635896-.480469 1.941406 2.975155.60606 5.634807.117018 7.537109-2.259767 2.322753-2.75309 5.960822-1.005284 7.107422 1.638671.861165 1.943698.957627 4.916092-.382812 8.652344-1.458811 4.066243-2.269007 6.611346-2.931641 7.972656-.403022.992157-.962214 1.431641-1.748047 1.431641-1.452321 0-1.688464-1.758505-1.986328-2.916015-.434848-1.978935-1.450395-4.362739-3.484375-4.414063-1.363604-.03062-1.363604 2.030615 0 2 1.16405 0 1.280184 1.88014 1.542969 2.908203.49824 2.157996 1.443822 4.421875 3.927734 4.421875 1.831509 0 2.860837-1.159109 3.550781-2.560547.800633-1.644775 1.564493-4.130097 3.011719-8.164062 1.46318-4.078413 1.471411-7.572903.332031-10.144532-1.900404-3.828528-7.546666-5.923168-10.453125-2.146484-1.28827 1.877873-2.521485 1.706135-3.824218 0-3.134591-3.674599-8.512579-1.981251-10.445313 2.146485zm-4.671875 34.835938h34.0625v3.826172c0 1.429682-1.119131 2.548828-2.548828 2.548828h-28.964844c-1.429698 0-2.548828-1.119146-2.548828-2.548828zm14.0625 2.185547c-1.362434-.02942-1.362434 2.029419 0 2h5.933594c1.362434.02942 1.362434-2.029419 0-2z" fill="#00003a" transform="matrix(.265 0 0 .265 .419 280.067)" font-variant-ligatures="normal" font-variant-position="normal" font-variant-caps="normal" font-variant-numeric="normal" font-variant-alternates="normal" font-feature-settings="normal" text-indent="0" text-align="start" text-decoration-line="none" text-decoration-style="solid" text-decoration-color="#000000" text-transform="none" text-orientation="mixed" white-space="normal" shape-padding="0" isolation="auto" mix-blend-mode="normal" solid-color="#000000" solid-opacity="1" vector-effect="none"/></g></g></svg>