<svg id="svg4593" height="512" viewBox="0 0 16.933333 16.933334" width="512" xmlns="http://www.w3.org/2000/svg" xmlns:svg="http://www.w3.org/2000/svg"><clipPath id="clipPath5337"><path id="rect5339" d="m34.774 274.321h35.435v25.702h-35.435z"/></clipPath><clipPath id="clipPath4542"><path id="rect4544" d="m-535.214-48.848h501.574v185.586h-501.574z"/></clipPath><clipPath id="clipPath11017"><path id="rect11019" d="m36.669 153.503h29.654v28.999h-29.654z" transform="rotate(-90)" vector-effect="none"/></clipPath><clipPath id="clipPath11444"><path id="rect11446" d="m-143.933 265.779h28.84v29.104h-28.84z" transform="rotate(-90)" vector-effect="none"/></clipPath><clipPath id="clipPath11781"><rect id="rect11783" height="32.411" rx=".634" transform="rotate(-90)" width="32.941" x="-145.124" y="181.377"/></clipPath><clipPath id="clipPath11499"><path id="rect11501" d="m-551.399-9.261h16.064v16.347h-16.064z" vector-effect="none"/></clipPath><g id="layer1" transform="translate(0 -280.067)"><g id="g20571" fill="#00003a" transform="matrix(.265 0 0 .265 0 280.067)"><path id="path6616" d="m48.517578.9140625c-8.030778 0-14.564453 6.5259005-14.564453 14.5566405 0 8.030816 6.533675 14.564453 14.564453 14.564453 8.030816 0 14.556641-6.533637 14.556641-14.564453 0-8.03074-6.525825-14.5566405-14.556641-14.5566405zm0 2c6.949909 0 12.556641 5.6067698 12.556641 12.5566405 0 6.949947-5.606732 12.564453-12.556641 12.564453s-12.5625-5.614506-12.5625-12.564453c0-6.9498707 5.612591-12.5566405 12.5625-12.5566405zm-46.0039061 15.9316405c-2.20651928 5.275348-2.24552288 12.631723.7246093 21.398438 3.0159497 8.901921 4.6300879 14.415785 6.2148438 17.863281 1.305562 2.907968 3.39747 4.950736 6.414063 4.978516 4.835905 0 6.199556-5.046345 7.117187-8.837891.682696-2.529222 1.417194-7.255567 4.251953-7.308594 3.19166 0 3.620923 4.691158 4.251953 7.308594.883314 4.080907 2.970113 8.837891 7.115235 8.837891 3.401083 0 5.241365-2.435348 6.423828-4.978516 2.448215-6.070419 6.515777-17.443811 8.103515-25.445313.332599-1.405682-1.86601-1.743414-1.970703-.302734-2.114531 9.04041-4.90719 17.351631-7.949218 24.914063-.9583 2.218696-2.40838 3.808593-4.607422 3.808593-3.301115 0-4.454558-4.373538-5.166016-7.30664-.798085-3.659944-1.35937-8.835938-6.201172-8.835938-4.590992 0-5.323728 5.21961-6.193359 8.835938-.735194 3.096-1.99478 7.254634-5.175781 7.30664-2.561953-.04384-3.760832-2.009765-4.597657-3.808593-1.4577635-3.171251-3.1083087-8.738887-6.1347654-17.671876-2.8589102-8.438475-2.7277434-15.316103-.7753906-19.982421 2.8110992-6.461632 11.451244-10.0934026 16.564453-3.919922.433777.52645.869561 1.077809 1.357422 1.605469-1.078904-.119812-1.652035-.221927-2.353516-.363282-1.607426-.400516-1.915048 1.650038-.701172 1.875 1.35531.251991 9.518613 1.908712 12.681641-1.203125 1.022438-.943294-.476954-2.436525-1.416015-1.410156-.873978.878929-1.692194 1.410156-3.25586 1.410156-2.301279-.048-3.554791-1.705395-4.769531-3.18164-6.590591-8.0398236-17.3209377-2.914201-19.9531251 4.414062z" font-variant-ligatures="normal" font-variant-position="normal" font-variant-caps="normal" font-variant-numeric="normal" font-variant-alternates="normal" font-feature-settings="normal" text-indent="0" text-align="start" text-decoration-line="none" text-decoration-style="solid" text-decoration-color="#000000" text-transform="none" text-orientation="mixed" white-space="normal" shape-padding="0" isolation="auto" mix-blend-mode="normal" solid-color="#000000" solid-opacity="1" vector-effect="none"/><path id="path4456" d="m50.601562 7.2636719-.0059.9707031c-.10424.014793-.209362.024642-.3125.046875-1.304687.2799479-.884765 2.236979.419922 1.957031 2.457229-.4783442 3.89942 2.420877 2.275378 4.15625-.327837.325796-.739508.55356-1.189454.65625-.522894.11982-.858123.630851-.759765 1.158203.244611 1.34487-.186002 2.716715-1.152344 3.683594-1.63454 1.633739-4.256716 1.634381-5.890625 0-1.633311-1.634116-1.633311-4.248696 0-5.882812.966308-.96412 2.340558-1.39601 3.683594-1.152344 1.320576.246769 1.679039-1.740529.355469-1.970703-.763639-.138526-1.534639-.125585-2.275337.019531l-.265625-.800781c-.350503-1.3080966-2.297637-.8623583-1.896484.634765l.289062.867188c-.423876.242481-.819976.538003-1.181641.880859l-.5625-.523437c-1.024534-1.024534-2.342179.483992-1.357421 1.46875l.697265.648437c-.297729.568366-.497067 1.173577-.605468 1.792969l-1-.07227c-1.254124-.128039-1.460107 1.933117-.132813 2.001954l1.113281.07031c.122851.814719.407127 1.607502.855469 2.328125l-.757813.746094c-.995262.934255.447714 2.407376 1.402344 1.43164l.673828-.667968c.801231.65682 1.732264 1.081524 2.701172 1.273437l-.06836.945313c-.125156 1.360316 1.933572 1.50507 2 .140625l.06641-1.023438c1.048092-.13324 2.065558-.532336 2.943359-1.201172l.763672.710938c.980903.958607 2.390218-.566292 1.357422-1.46875l-.789062-.726563c.216979-.389228.374393-.807044.486328-1.242187.389991.0406.787195.07969 1.179687.11914 1.384746.204169 1.593318-1.919095.195313-1.988281l-1.144531-.115234c-.0085-.12581.0041-.286216.0058-.402344 1.357824-.459389 2.015771-1.021963 2.544922-2.207031l.998047.183594c1.307145.227423 1.659695-1.727097.355469-1.970704l-.933594-.171875c-.01325-.731258-.216463-1.451816-.583985-2.105468l.793025-.7792912c1.078664-1.0786643-.326296-2.4998761-1.402344-1.4238282l-.732422.71875c-.366036-.252295-.760457-.4446992-1.171874-.5761718l.0078-1.1308594c.04557-1.2658787-1.92349-1.4118445-1.992176-.00781z" font-variant-ligatures="normal" font-variant-position="normal" font-variant-caps="normal" font-variant-numeric="normal" font-variant-alternates="normal" font-feature-settings="normal" text-indent="0" text-align="start" text-decoration-line="none" text-decoration-style="solid" text-decoration-color="#000000" text-transform="none" text-orientation="mixed" white-space="normal" shape-padding="0" isolation="auto" mix-blend-mode="normal" solid-color="#000000" solid-opacity="1" vector-effect="none"/></g></g></svg>