<svg id="svg4593" height="512" viewBox="0 0 16.933333 16.933334" width="512" xmlns="http://www.w3.org/2000/svg" xmlns:svg="http://www.w3.org/2000/svg"><clipPath id="clipPath5337"><path id="rect5339" d="m34.774 274.321h35.435v25.702h-35.435z"/></clipPath><clipPath id="clipPath4542"><path id="rect4544" d="m-535.214-48.848h501.574v185.586h-501.574z"/></clipPath><clipPath id="clipPath11017"><path id="rect11019" d="m36.669 153.503h29.654v28.999h-29.654z" transform="rotate(-90)" vector-effect="none"/></clipPath><clipPath id="clipPath11444"><path id="rect11446" d="m-143.933 265.779h28.84v29.104h-28.84z" transform="rotate(-90)" vector-effect="none"/></clipPath><clipPath id="clipPath11781"><rect id="rect11783" height="32.411" rx=".634" transform="rotate(-90)" width="32.941" x="-145.124" y="181.377"/></clipPath><clipPath id="clipPath11499"><path id="rect11501" d="m-551.399-9.261h16.064v16.347h-16.064z" vector-effect="none"/></clipPath><g id="layer1" fill="#00003a" transform="translate(0 -280.067)"><path id="path18253" d="m2.8203125 10.929688c-2.59147102 6.193887-2.65528264 14.847194.8261719 25.175781.2971527 1.108989 2.3905695.76821 2.0292968-.580078-.538426-1.589239-.9782208-3.127122-1.34375-4.621094 4.8280331-1.737636 6.7776478-1.91187 8.4140628 4.195312.80101 2.670048 1.75739 5.863593 4.705078 7.244141 3.102821 1.34496 6.874494 1.894638 8.957031 4.242188-1.613057 3.98511-1.673461 8.383737-3.783203 12.001953-.956447 1.592617-2.050639 2.480468-4.095703 2.480468-3.083868-.01134-4.575101-2.444231-5.574219-4.591797-1.442328-3.137689-3.2282665-8.756054-5.7949218-16.488281-.4376123-1.633192-2.5425202-1.191168-2.1054687.347657 2.6847864 8.084079 4.3798478 13.537528 5.9804685 17.019531 1.527572 3.402784 3.973473 5.816406 7.494141 5.816406 2.746658 0 4.706564-1.505506 5.904297-3.5 2.467275-4.199962 2.291058-9.041604 4.318359-13.220703 1.808504-3.287849 5.122387-2.69178 6.496094 0 1.959307 4.34366 2.049395 9.340073 4.318359 13.220703 1.19777 1.994494 3.159592 3.5 5.90625 3.5 3.975836 0 6.114172-2.852463 7.492188-5.816406 1.869845-4.067755 3.77846-10.605994 7.353515-21.158203 3.513185-10.369512 3.462538-19.055174.863282-25.267578-3.120832-8.8281096-16.444875-14.3414289-23.423829-5.2031255-3.411441 4.7124365-7.465418 5.2566365-11.515624 0-6.889315-9.1359926-20.2463665-3.726548-23.4218755 5.2031255zm56.4121095.8125c3.296508 8.413986 1.771439 15.809191-.908203 23.783203-3.586167 10.584977-5.543322 17.174673-7.279297 20.951171-1.155553 2.673601-2.964883 4.572597-5.572266 4.591797-2.045064 0-3.141247-.887851-4.097656-2.480468-2.270211-4.193613-2.287139-9.060652-4.244141-13.082032-2.211681-4.435771-7.17367-4.664491-9.777343-.816406-2.546802-2.480124-6.195403-2.847631-9.054688-4.158203-1.989812-.931918-2.845932-3.363365-3.638672-6.005859-1.572169-7.101954-5.1071787-7.562972-10.7714841-5.603516-1.4155444-7.038959-.9219365-12.889442.8730469-17.179687 3.5146955-7.5240592 13.5122112-12.32113536 19.8496092-4.6738286.600038.7282015 1.40078 1.6186565 2.099609 2.3242187-.613299-.037889-2.969311-.3467621-5.167968-1.2070312-1.593553-.4690748-1.716648 1.6793716-.726563 2.0136721 3.227717 1.062765 11.623434 3.081652 15.738282-.08203 2.729399-2.1784094 4.674719-6.2859138 7.654296-6.7089849-2.778597 5.9560904-2.784602 12.1255539 2.417969 16.2441409 6.343046 4.201844 2.230243 9.494649 8.470703 13.685547 1.126447.722759 2.205806-.97283 1.074219-1.6875-5.320766-3.790826-1.07718-8.061487-8.179687-13.458985-4.743824-4.379342-4.254773-9.6815229-1.226563-15.0292966 5.585037-.3043826 10.612207 4.4707296 12.466797 8.5800776z" transform="matrix(.265 0 0 .265 0 280.067)" font-variant-ligatures="normal" font-variant-position="normal" font-variant-caps="normal" font-variant-numeric="normal" font-variant-alternates="normal" font-feature-settings="normal" text-indent="0" text-align="start" text-decoration-line="none" text-decoration-style="solid" text-decoration-color="#000000" text-transform="none" text-orientation="mixed" white-space="normal" shape-padding="0" isolation="auto" mix-blend-mode="normal" solid-color="#000000" solid-opacity="1" vector-effect="none"/><path id="path7515" d="m2.8027344 290.46875c-.3542667 0-.3255225.54753.027344.5293h.2578125c.3528665 0 .3528665-.5293 0-.5293-.093771-.00002-.1935931 0-.2851565 0z" font-variant-ligatures="normal" font-variant-position="normal" font-variant-caps="normal" font-variant-numeric="normal" font-variant-alternates="normal" font-feature-settings="normal" text-indent="0" text-align="start" text-decoration-line="none" text-decoration-style="solid" text-decoration-color="#000000" text-transform="none" text-orientation="mixed" white-space="normal" shape-padding="0" isolation="auto" mix-blend-mode="normal" solid-color="#000000" solid-opacity="1" vector-effect="none"/><path id="path7517" d="m4.7207031 291.91797c-.3516807 0-.3255225.54753.027344.5293h.2558593c.3528667 0 .3528667-.5293 0-.5293-.093124-.00002-.1922854 0-.2832033 0z" font-variant-ligatures="normal" font-variant-position="normal" font-variant-caps="normal" font-variant-numeric="normal" font-variant-alternates="normal" font-feature-settings="normal" text-indent="0" text-align="start" text-decoration-line="none" text-decoration-style="solid" text-decoration-color="#000000" text-transform="none" text-orientation="mixed" white-space="normal" shape-padding="0" isolation="auto" mix-blend-mode="normal" solid-color="#000000" solid-opacity="1" vector-effect="none"/><path id="path7519" d="m3.7421875 293.32031c-.3528665 0-.3528665.5293 0 .5293h.2558594c.3528667 0 .3528667-.5293 0-.5293z" font-variant-ligatures="normal" font-variant-position="normal" font-variant-caps="normal" font-variant-numeric="normal" font-variant-alternates="normal" font-feature-settings="normal" text-indent="0" text-align="start" text-decoration-line="none" text-decoration-style="solid" text-decoration-color="#000000" text-transform="none" text-orientation="mixed" white-space="normal" shape-padding="0" isolation="auto" mix-blend-mode="normal" solid-color="#000000" solid-opacity="1" vector-effect="none"/><path id="path7521" d="m13.279297 282.16602c-.352538.0185-.325198.54781.02734.52929h.257812c.35286 0 .35286-.52929 0-.52929-.09377-.00002-.19359 0-.285152 0z" font-variant-ligatures="normal" font-variant-position="normal" font-variant-caps="normal" font-variant-numeric="normal" font-variant-alternates="normal" font-feature-settings="normal" text-indent="0" text-align="start" text-decoration-line="none" text-decoration-style="solid" text-decoration-color="#000000" text-transform="none" text-orientation="mixed" white-space="normal" shape-padding="0" isolation="auto" mix-blend-mode="normal" solid-color="#000000" solid-opacity="1" vector-effect="none"/><path id="path7523" d="m15.023438 285.80273c-.352826.017-.327436.54626.02539.5293h.257813c.352867 0 .352867-.5293 0-.5293-.09318-.00002-.192084 0-.283203 0z" font-variant-ligatures="normal" font-variant-position="normal" font-variant-caps="normal" font-variant-numeric="normal" font-variant-alternates="normal" font-feature-settings="normal" text-indent="0" text-align="start" text-decoration-line="none" text-decoration-style="solid" text-decoration-color="#000000" text-transform="none" text-orientation="mixed" white-space="normal" shape-padding="0" isolation="auto" mix-blend-mode="normal" solid-color="#000000" solid-opacity="1" vector-effect="none"/><path id="path7525" d="m14.849609 283.83789c-.352867 0-.352867.5293 0 .5293h.257813c.352867 0 .352867-.5293 0-.5293z" font-variant-ligatures="normal" font-variant-position="normal" font-variant-caps="normal" font-variant-numeric="normal" font-variant-alternates="normal" font-feature-settings="normal" text-indent="0" text-align="start" text-decoration-line="none" text-decoration-style="solid" text-decoration-color="#000000" text-transform="none" text-orientation="mixed" white-space="normal" shape-padding="0" isolation="auto" mix-blend-mode="normal" solid-color="#000000" solid-opacity="1" vector-effect="none"/><path id="path7538" d="m13.201172 283.76758c-.352867 0-.352867.5293 0 .5293h.257812c.352867 0 .352867-.5293 0-.5293z" font-variant-ligatures="normal" font-variant-position="normal" font-variant-caps="normal" font-variant-numeric="normal" font-variant-alternates="normal" font-feature-settings="normal" text-indent="0" text-align="start" text-decoration-line="none" text-decoration-style="solid" text-decoration-color="#000000" text-transform="none" text-orientation="mixed" white-space="normal" shape-padding="0" isolation="auto" mix-blend-mode="normal" solid-color="#000000" solid-opacity="1" vector-effect="none"/><path id="path7540" d="m5.1914062 294.23242c-.3528665 0-.3528665.5293 0 .5293h.2578126c.3528667 0 .3528667-.5293 0-.5293z" font-variant-ligatures="normal" font-variant-position="normal" font-variant-caps="normal" font-variant-numeric="normal" font-variant-alternates="normal" font-feature-settings="normal" text-indent="0" text-align="start" text-decoration-line="none" text-decoration-style="solid" text-decoration-color="#000000" text-transform="none" text-orientation="mixed" white-space="normal" shape-padding="0" isolation="auto" mix-blend-mode="normal" solid-color="#000000" solid-opacity="1" vector-effect="none"/></g></svg>