<svg id="svg4593" height="512" viewBox="0 0 16.933333 16.933334" width="512" xmlns="http://www.w3.org/2000/svg" xmlns:svg="http://www.w3.org/2000/svg"><clipPath id="clipPath5337"><path id="rect5339" d="m34.774 274.321h35.435v25.702h-35.435z"/></clipPath><clipPath id="clipPath4542"><path id="rect4544" d="m-535.214-48.848h501.574v185.586h-501.574z"/></clipPath><clipPath id="clipPath11017"><path id="rect11019" d="m36.669 153.503h29.654v28.999h-29.654z" transform="rotate(-90)" vector-effect="none"/></clipPath><clipPath id="clipPath11444"><path id="rect11446" d="m-143.933 265.779h28.84v29.104h-28.84z" transform="rotate(-90)" vector-effect="none"/></clipPath><clipPath id="clipPath11781"><rect id="rect11783" height="32.411" rx=".634" transform="rotate(-90)" width="32.941" x="-145.124" y="181.377"/></clipPath><clipPath id="clipPath11499"><path id="rect11501" d="m-551.399-9.261h16.064v16.347h-16.064z" vector-effect="none"/></clipPath><g id="layer1" transform="translate(0 -280.067)"><path id="path18253-6" d="m.74629 282.95851c-.68566 1.6388-.70254 3.92832.2186 6.6611.0786.29341.6325.20325.53691-.15348-.89841-2.65178-.85845-4.81886-.24184-6.29264.92993-1.99074 3.5751-3.25997 5.25187-1.23662.15876.19267.31688.3952.50178.58188-.44339-.0555-.92619-.13723-1.35909-.26149-.36375-.0745-.40872.41953-.14676.50798.854.28119 3.07537.81536 4.16409-.0217.30347-.23863.52295-.53323.74827-.80667 1.83512-2.04188 4.54555-.62805 5.25188 1.23662.42082 1.0058.57348 2.33486.34261 3.92017h-5.2958v-.83974c0-.73212-.59804-1.32808-1.33015-1.32808h-2.20865c-.7321 0-1.3286.59597-1.3286 1.32808v.83974h-3.94911c-.35313 0-.35313.52969 0 .52969h3.94911v.83974c0 .73211.5965 1.33015 1.3286 1.33015h2.20865c.73211 0 1.33015-.59804 1.33015-1.33015.008-.3607-.53717-.3607-.52916 0 0 .44811-.35289.80047-.80099.80047h-2.20865c-.4481 0-.80098-.35236-.80098-.80047v-2.20917c0-.44811.35288-.79891.80098-.79891h2.20865c.4481 0 .80099.3508.80099.79891v1.10536c.0001.15175.12753.27233.27905.26407h5.45548c-.11254.58394-.27425 1.19865-.49248 1.84278-.94884 2.80061-1.46667 4.54413-1.92598 5.54333-.30574.70739-.78446 1.20983-1.47433 1.21491-.54109 0-.83112-.23491-1.08417-.65629-.60066-1.10956-.60514-2.39729-1.12293-3.46128-.62388-1.25126-2.07494-1.23748-2.71508 0-.55675 1.12536-.51401 2.41698-1.12293 3.46128-.25306.42138-.54256.65629-1.08365.65629-.81594-.003-1.2105-.6467-1.47485-1.21491-.38161-.83018-.85414-2.31671-1.53323-4.36252-.11579-.43212-.67271-.31517-.55708.092.71035 2.13891 1.15884 3.5818 1.58234 4.50308.40417.90032 1.05131 1.53892 1.98282 1.53892.72672 0 1.24528-.39833 1.56218-.92604.6528-1.11124.60617-2.39226 1.14256-3.49798.4785-.8699 1.3553-.7122 1.71876 0 .5184 1.14926.54224 2.47123 1.14257 3.49798.31691.52771.83597.92604 1.56269.92604 1.05194 0 1.61771-.75471 1.98231-1.53892.49473-1.07626.99972-2.80617 1.94562-5.59811.92953-2.7436.88306-4.76056.22841-6.68538-.68541-2.14868-4.07159-3.86667-6.19756-1.37666-.2348.28496-.43535.54631-.66197.72451-.55178.35781-1.21974.38824-1.72289 0-.22662-.1782-.42717-.43954-.66198-.72451-2.001-2.41486-5.29456-.96251-6.19704 1.37666z" fill="#00003a" font-variant-ligatures="normal" font-variant-position="normal" font-variant-caps="normal" font-variant-numeric="normal" font-variant-alternates="normal" font-feature-settings="normal" text-indent="0" text-align="start" text-decoration-line="none" text-decoration-style="solid" text-decoration-color="#000000" text-transform="none" text-orientation="mixed" white-space="normal" shape-padding="0" isolation="auto" mix-blend-mode="normal" solid-color="#000000" solid-opacity="1" vector-effect="none"/></g></svg>