<svg id="svg4593" height="512" viewBox="0 0 16.933333 16.933334" width="512" xmlns="http://www.w3.org/2000/svg" xmlns:svg="http://www.w3.org/2000/svg"><clipPath id="clipPath5337"><path id="rect5339" d="m34.774 274.321h35.435v25.702h-35.435z"/></clipPath><clipPath id="clipPath4542"><path id="rect4544" d="m-535.214-48.848h501.574v185.586h-501.574z"/></clipPath><clipPath id="clipPath11017"><path id="rect11019" d="m36.669 153.503h29.654v28.999h-29.654z" transform="rotate(-90)" vector-effect="none"/></clipPath><clipPath id="clipPath11444"><path id="rect11446" d="m-143.933 265.779h28.84v29.104h-28.84z" transform="rotate(-90)" vector-effect="none"/></clipPath><clipPath id="clipPath11781"><rect id="rect11783" height="32.411" rx=".634" transform="rotate(-90)" width="32.941" x="-145.124" y="181.377"/></clipPath><clipPath id="clipPath11499"><path id="rect11501" d="m-551.399-9.261h16.064v16.347h-16.064z" vector-effect="none"/></clipPath><g id="layer1" fill="#00003a" transform="translate(0 -280.067)"><path id="path2743" d="m17.089844.9453125c-8.3144505 0-12.2301033 4.9615691-14.2714846 9.8808595-2.37378891 5.673438-2.61304063 13.419027.0371094 22.617187.429743 1.245842 2.3378352.663096 1.9941406-.693359-2.513309-8.806435-2.2053948-16.043826-.0859375-21.109375 1.7944623-4.9373236 7.0532331-8.700381 12.2480471-8.5429688 2.721093.082454 5.425151 1.2403442 7.603515 3.8691407.632205.767273 1.253135 1.5791575 2 2.3164062-1.722818-.1883544-3.423545-.7541873-5.177734-1.1640625-1.489861-.3992071-1.880117 1.5276514-.738281 1.859375 4.153546 1.2805774 7.577565 1.5781254 11.300781 1.5781254 2.198416 0 3.692137-.934659 4.929688-2.0371098.650712 1.0779568 1.432884 2.1021378 2.412109 2.9531248-1.240602.420854-2.534619 1.260449-3.332031 2.703125-.74107 1.191796 1.13244 2.227983 1.748046.966797 1.24981-1.740183 3.28389-2.363674 5.173829-1.757812 5.329622 1.428077 7.779522 1.854374 11.707031 7.072265.860503 1.38512.729509 3.56434-.292969 4.822266-1.000882 1.028131.687195 2.446375 1.527344 1.283203 1.42469-1.821576 2.251451-4.942133.5625-7.236328-4.230474-5.676548-7.612035-6.544348-12.957031-7.976563-2.694407-.721965-4.316118-2.5439983-5.404297-4.7929684-.325548-.6744154-1.230709-.8040156-1.732422-.2480468-1.176585 1.3040878-2.216152 2.1386718-4.341797 2.1386718-2.778675-.0572485-4.287792-2.0352031-5.757812-3.8222656-1.774856-2.1540661-4.252548-4.6155111-9.152344-4.6796875zm44.888672 20.7480465c-.541851-.01331-1.093183.357811-1.13086 1.369141-.259011 3.576756-1.055408 8.028251-2.523437 12.361328-3.586152 10.584983-5.541551 17.17497-7.277344 20.951172-1.156708 2.67554-2.965526 4.569073-5.572266 4.587891-2.045049 0-3.145066-.883983-4.101562-2.476563-2.272419-4.192599-2.285325-9.060821-4.242188-13.082031-2.512802-4.950111-8.000031-4.371737-10.261718 0-2.104536 4.252675-1.941473 9.136475-4.242188 13.082031-.956499 1.59258-2.05651 2.476563-4.101562 2.476563-3.083549-.007633-4.572517-2.439076-5.572266-4.587891-1.627028-3.539584-3.5592989-9.861571-6.734375-19.318359-.3150598-1.277413-2.5590223-1.034294-1.9746094.736328 3.1853662 9.490257 5.0334323 15.635046 6.7929684 19.46289 1.526488 3.403468 3.924025 5.816407 7.488282 5.816407 2.746629 0 4.710365-1.507497 5.908203-3.501954 2.462562-4.203104 2.292935-9.0407 4.322265-13.222656 1.807273-3.288553 5.115189-2.690885 6.488282 0 1.963067 4.343206 2.053012 9.341854 4.322265 13.222656 1.197838 1.994457 3.161575 3.501954 5.908203 3.501954 4.038352 0 6.110296-2.852397 7.488282-5.816407 1.869694-4.067489 3.782373-10.604035 7.357421-21.15625 1.656303-4.888781 2.555892-9.398778 2.732422-13.466797 0-.528407-.532368-.926144-1.074218-.939453z" transform="matrix(.265 0 0 .265 0 280.067)" font-variant-ligatures="normal" font-variant-position="normal" font-variant-caps="normal" font-variant-numeric="normal" font-variant-alternates="normal" font-feature-settings="normal" text-indent="0" text-align="start" text-decoration-line="none" text-decoration-style="solid" text-decoration-color="#000000" text-transform="none" text-orientation="mixed" white-space="normal" shape-padding="0" isolation="auto" mix-blend-mode="normal" solid-color="#000000" solid-opacity="1" vector-effect="none"/><path id="path2747" d="m12.138672 280.5957v.81055c0 .35912.559632.38249.527344 0v-.81055c0-.3476-.527344-.33971-.527344 0z" font-variant-ligatures="normal" font-variant-position="normal" font-variant-caps="normal" font-variant-numeric="normal" font-variant-alternates="normal" font-feature-settings="normal" text-indent="0" text-align="start" text-decoration-line="none" text-decoration-style="solid" text-decoration-color="#000000" text-transform="none" text-orientation="mixed" white-space="normal" shape-padding="0" isolation="auto" mix-blend-mode="normal" solid-color="#000000" solid-opacity="1" vector-effect="none"/><path id="path2749" d="m15.593749 283.59766h.810547c.352867 0 .352867-.5293 0-.5293h-.810546c-.381769 0-.337411.52688-.000001.5293z" font-variant-ligatures="normal" font-variant-position="normal" font-variant-caps="normal" font-variant-numeric="normal" font-variant-alternates="normal" font-feature-settings="normal" text-indent="0" text-align="start" text-decoration-line="none" text-decoration-style="solid" text-decoration-color="#000000" text-transform="none" text-orientation="mixed" white-space="normal" shape-padding="0" isolation="auto" mix-blend-mode="normal" solid-color="#000000" solid-opacity="1" vector-effect="none"/><path id="path2751" d="m15.041016 280.95898-.433594.68555c-.1888.29818.258466.58138.447266.2832l.433593-.68554c.181103-.31368-.237595-.64637-.447265-.28321z" font-variant-ligatures="normal" font-variant-position="normal" font-variant-caps="normal" font-variant-numeric="normal" font-variant-alternates="normal" font-feature-settings="normal" text-indent="0" text-align="start" text-decoration-line="none" text-decoration-style="solid" text-decoration-color="#000000" text-transform="none" text-orientation="mixed" white-space="normal" shape-padding="0" isolation="auto" mix-blend-mode="normal" solid-color="#000000" solid-opacity="1" vector-effect="none"/></g></svg>