<svg id="svg4593" height="512" viewBox="0 0 16.933333 16.933334" width="512" xmlns="http://www.w3.org/2000/svg" xmlns:svg="http://www.w3.org/2000/svg"><clipPath id="clipPath5337"><path id="rect5339" d="m34.774 274.321h35.435v25.702h-35.435z"/></clipPath><clipPath id="clipPath4542"><path id="rect4544" d="m-535.214-48.848h501.574v185.586h-501.574z"/></clipPath><clipPath id="clipPath11017"><path id="rect11019" d="m36.669 153.503h29.654v28.999h-29.654z" transform="rotate(-90)" vector-effect="none"/></clipPath><clipPath id="clipPath11444"><path id="rect11446" d="m-143.933 265.779h28.84v29.104h-28.84z" transform="rotate(-90)" vector-effect="none"/></clipPath><clipPath id="clipPath11781"><rect id="rect11783" height="32.411" rx=".634" transform="rotate(-90)" width="32.941" x="-145.124" y="181.377"/></clipPath><clipPath id="clipPath11499"><path id="rect11501" d="m-551.399-9.261h16.064v16.347h-16.064z" vector-effect="none"/></clipPath><g id="layer1" transform="translate(0 -280.067)"><g id="g20571" transform="translate(-.419)"><path id="path3326" d="m12.123047 5.625h-1.126953c-4.0684559 0-7.3730471 3.3046121-7.3730471 7.373047v5.556641c-.1868908.598608.1645108 1.375397 1.0039062 1.332031h53.7460939v35.734375c0 2.995049-2.377991 5.382812-5.373047 5.382812h-42.003906c-2.9950523 0-5.3730471-2.387763-5.3730471-5.382812v-32.244141c0-1.333644-2-1.333644-2 0v32.244141c0 4.068472 3.3045984 7.382812 7.3730471 7.382812h42.003906c4.068454 0 7.375-3.31434 7.375-7.382812v-42.623047c0-4.0684349-3.306543-7.373047-7.375-7.373047h-.996094c-2.332088-6.39390948-10.882193-5.62815817-12.568359 0h-14.746094c-1.745886-6.18656523-11.042441-5.94004653-12.566406 0zm6.105469-2.6230469c2.091449 0 3.462373.8278927 4.310546 2.6230465h-8.273437c.727207-1.5455212 2.251723-2.5623689 3.962891-2.6230465zm27.3125 0c2.514627.010891 3.81297 1.2070473 4.3125 2.6230465h-8.275391c.727209-1.5455208 2.251724-2.5623685 3.962891-2.6230465zm-34.544922 4.6230469h11.976562c0 2.551471-2.622119 4.498892-4.564413 4.554688-1.363604-.03062-1.363604 2.030615 0 2 3.97158 0 6.57617-3.521475 6.57617-6.554688h25.300781c0 2.702667-2.628694 4.498863-4.572225 4.554688-1.363604-.03062-1.363604 2.030615 0 2 3.869266 0 6.583982-3.212555 6.583982-6.554688h.703049c2.995049 0 5.373047 2.377998 5.373047 5.373047v4.886719h-52.7500001v-4.886719c0-2.995049 2.378002-5.373047 5.3730471-5.373047zm6.902344 22.064453c-1.291578 2.91515-1.29173 6.901249.384765 11.574219 1.668348 4.650255 2.548972 7.522972 3.460938 9.396484.864245 1.86087 2.130339 2.857422 3.957031 2.857422 3.168906 0 3.865915-2.985005 4.509766-5.513672.329724-1.294299-1.611681-1.78844-1.941407-.49414-.385193 1.972411-1.054148 4.007812-2.568359 4.007812-1.244719-.0021-1.694607-.934788-2.154297-1.734375-.773968-1.590009-1.700924-4.516649-3.380859-9.199219-1.553754-4.330847-1.456728-7.794774-.44336-10.082031 1.444021-3.244717 5.857508-4.894069 8.451159-1.927734.217394.249156.444588.524003.705078.796875-.21162.01699-.430677.05046-.630859.05273-1.333795.01512-1.31231 2.014627.02148 2 2.352875 0 4.618793-.329734 6.150379-1.423822.60696-.450746 1.021353-.980175 1.410156-1.425781 2.669253-2.875925 7.101777-.957383 8.44336 1.927734 1.013362 2.287219 1.112346 5.751184-.441407 10.082031-1.679935 4.68257-2.606891 7.60921-3.380859 9.199219-.507018 1.047136-1.095306 1.734375-2.148438 1.734375-1.71254 0-2.071131-2.053999-2.435546-3.470703-.484236-2.207276-1.227626-4.974609-3.869141-4.974609-1.33367 0-1.33367 2 0 2 1.447556 0 1.607201 2.216815 1.927734 3.470703.540788 2.427709 1.947501 4.924104 4.376953 4.974609 2.011592-.07948 3.18211-1.298991 3.949219-2.857422.911966-1.873512 1.79259-4.746229 3.460938-9.396484 1.676492-4.67297 1.684148-8.659069.392578-11.574219-1.291574-2.915187-3.969942-4.673828-7.123047-4.673828-2.685688 0-4.323913 1.950705-5.751958 3.375-.807293.616874-1.736502.695534-2.457018-.000001-1.706831-1.779494-3.788928-3.31435-5.736329-3.375-3.672802 0-6.053844 2.355963-7.13865 4.673827z" fill="#00003a" transform="matrix(.265 0 0 .265 .419 280.067)" font-variant-ligatures="normal" font-variant-position="normal" font-variant-caps="normal" font-variant-numeric="normal" font-variant-alternates="normal" font-feature-settings="normal" text-indent="0" text-align="start" text-decoration-line="none" text-decoration-style="solid" text-decoration-color="#000000" text-transform="none" text-orientation="mixed" white-space="normal" shape-padding="0" isolation="auto" mix-blend-mode="normal" solid-color="#000000" solid-opacity="1" vector-effect="none"/></g></g></svg>