<svg id="svg4593" height="512" viewBox="0 0 16.933333 16.933334" width="512" xmlns="http://www.w3.org/2000/svg" xmlns:svg="http://www.w3.org/2000/svg"><clipPath id="clipPath5337"><path id="rect5339" d="m34.774 274.321h35.435v25.702h-35.435z"/></clipPath><clipPath id="clipPath4542"><path id="rect4544" d="m-535.214-48.848h501.574v185.586h-501.574z"/></clipPath><clipPath id="clipPath11017"><path id="rect11019" d="m36.669 153.503h29.654v28.999h-29.654z" transform="rotate(-90)" vector-effect="none"/></clipPath><clipPath id="clipPath11444"><path id="rect11446" d="m-143.933 265.779h28.84v29.104h-28.84z" transform="rotate(-90)" vector-effect="none"/></clipPath><clipPath id="clipPath11781"><rect id="rect11783" height="32.411" rx=".634" transform="rotate(-90)" width="32.941" x="-145.124" y="181.377"/></clipPath><clipPath id="clipPath11499"><path id="rect11501" d="m-551.399-9.261h16.064v16.347h-16.064z" vector-effect="none"/></clipPath><g id="layer1" fill="#00003a" transform="translate(0 -280.067)"><path id="path14523" d="m3.7634006 282.69718c-.5233238.127-1.0067702.51175-1.2624551 1.05782-.3014501.68041-.2993302 1.60499.08785 2.68407.38292 1.06732.5850204 1.7249.7968506 2.16008.2047698.44003.5058876.67748.9394775.67748.7262799 0 .9316489-.7912 1.1053587-1.43144.1163201-.35215-.4288496-.50253-.5095295-.14056-.0948.49152-.2571594 1.04283-.5958292 1.04283-.2723499-.002-.3623212-.20962-.464571-.37879-.1753201-.36018-.3876165-1.03357-.7735965-2.10943-.3546498-.98855-.3311927-1.775-.1033528-2.28927.34109-.84177 1.3856525-1.11128 1.8825725-.43356.0288.033.061418.07.093018.10593-.0529-.004-.1032047-.0103-.1493449-.0217-.3463099-.0912-.4760039.43283-.1271241.51366.7871802.16035 1.4908737.031 1.9941937-.59789.6145599-.72842 1.5771352-.26599 1.8805054.43356.2278499.51427.2533642 1.30072-.1012859 2.28927-.38598 1.07586-.6003433 1.74925-.7756631 2.10943-.1066303.2625-.2545842.37879-.4625041.37879-.3842602 0-.4467394-.46527-.5255496-.77153-.1150498-.52359-.3837474-1.15431-.9219072-1.16789-.3607901-.008-.3607901.53728 0 .52917.3079898 0 .3387137.49745.4082436.76946.1318202.57097.3820131 1.16996 1.0392132 1.16996.4845899 0 .7569274-.30668.9394774-.67748.21183-.43518.4139306-1.09276.7968507-2.16008.3871298-1.07908.3892597-2.00366.08785-2.68407-.50282-1.01296-1.9967226-1.56718-2.7657227-.56793-.34085.49685-.6671445.45142-1.0118246 0-.4146798-.48612-.9778764-.61688-1.501201-.48989z" font-variant-ligatures="normal" font-variant-position="normal" font-variant-caps="normal" font-variant-numeric="normal" font-variant-alternates="normal" font-feature-settings="normal" text-indent="0" text-align="start" text-decoration-line="none" text-decoration-style="solid" text-decoration-color="#000000" text-transform="none" text-orientation="mixed" white-space="normal" shape-padding="0" isolation="auto" mix-blend-mode="normal" solid-color="#000000" solid-opacity="1" vector-effect="none"/><path id="path14537" d="m11.955417 288.98301c-.150644.52838.180525.92499.657866.99356l1.087891.13672c-.06913 1.50032-1.785232 3.75117-3.7422346 3.6895-.3719044-.0445-.4058007.52756-.03125.52735 2.2032526-.0882 4.2768896-2.10679 4.3437966-4.46685-.01138-.12367-.107245-.22279-.23047-.23829l-1.359375-.17383c-.140399-.0376-.275093-.0987-.203755-.36496l.949801-3.07835c.07527-.29722.353302-.38808.562293-.26695 1.190422.62881 1.97853 1.7809 2.123247 3.21993.146488 1.45665-.417021 3.20807-2.128906 4.96875-1.711885 1.76064-3.446053 2.37309-4.90625 2.26758-1.4581848-.10537-2.6174389-.862-3.2750651-2.05495-.1058078-.28572.0000703-.46692.2102822-.53422l3.136177-1.07784c.1617756-.0457.30093.0886.3211797.2236l.060547.39257c.0534.34896.5768382.26886.5234382-.0801l-.062501-.39453c-.05995-.48087-.4298607-.80169-1.0096373-.62991l-3.1036442 1.05376c-.6782508.25624-.762508.7666-.5825617 1.20478.6997812 1.42655 2.1496469 2.3113 3.7427246 2.42641 1.6381176.11837 3.5299766-.58239 5.3242176-2.42773 1.794241-1.84538 2.441682-3.75648 2.277344-5.39063-.164338-1.63414-1.138215-2.97451-2.503906-3.67578-.416501-.20054-1.046459.0219-1.213731.61775-.321525 1.04331-.644993 2.08878-.967518 3.13266z" font-variant-ligatures="normal" font-variant-position="normal" font-variant-caps="normal" font-variant-numeric="normal" font-variant-alternates="normal" font-feature-settings="normal" text-indent="0" text-align="start" text-decoration-line="none" text-decoration-style="solid" text-decoration-color="#000000" text-transform="none" text-orientation="mixed" white-space="normal" shape-padding="0" isolation="auto" mix-blend-mode="normal" solid-color="#000000" solid-opacity="1" vector-effect="none"/><path id="path14539" d="m5.8068807 280.35449c-3.044844.00023-5.518812 2.4742-5.51904298 5.51904-.0000684 3.04506 2.47398788 5.51933 5.51904298 5.51956.9675598 0 1.8880413-.29751 2.595707-.66973l1.5916343.22893c.513899.0739.963696-.37315.903304-.88625l-.196371-1.66812c.403201-.78138.624901-1.64413.625285-2.52439-.000231-3.04505-2.4745044-5.51911-5.5195593-5.51904zm0 .52916c2.7590819-.00006 4.9901833 2.2308 4.9903933 4.98988-.000361.8267-.206308 1.6403-.59893 2.36781-.02567.0479-.03596.1026-.02946.15658l.203605 1.73013c.01705.1449-.160926.32065-.302823.30024l-1.6577804-.23823c-.057757-.008-.11662.003-.1674318.0315-.7441546.41919-1.583482.64032-2.4375771.64233-2.7590821-.00021-4.98993829-2.23131-4.98987632-4.99039 0-3.03524 2.66945652-4.91935 4.98988032-4.98985z" font-variant-ligatures="normal" font-variant-position="normal" font-variant-caps="normal" font-variant-numeric="normal" font-variant-alternates="normal" font-feature-settings="normal" text-indent="0" text-align="start" text-decoration-line="none" text-decoration-style="solid" text-decoration-color="#000000" text-transform="none" text-orientation="mixed" white-space="normal" shape-padding="0" isolation="auto" mix-blend-mode="normal" solid-color="#000000" solid-opacity="1" vector-effect="none"/></g></svg>