<svg id="svg4593" height="512" viewBox="0 0 16.933333 16.933334" width="512" xmlns="http://www.w3.org/2000/svg" xmlns:svg="http://www.w3.org/2000/svg"><clipPath id="clipPath5337"><path id="rect5339" d="m34.774 274.321h35.435v25.702h-35.435z"/></clipPath><clipPath id="clipPath4542"><path id="rect4544" d="m-535.214-48.848h501.574v185.586h-501.574z"/></clipPath><clipPath id="clipPath11017"><path id="rect11019" d="m36.669 153.503h29.654v28.999h-29.654z" transform="rotate(-90)" vector-effect="none"/></clipPath><clipPath id="clipPath11444"><path id="rect11446" d="m-143.933 265.779h28.84v29.104h-28.84z" transform="rotate(-90)" vector-effect="none"/></clipPath><clipPath id="clipPath11781"><rect id="rect11783" height="32.411" rx=".634" transform="rotate(-90)" width="32.941" x="-145.124" y="181.377"/></clipPath><clipPath id="clipPath11499"><path id="rect11501" d="m-551.399-9.261h16.064v16.347h-16.064z" vector-effect="none"/></clipPath><g id="layer1" transform="translate(0 -280.067)"><g id="g20571" transform="translate(-.419)"><path id="path18253-9" d="m2.8183594 10.929688c-2.5441512 6.080767-2.64450149 14.53565.6464844 24.615234.3741731 1.396875 2.2932835.488581 2.0253906-.591797-3.1966866-9.759912-3.0161002-17.748047-.7304688-23.210937 3.5146961-7.5240576 13.5122114-12.32113564 19.8496094-4.6738286.600038.7282015 1.19765 1.4936565 1.896484 2.1992187-1.675804-.2097638-3.500561-.5186371-5.136718-.9882812-1.374804-.2815748-1.544773 1.5856224-.554688 1.9199221 3.227717 1.062765 11.623396 3.081658 15.738281-.08203 1.146974-.9019097 1.976522-2.0153546 2.828125-3.0488286 5.817428-6.73508423 16.177156-3.8899569 19.84961 4.6738286 2.330532 5.570191 2.487362 13.760727-.908203 23.783203-3.586167 10.584981-5.543322 17.174669-7.279297 20.951171-1.155553 2.6736-2.964883 4.572597-5.572266 4.591797-2.045064 0-3.141247-.887851-4.097656-2.480468-2.270211-4.193613-2.287139-9.060652-4.244141-13.082032-2.357971-4.729171-7.842293-4.677089-10.261718 0-2.104252 4.253367-1.942711 9.135071-4.244141 13.082032-.956447 1.592617-2.050639 2.480468-4.095703 2.480468-3.083868-.01134-4.575101-2.444231-5.574219-4.591797-1.539099-3.348246-3.4288561-9.401297-6.296875-17.996094-.335622-1.253254-2.4409052-.992437-1.9902344.689453 2.9128063 8.731124 4.6907026 14.538529 6.3671874 18.185547 1.527572 3.402784 3.973473 5.816406 7.494141 5.816406 2.746658 0 4.706564-1.505506 5.904297-3.5 2.467275-4.199962 2.291058-9.041604 4.318359-13.220703 1.808504-3.287849 5.122387-2.69178 6.496094 0 1.959307 4.34366 2.049395 9.340073 4.318359 13.220703 1.19777 1.994494 3.159592 3.5 5.90625 3.5 3.975836 0 6.114172-2.852463 7.492188-5.816406 1.869845-4.067755 3.77846-10.60599 7.353515-21.158203 3.513185-10.369512 3.462537-19.05517.863282-25.267578-3.120832-8.828108-16.007375-14.2164293-23.423829-5.2031255-.88747 1.0770142-1.645436 2.0647694-2.501953 2.7382813-2.085467 1.3523526-4.61005 1.4673636-6.511718 0-.856517-.6735119-1.614483-1.6612293-2.501954-2.7382813-8.085027-9.2739546-20.6838554-3.0425745-23.4218746 5.2031255zm46.4218746-2.5625005c-1.393428.02227-2.693806.5614256-3.628906 1.7519535-1.545929 1.746255-1.748929 4.31819-.501953 6.289062 1.246972 1.97091 3.656411 2.887415 5.896484 2.238281 2.240077-.649133 3.78711-2.710735 3.78711-5.042968 0-1.333644-2-1.333644-2 0 0 1.450998-.953986 2.719166-2.347657 3.123046-1.39367.403843-2.870675-.16263-3.646484-1.388671-.775808-1.226193-.651252-2.802209.310547-3.888672.961807-1.086425 2.513006-1.404596 3.824219-.783203 1.205695.570859 2.061164-1.2377343.855468-1.8085941-.843956-.3310158-1.712771-.5035962-2.548828-.4902344zm-36.552734 9.5332035c-1.862524 0-3.3964844 1.526158-3.3964844 3.388671 0 1.862514 1.5339604 3.394532 3.3964844 3.394532s3.388672-1.532018 3.388672-3.394532c0-1.862513-1.526148-3.388671-3.388672-3.388671zm0 2c.781644 0 1.394532.607027 1.394531 1.388671 0 .781645-.612887 1.394532-1.394531 1.394532s-1.394531-.612887-1.394531-1.394532c0-.781644.612887-1.388671 1.394531-1.388671zm30.140625 3.123047c-1.862525 0-3.396484 1.532017-3.396484 3.394531 0 1.862513 1.533959 3.396484 3.396484 3.396484s3.386719-1.533971 3.386719-3.396484c0-1.862514-1.524194-3.394531-3.386719-3.394531zm0 2c.781644 0 1.394531.612887 1.394531 1.394531s-.612887 1.396484-1.394531 1.396484-1.396484-.61484-1.396484-1.396484.61484-1.394531 1.396484-1.394531zm-25.992187 2.15625c-2.887651 0-5.248047 2.360412-5.248047 5.248046 0 2.887673 2.360396 5.248047 5.248047 5.248047 2.88765 0 5.255859-2.360374 5.255859-5.248047 0-2.887634-2.368209-5.248046-5.255859-5.248046zm0 2c1.806769 0 3.255859 1.441281 3.255859 3.248046 0 1.806804-1.44909 3.248047-3.255859 3.248047-1.806771 0-3.248047-1.441243-3.248047-3.248047 0-1.806765 1.441276-3.248046 3.248047-3.248046z" fill="#00003a" transform="matrix(.265 0 0 .265 .419 280.067)" font-variant-ligatures="normal" font-variant-position="normal" font-variant-caps="normal" font-variant-numeric="normal" font-variant-alternates="normal" font-feature-settings="normal" text-indent="0" text-align="start" text-decoration-line="none" text-decoration-style="solid" text-decoration-color="#000000" text-transform="none" text-orientation="mixed" white-space="normal" shape-padding="0" isolation="auto" mix-blend-mode="normal" solid-color="#000000" solid-opacity="1" vector-effect="none"/></g></g></svg>