<svg id="svg4593" height="512" viewBox="0 0 16.933333 16.933334" width="512" xmlns="http://www.w3.org/2000/svg" xmlns:svg="http://www.w3.org/2000/svg"><clipPath id="clipPath5337"><path id="rect5339" d="m34.774 274.321h35.435v25.702h-35.435z"/></clipPath><clipPath id="clipPath4542"><path id="rect4544" d="m-535.214-48.848h501.574v185.586h-501.574z"/></clipPath><clipPath id="clipPath11017"><path id="rect11019" d="m36.669 153.503h29.654v28.999h-29.654z" transform="rotate(-90)" vector-effect="none"/></clipPath><clipPath id="clipPath11444"><path id="rect11446" d="m-143.933 265.779h28.84v29.104h-28.84z" transform="rotate(-90)" vector-effect="none"/></clipPath><clipPath id="clipPath11781"><rect id="rect11783" height="32.411" rx=".634" transform="rotate(-90)" width="32.941" x="-145.124" y="181.377"/></clipPath><clipPath id="clipPath11499"><path id="rect11501" d="m-551.399-9.261h16.064v16.347h-16.064z" vector-effect="none"/></clipPath><g id="layer1" transform="translate(0 -280.067)"><g id="g20571" transform="translate(-.419)"><path id="path3636" d="m49.517578 3.3632812c-.537056 1.1138268-.868715 2.6674529-1.123047 4.3378907-1.669047.2543622-3.220721.5864673-4.333984 1.1230469-3.199128 1.6405532-2.6344 4.3778842-.002 5.6601562 1.113494.537033 2.665976.868609 4.335937 1.123047.254438 1.669946.586003 3.222451 1.123047 4.335937 1.149397 2.226021 2.974239 3.38762 4.59375 1.564453.324734 2.046539.37402 4.350075.148438 6.853516-2.197747-.391378-4.733758 1.320465-4.826172 4.324219 0 2.404422 1.974507 4.378906 4.378906 4.378906s4.376953-1.974484 4.376953-4.378906c0-1.517012-.787054-2.856407-1.970703-3.640625.315363-3.455833.137283-6.976237-.634766-10.154297.308632-.957549.534533-2.086858.716797-3.283203 1.669966-.254362 3.222444-.586014 4.335938-1.123047 3.229279-1.392344 2.631133-4.5192372 0-5.6601562-1.113759-.5370331-2.667414-.8686847-4.337844-1.1230469-.254286-1.6690394-.586452-3.2206868-1.123047-4.3339844-1.483698-3.06999583-4.405519-2.70466546-5.658203-.0039063zm3.857427.8691407c.477044.9897071.898 2.5305317 1.119141 4.3964843.05454.4587591.416229.8204238.875.875 1.867309.2211024 3.408439.6418238 4.398437 1.1191408 1.665669.870425 1.202298 1.460346 0 2.058594-.989624.477316-2.52956.897887-4.396484 1.11914-.458756.05443-.820443.416241-.875.875-.221254 1.866898-.641843 3.406891-1.119141 4.396485-.870648 1.665975-1.436952 1.303745-2.058594 0-.477297-.989594-.897887-2.529587-1.11914-4.396485-.05458-.458759-.416241-.820461-.875-.875-1.866924-.221102-3.406864-.641824-4.396485-1.11914-1.665764-.87059-1.264157-1.286724 0-2.056641.989704-.477052 2.530506-.8980005 4.396485-1.1191406.458759-.054425.820442-.416241.875-.875.22114-1.8673134.641805-3.4084659 1.11914-4.3984375.657488-1.5056877 1.593582-1.0055695 2.056641 0zm-50.7128956 12.1542971c-2.32272029 5.551559-2.37061028 13.307329.7617187 22.552734 3.1837285 9.397153 4.8854592 15.214371 6.5546875 18.845703 1.3708254 3.045216 3.5706184 5.189892 6.7246094 5.21875 5.170602-.439988 6.500186-5.310743 7.462891-9.287109.72262-2.709217 1.506708-7.69311 4.539062-7.75 3.527413.727523 3.875749 4.959904 4.548828 7.75.888973 4.288042 2.686474 9.287109 7.455078 9.287109 3.349481 0 5.258488-2.233733 6.488282-4.724609 1.596306-3.272769 3.149761-8.459703 5.935546-16.794922.423232-1.264781-1.473252-1.899547-1.896484-.634766-2.793498 8.358312-4.39007 13.586222-5.839844 16.558594-.999673 2.182515-2.576033 3.58081-4.6875 3.595703-3.999856 0-4.754946-4.632399-5.513672-7.759765-.837058-3.83905-2.440368-9.179875-6.490234-9.279297-4.829179.82942-5.576444 5.490182-6.488281 9.279297-.778926 3.298149-2.125024 7.703754-5.513672 7.759765-2.717048-.006-4.02385-2.164622-4.902344-4.052734-1.542235-3.355049-3.2862117-9.226077-6.4804685-18.654297-3.020812-8.916283-2.8803597-16.200203-.8125-21.142578 2.0667882-4.939843 5.9346385-7.6007567 10.8964845-7.6035158 3.771347.049512 5.164843 1.6244528 6.679687 3.4628908.46413.622279.973749 1.202455 1.519532 1.724609-1.141632-.159105-2.29278-.375286-3.431641-.595702-1.352383-.215674-1.600592 1.803646-.40625 1.962891 0 0 1.512874.309995 3.404297.591797 4.603745.676982 8.307963 1.418013 11.537109-2.931641 1.335022-1.624139 2.449859-3.149817 4.72461-3.8457031 1.336626-.3548977.72324-2.3634984-.583985-1.9121094-2.901399.8875843-4.401916 2.9289995-5.683594 4.4882815-1.566822 1.712828-2.169602 2.613281-4.339843 2.613281-2.539091 0-3.989753-1.904474-5.197266-3.373047-6.670141-8.0311326-17.7471465-3.7753731-20.9648436 4.65039zm34.1777346 4.666015c-.307162.637569-.464906 1.514028-.619141 2.398438-.885655.154205-1.760279.313553-2.398437.621094-2.17965 1.054564-1.822249 3.243653 0 4.074218.637906.307654 1.505232.472522 2.390625.626954.154356.886487.31905 1.761763.626953 2.40039 1.079531 2.014846 3.125487 1.959529 4.076172 0 .308787-.640479.472586-1.518464.626953-2.408203.882444-.154205 1.756257-.312394 2.392578-.619141 2.274185-.961898 1.970572-3.068434 0-4.068359-.636038-.306142-1.510977-.465049-2.392578-.619141-.154356-.8897-.318185-1.765771-.626953-2.40625-.980399-2.090528-3.371388-1.824618-4.076172 0zm2.27539.871094c.251037.520706.492867 1.390486.619141 2.457031.0525.459003.412578.822306.871094.878907 1.065422.126236 1.938052.370284 2.458984.621093.341306.209207.126237.398472.0059.464844-.520704.250961-1.398287.492867-2.464843.619141-.458516.0566-.818589.419903-.871094.878906-.126274 1.066583-.368093 1.936326-.619141 2.457031-.197446.410034-.407182.149155-.472656 0-.251036-.520705-.494827-1.390448-.621094-2.457031-.05306-.460918-.416154-.82482-.876953-.878906-1.066073-.126236-1.938761-.368331-2.458984-.619141-.434271-.202856-.121534-.41237 0-.472656.520708-.250961 1.398287-.49482 2.464844-.621094.455962-.05585.815245-.415132.871093-.871094.126274-1.064919.370353-1.93659.621094-2.457031.146335-.347743.395026-.171252.472615 0zm14.697266 8.384766c1.323523 0 2.376953 1.053438 2.376953 2.376953 0 1.323553-1.05343 2.376953-2.376953 2.376953s-2.376953-1.0534-2.376953-2.376953c0-1.323515 1.05343-2.376953 2.376953-2.376953z" fill="#00003a" transform="matrix(.265 0 0 .265 .419 280.067)" font-variant-ligatures="normal" font-variant-position="normal" font-variant-caps="normal" font-variant-numeric="normal" font-variant-alternates="normal" font-feature-settings="normal" text-indent="0" text-align="start" text-decoration-line="none" text-decoration-style="solid" text-decoration-color="#000000" text-transform="none" text-orientation="mixed" white-space="normal" shape-padding="0" isolation="auto" mix-blend-mode="normal" solid-color="#000000" solid-opacity="1" vector-effect="none"/></g></g></svg>