<svg id="svg4593" height="512" viewBox="0 0 16.933333 16.933334" width="512" xmlns="http://www.w3.org/2000/svg" xmlns:svg="http://www.w3.org/2000/svg"><clipPath id="clipPath5337"><path id="rect5339" d="m34.774 274.321h35.435v25.702h-35.435z"/></clipPath><clipPath id="clipPath4542"><path id="rect4544" d="m-535.214-48.848h501.574v185.586h-501.574z"/></clipPath><clipPath id="clipPath11017"><path id="rect11019" d="m36.669 153.503h29.654v28.999h-29.654z" transform="rotate(-90)" vector-effect="none"/></clipPath><clipPath id="clipPath11444"><path id="rect11446" d="m-143.933 265.779h28.84v29.104h-28.84z" transform="rotate(-90)" vector-effect="none"/></clipPath><clipPath id="clipPath11781"><rect id="rect11783" height="32.411" rx=".634" transform="rotate(-90)" width="32.941" x="-145.124" y="181.377"/></clipPath><clipPath id="clipPath11499"><path id="rect11501" d="m-551.399-9.261h16.064v16.347h-16.064z" vector-effect="none"/></clipPath><g id="layer1" fill="#00003a" transform="scale(.265)"><path id="path6616-46" d="m2.5136719 18.845703c-2.20652601 5.275351-2.24553229 12.63171.7246093 21.398438 3.0159497 8.901921 4.6300879 14.415785 6.2148438 17.863281 1.305562 2.907968 3.39747 4.950736 6.414063 4.978516 4.835904 0 6.199556-5.046345 7.117187-8.837891.682696-2.529222 1.417194-7.255567 4.251953-7.308594 3.19166 0 3.620923 4.691158 4.251953 7.308594.883314 4.080907 2.970113 8.83789 7.115235 8.837891 3.401083 0 5.241365-2.435348 6.423828-4.978516 1.584756-3.447496 3.198894-8.96136 6.214844-17.863281.902663-2.664341 1.519374-5.197792 1.888671-7.582032.332599-1.405682-1.86601-1.743414-1.970703-.302734-.349984 2.259666-.945653 4.677855-1.814453 7.242187-3.026457 8.932989-4.677003 14.500625-6.134765 17.671876-.9583 2.218695-2.40838 3.808593-4.607422 3.808593-3.301115 0-4.454558-4.373538-5.166016-7.30664-.798085-3.659944-1.35937-8.835938-6.201172-8.835938-4.590992 0-5.323728 5.21961-6.193359 8.835938-.735194 3.096-1.994781 7.254634-5.175781 7.30664-2.561953-.04384-3.760832-2.009766-4.597657-3.808593-1.4577632-3.171251-3.1083087-8.738887-6.1347654-17.671876-2.8589101-8.438474-2.7277434-15.316103-.7753906-19.982421 2.8110992-6.461632 11.451244-10.0934028 16.564453-3.919922.433777.52645.869561 1.077809 1.357422 1.605469-1.078904-.119812-1.652035-.221927-2.353516-.363282-1.309115-.36737-1.638833 1.48431-.701172 1.875 2.209134.661985 5.195039.732585 8.009766.796875 2.08989 0 3.586962-.909077 4.671875-2 1.022438-.943294-.476955-2.436487-1.416015-1.410156-.873978.878929-1.692194 1.410156-3.25586 1.410156-2.301279-.048-3.554791-1.705395-4.769531-3.18164-5.980587-7.3891505-16.9346068-3.401317-19.9531251 4.414062z" font-variant-ligatures="normal" font-variant-position="normal" font-variant-caps="normal" font-variant-numeric="normal" font-variant-alternates="normal" font-feature-settings="normal" text-indent="0" text-align="start" text-decoration-line="none" text-decoration-style="solid" text-decoration-color="#000000" text-transform="none" text-orientation="mixed" white-space="normal" shape-padding="0" isolation="auto" mix-blend-mode="normal" solid-color="#000000" solid-opacity="1" vector-effect="none"/><path id="path4438" d="m51.339844 1.3496094c-.849465 1.0298672-1.73461 2.0264672-2.636719 3.0097656-.915442-.9369562-1.819074-1.9849882-2.693359-3.0097656-.947105-.96880635-2.358681.3439305-1.519532 1.2988281l3.1875 3.7382813v6.0957032l-4.367187-4.3671876-.388672-4.8964844c-.059717-1.3795276-2.149895-1.2157941-1.994141.15625l.324219 4.09375-4.09375-.3261719c-1.329486-.1050708-1.485548 1.8891832-.15625 1.9941407l4.886719.3867187 4.414062 4.4140625h-6.279296l-3.738282-3.1875c-1.017701-.9332409-2.379142.6595-1.298828 1.519531l3.123047 2.666016-3.123047 2.664062c-1.014323.865852.284504 2.387337 1.298828 1.521485l3.728516-3.181641h6.273437l-4.453125 4.453125-4.898437.390625c-1.379524.05972-1.21578 2.147942.15625 1.992188l4.09375-.322266-.324219 4.091797c-.104995 1.329486 1.889157 1.485548 1.994141.15625l.386719-4.884766 4.435546-4.435547v6.296875l-3.1875 3.738282c-.933271 1.017713.659511 2.37913 1.519532 1.298828l2.666015-3.123047 2.664063 3.123047c.865882 1.014312 2.38737-.284592 1.521484-1.298828l-3.18164-3.728516v-6.373047l4.449218 4.449219.386719 4.886719c.156288 1.535226 2.103518 1.282594 1.994141-.15625-.143955-1.360244-.238941-2.70628-.275391-4.072266 1.33723.106238 2.705726.196652 4.042969.302734 1.354771.01512 1.424886-1.9122.15625-1.99414-1.627654-.125868-3.265336-.258497-4.896485-.388625l-4.402343-4.402344h6.189453l3.728515 3.181641c1.151876 1.151849 2.437691-.647809 1.298828-1.521485-.930048-.783249-2.057761-1.728261-3.027343-2.664062.974495-.823128 2.056919-1.838101 3.027343-2.666016.968841-.947159-.343824-2.3587087-1.298828-1.519578l-3.738281 3.1875h-6.193359l4.361328-4.3613281 4.886719-.3867188c1.628976-.0000378 1.264885-2.181643-.158203-1.9941406-1.355417.1150702-2.711165.2120211-4.06836.3027344.07645-1.3591208.191269-2.7153713.298828-4.0722657.0155-1.3547714-1.910251-1.424886-1.992187-.15625l-.388672 4.8964844-4.380859 4.3808594v-6.1699219l3.18164-3.7285156c.983698-1.1325579-.678519-2.28736757-1.521484-1.2988281z" font-variant-ligatures="normal" font-variant-position="normal" font-variant-caps="normal" font-variant-numeric="normal" font-variant-alternates="normal" font-feature-settings="normal" text-indent="0" text-align="start" text-decoration-line="none" text-decoration-style="solid" text-decoration-color="#000000" text-transform="none" text-orientation="mixed" white-space="normal" shape-padding="0" isolation="auto" mix-blend-mode="normal" solid-color="#000000" solid-opacity="1" vector-effect="none"/></g></svg>