<svg id="svg4593" height="512" viewBox="0 0 16.933333 16.933334" width="512" xmlns="http://www.w3.org/2000/svg" xmlns:svg="http://www.w3.org/2000/svg"><clipPath id="clipPath5337"><path id="rect5339" d="m34.774 274.321h35.435v25.702h-35.435z"/></clipPath><clipPath id="clipPath4542"><path id="rect4544" d="m-535.214-48.848h501.574v185.586h-501.574z"/></clipPath><clipPath id="clipPath11017"><path id="rect11019" d="m36.669 153.503h29.654v28.999h-29.654z" transform="rotate(-90)" vector-effect="none"/></clipPath><clipPath id="clipPath11444"><path id="rect11446" d="m-143.933 265.779h28.84v29.104h-28.84z" transform="rotate(-90)" vector-effect="none"/></clipPath><clipPath id="clipPath11781"><rect id="rect11783" height="32.411" rx=".634" transform="rotate(-90)" width="32.941" x="-145.124" y="181.377"/></clipPath><clipPath id="clipPath11499"><path id="rect11501" d="m-551.399-9.261h16.064v16.347h-16.064z" vector-effect="none"/></clipPath><g id="layer1" transform="translate(0 -280.067)"><path id="path18253" d="m16.878906.828125c-5.631331-.04458994-11.3555935 3.9788696-14.0585935 10.101563-2.54414119 6.080767-2.64451288 14.53565.6464844 24.615234.3742931 1.396881 2.2933133.488586 2.0253906-.591797-3.1966565-9.759915-3.0160721-17.748041-.7304687-23.210937 3.514696-7.5240572 13.5122112-12.32113571 19.8496092-4.6738286.600038.7282015 1.19765 1.4936565 1.896484 2.1992187-1.675804-.2097638-3.500561-.5186371-5.136718-.9882812-1.374803-.2815748-1.544773 1.5856226-.554688 1.9199221 3.227717 1.062765 11.623434 3.08166 15.738282-.08203 1.146973-.9019092 1.976521-2.0153546 2.828124-3.0488286 4.037556-4.1894929 8.410035-5.0321989 13.433594-2.5859375l-6.916015 11.6894521c-.396473.665915.08239 1.510245.857421 1.511719h3.830079l-4.384766 7.597656c-.636737 1.147427 1.056592 2.12756 1.734375 1.003906l5.255859-9.103515c.383622-.668183-.100523-1.500957-.871093-1.498047h-3.808594l6.007812-10.1582034c1.983194 1.4461607 3.586906 3.5302331 4.710938 6.2167974 2.330532 5.570192 2.487362 13.760727-.908203 23.783203-3.586167 10.584982-5.543322 17.174668-7.279297 20.951171-1.155553 2.673601-2.964883 4.572597-5.572266 4.591797-2.045064 0-3.141247-.887851-4.097656-2.480468-2.270211-4.193613-2.287139-9.060652-4.244141-13.082032-2.357971-4.729171-7.842292-4.677089-10.261718 0-2.104252 4.253367-1.942711 9.135071-4.244141 13.082032-.956447 1.592617-2.050639 2.480468-4.095703 2.480468-3.083868-.01134-4.575101-2.444231-5.574219-4.591797-1.539124-3.348266-3.4288828-9.401268-6.2968749-17.996093-.335801-1.253227-2.4409043-.99247-1.9902343.689453 2.9127861 8.731107 4.6907113 14.538532 6.3671872 18.185547 1.527572 3.402784 3.973473 5.816406 7.494141 5.816406 2.746658 0 4.706564-1.505506 5.904297-3.5 2.467275-4.199962 2.291058-9.041604 4.318359-13.220703 1.808504-3.287849 5.122387-2.69178 6.496094 0 1.959307 4.34366 2.049395 9.340073 4.318359 13.220703 1.19777 1.994494 3.159592 3.5 5.90625 3.5 3.975836 0 6.114172-2.852463 7.492188-5.816406 1.869845-4.067755 3.77846-10.605989 7.353515-21.158203 3.513185-10.369512 3.462538-19.055169.863282-25.267578-3.120832-8.8281076-16.007375-14.2164294-23.423829-5.2031255-.88747 1.0770142-1.645436 2.0647694-2.501953 2.7382813-2.085467 1.3523527-4.610049 1.4673637-6.511718 0-.856517-.6735119-1.614483-1.6612293-2.501953-2.7382813-2.639056-3.3797055-5.984483-4.87168354-9.363282-4.8984375z" fill="#00003a" transform="matrix(.265 0 0 .265 0 280.067)" font-variant-ligatures="normal" font-variant-position="normal" font-variant-caps="normal" font-variant-numeric="normal" font-variant-alternates="normal" font-feature-settings="normal" text-indent="0" text-align="start" text-decoration-line="none" text-decoration-style="solid" text-decoration-color="#000000" text-transform="none" text-orientation="mixed" white-space="normal" shape-padding="0" isolation="auto" mix-blend-mode="normal" solid-color="#000000" solid-opacity="1" vector-effect="none"/></g></svg>