<svg id="svg4593" height="512" viewBox="0 0 16.933333 16.933334" width="512" xmlns="http://www.w3.org/2000/svg" xmlns:svg="http://www.w3.org/2000/svg"><clipPath id="clipPath5337"><path id="rect5339" d="m34.774 274.321h35.435v25.702h-35.435z"/></clipPath><clipPath id="clipPath4542"><path id="rect4544" d="m-535.214-48.848h501.574v185.586h-501.574z"/></clipPath><clipPath id="clipPath11017"><path id="rect11019" d="m36.669 153.503h29.654v28.999h-29.654z" transform="rotate(-90)" vector-effect="none"/></clipPath><clipPath id="clipPath11444"><path id="rect11446" d="m-143.933 265.779h28.84v29.104h-28.84z" transform="rotate(-90)" vector-effect="none"/></clipPath><clipPath id="clipPath11781"><rect id="rect11783" height="32.411" rx=".634" transform="rotate(-90)" width="32.941" x="-145.124" y="181.377"/></clipPath><clipPath id="clipPath11499"><path id="rect11501" d="m-551.399-9.261h16.064v16.347h-16.064z" vector-effect="none"/></clipPath><g id="layer1" fill="#00003a" transform="translate(0 -280.067)"><path id="path18171-0" d="m5.339209 284.4979c-1.1714035-.0105-2.3443924.79409-2.9135173 2.01125-.54352 1.22675-.5511769 2.93372.1751831 4.95835.73455 2.04743 1.1267797 3.31505 1.5156698 4.11397.3320698.69681.8569852 1.15241 1.5802652 1.15858.57565 0 .99831-.3037 1.25212-.7028.2832314-.48991.4136723-1.01252.5524209-1.53531.090447-.32744-.4183674-.52058-.5276162-.11988-.117415.47644-.2252102.95033-.4712891 1.37097-.18904.29726-.3962455.45785-.8056356.45785-.5998001-.005-.8983321-.4418-1.104842-.86093-.35237-.72391-.7553222-2.00527-1.4929321-4.06125-.6938902-1.93411-.6595627-3.50447-.1896525-4.56509.6936597-1.48592 2.7619705-2.31136 4.0069904-.89142.0994.11394.2762001.29826.38809.41444-.50445-.064-.7968302-.15801-.9534302-.19998-.3548399-.12906-.4748012.40967-.2010212.48989.7564197.27841 2.4911648.54999 3.2892047-.11059.3244501-.262.4036822-.39428.5777431-.59376.439803-.56623 1.023279-.77621 1.614371-.74466.985154.0526 1.991838.77573 2.392619 1.63608.4699 1.06062.504238 2.63098-.189653 4.56509-.737599 2.05598-1.140552 3.33734-1.492932 4.06125-.236349.52117-.604702.85755-1.104842.86093-1.190019 0-1.237343-2.10165-1.6748328-2.99258-.59489-1.01601-1.7667973-.9056-2.1900473 0-.132325.36735.3619281.48427.4924764.20102.2832116-.5505.9970156-.45473 1.2293825.046.5106506 1.04315.4174971 3.27473 2.1430212 3.27473.860789 0 1.279755-.5482 1.580266-1.15858.38888-.79892.781119-2.06654 1.515669-4.11397.726361-2.02463.718703-3.7316.175183-4.95835-.896849-1.87292-3.514953-2.80278-4.8896237-1.02526-.6753296.97225-1.615922.8015-2.3027015 0-.571073-.68007-1.2732652-.97971-1.9761068-.98599z" font-variant-ligatures="normal" font-variant-position="normal" font-variant-caps="normal" font-variant-numeric="normal" font-variant-alternates="normal" font-feature-settings="normal" text-indent="0" text-align="start" text-decoration-line="none" text-decoration-style="solid" text-decoration-color="#000000" text-transform="none" text-orientation="mixed" white-space="normal" shape-padding="0" isolation="auto" mix-blend-mode="normal" solid-color="#000000" solid-opacity="1" vector-effect="none"/><path id="path4537" d="m7.5800783 280.94922c-.2580809.25406.1363963.63438.3808594.36719l.3359373-.34961c.1483159-.16362.2472495-.11098.349604.008l.9121094.94922c.063702.0656.1567523.0936.2460937.0742l.6269539-.13322c.203276-.0409.302266.13324.253859.2697l-.314453 1.37109c-1.269514 0-2.539028 0-3.808542 0l-.3402994-1.43073c-.032281-.18887.1184737-.25381.2797569-.21007l.6269531.13282c.3450532.0742.4563814-.44336.1113282-.51758l-.6230469-.13086c-.5879772-.12649-1.0290292.31267-.9003906.83594l.3769531 1.64257c.026931.12082.1340265.20683.2578125.20704h4.2304681c.123787-.00021.230882-.0862.257813-.20704l.359375-1.5664c.09378-.58704-.359892-1.0449-.892578-.91016l-.46875.0996-.796875-.83008c-.3944983-.38696-.7858095-.38606-1.1256212-.0212-.114621.11639-.2300216.23863-.3353205.34958z" font-variant-ligatures="normal" font-variant-position="normal" font-variant-caps="normal" font-variant-numeric="normal" font-variant-alternates="normal" font-feature-settings="normal" text-indent="0" text-align="start" text-decoration-line="none" text-decoration-style="solid" text-decoration-color="#000000" text-transform="none" text-orientation="mixed" white-space="normal" shape-padding="0" isolation="auto" mix-blend-mode="normal" solid-color="#000000" solid-opacity="1" vector-effect="none"/></g></svg>