<svg id="svg4593" height="512" viewBox="0 0 16.933333 16.933334" width="512" xmlns="http://www.w3.org/2000/svg" xmlns:svg="http://www.w3.org/2000/svg"><clipPath id="clipPath5337"><path id="rect5339" d="m34.774 274.321h35.435v25.702h-35.435z"/></clipPath><clipPath id="clipPath4542"><path id="rect4544" d="m-535.214-48.848h501.574v185.586h-501.574z"/></clipPath><clipPath id="clipPath11017"><path id="rect11019" d="m36.669 153.503h29.654v28.999h-29.654z" transform="rotate(-90)" vector-effect="none"/></clipPath><clipPath id="clipPath11444"><path id="rect11446" d="m-143.933 265.779h28.84v29.104h-28.84z" transform="rotate(-90)" vector-effect="none"/></clipPath><clipPath id="clipPath11781"><rect id="rect11783" height="32.411" rx=".634" transform="rotate(-90)" width="32.941" x="-145.124" y="181.377"/></clipPath><clipPath id="clipPath11499"><path id="rect11501" d="m-551.399-9.261h16.064v16.347h-16.064z" vector-effect="none"/></clipPath><g id="layer1" transform="translate(0 -280.067)"><g id="g20571" transform="translate(-.419)"><path id="path7533" d="m46.443359 1c-2.259197 0-3.831691 1.8424335-4.445312 3.7441406l-4.421932 13.7319484c-.755487 3.028784 1.597602 4.381379 3.568416 4.381379h7.878907l-1.089844 7.21875c-.291137 2.656771 1.47247 3.853336 3.154791 3.907388 1.871701.06014 4.0127-1.029559 4.718256-2.567544 2.015102-3.874062 4.581128-8.862898 6.771486-13.107422 1.083301-2.842392-.57809-5.9375-3.697266-5.9375-.752981-.000026-1.512399 0-2.267578 0-1.352313-.01912-1.352313 2.019116 0 2h2.207031c1.815706 0 2.528645 1.833326 1.939454 3.099609l-6.775391 13.130859c-.932575 1.856826-4.426229 2.120613-4.076176-.208986l1.265625-8.388672c.09064-.604357-.377165-1.147975-.988281-1.148437h-9.041016c-1.455127-.06991-1.856324-.966753-1.56832-2.097657l4.324182-13.4023872c.42472-1.3162583 1.420838-2.3574219 2.542968-2.3574219h6.625c1.153987 0 1.812535.9348398 1.570313 1.7441406l-2.685547 8.3242185c-.474762 1.301207 1.527726 1.946774 1.902344.613282l2.685547-8.3222661c.590873-2.2733827-1.046901-4.3574219-3.240638-4.3574219zm-43.927734 17.845703c-2.20721461 5.275465-2.24779828 12.632756.7226562 21.400391 3.0159395 8.901921 4.6301015 14.415747 6.2148438 17.863281 1.305918 2.908001 3.409006 4.974609 6.416016 4.974609 4.881025 0 6.19785-5.045407 7.115234-8.835937.682684-2.528973 1.417873-7.253643 4.251953-7.306641 2.843631 0 3.62109 4.690086 4.251953 7.306641.883305 4.081758 3.000228 8.835937 7.117188 8.835937 3.391257-.08433 5.240201-2.433269 6.421875-4.974609 1.584737-3.447534 3.193046-8.96136 6.208984-17.863281.318425-.939855.605506-1.863087.855469-2.769532.439641-1.330949-1.620854-1.899362-1.925781-.53125-.239433.868271-.513835 1.753611-.820313 2.658204-3.026464 8.932989-4.677017 14.500624-6.134765 17.671875-.957976 2.217705-2.455272 3.793322-4.605469 3.808593-3.257621 0-4.456086-4.37358-5.167969-7.308593-.798121-3.659941-1.437483-8.835938-6.201172-8.835938-4.376402 0-5.32384 5.220611-6.193359 8.835938-.735117 3.095436-1.993718 7.256585-5.173828 7.308593-2.563038-.04364-3.762453-2.00904-4.59961-3.808593-1.4577488-3.171251-3.1141575-8.738886-6.1406248-17.671875-2.8589374-8.438476-2.719932-15.316104-.7675781-19.982422 3.105346-6.764589 11.4447019-10.0929393 16.5566409-3.919922.456761.554342.918601 1.135086 1.441406 1.6875-1.604371-.131072-3.31662-.33758-4.681641-.669922-1.371857-.191802-1.530948 1.662263-.480468 1.941405 3.322183.738208 6.751473.926523 10.142582.953172 2.809523 0 4.232769-1.534496 5.484421-3.019527 1.234535-1.48388 2.231589-2.909703 4.126953-3.646484 1.346993-.433094.563692-2.450622-.722656-1.861328-2.48808.967181-3.783572 2.841114-4.939454 4.230468-1.151912 1.384585-2.011207 2.286772-4.033203 2.292969-2.462301 0-3.66537-1.813208-4.787108-3.177734-6.719928-7.7689218-16.6531781-3.340488-19.953176 4.414012z" fill="#00003a" transform="matrix(.265 0 0 .265 .419 280.067)" font-variant-ligatures="normal" font-variant-position="normal" font-variant-caps="normal" font-variant-numeric="normal" font-variant-alternates="normal" font-feature-settings="normal" text-indent="0" text-align="start" text-decoration-line="none" text-decoration-style="solid" text-decoration-color="#000000" text-transform="none" text-orientation="mixed" white-space="normal" shape-padding="0" isolation="auto" mix-blend-mode="normal" solid-color="#000000" solid-opacity="1" vector-effect="none"/></g></g></svg>