<svg id="svg4593" height="512" viewBox="0 0 16.933333 16.933334" width="512" xmlns="http://www.w3.org/2000/svg" xmlns:svg="http://www.w3.org/2000/svg"><clipPath id="clipPath5337"><path id="rect5339" d="m34.774 274.321h35.435v25.702h-35.435z"/></clipPath><clipPath id="clipPath4542"><path id="rect4544" d="m-535.214-48.848h501.574v185.586h-501.574z"/></clipPath><clipPath id="clipPath11017"><path id="rect11019" d="m36.669 153.503h29.654v28.999h-29.654z" transform="rotate(-90)" vector-effect="none"/></clipPath><clipPath id="clipPath11444"><path id="rect11446" d="m-143.933 265.779h28.84v29.104h-28.84z" transform="rotate(-90)" vector-effect="none"/></clipPath><clipPath id="clipPath11781"><rect id="rect11783" height="32.411" rx=".634" transform="rotate(-90)" width="32.941" x="-145.124" y="181.377"/></clipPath><clipPath id="clipPath11499"><path id="rect11501" d="m-551.399-9.261h16.064v16.347h-16.064z" vector-effect="none"/></clipPath><g id="layer1" transform="translate(0 -280.067)"><g id="g20571" fill="#00003a" transform="translate(-.419)"><path id="path6616" d="m48.517578.9140625c-8.030778 0-14.564453 6.5259005-14.564453 14.5566405 0 8.030816 6.533675 14.564453 14.564453 14.564453 8.030816 0 14.556641-6.533637 14.556641-14.564453 0-8.03074-6.525825-14.5566405-14.556641-14.5566405zm0 2c6.949909 0 12.556641 5.6067698 12.556641 12.5566405 0 6.949947-5.606732 12.564453-12.556641 12.564453s-12.5625-5.614506-12.5625-12.564453c0-6.9498707 5.612591-12.5566405 12.5625-12.5566405zm-33.636719 7.4335935c-4.740857-.233035-9.799171 2.805587-12.3671871 8.498047-2.20651928 5.275348-2.24552288 12.631723.7246093 21.398438 3.0159497 8.901921 4.6300879 14.415785 6.2148438 17.863281 1.305562 2.907968 3.39747 4.950736 6.414063 4.978516 4.835905 0 6.199556-5.046345 7.117187-8.837891.682696-2.529222 1.417194-7.255567 4.251953-7.308594 3.19166 0 3.620923 4.691158 4.251953 7.308594.883314 4.080907 2.970113 8.837891 7.115235 8.837891 3.401083 0 5.241365-2.435348 6.423828-4.978516 1.584756-3.447496 3.198894-8.96136 6.214844-17.863281.902664-2.664341 1.519374-5.197792 1.888671-7.582032.332599-1.405682-1.86601-1.743414-1.970703-.302734-.349984 2.259666-.945653 4.677854-1.814453 7.242187-3.026457 8.932989-4.677002 14.500625-6.134765 17.671876-.9583 2.218696-2.40838 3.808593-4.607422 3.808593-3.301115 0-4.454558-4.373538-5.166016-7.30664-.798085-3.659944-1.35937-8.835938-6.201172-8.835938-4.590992 0-5.323728 5.21961-6.193359 8.835938-.735194 3.096-1.99478 7.254634-5.175781 7.30664-2.561953-.043842-3.760832-2.009765-4.597657-3.808593-1.4577635-3.171251-3.1083087-8.738887-6.1347654-17.671876-2.8589102-8.438475-2.7277434-15.316103-.7753906-19.982421 2.8110992-6.461632 11.451244-10.0934026 16.564453-3.919922.433777.52645.869561 1.077809 1.357422 1.605469-1.078904-.119812-1.652035-.221927-2.353516-.363282-1.309115-.36737-1.638834 1.48431-.701172 1.875 2.209134.661985 5.195039.732548 8.009766.796875 2.08989 0 3.586962-.909077 4.671875-2 1.022438-.943294-.476954-2.436525-1.416015-1.410156-.873978.878929-1.692194 1.410156-3.25586 1.410156-2.301279-.048-3.554791-1.705395-4.769531-3.18164-2.010515-2.626087-4.741153-3.94415-7.585938-4.083985z" transform="matrix(.265 0 0 .265 .419 280.067)" font-variant-ligatures="normal" font-variant-position="normal" font-variant-caps="normal" font-variant-numeric="normal" font-variant-alternates="normal" font-feature-settings="normal" text-indent="0" text-align="start" text-decoration-line="none" text-decoration-style="solid" text-decoration-color="#000000" text-transform="none" text-orientation="mixed" white-space="normal" shape-padding="0" isolation="auto" mix-blend-mode="normal" solid-color="#000000" solid-opacity="1" vector-effect="none"/><path id="path11064" d="m11.885057 283.24307c-.996412 0-1.008021 1.85262.0832 1.83813.03257.00025.154823.00067.23461.001.357294.006.359939-.53198.0026-.52917-.0054 0-.238109-.00012-.243411-.00012-.440669 0-.406391-.7843.0052-.7843.735425-.00014 1.597654-.002 2.44998.003.527533 0 .53045.7829.03302.7829-.511074.00004-.872832.00075-1.389579 0-.357625-.005-.358151.5337-.000516.52917.528526.00077.891351 0 1.419034 0 1.156391 0 1.155589-1.84116-.05891-1.84116-.870596-.004-1.764181-.004-2.535228.00055z" font-variant-ligatures="normal" font-variant-position="normal" font-variant-caps="normal" font-variant-numeric="normal" font-variant-alternates="normal" font-feature-settings="normal" text-indent="0" text-align="start" text-decoration-line="none" text-decoration-style="solid" text-decoration-color="#000000" text-transform="none" text-orientation="mixed" white-space="normal" shape-padding="0" isolation="auto" mix-blend-mode="normal" solid-color="#000000" solid-opacity="1" vector-effect="none"/></g></g></svg>