<svg id="svg4593" height="512" viewBox="0 0 16.933333 16.933334" width="512" xmlns="http://www.w3.org/2000/svg" xmlns:svg="http://www.w3.org/2000/svg"><clipPath id="clipPath5337"><path id="rect5339" d="m34.774 274.321h35.435v25.702h-35.435z"/></clipPath><clipPath id="clipPath4542"><path id="rect4544" d="m-535.214-48.848h501.574v185.586h-501.574z"/></clipPath><clipPath id="clipPath11017"><path id="rect11019" d="m36.669 153.503h29.654v28.999h-29.654z" transform="rotate(-90)" vector-effect="none"/></clipPath><clipPath id="clipPath11444"><path id="rect11446" d="m-143.933 265.779h28.84v29.104h-28.84z" transform="rotate(-90)" vector-effect="none"/></clipPath><clipPath id="clipPath11781"><rect id="rect11783" height="32.411" rx=".634" transform="rotate(-90)" width="32.941" x="-145.124" y="181.377"/></clipPath><clipPath id="clipPath11499"><path id="rect11501" d="m-551.399-9.261h16.064v16.347h-16.064z" vector-effect="none"/></clipPath><g id="layer1" transform="translate(0 -280.067)"><path id="path6022" d="m7.09438 280.31855c-3.77684 0-6.84351 3.06874-6.84351 6.84558s3.06667 6.84351 6.84351 6.84351c2.25869 0 4.26346-1.09729 5.51077-2.78691l3.2489 3.24889c.40486.40486.40486 1.04519 0 1.45005s-1.04518.40486-1.45004 0l-2.70888-2.70888c-.24937-.25973-.63386.12476-.37413.37413l2.70887 2.70888c.6057.6057 1.59262.6057 2.19832 0s.6057-1.59261 0-2.19831l-3.32073-3.32073c.65362-1.04856 1.0325-2.28547 1.0325-3.61063 0-3.77684-3.06874-6.84558-6.84558-6.84558zm0 .58188c3.46285 0 6.2637 2.80085 6.2637 6.2637s-2.80085 6.2637-6.2637 6.2637-6.2637-2.80085-6.2637-6.2637 2.80085-6.2637 6.2637-6.2637zm.6134 3.08611c-.16962.24823-.38327.39998-.6134.39998-.29632-.01-.45185-.21754-.6134-.39998-.37775-.37872-.66181-.5763-1.27676-.59331-.8148.0163-1.50477.4782-1.84036 1.23565-.34173.77131-.34177 1.82596.1018 3.06235.44142 1.23039.67442 1.99097.91571 2.48667.22869.49207.55671.75551 1.04696.75551.88184 0 1.03563-.85761 1.21905-1.5565.0909-.34141-.42116-.47783-.51211-.13642-.11917.44008-.24776 1.15719-.70694 1.16375-.32933-.00056-.44836-.24733-.56999-.45889-.20478-.42069-.45004-1.19296-.89452-2.43189-.41109-1.14587-.38542-2.06444-.1173-2.6696.39083-.86143 1.5498-1.29489 2.23604-.51005.077.0883.15683.18921.25941.28422-.14146.0141-.29158.0233-.46044.0186-.34536-.003-.36042.5115-.0155.52917 1.00244 0 1.65332-.15816 2.24018-.83199.20535-.23535.34842-.40521.83612-.41187.64741.00069 1.1326.31739 1.40043.92191.26812.60516.29379 1.52374-.1173 2.66961-.44449 1.23893-.68974 2.0112-.89452 2.43189-.12869.31591-.31558.41474-.57051.45889-.42753 0-.54617-.5439-.64234-.91778-.20599-.93947-.42295-1.30173-1.02371-1.31671-.35312 0-.35312.52968 0 .52968.37521 0 .42524.58601.51005.91778.14306.64145.51879 1.31619 1.156 1.31619.5401 0 .84372-.34264 1.04696-.75551.2413-.4957.47481-1.25628.91623-2.48667.44357-1.23639.44508-2.29103.10335-3.06234-.28343-.70294-1.11087-1.2142-1.88407-1.237-.54044 0-.99505.25597-1.23512.59466z" fill="#00003a" font-variant-ligatures="normal" font-variant-position="normal" font-variant-caps="normal" font-variant-numeric="normal" font-variant-alternates="normal" font-feature-settings="normal" text-indent="0" text-align="start" text-decoration-line="none" text-decoration-style="solid" text-decoration-color="#000000" text-transform="none" text-orientation="mixed" white-space="normal" shape-padding="0" isolation="auto" mix-blend-mode="normal" solid-color="#000000" solid-opacity="1" vector-effect="none"/></g></svg>