<svg id="svg4593" height="512" viewBox="0 0 16.933333 16.933334" width="512" xmlns="http://www.w3.org/2000/svg" xmlns:svg="http://www.w3.org/2000/svg"><clipPath id="clipPath5337"><path id="rect5339" d="m34.774 274.321h35.435v25.702h-35.435z"/></clipPath><clipPath id="clipPath4542"><path id="rect4544" d="m-535.214-48.848h501.574v185.586h-501.574z"/></clipPath><clipPath id="clipPath11017"><path id="rect11019" d="m36.669 153.503h29.654v28.999h-29.654z" transform="rotate(-90)" vector-effect="none"/></clipPath><clipPath id="clipPath11444"><path id="rect11446" d="m-143.933 265.779h28.84v29.104h-28.84z" transform="rotate(-90)" vector-effect="none"/></clipPath><clipPath id="clipPath11781"><rect id="rect11783" height="32.411" rx=".634" transform="rotate(-90)" width="32.941" x="-145.124" y="181.377"/></clipPath><clipPath id="clipPath11499"><path id="rect11501" d="m-551.399-9.261h16.064v16.347h-16.064z" vector-effect="none"/></clipPath><g id="layer1" transform="translate(0 -280.067)"><path id="path5710" d="m32 .99609381c-14.221744 0-25.7695286 10.45593919-25.7695312 24.67773419.0000015 7.290558 4.7332882 16.420289 10.2089842 23.894531 2.932384 4.121874 10.272294 13.457032 15.560547 13.457032 3.563436 0 7.132071-3.835156 9.634766-6.421875.943873-.959917-.514041-2.366398-1.439454-1.388672-2.486578 2.424729-5.437433 5.810547-8.195312 5.810547-3.989422 0-10.452233-7.907798-13.943359-12.638672-5.333825-7.28058-9.8261711-16.322163-9.8261722-22.712891.0000022-13.140888 10.6286652-22.675781 23.7695312-22.675781s23.769535 9.534893 23.769531 22.675781c-.000004 7.588006-6.413894 18.890434-12.939453 26.611328-.92384 1.023.672481 2.37232 1.527344 1.291016 6.71712-7.947591 13.414059-19.238193 13.414062-27.902344.000004-14.221795-11.549741-24.67773419-25.771484-24.67773419zm-14.105469 18.65820319c-1.291577 2.915187-1.28587 6.901249.390625 11.574219 1.668348 4.650255 2.548973 7.524925 3.460938 9.398437.864365 1.859787 2.103111 2.855469 3.957031 2.855469 2.465737 0 3.57168-2.084582 4.164063-4.177734.270572-.965103.474354-1.932464.730468-2.6875.467376-1.283302-1.48752-1.945673-1.896484-.642579-.313228.923377-.513663 1.913221-.759766 2.791016-.350033 1.556228-1.085609 2.716797-2.238281 2.716797-1.244717-.0021-1.694608-.93479-2.154297-1.734375-.773969-1.59001-1.700924-4.508836-3.380859-9.191406-1.553754-4.330848-1.456727-7.802587-.44336-10.089844 1.965033-4.107781 6.53911-4.674408 8.566395-1.794922-.224744-.0145-.47005-.0237-.667969-.04492-1.191375-.09757-1.454857 1.82907-.214844 1.994141 2.414872.223781 5.470123.527933 7.013672-.65625.60696-.450709 1.013541-.980213 1.402344-1.425782 2.672377-2.873336 7.110419-.958922 8.453125 1.927735 1.013363 2.287257 1.110397 5.758996-.44336 10.089844-1.679935 4.68257-2.606891 7.601396-3.380859 9.191406-.486377 1.193989-1.191003 1.734375-2.15625 1.734375-1.767467 0-2.064262-2.05567-2.427734-3.46875-.484078-2.207893-1.598562-4.919936-3.869129-4.976565-1.363604-.03062-1.363604 2.030615 0 2 1.462711.416008 1.607181 2.216779 1.927734 3.470703.540717 2.424401 1.94473 4.924202 4.369141 4.97461 1.983276 0 3.188859-1.295007 3.957031-2.855469.911962-1.873512 1.794543-4.748182 3.462891-9.398437 1.676496-4.67297 1.549612-8.504352.390625-11.574219-1.499121-3.954292-8.240942-6.994756-11.789051-2.429688-1.629714 2.161885-3.09272 1.924822-4.636718 0-3.566838-4.291918-9.442432-2.578596-11.787122 2.429688z" fill="#00003a" transform="matrix(.265 0 0 .265 0 280.067)" font-variant-ligatures="normal" font-variant-position="normal" font-variant-caps="normal" font-variant-numeric="normal" font-variant-alternates="normal" font-feature-settings="normal" text-indent="0" text-align="start" text-decoration-line="none" text-decoration-style="solid" text-decoration-color="#000000" text-transform="none" text-orientation="mixed" white-space="normal" shape-padding="0" isolation="auto" mix-blend-mode="normal" solid-color="#000000" solid-opacity="1" vector-effect="none"/></g></svg>