<svg id="svg4593" height="512" viewBox="0 0 16.933333 16.933334" width="512" xmlns="http://www.w3.org/2000/svg" xmlns:svg="http://www.w3.org/2000/svg"><clipPath id="clipPath5337"><path id="rect5339" d="m34.774 274.321h35.435v25.702h-35.435z"/></clipPath><clipPath id="clipPath4542"><path id="rect4544" d="m-535.214-48.848h501.574v185.586h-501.574z"/></clipPath><clipPath id="clipPath11017"><path id="rect11019" d="m36.669 153.503h29.654v28.999h-29.654z" transform="rotate(-90)" vector-effect="none"/></clipPath><clipPath id="clipPath11444"><path id="rect11446" d="m-143.933 265.779h28.84v29.104h-28.84z" transform="rotate(-90)" vector-effect="none"/></clipPath><clipPath id="clipPath11781"><rect id="rect11783" height="32.411" rx=".634" transform="rotate(-90)" width="32.941" x="-145.124" y="181.377"/></clipPath><clipPath id="clipPath11499"><path id="rect11501" d="m-551.399-9.261h16.064v16.347h-16.064z" vector-effect="none"/></clipPath><g id="layer1" transform="translate(0 -280.067)"><g id="g5333" transform="translate(0 2.112)"><path id="path18171" d="m20.179688.88476562c-4.427352-.03953186-8.860696 3.00128688-11.0117192 7.60156248-2.0542489 4.6365359-2.0831883 11.0880899.6621093 18.7402339 2.7762519 7.738319 4.2586949 12.529288 5.7285159 15.548829 1.255067 2.63365 3.238999 4.355586 5.972656 4.378906 2.175685 0 3.77314-1.147841 4.732422-2.65625 1.784404-3.086552 1.941508-6.515566 3.367187-9.720703 1.003389-2.28121 3.83539-1.945625 4.738282 0 1.930019 3.942647 1.57794 12.376953 8.099609 12.376953 3.253374 0 4.83687-2.071958 5.972656-4.378906 1.469783-3.019541 2.952264-7.81051 5.728516-15.548829 2.745298-7.652144 2.716358-14.103698.662109-18.7402339-3.389669-7.0787527-13.284865-10.5931858-18.480469-3.875-2.552428 3.6746457-6.107421 3.0292914-8.703124 0-2.158385-2.5703433-4.81234-3.70284336-7.46875-3.72656248zm23.78125 2.22851558c3.723414.1987423 7.528204 2.9318773 9.042968 6.1835938 1.776 4.008643 1.90578 9.943884-.716797 17.253906-2.787779 7.770633-4.310748 12.613572-5.642578 15.34961-.893291 1.969776-2.285488 3.241131-4.175781 3.253906-4.497713 0-4.676573-7.943253-6.330078-11.310547-2.248403-3.840038-6.677659-3.42274-8.277344 0-1.636951 3.091616-1.58297 6.670409-3.285156 9.580078-.714482 1.123502-1.497621 1.730469-3.044922 1.730469-2.266961-.0189-3.395271-1.669793-4.175781-3.253906-1.331792-2.736038-2.854761-7.578977-5.642578-15.34961-2.6225768-7.310022-2.492835-13.245263-.716797-17.253906 2.621707-5.6160756 10.438944-8.73584299 15.144531-3.3691406.375685.4306393 1.043906 1.1273007 1.466797 1.5664062-1.906583-.2418897-3.011642-.5972326-3.603516-.7558594-1.341127-.4877858-1.794524 1.5483688-.759765 1.8515626 2.85891 1.0522582 9.415426 2.0787112 12.43164-.4179688 1.226268-.9902362 1.525729-1.4902005 2.183594-2.2441406 1.66225-2.1400866 3.867514-2.9336985 6.101563-2.8144532z" fill="#00003a" transform="matrix(.265 0 0 .265 0 280.067)" font-variant-ligatures="normal" font-variant-position="normal" font-variant-caps="normal" font-variant-numeric="normal" font-variant-alternates="normal" font-feature-settings="normal" text-indent="0" text-align="start" text-decoration-line="none" text-decoration-style="solid" text-decoration-color="#000000" text-transform="none" text-orientation="mixed" white-space="normal" shape-padding="0" isolation="auto" mix-blend-mode="normal" solid-color="#000000" solid-opacity="1" vector-effect="none"/></g><g fill="#00003a"><path id="path5443" d="m.50195312 280.33203c-.13541181.0135-.23847322.12758-.23828124.26367v1.6875c0 .35286.52929687.35286.52929687 0v-1.42187h1.45507815c.3528667 0 .3528667-.5293 0-.5293h-1.71875002c-.009108-.00047-.0182353-.00047-.0273438 0z" font-variant-ligatures="normal" font-variant-position="normal" font-variant-caps="normal" font-variant-numeric="normal" font-variant-alternates="normal" font-feature-settings="normal" text-indent="0" text-align="start" text-decoration-line="none" text-decoration-style="solid" text-decoration-color="#000000" text-transform="none" text-orientation="mixed" white-space="normal" shape-padding="0" isolation="auto" mix-blend-mode="normal" solid-color="#000000" solid-opacity="1" vector-effect="none"/><path id="path5445" d="m.26367188 294.7832v1.6875c-.00056761.14694.11868908.26619.265625.26563h1.71875002c.3528665 0 .3528665-.5293 0-.5293h-1.45507815v-1.42383c0-.36793-.52929687-.37096-.52929687 0z" font-variant-ligatures="normal" font-variant-position="normal" font-variant-caps="normal" font-variant-numeric="normal" font-variant-alternates="normal" font-feature-settings="normal" text-indent="0" text-align="start" text-decoration-line="none" text-decoration-style="solid" text-decoration-color="#000000" text-transform="none" text-orientation="mixed" white-space="normal" shape-padding="0" isolation="auto" mix-blend-mode="normal" solid-color="#000000" solid-opacity="1" vector-effect="none"/><path id="path5447" d="m14.658203 280.33203c-.351747 0-.327327.54636.02539.5293h1.455078v1.42187c0 .35286.529297.35286.529297 0v-1.6875c-.000516-.14541-.118264-.26316-.263672-.26367-.581127 0-1.166917 0-1.746093 0z" font-variant-ligatures="normal" font-variant-position="normal" font-variant-caps="normal" font-variant-numeric="normal" font-variant-alternates="normal" font-feature-settings="normal" text-indent="0" text-align="start" text-decoration-line="none" text-decoration-style="solid" text-decoration-color="#000000" text-transform="none" text-orientation="mixed" white-space="normal" shape-padding="0" isolation="auto" mix-blend-mode="normal" solid-color="#000000" solid-opacity="1" vector-effect="none"/><path id="path5449" d="m16.138672 294.7832v1.42383h-1.455078c-.352867 0-.352867.5293 0 .5293h1.720703c.146173-.00052.264236-.11946.263672-.26563v-1.6875c0-.42456-.529297-.41703-.529297 0z" font-variant-ligatures="normal" font-variant-position="normal" font-variant-caps="normal" font-variant-numeric="normal" font-variant-alternates="normal" font-feature-settings="normal" text-indent="0" text-align="start" text-decoration-line="none" text-decoration-style="solid" text-decoration-color="#000000" text-transform="none" text-orientation="mixed" white-space="normal" shape-padding="0" isolation="auto" mix-blend-mode="normal" solid-color="#000000" solid-opacity="1" vector-effect="none"/></g></g></svg>