<svg id="svg4593" height="512" viewBox="0 0 16.933333 16.933334" width="512" xmlns="http://www.w3.org/2000/svg" xmlns:svg="http://www.w3.org/2000/svg"><clipPath id="clipPath5337"><path id="rect5339" d="m34.774 274.321h35.435v25.702h-35.435z"/></clipPath><clipPath id="clipPath4542"><path id="rect4544" d="m-535.214-48.848h501.574v185.586h-501.574z"/></clipPath><clipPath id="clipPath11017"><path id="rect11019" d="m36.669 153.503h29.654v28.999h-29.654z" transform="rotate(-90)" vector-effect="none"/></clipPath><clipPath id="clipPath11444"><path id="rect11446" d="m-143.933 265.779h28.84v29.104h-28.84z" transform="rotate(-90)" vector-effect="none"/></clipPath><clipPath id="clipPath11781"><rect id="rect11783" height="32.411" rx=".634" transform="rotate(-90)" width="32.941" x="-145.124" y="181.377"/></clipPath><clipPath id="clipPath11499"><path id="rect11501" d="m-551.399-9.261h16.064v16.347h-16.064z" vector-effect="none"/></clipPath><g id="layer1" transform="translate(0 -280.067)"><path id="path18171-0-7" d="m5.063783 280.32813c-.1453118.003-.2611321.12236-.2594158.26769v1.71255c0 .53077.4340363.96687.9647992.96687h.175183v.80253c0 .53077.4355883.96635.9663493.96635h.4051432v1.05575c-.3132849-.0908-.6186839-.30535-.8857339-.61701-.5710801-.68007-1.2732671-.97971-1.9761068-.98599-1.1714001-.0105-2.3443874.79409-2.9135173 2.01125-.54352002 1.22675-.55117688 2.93372.1751831 4.95835.73455 2.04743 1.1267797 3.31504 1.5156698 4.11396.3320698.69682.8569851 1.15242 1.5802652 1.15859.57565 0 .9983099-.3037 1.25212-.7028.2832298-.48991.4136712-1.01253.5524209-1.53531.0905-.32745-.4183764-.52059-.5276162-.11989-.11742.47644-.2252091.95034-.4712891 1.37098-.18904.29726-.3962455.45785-.8056356.45785-.5998001-.005-.8983321-.4418-1.104842-.86093-.35237-.72391-.7553222-2.00527-1.4929321-4.06125-.6938902-1.93411-.6595627-3.50448-.1896526-4.5651.69366-1.48592 2.7619706-2.31135 4.0069905-.89141.0994.11394.2762001.29825.38809.41444-.5044501-.064-.7968302-.15802-.9534302-.19999-.3548399-.12906-.4748012.40968-.2010212.4899.7564199.27841 2.4911648.54999 3.2892047-.11059.3244501-.262.4036825-.39428.5777426-.59376.4397949-.56623 1.0232823-.77621 1.6143723-.74466.985159.0526 1.991838.77572 2.392618 1.63607.4699 1.06062.504238 2.63099-.189652 4.5651-.7376 2.05598-1.140552 3.33734-1.492932 4.06125-.23635.52117-.604703.85755-1.104843.86093-1.1900046 0-1.2373428-2.10165-1.6748326-2.99258-.59489-1.01601-1.7667973-.9056-2.1900473 0-.13232.36735.3619265.48427.4924764.20102.28321-.5505.9970225-.45474 1.2293825.046.5106498 1.04315.4175066 3.27474 2.143021 3.27474.860791 0 1.279756-.54821 1.580266-1.15859.38888-.79892.78112-2.06653 1.51567-4.11396.72636-2.02463.718703-3.7316.175183-4.95835-.89685-1.87292-3.514959-2.80278-4.8896245-1.02526-.2653855.38206-.5719884.5853-.8878009.64544v-1.08418h.4072102c.530761 0 .9663493-.43558.9663493-.96635v-.80253h.1756997c.5307632 0 .9647992-.4361.9647992-.96687v-1.44797h4.680334c.123672 0 .214974.0913.214974.21497v.52917c0 .12367-.0913.21497-.214974.21497h-3.96875c-.357802-.005-.357802.53423 0 .52917h3.96875c.407678 0 .744141-.33646.744141-.74414v-.52917c0-.40767-.336463-.74414-.744141-.74414-2.939109-.00066-5.8752257.001-8.8134151.001-.3607869-.008-.3607869.53726 0 .52916h3.6033977v1.44694c0 .24658-.1885387.4377-.4351158.4377-1.2079329-.001-2.4170134 0-3.6251014 0-.2465761 0-.4376994-.19112-.4376994-.4377v-1.71255c.00174-.14855-.1191332-.26942-.267684-.26769zm1.409733 2.94711h2.2158854v.80253c0 .24658-.1906047.43719-.4371826.43719h-1.3415201c-.2465779 0-.4371827-.19061-.4371827-.43719z" fill="#00003a" font-variant-ligatures="normal" font-variant-position="normal" font-variant-caps="normal" font-variant-numeric="normal" font-variant-alternates="normal" font-feature-settings="normal" text-indent="0" text-align="start" text-decoration-line="none" text-decoration-style="solid" text-decoration-color="#000000" text-transform="none" text-orientation="mixed" white-space="normal" shape-padding="0" isolation="auto" mix-blend-mode="normal" solid-color="#000000" solid-opacity="1" vector-effect="none"/></g></svg>