<svg id="svg4593" height="512" viewBox="0 0 16.933333 16.933334" width="512" xmlns="http://www.w3.org/2000/svg" xmlns:svg="http://www.w3.org/2000/svg"><clipPath id="clipPath5337"><path id="rect5339" d="m34.774 274.321h35.435v25.702h-35.435z"/></clipPath><clipPath id="clipPath4542"><path id="rect4544" d="m-535.214-48.848h501.574v185.586h-501.574z"/></clipPath><clipPath id="clipPath11017"><path id="rect11019" d="m36.669 153.503h29.654v28.999h-29.654z" transform="rotate(-90)" vector-effect="none"/></clipPath><clipPath id="clipPath11444"><path id="rect11446" d="m-143.933 265.779h28.84v29.104h-28.84z" transform="rotate(-90)" vector-effect="none"/></clipPath><clipPath id="clipPath11781"><rect id="rect11783" height="32.411" rx=".634" transform="rotate(-90)" width="32.941" x="-145.124" y="181.377"/></clipPath><clipPath id="clipPath11499"><path id="rect11501" d="m-551.399-9.261h16.064v16.347h-16.064z" vector-effect="none"/></clipPath><g id="layer1" fill="#00003a" transform="scale(.265)"><path id="path6616-4" d="m14.880859 10.347656c-4.740863-.233035-9.799171 2.805587-12.3671871 8.498047-2.20651928 5.275348-2.24552288 12.631723.7246093 21.398438 3.0159497 8.901921 4.6300879 14.415785 6.2148438 17.863281 1.305562 2.907968 3.39747 4.950736 6.414063 4.978516 4.835905 0 6.199556-5.046345 7.117187-8.837891.682696-2.529222 1.417194-7.255567 4.251953-7.308594 3.19166 0 3.620923 4.691158 4.251953 7.308594.883314 4.080907 2.970113 8.837891 7.115235 8.837891 3.401083 0 5.241365-2.435348 6.423828-4.978516 1.584756-3.447496 3.198894-8.96136 6.214844-17.863281.902664-2.664341 1.519374-5.197792 1.888671-7.582032.332599-1.405682-1.86601-1.743414-1.970703-.302734-.349984 2.259666-.945653 4.677854-1.814453 7.242187-3.026457 8.932989-4.677002 14.500625-6.134765 17.671876-.9583 2.218696-2.40838 3.808593-4.607422 3.808593-3.301115 0-4.454558-4.373538-5.166016-7.30664-.798085-3.659944-1.35937-8.835938-6.201172-8.835938-4.590992 0-5.323728 5.21961-6.193359 8.835938-.735194 3.096-1.99478 7.254634-5.175781 7.30664-2.561953-.043842-3.760832-2.009765-4.597657-3.808593-1.4577635-3.171251-3.1083087-8.738887-6.1347654-17.671876-2.8589102-8.438475-2.7277434-15.316103-.7753906-19.982421 2.8110992-6.461632 11.451244-10.0934026 16.564453-3.919922.433777.52645.869561 1.077809 1.357422 1.605469-1.078904-.119812-1.652035-.221927-2.353516-.363282-1.309115-.36737-1.638834 1.48431-.701172 1.875 2.209134.661985 5.195039.732548 8.009766.796875 2.08989 0 3.586962-.909077 4.671875-2 1.022438-.943294-.476954-2.436525-1.416015-1.410156-.873978.878929-1.692194 1.410156-3.25586 1.410156-2.301279-.048-3.554791-1.705395-4.769531-3.18164-2.010515-2.626087-4.74115-3.94415-7.585938-4.083985z" font-variant-ligatures="normal" font-variant-position="normal" font-variant-caps="normal" font-variant-numeric="normal" font-variant-alternates="normal" font-feature-settings="normal" text-indent="0" text-align="start" text-decoration-line="none" text-decoration-style="solid" text-decoration-color="#000000" text-transform="none" text-orientation="mixed" white-space="normal" shape-padding="0" isolation="auto" mix-blend-mode="normal" solid-color="#000000" solid-opacity="1" vector-effect="none"/><path id="path16811" d="m47.392578 1.0039062c-1.648403 0-3.217228 1.3052881-3.005859 3.0039063-.477593.1636535-.940349.3556364-1.394531.5761719-1.092788-1.4359461-3.091594-1.1682142-4.259766 0l-1.394531 1.3945312c-1.310664 1.3106637-1.162165 3.0346385 0 4.1269534-.274145.535861-.515141 1.082466-.708985 1.652343-1.603269-.309781-2.878906 1.299367-2.878906 2.878907v1.978515c0 1.510413 1.246956 2.955164 2.753906 2.746094.2169.701367.497073 1.378979.833985 2.03125-1.271906 1.295242-1.062879 2.812121 0 3.875l1.394531 1.394531c-.00001.0026-.00001.0052 0 .0078 1.028485 1.028447 2.833646.924781 3.75 0 .727147.391408 1.38167.681837 2.171875.921875-.0096 1.411223 1.296452 2.658203 2.738281 2.658203h1.970703c1.43373 0 2.693759-1.246504 2.691406-2.613281.791279-.242646 1.475634-.572479 2.203125-.966797.874038 1.01157 2.731139 1.032491 3.763672 0l1.394532-1.402344c1.052761-1.052749 1.026435-2.844776 0-3.83789.335017-.65624.606451-1.339965.820312-2.044922 1.45235.15185 2.767578-1.250728 2.767578-2.769532v-1.978515c0-1.587666-1.289102-2.892578-2.892578-2.892578-.191206-.557783-.427068-1.099948-.695312-1.625 1.165475-1.0800423 1.133752-2.9990302 0-4.1328129l-1.394532-1.4023307c-1.164124-1.1641701-3.317047-1.082216-4.24414 0-.455146-.2188347-.923996-.4063311-1.402344-.5683594.205962-1.6379585-1.359264-3.0117188-3.011719-3.0117188zm0 2h1.970703c.675239 0 1.1875.5111914 1.1875 1.1875v.5625c.0011.4453405.296497.8363107.72461.9589844.72119.2067402 1.419696.4935779 2.080078.8496094.38987.2084373.870337.1361687 1.18164-.1777344l.384766-.3847656c.477649-.4776567 1.203995-.4776567 1.681641 0l1.404296 1.3964844c.477661.4776567.477638 1.2040217 0 1.6816406l-.36914.3613281c-.31688.3171942-.383933.8065199-.164063 1.1972659.374703.665045.679145 1.372933.900391 2.103515.127742.419852.514273.707375.953125.708985h.488281c.676335 0 1.1875.512249 1.1875 1.1875v1.978515c0 .675213-.511184 1.189454-1.1875 1.189454h-.421875c-.44988-.0017-.845509.297243-.966797.730468-.207458.758362-.499305 1.492798-.871093 2.185547-.207455.389385-.135239.868711.177734 1.179688l.271484.273437c.477672.477695.477672 1.205899 0 1.683594l-1.402343 1.394531c-.477638.477619-1.204003.477619-1.681641 0l-.244141-.25c-.31863-.3191-.8114-.385496-1.203125-.162109-.696831.394204-1.430942.712278-2.199218.9375-.428113.122674-.72353.513644-.72461.958984v.324219c0 .676346-.512238 1.189453-1.1875 1.189453h-1.970703c-.675262 0-1.189453-.513107-1.189453-1.189453v-.332031c-.000828-.444796-.295317-.835592-.722656-.958985-.769731-.221858-1.515922-.532307-2.214844-.923828-.390275-.21887-.878442-.151866-1.195313.164063l-.236328.242187c-.477637.477619-1.205956.477619-1.683593 0l-1.396485-1.394531c.00001-.0026.00001-.0052 0-.0078-.477668-.477656-.477668-1.198086 0-1.675781l.273438-.279297c.31504-.314485.384304-.799336.169922-1.189453-.377575-.690268-.671253-1.420481-.884766-2.177747-.12419-.430127-.519108-.725318-.966797-.722656h-.40625c-.676321 0-1.189453-.514241-1.189453-1.189454v-1.978515c0-.675251.513112-1.1875 1.189453-1.1875h.478516c.441739.0018.832356-.28637.960937-.708985.220876-.732434.517536-1.436769.892578-2.103515.223387-.391725.156992-.8844947-.162109-1.2031252l-.361328-.3554688c-.477634-.4776189-.477661-1.2039839 0-1.6816406l1.402344-1.3964844c.477649-.4776567 1.205948-.4776567 1.683593 0l.390625.3925781c.313177.3112906.793439.3803531 1.181641.1699219.658307-.3586772 1.354506-.6474313 2.074219-.8574219.427338-.123393.721828-.5141886.722656-.9589843v-.5546876c0-.6763086.514214-1.1875 1.189453-1.1875zm.988281 8.7695318c-2.114755 0-3.853542 1.738756-3.853515 3.853515.000004 2.114759 1.738779 3.845703 3.853515 3.845703 2.114741 0 3.845704-1.730944 3.845703-3.845703.000027-2.114759-1.730944-3.853515-3.845703-3.853515zm0 2c1.033871 0 1.845719.819663 1.845703 1.853515 0 1.033852-.811843 1.845703-1.845703 1.845703-1.033859 0-1.853515-.811851-1.853515-1.845703-.000012-1.033852.819648-1.853515 1.853515-1.853515z" font-variant-ligatures="normal" font-variant-position="normal" font-variant-caps="normal" font-variant-numeric="normal" font-variant-alternates="normal" font-feature-settings="normal" text-indent="0" text-align="start" text-decoration-line="none" text-decoration-style="solid" text-decoration-color="#000000" text-transform="none" text-orientation="mixed" white-space="normal" shape-padding="0" isolation="auto" mix-blend-mode="normal" solid-color="#000000" solid-opacity="1" vector-effect="none"/></g></svg>