<svg id="svg4593" height="512" viewBox="0 0 16.933333 16.933334" width="512" xmlns="http://www.w3.org/2000/svg" xmlns:svg="http://www.w3.org/2000/svg"><clipPath id="clipPath5337"><path id="rect5339" d="m34.774 274.321h35.435v25.702h-35.435z"/></clipPath><clipPath id="clipPath4542"><path id="rect4544" d="m-535.214-48.848h501.574v185.586h-501.574z"/></clipPath><clipPath id="clipPath11017"><path id="rect11019" d="m36.669 153.503h29.654v28.999h-29.654z" transform="rotate(-90)" vector-effect="none"/></clipPath><clipPath id="clipPath11444"><path id="rect11446" d="m-143.933 265.779h28.84v29.104h-28.84z" transform="rotate(-90)" vector-effect="none"/></clipPath><clipPath id="clipPath11781"><rect id="rect11783" height="32.411" rx=".634" transform="rotate(-90)" width="32.941" x="-145.124" y="181.377"/></clipPath><clipPath id="clipPath11499"><path id="rect11501" d="m-551.399-9.261h16.064v16.347h-16.064z" vector-effect="none"/></clipPath><g id="layer1" fill="#00003a" transform="translate(0 -280.067)"><path id="path4163" d="m8.466671 282.25869c-.3014599.6804-.29923 1.60498.08785 2.68407.3829198 1.06731.5850205 1.72489.7968504 2.16008.2053201.43921.5024675.67541.9394776.67541.66219 0 .88406-.57578 1.02526-1.11881.1111-.35394-.436506-.4961-.511597-.13281-.0742.39486-.232113.72244-.513663.72244-.27159.00005-.3856306-.19155-.4630207-.37671-.1753201-.36017-.3891666-1.03357-.7751466-2.10943-.3546599-.98856-.3296526-1.77707-.1018027-2.29134.3030673-.76436 1.319016-1.07932 1.883089-.43356.0262.0301.05603.0643.08423.0971-.0703.002-.146173.006-.179833.00052-.37379-.0316-.431419.52193-.04341.52193.5722.0286 1.244-.0152 1.61954-.28732.14422-.10709.239484-.23067.328146-.33228.680132-.69248 1.580573-.2158 1.882571.43356.227841.51427.251307 1.30277-.103352 2.29133-.385982 1.07586-.598275 1.74926-.773596 2.10943-.107209.234-.233252.37672-.463021.37672-.38844 0-.446233-.46324-.525034-.76946-.115099-.52304-.341547-1.16996-.921906-1.16996-.36079-.008-.36079.53727 0 .52917.31101.0208.335783.48831.408244.77153.130719.57132.464217 1.15569 1.038696 1.16789.47657 0 .755208-.30407.937927-.67541.211841-.43519.41394-1.09277.796851-2.16008.387141-1.07907.388842-2.00366.08733-2.68407-.423512-1.02969-1.938906-1.4746-2.763139-.56793-.15347.17562-.310113.3359-.505912.3359-.24686-.008-.371863-.18529-.505913-.3359-.773972-.93381-2.2142093-.60987-2.765716.56799z" font-variant-ligatures="normal" font-variant-position="normal" font-variant-caps="normal" font-variant-numeric="normal" font-variant-alternates="normal" font-feature-settings="normal" text-indent="0" text-align="start" text-decoration-line="none" text-decoration-style="solid" text-decoration-color="#000000" text-transform="none" text-orientation="mixed" white-space="normal" shape-padding="0" isolation="auto" mix-blend-mode="normal" solid-color="#000000" solid-opacity="1" vector-effect="none"/><path id="path3870" d="m1.2009603 287.19895c-.5139736 0-.9374105.42343-.9374105.93741v5.27926c0 .51398.4234369.93586.9374105.93586h1.9668049c.5139735 0 .9379273-.42188.9379273-.93586v-4.4943c.5066516-.24364 1.1842421-.57595 1.7399454-.7338.413185-.0937.5775315-.0734.7911661-.004l2.6132774.8692c1.1052776.4177.8066696 2.16909-.390674 2.16782-.3517442.03-.3067857.55759.044959.52762.7669268-.0646 1.2154046-.43447 1.4293696-.79323.10444-.17512.157979-.34781.186035-.48008l4.237984-.57464c.695093-.11235 1.094247.0986 1.292945.49971.186259.39981.125223.92615-.423747 1.33636l-5.398637 3.45663c-.3693065.22975-.9943449.22602-1.4510737-.01l-3.599264-2.56827c-.287665-.20464-.5946232.22686-.3069579.43149l3.6251017 2.58589c.583129.35972 1.4926154.35624 2.0153809.008l5.416207-3.46904c.705745-.45293.858984-1.40136.601511-1.99578-.286697-.61541-1.012473-.93541-1.863452-.79633l-4.19716.56947c-.07456-.61888-.421184-1.18891-1.0505814-1.39836l-2.615344-.8692c-.3875638-.11914-.7497755-.10044-1.0567831-.017-.6224212.19482-1.0577195.41265-1.64021.67748v-.20464c0-.51398-.4239538-.93741-.9379273-.93741zm0 .52916h1.9668049c.2299682 0 .4082439.17828.4082439.40825-.015886 1.75199 0 3.51147 0 5.27926 0 .22997-.1782757.40618-.4082439.40618h-1.9668049c-.22996834 0-.40824385-.17621-.40824383-.40618v-5.27926c0-.22997.17827549-.40825.40824383-.40825zm.949296.63666c-.5044185 0-.9198406.41387-.9198405.91829 0 .50442.415422.91984.9198405.91984.5044186 0 .9182901-.41542.9182901-.91984s-.4138715-.91829-.9182901-.91829zm0 .52968c.2184356 0 .3886068.17018.3886068.38861 0 .21844-.1701712.39067-.3886068.39067s-.3906738-.17223-.3906738-.39067c0-.21843.1722382-.38861.3906738-.38861z" font-variant-ligatures="normal" font-variant-position="normal" font-variant-caps="normal" font-variant-numeric="normal" font-variant-alternates="normal" font-feature-settings="normal" text-indent="0" text-align="start" text-decoration-line="none" text-decoration-style="solid" text-decoration-color="#000000" text-transform="none" text-orientation="mixed" white-space="normal" shape-padding="0" isolation="auto" mix-blend-mode="normal" solid-color="#000000" solid-opacity="1" vector-effect="none"/></g></svg>