<svg id="svg4593" height="512" viewBox="0 0 16.933333 16.933334" width="512" xmlns="http://www.w3.org/2000/svg" xmlns:svg="http://www.w3.org/2000/svg"><clipPath id="clipPath5337"><path id="rect5339" d="m34.774 274.321h35.435v25.702h-35.435z"/></clipPath><clipPath id="clipPath4542"><path id="rect4544" d="m-535.214-48.848h501.574v185.586h-501.574z"/></clipPath><clipPath id="clipPath11017"><path id="rect11019" d="m36.669 153.503h29.654v28.999h-29.654z" transform="rotate(-90)" vector-effect="none"/></clipPath><clipPath id="clipPath11444"><path id="rect11446" d="m-143.933 265.779h28.84v29.104h-28.84z" transform="rotate(-90)" vector-effect="none"/></clipPath><clipPath id="clipPath11781"><rect id="rect11783" height="32.411" rx=".634" transform="rotate(-90)" width="32.941" x="-145.124" y="181.377"/></clipPath><clipPath id="clipPath11499"><path id="rect11501" d="m-551.399-9.261h16.064v16.347h-16.064z" vector-effect="none"/></clipPath><g id="layer1" fill="#00003a" transform="translate(0 -280.067)"><path id="path18253-9-8-2" d="m9.9897 281.54854c-.23481.28496-.43535.54631-.66197.72451-.55178.35781-1.21975.38824-1.7229 0-.22662-.1782-.42716-.43954-.66197-.72451-2.13916-2.45373-5.4726-.80501-6.19704 1.37666-.67314 1.60887-.69969 3.84589.17105 6.51278.099.36959.60677.12927.53589-.15658-.84579-2.58231-.79801-4.69583-.19327-6.14122.92993-1.99074 3.5751-3.25997 5.25187-1.23662.15876.19267.31688.3952.50178.58188-.44339-.0555-.92619-.13723-1.35909-.26149-.36375-.0745-.40872.41953-.14676.50798.854.28119 3.07535.81535 4.16408-.0217.30348-.23863.52296-.53323.74828-.80667 1.53919-1.78199 4.28021-1.02922 5.25188 1.23662.61662 1.47378.65811 3.64086-.2403 6.29264-.94884 2.80061-1.46667 4.54413-1.92598 5.54333-.30574.70739-.78446 1.20983-1.47433 1.21491-.54109 0-.83112-.23491-1.08417-.65629-.60066-1.10956-.60514-2.39729-1.12293-3.46128-.62388-1.25126-2.07494-1.23748-2.71508 0-.55675 1.12537-.51401 2.41698-1.12293 3.46128-.25306.42138-.54256.65629-1.08365.65629-.81594-.003-1.2105-.6467-1.47485-1.21491-.40722-.88589-.90722-2.48743-1.66605-4.76147-.0888-.33159-.64582-.26258-.52658.18242.77068 2.31011 1.24108 3.84665 1.68465 4.81159.40417.90032 1.05132 1.53893 1.98283 1.53893.72672 0 1.24528-.39833 1.56218-.92604.6528-1.11124.60617-2.39226 1.14256-3.49798.4785-.86991 1.3553-.7122 1.71876 0 .5184 1.14926.54224 2.47123 1.14257 3.49798.31691.52771.83597.92604 1.56269.92604 1.05194 0 1.61771-.75472 1.98231-1.53893.49473-1.07626.99972-2.80616 1.94562-5.5981.92953-2.7436.91613-5.04168.22841-6.68538-1.102212-2.60625-4.260962-3.52927-6.19756-1.37667z" font-variant-ligatures="normal" font-variant-position="normal" font-variant-caps="normal" font-variant-numeric="normal" font-variant-alternates="normal" font-feature-settings="normal" text-indent="0" text-align="start" text-decoration-line="none" text-decoration-style="solid" text-decoration-color="#000000" text-transform="none" text-orientation="mixed" white-space="normal" shape-padding="0" isolation="auto" mix-blend-mode="normal" solid-color="#000000" solid-opacity="1" vector-effect="none"/><path id="path6491" d="m6.60755 286.61246c-.6706-.24485-1.06746.22599-1.08203.71898 0 1.68221 1.37485 2.86081 2.94141 2.87891 1.71435 0 2.9414-1.47018 2.9414-2.87891.008-.35331-.52194-.36503-.52929-.0117 0 1.41184-1.1264 2.3465-2.41211 2.36133-1.32105-.0641-2.35235-.94949-2.41016-2.35742 0-.27637.22101-.27888.34375-.2245.71544.27942 1.40776.4058 2.06445.41211.001.00001.003.00001.004 0 .59259-.005 1.21265-.10869 1.853521-.33398.33333-.11589.159509-.61589-.173831-.5-.58674.20626-1.14633.29956-1.67969.30468-.66739-.0407-1.18165-.0871-1.86133-.3695z" font-variant-ligatures="normal" font-variant-position="normal" font-variant-caps="normal" font-variant-numeric="normal" font-variant-alternates="normal" font-feature-settings="normal" text-indent="0" text-align="start" text-decoration-line="none" text-decoration-style="solid" text-decoration-color="#000000" text-transform="none" text-orientation="mixed" white-space="normal" shape-padding="0" isolation="auto" mix-blend-mode="normal" solid-color="#000000" solid-opacity="1" vector-effect="none"/><path id="path6504" d="m4.371224 284.62579c.257869-.25787.607973-.40235.972656-.40235s.714786.14448.972656.40235c.25.25-.125.625-.375.375-.158775-.15878-.373114-.24805-.597656-.24805-.224543 0-.438881.0893-.597656.24805-.275078.2492-.620901-.1447-.375-.375z" font-variant-ligatures="normal" font-variant-position="normal" font-variant-caps="normal" font-variant-numeric="normal" font-variant-alternates="normal" font-feature-settings="normal" text-indent="0" text-align="start" text-decoration-line="none" text-decoration-style="solid" text-decoration-color="#000000" text-transform="none" text-orientation="mixed" white-space="normal" shape-padding="0" isolation="auto" mix-blend-mode="normal" solid-color="#000000" solid-opacity="1" vector-effect="none"/><path id="path6506" d="m10.172005 284.67266c.25787-.25787.60602-.40234.970703-.40234s.714786.14447.972656.40234c.266285.24852-.123135.63998-.373047.375-.158775-.15877-.375066-.24805-.599609-.24805s-.438881.0893-.597656.24805c-.288423.28561-.621742-.13186-.373047-.375z" font-variant-ligatures="normal" font-variant-position="normal" font-variant-caps="normal" font-variant-numeric="normal" font-variant-alternates="normal" font-feature-settings="normal" text-indent="0" text-align="start" text-decoration-line="none" text-decoration-style="solid" text-decoration-color="#000000" text-transform="none" text-orientation="mixed" white-space="normal" shape-padding="0" isolation="auto" mix-blend-mode="normal" solid-color="#000000" solid-opacity="1" vector-effect="none"/></g></svg>