<svg id="svg4593" height="512" viewBox="0 0 16.933333 16.933334" width="512" xmlns="http://www.w3.org/2000/svg" xmlns:svg="http://www.w3.org/2000/svg"><clipPath id="clipPath5337"><path id="rect5339" d="m34.774 274.321h35.435v25.702h-35.435z"/></clipPath><clipPath id="clipPath4542"><path id="rect4544" d="m-535.214-48.848h501.574v185.586h-501.574z"/></clipPath><clipPath id="clipPath11017"><path id="rect11019" d="m36.669 153.503h29.654v28.999h-29.654z" transform="rotate(-90)" vector-effect="none"/></clipPath><clipPath id="clipPath11444"><path id="rect11446" d="m-143.933 265.779h28.84v29.104h-28.84z" transform="rotate(-90)" vector-effect="none"/></clipPath><clipPath id="clipPath11781"><rect id="rect11783" height="32.411" rx=".634" transform="rotate(-90)" width="32.941" x="-145.124" y="181.377"/></clipPath><clipPath id="clipPath11499"><path id="rect11501" d="m-551.399-9.261h16.064v16.347h-16.064z" vector-effect="none"/></clipPath><g id="layer1" transform="translate(0 -280.067)"><path id="path5172" d="m51.417969 1.8808594c-2.799005 1.042696-5.512639 2.8952131-7.291016 5.2363281-.80778 1.0625662.78597 2.2735037 1.59375 1.2109375 1.484954-1.9548094 3.935775-3.6563727 6.394531-4.5722656 6.535937-2.6092579 8.931592 1.6013169 8.884766 6.2792966-.427617 8.272431-8.793624 20.554288-16.047325 20.81836-8.476349 0-14.78349-11.318538-15.726113-20.439454-.353007-3.7622468.937023-7.3628803 4.40625-7.4101558 3.108357-.0047 6.096077 1.2141349 8.082019 2.7929688 1.034416.8783199 2.33208-.7052695 1.267591-1.546875-3.083743-2.5258583-6.489826-3.26684336-9.351563-3.2460938-5.786728 0-6.767024 5.2674957-6.396484 9.5937498.811234 9.648853 7.965924 22.25 17.689453 22.25 7.781631 0 17.730165-12.62248 18.076172-22.765625 0-8.0820165-5.243878-10.4641348-11.582031-8.2011716zm-36.779297 8.5644526c-5.4283303 0-9.9295042 3.130786-12.1367189 8.40625-2.20721463 5.275465-2.24582789 12.632756.7246094 21.400391 3.0159393 8.901921 4.6300965 14.417701 6.2148437 17.865235 1.3078868 2.906283 3.4028858 4.939674 6.4140628 4.966796 4.479533 0 6.197781-5.034372 7.117187-8.835937.68324-2.535041 1.415582-7.248063 4.259766-7.300781 3.182009 0 3.621462 4.687262 4.251953 7.300781.878851 4.091016 2.950969 8.835937 7.115234 8.835937 3.495216 0 5.233648-2.423263 6.416016-4.966796 3.104935-8.039836 5.373784-14.584683 7.994141-24.759766.258274-1.335944-1.766605-1.685131-1.970704-.339844-2.766984 11.258246-5.792847 19.303739-7.839843 24.265625-.956222 2.2174-2.450207 3.785516-4.59961 3.800781-3.338631 0-4.462592-4.370571-5.173828-7.300781-.797748-3.660544-1.425764-8.835937-6.193359-8.835937-4.582474 0-5.329954 5.214612-6.201172 8.835937-.735278 3.094705-1.997153 7.2488-5.175781 7.300781-2.551259-.046454-3.763654-2.009018-4.597657-3.800781-1.4577531-3.17125-3.1082982-8.740839-6.1347651-17.673828-2.858921-8.438513-2.7277454-15.323916-.7753907-19.990234 1.9502098-4.661178 5.5981085-7.168348 10.2753908-7.173829 3.199718.04195 4.545029 1.242712 5.853515 2.746094.609436.700209 1.199475 1.501612 1.892579 2.234375-.877063-.09886-1.914969-.271919-3.154297-.595703-1.25288-.233113-1.663 1.635027-.509766 1.933593 1.63287.494074 4.646849.92164 7.033915.662231 1.261453-.254361 1.134848-1.704154.174232-1.983151-1.600714-.473336-2.489236-1.90943-3.930848-3.565779-2.019097-2.352796-4.071968-3.43166-7.343705-3.43166z" fill="#00003a" transform="matrix(.265 0 0 .265 0 280.067)" font-variant-ligatures="normal" font-variant-position="normal" font-variant-caps="normal" font-variant-numeric="normal" font-variant-alternates="normal" font-feature-settings="normal" text-indent="0" text-align="start" text-decoration-line="none" text-decoration-style="solid" text-decoration-color="#000000" text-transform="none" text-orientation="mixed" white-space="normal" shape-padding="0" isolation="auto" mix-blend-mode="normal" solid-color="#000000" solid-opacity="1" vector-effect="none"/></g></svg>