<svg id="svg4593" height="512" viewBox="0 0 16.933333 16.933334" width="512" xmlns="http://www.w3.org/2000/svg" xmlns:svg="http://www.w3.org/2000/svg"><clipPath id="clipPath5337"><path id="rect5339" d="m34.774 274.321h35.435v25.702h-35.435z"/></clipPath><clipPath id="clipPath4542"><path id="rect4544" d="m-535.214-48.848h501.574v185.586h-501.574z"/></clipPath><clipPath id="clipPath11017"><path id="rect11019" d="m36.669 153.503h29.654v28.999h-29.654z" transform="rotate(-90)" vector-effect="none"/></clipPath><clipPath id="clipPath11444"><path id="rect11446" d="m-143.933 265.779h28.84v29.104h-28.84z" transform="rotate(-90)" vector-effect="none"/></clipPath><clipPath id="clipPath11781"><rect id="rect11783" height="32.411" rx=".634" transform="rotate(-90)" width="32.941" x="-145.124" y="181.377"/></clipPath><clipPath id="clipPath11499"><path id="rect11501" d="m-551.399-9.261h16.064v16.347h-16.064z" vector-effect="none"/></clipPath><g id="layer1" transform="translate(0 -280.067)"><g id="g20571" transform="translate(-.419)"><path id="path3732" d="m3.7041566 280.9498c-1.574891 0-2.3717407 1.33244-2.2039999 2.60398-.4830816.24602-.81648615.74766-.81648758 1.32446.00000182.73843.54558308 1.35281 1.25367028 1.46451-.050229 1.0116.1068116 2.1721.5105631 3.45302-.3772857.23433-.6660218.5981-.7994344 1.03043-.26703-.24884-.4361491-.6-.4361491-.99632.0001489-.29233.1020254-.57223.2764689-.80564.2343707-.29634-.1812141-.62224-.4237467-.31677-.23702089.31714-.38167744.70723-.38188884 1.12241.00000003.67339.35497944 1.26496.88573404 1.603.028733.80964.5944088 1.47626 1.3601237 1.69292-.057979.69469.4481678 1.37152 1.1301636 1.38235.3146187.87818.7751699 1.60868 1.8179767 1.60868 1.3042135 0 1.6397835-1.33516 1.8825726-2.33836.1806247-.66912.3541244-1.93321 1.1249959-1.93321.7122334 0 .9580816 1.24092 1.1249961 1.93321.233679 1.08013.789024 2.31546 1.883089 2.33836.906886 0 1.386363-.64405 1.699121-1.31671.419295-.91215.846377-2.37103 1.644344-4.72633.184574-.54479.321502-1.06685.420646-1.56786.253001-.10778.481593-.26056.680062-.44545.402569.57835.290493 1.274-.467672 1.62367-.337982.1332-.121365.63899.208256.48628 1.010181-.40777 1.34033-1.67185.612366-2.52078.250517-.37318.39743-.82151.397392-1.30328-.000188-1.1145-.784356-2.04947-1.828829-2.28617-.664116-1.79535-3.783878-2.84581-5.110282-.81648-.3375991.45193-.7647665.83653-1.2634891.84181-.3685969 0-.5764491-.11302-.7849651-.30076-.231336-.21945-.5422619.0692-.427364.30179-.3394757-.0227-.627811-.11189-.9849529-.16485-.3494067-.0461-.4204865.41802-.1524453.50798.7969065.20565 1.626884.21576 2.3497273.185.7862411-.0259 1.2357671-.5044 1.6717321-1.03508.983075-1.39914 3.183567-.84894 4.054016.42788-1.674818.24413-2.183995 1.29317-2.212784 2.3704-.64421.16488-1.12761.72625-1.128097 1.41284-.00011.81717.668009 1.48529 1.485181 1.48518.529636-.00048 1.000697-.29369 1.264522-.74053.390189.14952.679137.16814 1.058333.12971-.08886.39824-.197312.80828-.343131 1.23869-.800753 2.36352-1.237462 3.83662-1.623157 4.67568-.253464.58677-.649624 1.00365-1.21853 1.00769-.951688 0-1.179055-1.1569-1.367358-1.93322-.211169-.96836-.457322-2.30852-1.6407271-2.33784-1.1642143 0-1.4085695 1.38102-1.6386596 2.33784-.1945084.81889-.5277133 1.91946-1.3689089 1.93322-.7520726-.0235-1.0345227-.61346-1.280025-1.15704.9467902-.24163 1.0682454-1.57035.3503662-2.05672.90365-1.71524-.486157-3.18015-2.0102133-2.79104-.3801239-1.22573-.5185884-2.31886-.4676717-3.25097.6734757-.14015 1.1828716-.73939 1.1828735-1.45314-.0000011-.38801-.1518129-.74166-.3973918-1.00717.5490673-.75078 1.3381596-1.1544 2.2954671-1.15497.6781892.009 1.0335304.21941 1.3342855.5023.2566548.2423.6199478-.1427.3632853-.38499-.343304-.32291-.8280572-.59284-1.5347899-.63717-.3913055-.73244-1.1654356-1.24604-2.0091797-1.24644zm0 .52917c.5329235.00025 1.0593829.30092 1.3906127.73742-.914495.1176-1.6981514.59293-2.256193 1.33894-.1947102-.11958-.5229157-.19747-.8273397-.15452 0-1.39185.9328657-1.8989 1.69292-1.92184zm-1.5363404 2.44222c.5310341 0 .9549791.42601.9549805.95705-.0000014.53103-.4239464.95498-.9549805.95498s-.9549791-.42395-.9549804-.95498c.0000013-.53104.4239463-.95705.9549804-.95705zm12.5733928.60875c1.006448-.00008 1.816773.80998 1.816943 1.81643 0 1.30448-1.392495 2.17335-2.561601 1.6552-.137505-.0623-.299172.003-.355017.14314-.144972.36408-.494885.60168-.886767.60203-.531138.00007-.956086-.42487-.956014-.95601.00037-.50603.388525-.92.893485-.95292.151682-.01.263877-.14522.245463-.2961-.05972-1.37465 1.00608-1.983 1.803508-2.01177zm-11.3202394 5.51491c.7353406-.00017 1.325939.59016 1.3260173 1.3255-.0004497.31928-.1159433.62782-.3255615.86868-.1108705.1272-.075974.32427.07183.40566.22938.126.3715258.36565.3715535.62736.0000821.39871-.317528.71632-.7162355.71623-.556663 0-.767429-.46502-.6743774-.9524.056811-.15942-.04858-.33046-.2165241-.3514-.6654642-.0827-1.1615798-.64356-1.1622031-1.31413.0000785-.73517.5903315-1.32543 1.3255008-1.3255z" fill="#00003a" font-variant-ligatures="normal" font-variant-position="normal" font-variant-caps="normal" font-variant-numeric="normal" font-variant-alternates="normal" font-feature-settings="normal" text-indent="0" text-align="start" text-decoration-line="none" text-decoration-style="solid" text-decoration-color="#000000" text-transform="none" text-orientation="mixed" white-space="normal" shape-padding="0" isolation="auto" mix-blend-mode="normal" solid-color="#000000" solid-opacity="1" vector-effect="none"/></g></g></svg>