<svg id="svg4593" height="512" viewBox="0 0 16.933333 16.933334" width="512" xmlns="http://www.w3.org/2000/svg" xmlns:svg="http://www.w3.org/2000/svg"><clipPath id="clipPath5337"><path id="rect5339" d="m34.774 274.321h35.435v25.702h-35.435z"/></clipPath><clipPath id="clipPath4542"><path id="rect4544" d="m-535.214-48.848h501.574v185.586h-501.574z"/></clipPath><clipPath id="clipPath11017"><path id="rect11019" d="m36.669 153.503h29.654v28.999h-29.654z" transform="rotate(-90)" vector-effect="none"/></clipPath><clipPath id="clipPath11444"><path id="rect11446" d="m-143.933 265.779h28.84v29.104h-28.84z" transform="rotate(-90)" vector-effect="none"/></clipPath><clipPath id="clipPath11781"><rect id="rect11783" height="32.411" rx=".634" transform="rotate(-90)" width="32.941" x="-145.124" y="181.377"/></clipPath><clipPath id="clipPath11499"><path id="rect11501" d="m-551.399-9.261h16.064v16.347h-16.064z" vector-effect="none"/></clipPath><g id="layer1" transform="translate(0 -280.067)"><path id="path25983" d="m6.4804688 5.2246094c-2.7660923 2.7797291-4.6092623 6.7824326-5.2597657 11.7050786-.34448345 3.11873 1.2756308 5.375 4.65625 5.375h51.9726559c3.759842 0 5.1724-2.189319 4.957411-5.085461-.201056-1.664613-.610523-3.506237-1.074598-4.920393-.44186-1.338923-2.450254-.670764-2.001953.666016.421508 1.268069.740591 2.649337.943359 4.140625.32908 2.313764-.741713 3.075374-2.824219 3.089843h-51.9726559c-1.9972731 0-2.7631296-1.532189-2.5664025-2.97852.6009564-4.562987 2.2814494-8.1076113 4.6660119-10.5039074 5.2082995-4.5859556 12.4036505-4.8803344 16.6386715.2304688.650699.7897202 1.289936 1.6286949 2.066407 2.3828125-1.971264-.2048562-3.625227-.6100752-5.148438-1.2578125-1.399007-.573143-1.795883 1.2320435-1.003906 1.734375 3.760985 1.7209856 7.501514 1.6839706 11.470703 1.7304686 3.343295-.06485 5.444521-2.2276063 7.384766-4.5898436 1.702189-2.065852 3.29649-3.8544716 7.546875-3.9121094 4.686999.00246 8.493664 2.1294514 10.998047 6.0800781.733947 1.2658379 2.361901.105587 1.779296-1.1289062-4.002143-6.8166501-15.870119-10.2259945-21.95117-2.3808594-1.535018 2.0597634-3.48139 3.7979723-5.757814 3.8222656-2.778667-.0572489-4.287797-2.0352084-5.757812-3.8222656-4.327173-5.83409433-13.101839-6.5356889-19.7617192-.3769531zm16.3671872 20.4785156c-3.473056 0-6.296874 2.824245-6.296875 6.296875v.449219c-.03025 1.363243 2.030246 1.363243 2 0v-.449219c0-2.399735 1.897592-4.304688 4.296875-4.304688h18.298828c2.399286 0 4.304688 1.905368 4.304688 4.304688v2.320312h-36.138672c-4.0992002 0-4.831889 3.993791-3.9355469 6.824219 2.7970749 8.440366 4.4157265 13.726743 6.1406249 17.078125 1.519932 2.983202 3.746878 4.826172 7.007813 4.826172 5.806334 0 7.23343-5.939504 8.30664-10.373047.800618-3.082793 1.738912-8.692048 5.167969-8.757812 4.039717 0 4.405013 5.593508 5.167969 8.757812.993475 4.783998 3.49077 10.273395 8.304687 10.373047 3.562056-.0552 5.729283-2.319749 7.095703-5 1.748368-3.472516 3.417846-8.970953 6.339844-17.761719.945248-2.924526-.649789-5.917498-4.019531-5.966844h-7.4375v-2.320265c0-3.473083-2.831631-6.296875-6.304688-6.296875zm-13.535156 10.726563h45.576172c2.091226 0 2.475316 1.608696 2.02535 3.173826-2.933363 8.8241-4.644254 14.351439-6.228515 17.498046-1.128097 2.376544-2.909045 3.821977-5.212891 3.837891-4.561453-.590531-5.39632-5.214014-6.255859-8.757812-.913855-4.273538-1.871623-10.373045-7.216757-10.373045-5.34781 0-6.248685 6.342052-7.21875 10.373047-.847856 3.741572-2.440371 8.694189-6.255859 8.757812-2.656145.02079-4.161096-1.817924-5.132813-3.681641-1.548023-3.007718-3.203205-8.295293-5.9946307-16.719881-.687335-2.02595-.0609329-4.108243 1.9145527-4.108243z" fill="#00003a" transform="matrix(.265 0 0 .265 0 280.067)" font-variant-ligatures="normal" font-variant-position="normal" font-variant-caps="normal" font-variant-numeric="normal" font-variant-alternates="normal" font-feature-settings="normal" text-indent="0" text-align="start" text-decoration-line="none" text-decoration-style="solid" text-decoration-color="#000000" text-transform="none" text-orientation="mixed" white-space="normal" shape-padding="0" isolation="auto" mix-blend-mode="normal" solid-color="#000000" solid-opacity="1" vector-effect="none"/></g></svg>