<svg id="svg4593" height="512" viewBox="0 0 16.933333 16.933334" width="512" xmlns="http://www.w3.org/2000/svg" xmlns:svg="http://www.w3.org/2000/svg"><clipPath id="clipPath5337"><path id="rect5339" d="m34.774 274.321h35.435v25.702h-35.435z"/></clipPath><clipPath id="clipPath4542"><path id="rect4544" d="m-535.214-48.848h501.574v185.586h-501.574z"/></clipPath><clipPath id="clipPath11017"><path id="rect11019" d="m36.669 153.503h29.654v28.999h-29.654z" transform="rotate(-90)" vector-effect="none"/></clipPath><clipPath id="clipPath11444"><path id="rect11446" d="m-143.933 265.779h28.84v29.104h-28.84z" transform="rotate(-90)" vector-effect="none"/></clipPath><clipPath id="clipPath11781"><rect id="rect11783" height="32.411" rx=".634" transform="rotate(-90)" width="32.941" x="-145.124" y="181.377"/></clipPath><clipPath id="clipPath11499"><path id="rect11501" d="m-551.399-9.261h16.064v16.347h-16.064z" vector-effect="none"/></clipPath><g id="layer1" transform="translate(0 -280.067)"><path id="path4971" d="m3.4042969 9.6796875c-2.72916633 5.4885925-3.28864609 13.2081285-.8535157 22.4785155 1.0243478 3.061565 3.4747694 4.444971 6.2617188 4.464844h39.556641v2.908203c0 1.31588-1.029102 2.34375-2.345703 2.34375h-28.046876c-1.316599 0-2.345703-1.02787-2.345703-2.34375.01913-1.352323-2.019125-1.352323-2 0 0 2.390022 1.956381 4.34375 4.345703 4.34375h4.847657v2.681641h-1.34375c-1.362434-.02942-1.362434 2.029419 0 2h1.34375v2.77539c-.47655-.000041-.977174 0-1.445313 0-1.334653 0-1.233072 2.069662.101563 2.001953h1.523437c.4563 2.166557 1.797358 4.244436 3.306641 5.941407 1.565918 1.542717 3.556822 3.686156 5.689453 3.724609 2.501877 0 4.301578-2.078606 5.763672-3.730469 1.490993-1.699057 2.794639-3.777399 3.238281-5.935547h1.244141c1.334635 0 1.334635-2.001953 0-2.001953h-1.070313v-2.77539h1.070313c1.362434.02942 1.362434-2.029419 0-2h-17.421875v-2.681641h21.199219c2.389325 0 4.345703-1.953728 4.345703-4.34375v-2.908203h4.568359c4.095166 0 5.680386-1.503527 6.570312-4.689453 2.373313-9.193577 1.793213-16.848215-.93164-22.2949221-4.102924-8.6106782-16.116656-11.7934266-22.777344-3.9785157-1.544514 2.0728342-3.505874 3.8171801-5.798828 3.8417969-2.797023-.0582783-4.317465-2.0408215-5.798828-3.8417969-6.039371-7.8053918-17.636276-5.88385-22.7968751 4.0195313zm21.2519131-2.7480469c.557075.7474183 1.174629 1.4367491 1.835938 2.0527344-1.159441-.1977375-2.331098-.4634618-3.28121-.84375-1.2966-.4002317-1.80513 1.4529352-.738282 1.859375 2.993605 1.158592 6.414447 1.501953 9.527344 1.501953 3.465986-.107799 5.429978-2.240394 7.34375-4.5703124 6.333946-7.00857438 16.018011-3.3484366 19.443359 3.6015624 2.445619 4.888517 3.074589 12.087505.763672 20.980469-.635163 2.627049-2.505266 3.101881-4.613281 3.109375h-46.125c-2.3590673.050819-3.6995301-1.205727-4.3378906-3.029297-2.3286671-8.905965-1.7167143-16.121579.7207031-21.023438 4.211343-8.1952975 14.1498435-10.55187651 19.4608975-3.6386714zm.167969 41.6250004h14.351562v2.77539h-14.351522zm.248047 4.777343h13.867187c-.442227 1.536516-1.4615 3.231259-2.677734 4.617188-1.257728 1.407636-2.522748 3.048828-4.261679 3.048828-1.690371 0-3.0935-1.826501-4.195312-3.054688-1.233855-1.387283-2.276472-3.080926-2.732422-4.611328z" fill="#00003a" transform="matrix(.265 0 0 .265 0 280.067)" font-variant-ligatures="normal" font-variant-position="normal" font-variant-caps="normal" font-variant-numeric="normal" font-variant-alternates="normal" font-feature-settings="normal" text-indent="0" text-align="start" text-decoration-line="none" text-decoration-style="solid" text-decoration-color="#000000" text-transform="none" text-orientation="mixed" white-space="normal" shape-padding="0" isolation="auto" mix-blend-mode="normal" solid-color="#000000" solid-opacity="1" vector-effect="none"/></g></svg>