<svg id="svg4593" height="512" viewBox="0 0 16.933333 16.933334" width="512" xmlns="http://www.w3.org/2000/svg" xmlns:svg="http://www.w3.org/2000/svg"><clipPath id="clipPath5337"><path id="rect5339" d="m34.774 274.321h35.435v25.702h-35.435z"/></clipPath><clipPath id="clipPath4542"><path id="rect4544" d="m-535.214-48.848h501.574v185.586h-501.574z"/></clipPath><clipPath id="clipPath11017"><path id="rect11019" d="m36.669 153.503h29.654v28.999h-29.654z" transform="rotate(-90)" vector-effect="none"/></clipPath><clipPath id="clipPath11444"><path id="rect11446" d="m-143.933 265.779h28.84v29.104h-28.84z" transform="rotate(-90)" vector-effect="none"/></clipPath><clipPath id="clipPath11781"><rect id="rect11783" height="32.411" rx=".634" transform="rotate(-90)" width="32.941" x="-145.124" y="181.377"/></clipPath><clipPath id="clipPath11499"><path id="rect11501" d="m-551.399-9.261h16.064v16.347h-16.064z" vector-effect="none"/></clipPath><g id="layer1" transform="translate(0 -280.067)"><path id="path6616-46-6" d="m12.836893 280.3085c-2.12481 0-3.853511 1.72664-3.853511 3.85144 0 2.12482 1.728701 3.85352 3.853511 3.85352 2.12482 0 3.851445-1.7287 3.851445-3.85352 0-2.1248-1.726625-3.85144-3.851445-3.85144zm0 .52917c1.83883 0 3.322278 1.48345 3.322278 3.32227 0 1.83884-1.483448 3.32435-3.322278 3.32435s-3.323828-1.48551-3.323828-3.32435c0-1.83882 1.484998-3.32227 3.323828-3.32227zm-12.171867 4.21524c-.58381 1.39577-.59413 3.34214.19172 5.66167.79797 2.3553 1.225044 3.81418 1.644344 4.72633.34543.7694.898914 1.30988 1.697054 1.31723 1.2795 0 1.640299-1.33518 1.883089-2.33836.18063-.66919.374966-1.9197 1.124996-1.93373.84446 0 .958036 1.2412 1.124996 1.93373.23371 1.07974.785842 2.33836 1.882573 2.33836.899869 0 1.386777-.64435 1.699637-1.31723.4193-.91215.846374-2.37103 1.644344-4.72633.23883-.70494.402001-1.37525.499711-2.00608.088-.37192-.493715-.46127-.521415-.0801-.0926.59787-.250204 1.23768-.480074 1.91616-.80075 2.36352-1.237457 3.83662-1.623157 4.67568-.25355.58703-.637217 1.00769-1.219046 1.00769-.87342 0-1.178602-1.15716-1.366842-1.93321-.21116-.96836-.359667-2.33785-1.640727-2.33785-1.2147 0-1.40857 1.38103-1.638659 2.33785-.194521.81915-.527786 1.91945-1.369426 1.93321-.67785-.0116-.995053-.53175-1.216463-1.00769-.3857-.83906-.822407-2.31216-1.623157-4.67568-.75642-2.23268-.721715-4.05239-.205155-5.28702.74377-1.70964 3.029808-2.67054 4.382678-1.03714.11477.13929.230071.28517.359151.42478-.28546-.0317-.437101-.0587-.622701-.0961-.34637-.0972-.433608.39272-.185518.49609.5845.17515 1.37452.19383 2.11925.21084.55295 0 .94905-.24053 1.2361-.52917.27052-.24958-.126194-.64465-.374654-.3731-.23124.23255-.447726.3731-.861446.3731-.60888-.0127-.940538-.45121-1.261938-.8418-1.781146-2.06029-4.378559-.73156-5.279265 1.16788z" fill="#00003a" font-variant-ligatures="normal" font-variant-position="normal" font-variant-caps="normal" font-variant-numeric="normal" font-variant-alternates="normal" font-feature-settings="normal" text-indent="0" text-align="start" text-decoration-line="none" text-decoration-style="solid" text-decoration-color="#000000" text-transform="none" text-orientation="mixed" white-space="normal" shape-padding="0" isolation="auto" mix-blend-mode="normal" solid-color="#000000" solid-opacity="1" vector-effect="none"/><g id="g17944-1" transform="translate(-.36 -8.542)"><path id="path17936-1" d="m47.515625 9.1992188v.4042968c-3.911113 1.1806004-2.935429 6.9765624.960937 6.9765624 2.171457 0 1.887782 3.172765.116805 3.172765-.841716 0-1.424912-.397752-1.638289-1.194249-.330511-1.314014-2.303708-.785835-1.933594.517578.334571 1.248675 1.314685 2.164786 2.494141 2.498047v.173828c-.03026 1.363256 2.030259 1.363256 2 0v-.197266c3.937499-1.547319 2.58041-6.970703-.958984-6.970703-2.211733 0-1.923463-3.200387-.129807-3.200387.982643 0 1.455179.489971 1.651291 1.221871.324844 1.330475 2.324264.789218 1.933594-.523437-.334638-1.248923-1.316324-2.1649563-2.496094-2.4980469v-.3808593c0-1.5000149-2-1.3538705-2 0z" fill="#00003a" transform="matrix(.265 0 0 .265 .36 288.609)" font-variant-ligatures="normal" font-variant-position="normal" font-variant-caps="normal" font-variant-numeric="normal" font-variant-alternates="normal" font-feature-settings="normal" text-indent="0" text-align="start" text-decoration-line="none" text-decoration-style="solid" text-decoration-color="#000000" text-transform="none" text-orientation="mixed" white-space="normal" shape-padding="0" isolation="auto" mix-blend-mode="normal" solid-color="#000000" solid-opacity="1" vector-effect="none"/></g></g></svg>