<svg id="svg4593" height="512" viewBox="0 0 16.933333 16.933334" width="512" xmlns="http://www.w3.org/2000/svg" xmlns:svg="http://www.w3.org/2000/svg"><clipPath id="clipPath5337"><path id="rect5339" d="m34.774 274.321h35.435v25.702h-35.435z"/></clipPath><clipPath id="clipPath4542"><path id="rect4544" d="m-535.214-48.848h501.574v185.586h-501.574z"/></clipPath><clipPath id="clipPath11017"><path id="rect11019" d="m36.669 153.503h29.654v28.999h-29.654z" transform="rotate(-90)" vector-effect="none"/></clipPath><clipPath id="clipPath11444"><path id="rect11446" d="m-143.933 265.779h28.84v29.104h-28.84z" transform="rotate(-90)" vector-effect="none"/></clipPath><clipPath id="clipPath11781"><rect id="rect11783" height="32.411" rx=".634" transform="rotate(-90)" width="32.941" x="-145.124" y="181.377"/></clipPath><clipPath id="clipPath11499"><path id="rect11501" d="m-551.399-9.261h16.064v16.347h-16.064z" vector-effect="none"/></clipPath><g id="layer1" fill="#00003a" transform="translate(0 -280.067)"><path id="path29059" d="m.98632812 289.14152-.64453124.64453c-.24999989.25.12500011.625.375.375l.64453122-.64453c.2530427-.26045-.1058193-.62283-.37499998-.375z" font-variant-ligatures="normal" font-variant-position="normal" font-variant-caps="normal" font-variant-numeric="normal" font-variant-alternates="normal" font-feature-settings="normal" text-indent="0" text-align="start" text-decoration-line="none" text-decoration-style="solid" text-decoration-color="#000000" text-transform="none" text-orientation="mixed" white-space="normal" shape-padding="0" isolation="auto" mix-blend-mode="normal" solid-color="#000000" solid-opacity="1" vector-effect="none"/><path id="path29061" d="m2.0761719 290.05361-.1835938.68945c-.125154.35862.4386642.50984.5097657.13672l.1855468-.68945c.072332-.38947-.4136925-.50476-.5117187-.13672z" font-variant-ligatures="normal" font-variant-position="normal" font-variant-caps="normal" font-variant-numeric="normal" font-variant-alternates="normal" font-feature-settings="normal" text-indent="0" text-align="start" text-decoration-line="none" text-decoration-style="solid" text-decoration-color="#000000" text-transform="none" text-orientation="mixed" white-space="normal" shape-padding="0" isolation="auto" mix-blend-mode="normal" solid-color="#000000" solid-opacity="1" vector-effect="none"/><path id="path29063" d="m3.5996094 290.079.6445312.64453c.2499999.25.6249999-.125.375-.375l-.6445312-.64453c-.2984808-.25213-.58875.1564-.375.375z" font-variant-ligatures="normal" font-variant-position="normal" font-variant-caps="normal" font-variant-numeric="normal" font-variant-alternates="normal" font-feature-settings="normal" text-indent="0" text-align="start" text-decoration-line="none" text-decoration-style="solid" text-decoration-color="#000000" text-transform="none" text-orientation="mixed" white-space="normal" shape-padding="0" isolation="auto" mix-blend-mode="normal" solid-color="#000000" solid-opacity="1" vector-effect="none"/><path id="path29065" d="m2.0469035 283.04009c-1.09777568 0-1.78128665.81586-1.78128665 2.00556v2.18746c0 .85559.83350245 1.26574 1.52135415.76172.173619-.14553.3409552-.24805.4935099-.24805h1.5750978c.1429525 0 .2893226.0734.4511352.23668.6099066.64359.8697992 1.64144 1.0185423 2.41587-.2282245.99326.015608 2.1762.7823812 2.80086.6292212.55433 1.494927.82194 2.3569622.82631.8620347.004 1.7289814-.25584 2.3595454-.80874s1.001237-1.41411.847494-2.49804c-.03224-.20306-.05365-.35085-.0956-.52348.238924-.84103.48649-1.61971 1.074353-2.2381.161957-.14671.309047-.21291.441317-.21291h1.595768c.152322 0 .291642.0704.449068.22634.53966.59102.820627 1.48077.974618 2.31252.138905.98496-.279941 1.58395-.929659 1.93167-.650235.34799-1.548376.39435-2.265495.13074-.215241-.0792-.413955-.18585-.586011-.31626-.281256-.21362-.60165.20806-.320393.42168.218251.16543.463405.29522.722953.39067.865072.318 1.89301.27119 2.69906-.1602.806049-.43138 1.371776-1.29909 1.205094-2.47426-.232534-1.11722-.546684-2.00098-1.129126-2.6138-.220732-.21874-.499445-.37879-.820105-.37879h-1.595771c-.304142 0-.573476.14749-.79685.34985-.489322.49068-.791485 1.10801-1.009241 1.71566-.232408-.63304-.542121-1.21358-.93586-1.62781-.255604-.25331-.5741924-.43563-.9379272-.43563h-1.8903241c-.3635489 0-.6816585.181-.9394775.43357-.4815437.51755-.7541177 1.10818-.9704834 1.72341-.2236729-.64148-.4774573-1.30119-.9281086-1.76424-.2233028-.22534-.5037039-.39274-.8278564-.39274h-1.5978385c-.325144 0-.6927425.25889-.7968506.39068-.3118387.30207-.66610917.0511-.66610919-.26562v-2.29702c0-.77918.54513359-1.46473 1.25211999-1.47639h12.8415935c.809694 0 1.243068.74483 1.25212 1.47639v2.42414c0 .0942-.0066.18412-.01964.27337-.05341.34995.472411.42833.523482.078.01684-.11491.02532-.23201.02532-.3514v-2.42414c0-1.04755-.67054-2.00556-1.781287-2.00556zm5.474601 4.70669h1.8908408c.1895197 0 .3720087.0911.5643065.28164.6535512.76573 1.0483172 1.81559 1.1699542 2.76934.131027.93258-.162028 1.57596-.670243 2.02158-.5090396.44635-1.2570384.6813-2.0096964.67748-.7526581-.004-1.5000177-.24603-2.0096964-.69505-1.0865498-1.04716-.7082878-2.62922-.050643-3.97495.1615604-.32379.3501478-.60784.5446694-.7984.1741353-.1706.3708853-.28164.5705079-.28164z" font-variant-ligatures="normal" font-variant-position="normal" font-variant-caps="normal" font-variant-numeric="normal" font-variant-alternates="normal" font-feature-settings="normal" text-indent="0" text-align="start" text-decoration-line="none" text-decoration-style="solid" text-decoration-color="#000000" text-transform="none" text-orientation="mixed" white-space="normal" shape-padding="0" isolation="auto" mix-blend-mode="normal" solid-color="#000000" solid-opacity="1" vector-effect="none"/></g></svg>