<svg id="svg4593" height="512" viewBox="0 0 16.933333 16.933334" width="512" xmlns="http://www.w3.org/2000/svg" xmlns:svg="http://www.w3.org/2000/svg"><clipPath id="clipPath5337"><path id="rect5339" d="m34.774 274.321h35.435v25.702h-35.435z"/></clipPath><clipPath id="clipPath4542"><path id="rect4544" d="m-535.214-48.848h501.574v185.586h-501.574z"/></clipPath><clipPath id="clipPath11017"><path id="rect11019" d="m36.669 153.503h29.654v28.999h-29.654z" transform="rotate(-90)" vector-effect="none"/></clipPath><clipPath id="clipPath11444"><path id="rect11446" d="m-143.933 265.779h28.84v29.104h-28.84z" transform="rotate(-90)" vector-effect="none"/></clipPath><clipPath id="clipPath11781"><rect id="rect11783" height="32.411" rx=".634" transform="rotate(-90)" width="32.941" x="-145.124" y="181.377"/></clipPath><clipPath id="clipPath11499"><path id="rect11501" d="m-551.399-9.261h16.064v16.347h-16.064z" vector-effect="none"/></clipPath><g id="layer1" transform="translate(0 -280.067)"><path id="path26492" d="m3.8476562 14.498047c-1.2915771 2.915187-1.2839167 6.903202.3925782 11.576172 1.6683477 4.650255 2.5489719 7.522972 3.4609375 9.396484.862923 1.856311 2.1968608 2.857422 3.9492191 2.857422 2.750917 0 3.773815-2.611975 4.378906-4.976563.29614-1.57802.692189-3.46875 1.925781-3.46875 1.51879 0 1.607657 2.217967 1.927734 3.46875.540562 2.425102 1.943814 4.926134 4.369141 4.976563 2.013755-.0801 3.189117-1.297472 3.957031-2.857422 1.805024-4.004368 2.682658-6.887387 3.794922-10.441406 1.275327 3.392388 2.255898 7.218194 3.792969 10.441406.860939 1.861702 2.192376 2.857422 3.949219 2.857422 2.619819 0 3.897335-2.586316 4.371094-4.976563.218441-1.650046.59373-3.46875 1.925781-3.46875 1.485444 0 1.60717 2.214795 1.927734 3.46875.545044 2.423377 1.954127 4.926186 4.376953 4.976563 2.009919-.08093 3.182825-1.300569 3.949219-2.857422.692056-1.421735 1.479824-3.716024 2.496094-6.628906 1.437088 1.541782 2.203125 3.251885 2.203125 5.232422v12.519531c-.166194 2.934238-2.059676 5.536025-4.730469 5.580078h-48.5292969c-3.0530972-.306768-4.7054659-2.817127-4.7402343-5.580078v-12.519531c0-1.041373.220866-1.995673.6289062-2.902344.5975551-1.235501-1.2987543-2.086201-1.8242188-.818359-.5184937 1.152075-.80468749 2.399871-.80468745 3.720703v12.519531c.22524885 4.046854 2.49845425 7.574219 6.74023435 7.574219h48.5292969c4.515506 0 6.730469-3.677933 6.730469-7.574219v-12.519531c0-2.853649-1.508013-6.23512-3.470703-7.314453 1.601934-4.440205 2.057545-8.852062.625-12.261719-1.73225-4.193942-7.752529-6.8044517-11.78125-2.427735-.785004.841937-1.265791 1.513672-2.326172 1.513672-1.115078-.0404-1.860671-.816776-2.31836-1.513672-1.47644-2.1561047-4.897789-2.9877527-8.097656-1.484374-1.233707.569009-.340838 2.414803.871094 1.800781 2.766924-1.390376 4.690048-.646916 5.914062 1.21875-.347326-.07273-.679661-.161311-.955078-.289063-1.299835-.535839-1.845904 1.34716-.841797 1.816406 2.637979 1.237138 6.946284.904099 9.259766-1.748046 3.277928-3.4090653 7.306303-.788447 8.445312 1.925781 1.013364 2.287219 1.118206 5.753137-.435546 10.083984-1.67994 4.68257-2.606888 7.607256-3.38086 9.197266-.486846 1.188948-1.200317 1.567552-2.15625 1.734375-1.772789-.284853-2.071046-2.051678-2.435547-3.46875-.479633-2.21333-1.402466-4.97461-3.86914-4.97461-2.571874 0-3.541169 2.629577-3.859375 4.97461-.34736 1.795823-.960666 3.46875-2.4375 3.46875-1.244711-.0021-1.694596-.934777-2.154297-1.734375-.773968-1.59001-1.700924-4.514696-3.380859-9.197266-.474739-1.32325-.794322-2.566019-.982422-3.720703-.341876-2.418354-.291567-5.132555-1.173831-7.175781-1.913088-4.641244-7.986908-6.7107037-11.781255-2.427735-.637065.947478-1.360175 1.513672-2.31836 1.513672-1.119303-.03865-1.7081-.824522-2.318359-1.513672-3.282688-3.7380156-9.2978037-2.6646634-11.7890548 2.427735zm10.5097658-.847656c-.435842-.07538-.784579-.188888-1.1875-.333985-1.244592-.400251-1.897585 1.317805-.841797 1.816406 3.863306 1.441274 7.24856.996009 9.451172-1.748046 3.180221-3.4498628 7.461761-.586017 8.451172 1.925781 1.013363 2.287219 1.112348 5.753137-.441407 10.083984-1.679935 4.68257-2.606891 7.607256-3.380859 9.197266-.508485 1.061387-1.170027 1.734375-2.15625 1.734375-1.40191 0-2.071047-2.051677-2.435547-3.46875-.4797-2.210018-1.489958-4.97461-3.861328-4.97461-2.746717 0-3.31407 2.801613-3.867187 4.97461-.369497 1.7914-1.006338 3.46875-2.4375 3.46875-1.221987 0-1.6936019-.939213-2.1542972-1.734375-.7739687-1.59001-1.6931112-4.514696-3.3730469-9.197266-1.5537536-4.330847-1.4567275-7.796765-.4433594-10.083984 1.9761809-4.162034 6.8766775-4.327763 8.6777345-1.660156z" fill="#00003a" transform="matrix(.265 0 0 .265 0 280.067)" font-variant-ligatures="normal" font-variant-position="normal" font-variant-caps="normal" font-variant-numeric="normal" font-variant-alternates="normal" font-feature-settings="normal" text-indent="0" text-align="start" text-decoration-line="none" text-decoration-style="solid" text-decoration-color="#000000" text-transform="none" text-orientation="mixed" white-space="normal" shape-padding="0" isolation="auto" mix-blend-mode="normal" solid-color="#000000" solid-opacity="1" vector-effect="none"/></g></svg>