<svg id="svg4593" height="512" viewBox="0 0 16.933333 16.933334" width="512" xmlns="http://www.w3.org/2000/svg" xmlns:svg="http://www.w3.org/2000/svg"><clipPath id="clipPath5337"><path id="rect5339" d="m34.774 274.321h35.435v25.702h-35.435z"/></clipPath><clipPath id="clipPath4542"><path id="rect4544" d="m-535.214-48.848h501.574v185.586h-501.574z"/></clipPath><clipPath id="clipPath11017"><path id="rect11019" d="m36.669 153.503h29.654v28.999h-29.654z" transform="rotate(-90)" vector-effect="none"/></clipPath><clipPath id="clipPath11444"><path id="rect11446" d="m-143.933 265.779h28.84v29.104h-28.84z" transform="rotate(-90)" vector-effect="none"/></clipPath><clipPath id="clipPath11781"><rect id="rect11783" height="32.411" rx=".634" transform="rotate(-90)" width="32.941" x="-145.124" y="181.377"/></clipPath><clipPath id="clipPath11499"><path id="rect11501" d="m-551.399-9.261h16.064v16.347h-16.064z" vector-effect="none"/></clipPath><g id="layer1" transform="translate(0 -280.067)"><path id="path3155" d="m24.492188 1.0039062c-2.180448 0-3.962891 1.7824434-3.962891 3.9628907v3.1894531c0 2.180447 1.782443 3.970703 3.962891 3.970703h12.521484v4.621094h-10.025391v-1.689453c.0066-.561452-.450267-1.018281-1.011719-1.011719-.552277.0065-.994736.459441-.988281 1.011719v1.689453h-7.486328c-3.306702 0-6 2.687432-6 5.994141v6.378906c0 3.306708 2.693298 6.001953 6 6.001953h.6875v9.5h-.6875c-3.306711 0-6 2.695244-6 6.001953v6.376953c0 3.306709 2.693298 6.001953 6 6.001953h28.996094c3.306705 0 6.001953-2.695244 6.001953-6.001953v-6.376953c0-3.306709-2.695241-6.001953-6.001953-6.001953h-.685547v-9.5h.685547c3.306705 0 6.001953-2.695245 6.001953-6.001953v-6.378906c0-3.306709-2.695248-5.994141-6.001953-5.994141h-7.484375v-4.621094h.486328c2.180447 0 3.972656-1.790256 3.972656-3.970703v-3.1894531c0-2.1804473-1.792209-3.9628907-3.972656-3.9628907zm0 2h15.007812c1.107061 0 1.970703.8558293 1.970703 1.9628907v3.1894531c0 1.1070614-.863642 1.970703-1.970703 1.970703-4.002072 0-9.878643 0-15.007812 0-1.10706 0-1.962891-.8636416-1.962891-1.970703v-3.1894531c0-1.1070614.855831-1.9628907 1.962891-1.9628907zm-6.990235 15.7460938h28.996094c2.2333 0 4.001953 1.758902 4.001953 3.992188v6.378906c0 2.233285-1.768653 4-4.001953 4h-1.681641c-9.104818 0-18.209635 0-27.314453 0-2.233298 0-4-1.766715-4-4v-6.378906c0-2.233286 1.766702-3.992188 4-3.992188zm2.6875 16.373047h23.621094v10.503906c.0022.55303.452834.999283 1.005859.996094h1.681641c2.233292 0 4.001953 1.768668 4.001953 4.001953v6.376953c0 2.233323-1.768653 4.001953-4.001953 4.001953h-28.996094c-2.233298 0-4-1.76863-4-4.001953v-6.376953c0-2.233285 1.766711-4.001953 4-4.001953h22.685547c1.362434.02942 1.362434-2.029419 0-2h-19.998047z" fill="#00003a" transform="matrix(.265 0 0 .265 0 280.067)" font-variant-ligatures="normal" font-variant-position="normal" font-variant-caps="normal" font-variant-numeric="normal" font-variant-alternates="normal" font-feature-settings="normal" text-indent="0" text-align="start" text-decoration-line="none" text-decoration-style="solid" text-decoration-color="#000000" text-transform="none" text-orientation="mixed" white-space="normal" shape-padding="0" isolation="auto" mix-blend-mode="normal" solid-color="#000000" solid-opacity="1" vector-effect="none"/></g></svg>