<svg id="svg4593" height="512" viewBox="0 0 16.933333 16.933334" width="512" xmlns="http://www.w3.org/2000/svg" xmlns:svg="http://www.w3.org/2000/svg"><clipPath id="clipPath5337"><path id="rect5339" d="m34.774 274.321h35.435v25.702h-35.435z"/></clipPath><clipPath id="clipPath4542"><path id="rect4544" d="m-535.214-48.848h501.574v185.586h-501.574z"/></clipPath><clipPath id="clipPath11017"><path id="rect11019" d="m36.669 153.503h29.654v28.999h-29.654z" transform="rotate(-90)" vector-effect="none"/></clipPath><clipPath id="clipPath11444"><path id="rect11446" d="m-143.933 265.779h28.84v29.104h-28.84z" transform="rotate(-90)" vector-effect="none"/></clipPath><clipPath id="clipPath11781"><rect id="rect11783" height="32.411" rx=".634" transform="rotate(-90)" width="32.941" x="-145.124" y="181.377"/></clipPath><clipPath id="clipPath11499"><path id="rect11501" d="m-551.399-9.261h16.064v16.347h-16.064z" vector-effect="none"/></clipPath><g id="layer1" transform="translate(0 -280.067)"><path id="path26322" d="m41.101562 3.8164062c-1.918343 1.9258239-2.914434 4.7745446-2.822265 7.7089848-3.497652 2.682612-3.9185 7.382451-3.304688 10.023437-10.925364.886712-20.270403 11.030131-22.949217 19.708976-.792435 2.681938-2.7759706 3.602589-4.9453129 3.298829-2.1622024-.302733-4.4778687-2.622-4.0605479-6.052727.7725296-5.555603 3.5157204-10.979002 7.7499998-15.222656 6.223577-6.223521 14.464897-8.854253 21.689453-7.757812 1.319313.202203 1.622048-1.776198.302735-1.978516-7.914235-1.201096-16.760682 1.678663-23.4082034 8.326172-4.5474885 4.557543-7.511038 10.384396-8.3339844 16.43164-.31805834 4.199509 2.6029782 7.691345 5.7871118 8.232422 3.99352.4375 6.542727-2.206387 7.167928-4.828129 1.884429-7.88035 13.205366-18.933991 21.716835-18.103511 1.078406 2.125825 2.715927 3.767236 4.716797 4.75-.21207 8.167966-8.474806 18.962176-18.0625 21.673828-3.493047.715321-5.306898 4.075567-4.873047 7.173828.434107 3.10012 3.249812 5.954267 8.126953 5.794922 18.500287-2.167417 28.225664-20.250413 24.130901-34.892565 1.198633-.685917 2.045649-1.445351 2.873047-2.371094 2.891365.06088 5.688624-.934464 7.58789-2.826172 3.117067-3.124195 3.605161-7.973904 1.595703-12.439453-1.271342-2.557406-4.084719-2.1268398-5.087893-.435544-.451525.716598-.990398 1.474699-1.585938 2.214844-.83661 1.043301.727844 2.297207 1.564453 1.253906.635638-.789959 1.197781-1.593744 1.683594-2.361328.583151-.913887 1.268283-.599949 1.601568.14063 1.747041 3.876926 1.277961 7.737891-1.1875 10.208984-1.183456 1.176255-2.942496 1.969464-4.851563 2.195313 1.836991-3.778056 1.198958-8.467043-1.933594-11.59961-.619871-.619873-1.305019-1.131601-2.027343-1.55664 1.226752-1.2544034 2.68736-2.3848572 4.013671-3.2207042 2.107277-1.2933801 1.321201-4.3914594-.435546-5.078125-3.82731-1.57184894-9.308622-1.44284009-12.439497 1.5878704zm11.626954.2363282c.719532.3615161.617906 1.2169661.140625 1.59375-1.608708 1.0183388-3.382492 2.3926856-4.837891 4.0039062-2.466577-.8788137-5.493844-.8138166-7.710938.5332034.206537-1.9486638.99998-3.7472487 2.199219-4.9511721 2.618278-2.8354246 6.895142-2.8446699 10.208985-1.1796875zm-2.148438 9.4472656c3.184914 3.184932 3.184917 8.317059 0 11.501953-3.184921 3.184895-8.32291 3.184932-11.507812 0-3.184897-3.184894-3.18489-8.317021 0-11.501953 3.794466-3.477048 8.540754-2.878204 11.507812 0zm-2.693359 15.396484c2.277483 7.796211-.158425 17.338109-7.160157 24.339844-4.245425 4.236019-9.672422 6.980741-15.230468 7.751953-4.086889.11263-5.742682-1.902172-6.044922-4.060547-.198874-2.598498 1.376487-4.492138 3.359371-4.960942 9.189474-2.280677 19.078624-12.054424 19.650391-22.882801 1.373892.311689 3.865401.286361 5.425785-.187507z" fill="#00003a" transform="matrix(.265 0 0 .265 0 280.067)" font-variant-ligatures="normal" font-variant-position="normal" font-variant-caps="normal" font-variant-numeric="normal" font-variant-alternates="normal" font-feature-settings="normal" text-indent="0" text-align="start" text-decoration-line="none" text-decoration-style="solid" text-decoration-color="#000000" text-transform="none" text-orientation="mixed" white-space="normal" shape-padding="0" isolation="auto" mix-blend-mode="normal" solid-color="#000000" solid-opacity="1" vector-effect="none"/></g></svg>