<svg id="svg4593" height="512" viewBox="0 0 16.933333 16.933334" width="512" xmlns="http://www.w3.org/2000/svg" xmlns:svg="http://www.w3.org/2000/svg"><clipPath id="clipPath5337"><path id="rect5339" d="m34.774 274.321h35.435v25.702h-35.435z"/></clipPath><clipPath id="clipPath4542"><path id="rect4544" d="m-535.214-48.848h501.574v185.586h-501.574z"/></clipPath><clipPath id="clipPath11017"><path id="rect11019" d="m36.669 153.503h29.654v28.999h-29.654z" transform="rotate(-90)" vector-effect="none"/></clipPath><clipPath id="clipPath11444"><path id="rect11446" d="m-143.933 265.779h28.84v29.104h-28.84z" transform="rotate(-90)" vector-effect="none"/></clipPath><clipPath id="clipPath11781"><rect id="rect11783" height="32.411" rx=".634" transform="rotate(-90)" width="32.941" x="-145.124" y="181.377"/></clipPath><clipPath id="clipPath11499"><path id="rect11501" d="m-551.399-9.261h16.064v16.347h-16.064z" vector-effect="none"/></clipPath><g id="layer1" transform="translate(0 -280.067)"><path id="path18171-0-7" d="m26.886719.77734375c-4.427339-.03968504-8.860676 3.00127295-11.011719 7.60156245-2.054249 4.6365358-2.083188 11.0880898.662109 18.7402348.770092 2.146493 1.29938 3.678489 1.861329 5.294921-1.378682 1.342578-2.718573 2.996586-4.132813 4.605469-.88069 1.002635.623216 2.322948 1.503906 1.320313l3.363281-3.826172c1.19083-1.583857 3.071573-1.657458 4.341797-.917969 1.351068.835691 2.416481 2.814907 1.515625 6.412109-.157482.631231.320125 1.242414.970704 1.242188h5.851562c2.152261 0 3.503109 2.085376 3.080078 4.3125l-2.125 11.1875c-.492611 2.212313-1.946024 4.219066-4.080078 4.25h-11.810547c-1.863731 0-3.463868-1.274461-4.121094-3.441406v-17.269532c0-2.013996-1.653997-3.660156-3.6679684-3.660156h-4.421875c-2.0139714 0-3.66992185 1.64616-3.66992185 3.660156v19.044922c0 2.013997 1.65593345 3.669922 3.66992185 3.669922h4.421875c1.4748274 0 2.7492554-.892191 3.3300784-2.158203 1.136442 1.324346 2.691103 2.154297 4.458984 2.154297h11.810547c3.312517 0 5.447474-2.87053 6.044922-5.875l2.125-11.1875c.623709-3.283654-1.587873-6.6875-5.044922-6.6875h-4.722656c.506229-3.504038-.605752-6.145151-2.5625-7.355469-1.468262-.861806-2.884631-1.130669-4.359375-.484375-.540592-1.550331-1.024087-2.948862-1.748047-4.966797-2.622577-7.310022-2.492835-13.245263-.716797-17.2539059 2.621707-5.6160754 10.438944-8.73584282 15.144531-3.3691406.375685.4306394 1.043906 1.1272629 1.466797 1.5664063-1.906583-.2418898-3.011643-.5972327-3.603515-.7558594-1.341128-.4877859-1.794525 1.5483688-.759766 1.8515625 2.85891 1.0522582 9.415428 2.0787111 12.43164-.4179688 1.226268-.9902362 1.52573-1.4902004 2.183594-2.2441406 2.190733-2.5150875 3.838704-2.8251711 6.101563-2.8144531 3.723439.1988031 7.528209 2.9318774 9.042969 6.1835937 1.775997 4.0086429 1.905779 9.9438839-.716797 17.2539059-2.78778 7.770633-4.310749 12.613572-5.642579 15.34961-.893289 1.969776-2.285488 3.241131-4.175781 3.253906-4.497656 0-4.676572-7.943252-6.330078-11.310547-1.86283-3.945351-7.327962-3.57594-8.410156.306641-.10012.406243-.283227 1.065407-.494141 1.791015-.328693 1.368074 1.543551 1.825215 1.892578.726563.255838-.846583.467982-1.583226.595704-2.064453 1.070397-2.08063 3.768273-1.718695 4.646484.173828 1.930016 3.942614 1.577978 12.376953 8.099609 12.376953 3.25338 0 4.836871-2.071958 5.972657-4.378906 1.46978-3.01954 2.952263-7.81051 5.728515-15.548828 2.745298-7.652145 2.716358-14.103699.662109-18.7402348-3.389667-7.0787525-13.284884-10.5931856-18.480468-3.875-2.552429 3.6746457-6.107421 3.0292914-8.703125 0-2.158413-2.5703431-4.812347-3.70282702-7.46875-3.72656245zm-22.2207034 37.85156225h4.421875c.9405874 0 1.6679684.719545 1.6679684 1.660156v19.044922c0 .940574-.727398 1.669922-1.6679684 1.669922h-4.421875c-.9405701 0-1.6699219-.729348-1.6699218-1.669922v-19.044922c0-.940611.7293347-1.660156 1.6699218-1.660156z" fill="#00003a" transform="matrix(.265 0 0 .265 0 280.067)" font-variant-ligatures="normal" font-variant-position="normal" font-variant-caps="normal" font-variant-numeric="normal" font-variant-alternates="normal" font-feature-settings="normal" text-indent="0" text-align="start" text-decoration-line="none" text-decoration-style="solid" text-decoration-color="#000000" text-transform="none" text-orientation="mixed" white-space="normal" shape-padding="0" isolation="auto" mix-blend-mode="normal" solid-color="#000000" solid-opacity="1" vector-effect="none"/></g></svg>