<svg id="svg4593" height="512" viewBox="0 0 16.933333 16.933334" width="512" xmlns="http://www.w3.org/2000/svg" xmlns:svg="http://www.w3.org/2000/svg"><clipPath id="clipPath5337"><path id="rect5339" d="m34.774 274.321h35.435v25.702h-35.435z"/></clipPath><clipPath id="clipPath4542"><path id="rect4544" d="m-535.214-48.848h501.574v185.586h-501.574z"/></clipPath><clipPath id="clipPath11017"><path id="rect11019" d="m36.669 153.503h29.654v28.999h-29.654z" transform="rotate(-90)" vector-effect="none"/></clipPath><clipPath id="clipPath11444"><path id="rect11446" d="m-143.933 265.779h28.84v29.104h-28.84z" transform="rotate(-90)" vector-effect="none"/></clipPath><clipPath id="clipPath11781"><rect id="rect11783" height="32.411" rx=".634" transform="rotate(-90)" width="32.941" x="-145.124" y="181.377"/></clipPath><clipPath id="clipPath11499"><path id="rect11501" d="m-551.399-9.261h16.064v16.347h-16.064z" vector-effect="none"/></clipPath><g id="layer1" fill="#00003a" transform="translate(0 -280.067)"><path id="path18078" d="m31.792969 1.0019531v.00195c-7.316202.049137-14.613855 2.6773957-20.431641 7.8691438-10.98779039 9.8054201-13.4725239 25.8940041-6.283203 38.4824221l-1.859375-.496094c-1.2187507-.393107-1.7402123 1.615494-.5175781 1.933594l3.9492187 1.05664c.8464219.200495 1.4555397-.221119 1.5976563-.675781l1.1425781-4.240234c.2847571-1.397839-1.6199356-1.84831-1.9355469-.517578l-.5585937 2.089843c-6.83668249-11.805928-4.5394043-26.922028 5.7929686-36.142578 10.896197-9.72366589 27.300719-9.83453036 38.326172-.257812 1.008069.947405 2.389373-.6350396 1.314453-1.5058596-5.886799-5.1133607-13.220909-7.64663895-20.537109-7.5976563zm23.33789 13.1152349-1.103515 4.130859c-.46267 1.351144 1.654081 1.917327 1.927734.515625l.589844-2.195313c7.588041 12.042802 5.33402 27.966206-5.609375 37.400391-11.489753 9.905197-28.648018 9.285124-39.398438-1.417969-.944719-1.020967-2.4356741.480328-1.408203 1.417969 11.478219 11.427666 29.845676 12.087517 42.113282 1.511719 11.578971-9.9821 14.053489-26.812493 6.21289-39.632813l1.736328.464844c1.358938.481535 1.93482-1.661183.517578-1.925781l-4.158203-1.121094c-.783109-.199335-1.301288.200084-1.419922.851563z" transform="matrix(.265 0 0 .265 0 280.067)" font-variant-ligatures="normal" font-variant-position="normal" font-variant-caps="normal" font-variant-numeric="normal" font-variant-alternates="normal" font-feature-settings="normal" text-indent="0" text-align="start" text-decoration-line="none" text-decoration-style="solid" text-decoration-color="#000000" text-transform="none" text-orientation="mixed" white-space="normal" shape-padding="0" isolation="auto" mix-blend-mode="normal" solid-color="#000000" solid-opacity="1" vector-effect="none"/><path id="path6022-3" d="m9.0793813 285.35703c-.1696198.24823-.383269.39998-.6133991.39998-.2963201-.01-.4518493-.21754-.6133991-.39998-1.0191506-1.00085-2.613946-.59901-3.1171224.64234-.34173.77131-.3417676 1.82595.1018024 3.06234.44142 1.23039.6744166 1.99097.9157065 2.48667.22869.49207.5567146.75551 1.0469644.75551.8818401 0 1.0356271-.8576 1.2190471-1.55649.0909-.34141-.4211635-.47784-.5121135-.13643-.1191699.44008-.2477537 1.1572-.7069336 1.16376-.32933-.00056-.448361-.24733-.569991-.45889-.2047801-.42069-.4500391-1.19296-.894519-2.43189-.41109-1.14587-.3854256-2.06445-.1173056-2.66961.39083-.86143 1.5497992-1.29488 2.2360392-.51004.077.0883.1568357.18921.2594158.28422-.14146.0141-.291577.0233-.4604369.0186-.3453601-.003-.3604231.5115-.015503.52917 1.0024398 0 1.6533132-.15816 2.2401733-.83199.7070662-.76025 1.8520732-.38819 2.2365552.51004.26812.60516.293785 1.52374-.117305 2.66961-.44449 1.23893-.689739 2.0112-.894519 2.43189-.12869.31591-.315578.41474-.570508.45889-.4275295 0-.5461676-.5439-.6423376-.91778-.20599-.93947-.4229502-1.30173-1.0237102-1.31671-.3531201 0-.3531201.52968 0 .52968.3752101 0 .4252365.586.5100463.91777.1430602.64145.5187918 1.3162 1.1560015 1.3162.5401 0 .843724-.34264 1.046964-.75551.2413-.4957.474804-1.25628.916224-2.48667.44357-1.23639.445083-2.29103.103352-3.06234-.458765-1.17515-2.339745-1.76648-3.1191887-.64234z" font-variant-ligatures="normal" font-variant-position="normal" font-variant-caps="normal" font-variant-numeric="normal" font-variant-alternates="normal" font-feature-settings="normal" text-indent="0" text-align="start" text-decoration-line="none" text-decoration-style="solid" text-decoration-color="#000000" text-transform="none" text-orientation="mixed" white-space="normal" shape-padding="0" isolation="auto" mix-blend-mode="normal" solid-color="#000000" solid-opacity="1" vector-effect="none"/></g></svg>