<svg id="svg4593" height="512" viewBox="0 0 16.933333 16.933334" width="512" xmlns="http://www.w3.org/2000/svg" xmlns:svg="http://www.w3.org/2000/svg"><clipPath id="clipPath5337"><path id="rect5339" d="m34.774 274.321h35.435v25.702h-35.435z"/></clipPath><clipPath id="clipPath4542"><path id="rect4544" d="m-535.214-48.848h501.574v185.586h-501.574z"/></clipPath><clipPath id="clipPath11017"><path id="rect11019" d="m36.669 153.503h29.654v28.999h-29.654z" transform="rotate(-90)" vector-effect="none"/></clipPath><clipPath id="clipPath11444"><path id="rect11446" d="m-143.933 265.779h28.84v29.104h-28.84z" transform="rotate(-90)" vector-effect="none"/></clipPath><clipPath id="clipPath11781"><rect id="rect11783" height="32.411" rx=".634" transform="rotate(-90)" width="32.941" x="-145.124" y="181.377"/></clipPath><clipPath id="clipPath11499"><path id="rect11501" d="m-551.399-9.261h16.064v16.347h-16.064z" vector-effect="none"/></clipPath><g id="layer1" transform="translate(0 -280.067)"><g id="g20571" fill="#00003a" transform="translate(-.419)"><path id="path33567" d="m4.0012831 280.33123c-.6622098 0-1.2035442.54134-1.2035442 1.20355v13.99708c0 .6622.5413342 1.20354 1.2035442 1.20354h9.7678789c.66221 0 1.203544-.54134 1.203544-1.20354v-9.38238a.26460979.26460979 0 1 0 -.529167 0v9.38238c0 .37827-.296103.67437-.674377.67437h-9.7678789c-.3782738 0-.6743777-.2961-.6743774-.67437v-13.99708c0-.37827.2961036-.67438.6743774-.67438h6.0807659v3.15743c0 .66221.540818 1.20303 1.203027 1.20303h3.42408a.26460981.26460981 0 0 0 .185519-.45114l-4.340304-4.34237a.26460979.26460979 0 0 0 -.207222-.0961zm6.6099319.90331 3.457154 3.45663h-2.783293c-.378274 0-.673861-.29507-.673861-.67334z" font-variant-ligatures="normal" font-variant-position="normal" font-variant-caps="normal" font-variant-numeric="normal" font-variant-alternates="normal" font-feature-settings="normal" text-indent="0" text-align="start" text-decoration-line="none" text-decoration-style="solid" text-decoration-color="#000000" text-transform="none" text-orientation="mixed" white-space="normal" shape-padding="0" isolation="auto" mix-blend-mode="normal" solid-color="#000000" solid-opacity="1" vector-effect="none"/><path id="path6022" d="m9.3412871 286.63016c-.1696202.24823-.3832694.39998-.6133994.39998-.2963199-.01-.4518494-.21754-.6133992-.39998-1.0232847-1.10834-2.6270576-.46283-3.1171223.64234-.34173.77131-.3417676 1.82595.1018024 3.06234.44142 1.23039.6744165 1.99097.9157065 2.48667.2286899.49207.5567145.75551 1.0469644.75551.8818401 0 1.0356271-.8576 1.2190471-1.55649.0909-.34141-.4211635-.47784-.5121135-.13643-.1191699.44008-.2477535 1.1572-.7069336 1.16376-.32933-.00056-.448361-.24733-.5699911-.45889-.2047798-.42069-.450039-1.19296-.8945189-2.43189-.41109-1.14587-.3854254-2.06445-.1173054-2.66961.3908298-.86143 1.549799-1.29488 2.236039-.51004.077.0883.1568357.18921.2594157.28422-.14146.0141-.2915769.0233-.4604369.0186-.3453601-.003-.3604231.5115-.015503.52917.65995 0 1.3550966-.0489 1.8691365-.45476.1605899-.11926.2681669-.25933.3710369-.37723.7070667-.76025 1.8813067-.25372 2.2365557.51004.26812.60516.293784 1.52374-.117306 2.66961-.44449 1.23893-.689739 2.0112-.894519 2.43189-.12869.31591-.315577.41474-.570507.45889-.4275297 0-.5461677-.5439-.6423381-.91778-.2059901-.93947-.4229502-1.30173-1.0237102-1.31671-.3531201 0-.3531201.52968 0 .52968.3752101 0 .4252364.586.5100462.91777.1430603.64145.5187919 1.3162 1.1560021 1.3162.5401 0 .843724-.34264 1.046964-.75551.2413-.4957.474803-1.25628.916223-2.48667.44357-1.23639.445083-2.29103.103353-3.06234-.479727-1.12539-2.291857-1.76024-3.1191889-.64234z" font-variant-ligatures="normal" font-variant-position="normal" font-variant-caps="normal" font-variant-numeric="normal" font-variant-alternates="normal" font-feature-settings="normal" text-indent="0" text-align="start" text-decoration-line="none" text-decoration-style="solid" text-decoration-color="#000000" text-transform="none" text-orientation="mixed" white-space="normal" shape-padding="0" isolation="auto" mix-blend-mode="normal" solid-color="#000000" solid-opacity="1" vector-effect="none"/></g></g></svg>