<svg id="svg4593" height="512" viewBox="0 0 16.933333 16.933334" width="512" xmlns="http://www.w3.org/2000/svg" xmlns:svg="http://www.w3.org/2000/svg"><clipPath id="clipPath5337"><path id="rect5339" d="m34.774 274.321h35.435v25.702h-35.435z"/></clipPath><clipPath id="clipPath4542"><path id="rect4544" d="m-535.214-48.848h501.574v185.586h-501.574z"/></clipPath><clipPath id="clipPath11017"><path id="rect11019" d="m36.669 153.503h29.654v28.999h-29.654z" transform="rotate(-90)" vector-effect="none"/></clipPath><clipPath id="clipPath11444"><path id="rect11446" d="m-143.933 265.779h28.84v29.104h-28.84z" transform="rotate(-90)" vector-effect="none"/></clipPath><clipPath id="clipPath11781"><rect id="rect11783" height="32.411" rx=".634" transform="rotate(-90)" width="32.941" x="-145.124" y="181.377"/></clipPath><clipPath id="clipPath11499"><path id="rect11501" d="m-551.399-9.261h16.064v16.347h-16.064z" vector-effect="none"/></clipPath><g id="layer1" fill="#00003a" transform="translate(0 -280.067)"><path id="path18778" d="m2.5039062 18.849609c-2.20720625 5.275465-2.24583467 12.632756.7246094 21.400391 3.0159496 8.901921 4.6301257 14.415785 6.2148438 17.863281 1.3057516 2.907818 3.5821376 4.976563 6.4140626 4.976563 2.35423 0 4.056809-1.307832 5.080078-3.011719 2.088831-3.546444 1.937862-7.624056 3.654297-11.162109 1.475603-2.711736 4.16363-2.184718 5.277344 0 1.641675 3.670979 1.733854 7.891722 3.646484 11.162109 1.023269 1.703887 2.723895 3.011719 5.078125 3.011719 3.438614 0 5.241856-2.434453 6.423828-4.976563 1.584756-3.447496 3.198932-8.96136 6.214844-17.863281.428145-1.264781-1.46834-1.907359-1.896484-.642578-3.026457 8.932989-4.677002 14.500624-6.134766 17.671875-.958148 2.218356-2.456379 3.795277-4.607422 3.810547-1.688806 0-2.570853-.716304-3.365234-2.039063-1.901254-3.538582-1.925261-7.643532-3.572266-11.027343-2.356989-3.890079-6.902298-3.780775-8.859375 0-1.775395 3.586507-1.628266 7.693044-3.572266 11.027343-.794343 1.322759-1.678381 2.039063-3.367187 2.039063-2.56252-.04384-3.760529-2.011114-4.597656-3.810547-1.4577642-3.171251-3.1082715-8.738886-6.134766-17.671875-2.8589102-8.438476-2.7277434-15.316104-.7753906-19.982422 2.7932601-6.74105 11.4532046-10.0907859 16.5644526-3.919922.483543.649324 1.022997 1.247023 1.59961 1.779297-1.283219-.115713-2.40627-.379844-3.689453-.662109-1.455739-.290419-1.628657 1.658909-.613281 1.904296 3.709425 1.204606 8.91314.890951 8.982421.886719 1.158666.0041 1.321232-1.90269-.002-2-2.295699.02716-3.591157-1.787528-4.734375-3.177734-5.912804-6.8100876-16.1413385-4.305072-19.9530778 4.414062z" transform="matrix(.265 0 0 .265 0 280.067)" font-variant-ligatures="normal" font-variant-position="normal" font-variant-caps="normal" font-variant-numeric="normal" font-variant-alternates="normal" font-feature-settings="normal" text-indent="0" text-align="start" text-decoration-line="none" text-decoration-style="solid" text-decoration-color="#000000" text-transform="none" text-orientation="mixed" white-space="normal" shape-padding="0" isolation="auto" mix-blend-mode="normal" solid-color="#000000" solid-opacity="1" vector-effect="none"/><path id="path18786" d="m13.43216 282.74152-.66993.67188c-.26512.24991.12649.63947.375.37304l.66095-.66094c.36427-.36427.92536.19573.55893.56216l-1.87222 1.87222c-.17519.17519-.41537.14522-.56059 0l-.86328-.86523c-.40447-.40446.20624-.91284.55854-.56054l.39853.39843c.25.25.625-.125.375-.375l-.39062-.38867c-.92085-.93017-2.16775.49884-1.30664 1.30859l.85547.85742c.41217.41217.99204.29448 1.30864 0l1.8789-1.88086c.82278-.93986-.50434-2.10588-1.30668-1.3125z" font-variant-ligatures="normal" font-variant-position="normal" font-variant-caps="normal" font-variant-numeric="normal" font-variant-alternates="normal" font-feature-settings="normal" text-indent="0" text-align="start" text-decoration-line="none" text-decoration-style="solid" text-decoration-color="#000000" text-transform="none" text-orientation="mixed" white-space="normal" shape-padding="0" isolation="auto" mix-blend-mode="normal" solid-color="#000000" solid-opacity="1" vector-effect="none"/><path id="path18802" d="m9.69192 280.30753c-.82301 0-1.47174.62625-1.47174 1.3994v3.31349c0 1.21406.70488 2.38034 1.56476 3.25614.85988.87579 1.85798 1.48724 2.67064 1.48724 1.06799 0 2.10825-.70129 2.89698-1.62315.78873-.92187 1.33842-2.07821 1.33842-3.12023v-3.31349c0-.77316-.64446-1.3994-1.47175-1.3994-.82728 0-3.92135.00012-5.52731 0zm0 .52917c1.90495 0 3.60721.004 5.52783 0 .56617.00025.94206.38435.94206.87023v3.31349c0 .84833-.48838 1.93111-1.21129 2.77606-.72292.84495-1.66788 1.43816-2.49494 1.43816-.51143 0-1.4989-.51939-2.2934-1.3286-.79451-.80922-1.41284-1.88209-1.41284-2.88562v-3.31349c0-.48603.37611-.87023.94258-.87023z" font-variant-ligatures="normal" font-variant-position="normal" font-variant-caps="normal" font-variant-numeric="normal" font-variant-alternates="normal" font-feature-settings="normal" text-indent="0" text-align="start" text-decoration-line="none" text-decoration-style="solid" text-decoration-color="#000000" text-transform="none" text-orientation="mixed" white-space="normal" shape-padding="0" isolation="auto" mix-blend-mode="normal" solid-color="#000000" solid-opacity="1" vector-effect="none"/></g></svg>