<svg id="svg4593" height="512" viewBox="0 0 16.933333 16.933334" width="512" xmlns="http://www.w3.org/2000/svg" xmlns:svg="http://www.w3.org/2000/svg"><clipPath id="clipPath5337"><path id="rect5339" d="m34.774 274.321h35.435v25.702h-35.435z"/></clipPath><clipPath id="clipPath4542"><path id="rect4544" d="m-535.214-48.848h501.574v185.586h-501.574z"/></clipPath><clipPath id="clipPath11017"><path id="rect11019" d="m36.669 153.503h29.654v28.999h-29.654z" transform="rotate(-90)" vector-effect="none"/></clipPath><clipPath id="clipPath11444"><path id="rect11446" d="m-143.933 265.779h28.84v29.104h-28.84z" transform="rotate(-90)" vector-effect="none"/></clipPath><clipPath id="clipPath11781"><rect id="rect11783" height="32.411" rx=".634" transform="rotate(-90)" width="32.941" x="-145.124" y="181.377"/></clipPath><clipPath id="clipPath11499"><path id="rect11501" d="m-551.399-9.261h16.064v16.347h-16.064z" vector-effect="none"/></clipPath><g id="layer1" fill="#00003a" transform="translate(0 -280.067)"><path id="path18253-9-8" d="m47.603516.95898438c-3.516186-.09240237-7.066487 1.26258912-9.847657 4.64257812-.88747 1.0770142-1.645436 2.0647694-2.501953 2.7382813-2.085467 1.3523527-4.610049 1.4673637-6.511718 0-.856517-.6735119-1.614483-1.6612293-2.501954-2.7382813-8.062917-9.229746-20.263989-3.1309452-23.4218746 5.2031255-2.54415121 6.080768-2.64450148 14.53565.6464844 24.615234.3741732 1.396875 2.2932835.488581 2.0253906-.591797-3.1966866-9.759912-3.0161003-17.748046-.7304688-23.210937 3.5146961-7.5240572 13.5122114-12.32113571 19.8496094-4.6738286.600038.7282015 1.19765 1.4936565 1.896484 2.1992187-1.675804-.2097638-3.500561-.5186371-5.136718-.9882812-1.374804-.2815748-1.544773 1.5856226-.554688 1.9199221 3.227717 1.062765 11.623396 3.081622 15.738281-.082031 1.147011-.9019087 1.976522-2.0153541 2.828125-3.0488281 5.817411-6.73508034 16.177156-3.8899766 19.84961 4.6738286 2.330532 5.570192 2.487362 13.760727-.908203 23.783203-3.586167 10.584982-5.543322 17.174668-7.279297 20.951171-1.155553 2.6736-2.964883 4.572597-5.572266 4.591797-2.045064 0-3.141247-.887851-4.097656-2.480468-2.270211-4.193613-2.287139-9.060652-4.244141-13.082032-2.357971-4.729171-7.842292-4.677089-10.261718 0-2.104252 4.253367-1.942711 9.135071-4.244141 13.082032-.956447 1.592617-2.050639 2.480468-4.095703 2.480468-3.083868-.01134-4.575101-2.444231-5.574219-4.591797-1.539099-3.3482455-3.4288561-9.4012965-6.296875-17.9960935-.335622-1.253254-2.4409052-.992437-1.9902344.689453 2.9128063 8.731124 4.6907025 14.538529 6.3671874 18.185547 1.527572 3.402784 3.973473 5.816406 7.494141 5.816406 2.746658 0 4.706564-1.505506 5.904297-3.5 2.467275-4.199962 2.291058-9.041604 4.318359-13.220703 1.808504-3.287849 5.122387-2.69178 6.496094 0 1.959307 4.34366 2.049395 9.340073 4.318359 13.220703 1.19777 1.994494 3.159592 3.5 5.90625 3.5 3.975836 0 6.114172-2.852463 7.492188-5.816406 1.869845-4.067755 3.77846-10.605989 7.353515-21.158203 3.513185-10.369512 3.462538-19.055169.863282-25.267578-1.95052-5.5175674-7.715862-9.6916997-13.576172-9.84570362z" transform="matrix(.265 0 0 .265 0 280.067)" font-variant-ligatures="normal" font-variant-position="normal" font-variant-caps="normal" font-variant-numeric="normal" font-variant-alternates="normal" font-feature-settings="normal" text-indent="0" text-align="start" text-decoration-line="none" text-decoration-style="solid" text-decoration-color="#000000" text-transform="none" text-orientation="mixed" white-space="normal" shape-padding="0" isolation="auto" mix-blend-mode="normal" solid-color="#000000" solid-opacity="1" vector-effect="none"/><path id="path4943" d="m12.191406 282.91797c-.530527 0-.966797.43627-.966797.9668v.35742h-.359375c-.530763 0-.9667965.43603-.9667965.96679v.39844c.0000014.53076.4360335.96485.9667965.96485h.359375v.35937c0 .53053.436034.9668.966797.9668h.396485c.530763 0 .966797-.43627.966797-.9668v-.35937h.359374c.530764 0 .964844-.43409.964844-.96485v-.39844c0-.53076-.43408-.96679-.964844-.96679h-.625a.264645.264645 0 1 0 0 .52929h.625c.246577 0 .435547.19093.435547.4375v.39844c0 .24658-.18897.4375-.435547.4375h-.625a.26460981.26460981 0 0 0 -.263671.26367v.62305c0 .24681-.190924.4375-.4375.4375h-.396485c-.246577 0-.4375-.19069-.4375-.4375v-.62305a.26460981.26460981 0 0 0 -.265625-.26367h-.623047c-.246576 0-.437499-.19092-.4375-.4375v-.39844c0-.24657.190924-.4375.4375-.4375h.623047a.26460981.26460981 0 0 0 .265625-.26367v-.62304c0-.24682.190687-.4375.4375-.4375h.396485c.155135 0 .28726.0763.365234.19335a.26460981.26460981 0 1 0 .439453-.29296c-.172921-.25951-.471216-.42969-.804687-.42969z" font-variant-ligatures="normal" font-variant-position="normal" font-variant-caps="normal" font-variant-numeric="normal" font-variant-alternates="normal" font-feature-settings="normal" text-indent="0" text-align="start" text-decoration-line="none" text-decoration-style="solid" text-decoration-color="#000000" text-transform="none" text-orientation="mixed" white-space="normal" shape-padding="0" isolation="auto" mix-blend-mode="normal" solid-color="#000000" solid-opacity="1" vector-effect="none"/></g></svg>