<svg id="svg4593" height="512" viewBox="0 0 16.933333 16.933334" width="512" xmlns="http://www.w3.org/2000/svg" xmlns:svg="http://www.w3.org/2000/svg"><clipPath id="clipPath5337"><path id="rect5339" d="m34.774 274.321h35.435v25.702h-35.435z"/></clipPath><clipPath id="clipPath4542"><path id="rect4544" d="m-535.214-48.848h501.574v185.586h-501.574z"/></clipPath><clipPath id="clipPath11017"><path id="rect11019" d="m36.669 153.503h29.654v28.999h-29.654z" transform="rotate(-90)" vector-effect="none"/></clipPath><clipPath id="clipPath11444"><path id="rect11446" d="m-143.933 265.779h28.84v29.104h-28.84z" transform="rotate(-90)" vector-effect="none"/></clipPath><clipPath id="clipPath11781"><rect id="rect11783" height="32.411" rx=".634" transform="rotate(-90)" width="32.941" x="-145.124" y="181.377"/></clipPath><clipPath id="clipPath11499"><path id="rect11501" d="m-551.399-9.261h16.064v16.347h-16.064z" vector-effect="none"/></clipPath><g id="layer1" transform="translate(0 -280.067)"><path id="path4819" d="m10.076172.921875c-5.0433969 0-9.154297 4.1108952-9.154297 9.154297.00000003 4.450882 3.2032171 8.168823 7.421875 8.982422-.00386 3.975561-.00222 7.964989-.00195 11.947265-3.529861 0-6.0312475 2.918493-6.0312475 5.992189-.2578608 4.808211-.5091833 9.650366-.7539063 14.431641-.058108 1.049259 1.1686079 1.534337 1.7871094.726562h12.2226564l.59961 8.847656h-13.1093814l.265625-5.050781c.1022901-1.364193-1.9635687-1.4691-2-.101563l-.3183594 6.095703c-.03243049.572696.4224815 1.05526.9960938 1.05664h15.236328c.579376-.000891 1.03677-.492365.996094-1.070312-.550228-8.333675-1.120531-16.638177-1.681641-24.951172-.287262-4.056228-3.26414-5.978516-6.216797-5.978516v-11.789062c4.923746-.138519 8.896485-4.182329 8.896485-9.138672 0-5.0434018-4.1109-9.154297-9.154297-9.154297zm44.298828.2734375-10.992188 8.1796875c-3.221589 2.269493-2.777061 6.597794-.0078 8.259766l9.804688 5.787109v7.582031c-3.759202 0-5.913795 2.324433-6.105452 5.994142-.447732 8.333677-.876609 16.627572-1.314453 24.951172-.03144.575031.428024 1.057737 1.003906 1.054687h15.236299c.579376-.000891 1.03677-.492365.996094-1.070312-.55368-8.336398-1.125053-16.616043-1.689453-24.951172-.331102-4.151537-3.032045-5.978516-6.126955-5.978516v-8.15039c.000257-.355276-.18755-.683678-.494141-.863282l-10.246092-6.044923c-1.818149-1.149089-1.660952-3.819471.04297-4.902343l11.087889-8.2382815c1.180075-.804673-.101797-2.44380058-1.195312-1.609375zm-28.419922 2.7167969c-3.633809 3.0491337-4.97397 8.0541816-3.351562 12.5117186 1.507787 4.142623 5.27857 6.99595 9.611328 7.378906v7.201172c-3.451061 0-5.84939 2.496458-6.060547 5.994141-.378375 6.989646-.73337 13.954863-1.099609 20.927734-.104985 1.360558 1.953336 1.475132 2 .111328l.308593-5.880859h12.046875l.59961 8.847656h-14.166016c-1.363604-.03061-1.363604 2.030615 0 2h15.236328c.579376-.000891 1.03677-.492365.996094-1.070312-.54824-8.269523-1.17835-17.48552-1.681641-24.951172-.27448-3.718503-2.576416-5.872962-6.1875-5.978516v-8.066406c.05143-.584636-.4092-1.08772-.996093-1.087891-3.90968 0-7.395233-2.439391-8.732422-6.113281s-.235222-7.7837914 2.759765-10.2968749c2.994989-2.5130833 7.229353-2.8845347 10.615235-.9296875 1.169645.7369974 2.168407-1.0004379 1.003906-1.7285156-3.626122-2.33285466-9.596958-2.15649451-12.902344 1.1308594zm-15.878906-.9902344c3.962517 0 7.152344 3.1918023 7.152344 7.154297 0 3.962532-3.189827 7.152344-7.152344 7.152344-3.9625166 0-7.1523439-3.189812-7.1523439-7.152344 0-3.9624947 3.1898273-7.154297 7.1523439-7.154297zm-1.7128908 30.082031h2.1328128c2.260248 0 3.894509 1.779802 4.052734 4.119141l.246094 3.626953h-10.6738282l.1894531-3.605469c.2192277-2.365001 1.7938143-4.140625 4.0527343-4.140625zm23.8437498 0h2.132813c2.260248 0 3.894508 1.779802 4.052734 4.119141l.246094 3.626953h-10.673828l.189453-3.619141c.2256-2.355968 1.799592-4.126953 4.052734-4.126953zm20.919922 0h2.134766c2.260248 0 3.894512 1.779802 4.052734 4.119141l.246094 3.626953h-7.546875c-1.352313-.01912-1.352313 2.019116 0 2h7.68164l.5 7.40625h-11.808593l.6875-13.025391c.2256-2.355968 1.799591-4.126953 4.052734-4.126953zm-49.1132811 9.746094h10.9160161l.501953 7.40625h-11.8085941zm23.8457031 0h10.914063l.501953 7.40625h-11.806641zm20.419922 9.40625h12.052734l.597657 8.847656h-13.117188z" fill="#00003a" transform="matrix(.265 0 0 .265 0 280.067)" font-variant-ligatures="normal" font-variant-position="normal" font-variant-caps="normal" font-variant-numeric="normal" font-variant-alternates="normal" font-feature-settings="normal" text-indent="0" text-align="start" text-decoration-line="none" text-decoration-style="solid" text-decoration-color="#000000" text-transform="none" text-orientation="mixed" white-space="normal" shape-padding="0" isolation="auto" mix-blend-mode="normal" solid-color="#000000" solid-opacity="1" vector-effect="none"/></g></svg>