<svg id="svg4593" height="512" viewBox="0 0 16.933333 16.933334" width="512" xmlns="http://www.w3.org/2000/svg" xmlns:svg="http://www.w3.org/2000/svg"><clipPath id="clipPath5337"><path id="rect5339" d="m34.774 274.321h35.435v25.702h-35.435z"/></clipPath><clipPath id="clipPath4542"><path id="rect4544" d="m-535.214-48.848h501.574v185.586h-501.574z"/></clipPath><clipPath id="clipPath11017"><path id="rect11019" d="m36.669 153.503h29.654v28.999h-29.654z" transform="rotate(-90)" vector-effect="none"/></clipPath><clipPath id="clipPath11444"><path id="rect11446" d="m-143.933 265.779h28.84v29.104h-28.84z" transform="rotate(-90)" vector-effect="none"/></clipPath><clipPath id="clipPath11781"><rect id="rect11783" height="32.411" rx=".634" transform="rotate(-90)" width="32.941" x="-145.124" y="181.377"/></clipPath><clipPath id="clipPath11499"><path id="rect11501" d="m-551.399-9.261h16.064v16.347h-16.064z" vector-effect="none"/></clipPath><g id="layer1" transform="translate(0 -280.067)"><g id="g20571" transform="translate(-.419)"><path id="path4546" d="m8.8852389 280.29015c-1.2759595 0-2.3161376 1.0407-2.3161376 2.31666 0 .0523.0043.10353.00775.15503-2.1228698.90012-3.6116624 3.00232-3.611666 5.45031-.0000005 1.78749.7961747 3.38974 2.0510376 4.4757.056654.27139.1351108.55327.2402954.84646.441417 1.23038.6744155 1.99045.9157065 2.48615.2286648.49236.558633.75603 1.0469644.75603.7500043 0 .996751-.6919 1.1565186-1.3162.078899-.41606.1605306-.91829.5095296-.91829.3371207 0 .4250269.58563.5100462.91829.143083.64233.5000072 1.3162 1.1580694 1.3162.549836 0 .841931-.34369 1.044897-.75603.241291-.4957.47429-1.25577.915707-2.48615.427847-1.19256.441379-2.21335.135392-2.97657.106193-.35553.165353-.73099.165364-1.12086-.000063-2.16702-1.762451-3.92992-3.9294756-3.92999-1.8347103.00006-3.3803953 1.26053-3.8106202 2.96519-.092468.34642.4319045.47778.5136637.12868.3718962-1.47354 1.7043638-2.56414 3.2969565-2.56419 1.8810536.00006 3.4002546 1.51926 3.4003096 3.40031-.000005.15921-.0146.31425-.03669.46716-.380463-.42406-.914171-.6687-1.51567-.6687-1.1517915 0-1.2128412.95868-1.8479496.99426-.5575113 0-.8003091-.99426-1.8417482-.99426-.8988219 0-1.6017496.62335-1.8887733 1.23662-.1729275.39031-.2571195.85389-.2418459 1.37615-.8784346-.95811-1.4180026-2.23149-1.4180021-3.63596.0000035-2.19087 1.3070975-4.06919 3.1801676-4.91339.2954779.93955 1.1752074 1.62419 2.2102011 1.62419 1.0357394 0 1.9163874-.68566 2.2112344-1.62626 1.872975.84433 3.179647 2.72464 3.179651 4.91546 0 1.09632-.325655 2.11407-.886767 2.96468-.218774.29899.252747.60984.441316.29094.616105-.93397.974618-2.0541.974618-3.25562-.000005-2.44778-1.489099-4.55003-3.611666-5.45031.0034-.0515.0083-.10268.0083-.15503 0-1.27596-1.040695-2.31666-2.3166544-2.31666zm0 .52917c.9899763 0 1.7869711.79752 1.7869711 1.78749 0 .98998-.7969948 1.78697-1.7869711 1.78697-.9899767 0-1.786971-.79699-1.786971-1.78697 0-.98997.7969943-1.78749 1.786971-1.78749zm-1.0118281 9.35757c.080413.0922.1646312.19745.273885.29611-.1233664.0185-.2319559.0266-.2935221.0165-.3638936-.0806-.4563067.48116-.085783.52142.9320411.0408 1.6032041-.23335 2.1311359-.83406.7060864-.76076 1.8790924-.25362 2.2339724.50953.268119.60517.294308 1.52218-.116789 2.66805-.444482 1.23893-.68974 2.01327-.894519 2.43396-.127844.3139-.322418.45889-.56844.45889-.424133 0-.547981-.54342-.6444057-.91829-.1281202-.58401-.3671459-1.3162-1.0237102-1.3162-.7377668 0-.8754919.74159-1.021643 1.3162-.097652.47382-.2892491.91829-.6444051.91829-.3551561 0-.448713-.24888-.5699911-.45889-.204779-.42069-.4505529-1.19503-.8950359-2.43396-.4110969-1.14587-.384909-2.06288-.1167887-2.66805.39698-.8415 1.5395744-1.30607 2.2360392-.50953z" fill="#00003a" font-variant-ligatures="normal" font-variant-position="normal" font-variant-caps="normal" font-variant-numeric="normal" font-variant-alternates="normal" font-feature-settings="normal" text-indent="0" text-align="start" text-decoration-line="none" text-decoration-style="solid" text-decoration-color="#000000" text-transform="none" text-orientation="mixed" white-space="normal" shape-padding="0" isolation="auto" mix-blend-mode="normal" solid-color="#000000" solid-opacity="1" vector-effect="none"/></g></g></svg>