<svg id="svg4593" height="512" viewBox="0 0 16.933333 16.933334" width="512" xmlns="http://www.w3.org/2000/svg" xmlns:svg="http://www.w3.org/2000/svg"><clipPath id="clipPath5337"><path id="rect5339" d="m34.774 274.321h35.435v25.702h-35.435z"/></clipPath><clipPath id="clipPath4542"><path id="rect4544" d="m-535.214-48.848h501.574v185.586h-501.574z"/></clipPath><clipPath id="clipPath11017"><path id="rect11019" d="m36.669 153.503h29.654v28.999h-29.654z" transform="rotate(-90)" vector-effect="none"/></clipPath><clipPath id="clipPath11444"><path id="rect11446" d="m-143.933 265.779h28.84v29.104h-28.84z" transform="rotate(-90)" vector-effect="none"/></clipPath><clipPath id="clipPath11781"><rect id="rect11783" height="32.411" rx=".634" transform="rotate(-90)" width="32.941" x="-145.124" y="181.377"/></clipPath><clipPath id="clipPath11499"><path id="rect11501" d="m-551.399-9.261h16.064v16.347h-16.064z" vector-effect="none"/></clipPath><g id="layer1" transform="translate(0 -280.067)"><g id="g20571" transform="translate(-.419)"><path id="path18171" d="m2.84426 282.31181c-.54352 1.22675-.55118 2.93372.17518 4.95835.73455 2.04743 1.12678 3.31504 1.51567 4.11396.33207.69682.85699 1.15242 1.58027 1.15859.57565 0 .99831-.3037 1.25212-.7028.24365-.38315.37076-.84697.48627-1.29708.68427-.0373 1.37866-.0375 2.06293 0 .35297 1.3012.77642 1.98076 1.73839 1.99988.81249-.0148 1.27976-.54821 1.58027-1.15859.38888-.79892.78112-2.06653 1.51567-4.11396.72636-2.02463.7187-3.7316.17518-4.95835-.89685-1.87292-3.51496-2.80278-4.88963-1.02526-.67533.97225-1.61592.8015-2.3027 0-1.52286-1.81352-3.97902-.92219-4.88962 1.02526zm4.49067-.67696c.0994.11394.27624.2985.38813.41468-.50445-.064-.79687-.15825-.95347-.20022-.35484-.12906-.4748.40967-.20102.48989.75642.27841 2.49097.55034 3.28901-.11024.32445-.262.40388-.39463.57794-.59411 1.17281-1.50995 3.36575-.48514 4.007.89142.4699 1.06062.50423 2.63098-.18966 4.56509-.7376 2.05598-1.14055 3.33734-1.49293 4.06125-.23635.52117-.6047.85755-1.10484.86093-1.19002 0-1.23734-2.10165-1.67483-2.99258-.59489-1.01601-1.7668-.9056-2.19005 0-.43311.81799-.41883 1.76488-.8692 2.53473-.18904.29726-.39624.45785-.80563.45785-.5998-.005-.89834-.4418-1.10485-.86093-.35237-.72391-.75532-2.00527-1.49293-4.06125-.69389-1.93411-.65956-3.50447-.18965-4.56509.69366-1.48592 2.76196-2.31136 4.00698-.89142zm2.17714 7.63312c.10213.19314.18337.45673.26096.73846-.59015-.0269-1.18545-.0268-1.7756 0 .0776-.28173.15884-.54532.26097-.73846.26548-.60357 1.01478-.51478 1.25367 0zm4.91494 2.21589c.66689.29304 1.20753.64996 1.57252 1.0542.36498.40425.55862.84618.55862 1.35909v.86506c-.0446.776-.5467 1.46324-1.25264 1.47485h-12.84056c-.77416 0-1.24352-.7443-1.25263-1.47485v-.86506c0-.49706.1817-.92683.52503-1.32137s.85244-.74567 1.48363-1.03714c.33942-.14044.10532-.64739-.22169-.48008-.6788.31345-1.25043.69776-1.66088 1.16944-.41046.47167-.65526 1.03871-.65526 1.66915v.86506c0 1.08177.79967 1.98608 1.7818 2.00402h12.84056c1.13051 0 1.78181-.99073 1.78181-2.00402v-.86506c0-.65054-.26026-1.2326-.69453-1.71359-.43428-.48099-1.03833-.87045-1.75287-1.18443-.33498-.13436-.49942.35467-.21291.48473z" fill="#00003a" font-variant-ligatures="normal" font-variant-position="normal" font-variant-caps="normal" font-variant-numeric="normal" font-variant-alternates="normal" font-feature-settings="normal" text-indent="0" text-align="start" text-decoration-line="none" text-decoration-style="solid" text-decoration-color="#000000" text-transform="none" text-orientation="mixed" white-space="normal" shape-padding="0" isolation="auto" mix-blend-mode="normal" solid-color="#000000" solid-opacity="1" vector-effect="none"/></g></g></svg>