<svg id="svg4593" height="512" viewBox="0 0 16.933333 16.933334" width="512" xmlns="http://www.w3.org/2000/svg" xmlns:svg="http://www.w3.org/2000/svg"><clipPath id="clipPath5337"><path id="rect5339" d="m34.774 274.321h35.435v25.702h-35.435z"/></clipPath><clipPath id="clipPath4542"><path id="rect4544" d="m-535.214-48.848h501.574v185.586h-501.574z"/></clipPath><clipPath id="clipPath11017"><path id="rect11019" d="m36.669 153.503h29.654v28.999h-29.654z" transform="rotate(-90)" vector-effect="none"/></clipPath><clipPath id="clipPath11444"><path id="rect11446" d="m-143.933 265.779h28.84v29.104h-28.84z" transform="rotate(-90)" vector-effect="none"/></clipPath><clipPath id="clipPath11781"><rect id="rect11783" height="32.411" rx=".634" transform="rotate(-90)" width="32.941" x="-145.124" y="181.377"/></clipPath><clipPath id="clipPath11499"><path id="rect11501" d="m-551.399-9.261h16.064v16.347h-16.064z" vector-effect="none"/></clipPath><g id="layer1" fill="#00003a" transform="translate(0 -280.067)"><path id="path6022" d="m9.0793813 280.92406c-.1696198.24823-.383269.39998-.6133991.39998-.2963201-.01-.4518493-.21754-.6133991-.39998-.8963737-1.10024-2.6601306-.45869-3.1171224.64234-.34173.77131-.3417676 1.82595.1018024 3.06234.44142 1.23039.6744166 1.99097.9157065 2.48667.22869.49207.5567146.75551 1.0469644.75551.8818401 0 1.0356271-.8576 1.2190471-1.55649.0909-.34141-.4211635-.47784-.5121135-.13643-.1191699.44008-.2477537 1.1572-.7069336 1.16376-.32933-.00056-.448361-.24733-.569991-.45889-.2047801-.42069-.4500391-1.19296-.894519-2.43189-.41109-1.14587-.3854256-2.06445-.1173056-2.66961.39083-.86143 1.5497992-1.29488 2.2360392-.51004.077.0883.1568357.18921.2594158.28422-.14146.0141-.291577.0233-.4604369.0186-.3453601-.003-.3604231.5115-.015503.52917 1.0024398 0 1.6533132-.15816 2.2401733-.83199.7070662-.76025 1.8813062-.25372 2.2365552.51004.26812.60516.293785 1.52374-.117305 2.66961-.44449 1.23893-.689739 2.0112-.894519 2.43189-.12869.31591-.315578.41474-.570508.45889-.4275295 0-.5461676-.5439-.6423376-.91778-.20599-.93947-.4229502-1.30173-1.0237102-1.31671-.3531201 0-.3531201.52968 0 .52968.3752101 0 .4252365.586.5100463.91777.1430602.64145.5187918 1.3162 1.1560015 1.3162.5401 0 .843724-.34264 1.046964-.75551.2413-.4957.474804-1.25628.916224-2.48667.44357-1.23639.445083-2.29103.103352-3.06234-.464612-1.25115-2.3689777-1.66708-3.1191887-.64234z" font-variant-ligatures="normal" font-variant-position="normal" font-variant-caps="normal" font-variant-numeric="normal" font-variant-alternates="normal" font-feature-settings="normal" text-indent="0" text-align="start" text-decoration-line="none" text-decoration-style="solid" text-decoration-color="#000000" text-transform="none" text-orientation="mixed" white-space="normal" shape-padding="0" isolation="auto" mix-blend-mode="normal" solid-color="#000000" solid-opacity="1" vector-effect="none"/><path id="path13949" d="m6.9023436 27.556641-5.580078 17.310547c-.0000311.0046-.0000311.0091 0 .01367-.5387996 1.742552-.45685984 3.810115.9726563 5.388672.030527.03208.063151.06209.097656.08984l10.1855471 8.6875c1.01302.867187 2.313801-.652344 1.300781-1.519531l-10.0996091-8.61523c-.8871723-.988724-.949975-2.137733-.546875-3.441406l5.5527343-17.228515c1.4881788-3.505937 5.1355828-1.784555 5.2480348 1.011716l1.464844 12.003906c-2.58143 1.371596-2.734949 3.927948-2.314453 5.63086.368973 1.244798 2.233429.74761 1.933594-.515625-.837576-3.590621 3.590596-4.864973 5.292968-2.392578l4.289063 6.570312c.720759 1.195729.651858 1.99033.65039 2.826172v7.626953h-12.009753c-1.363604-.03061-1.363604 2.030615 0 2h13.005859c.555317.002119 1.006023-.448587 1.003906-1.003904v-8.623047c.0013-.735836.04972-2.221592-.9375-3.859375-.007-.01055-.01413-.02097-.02148-.03125l-4.304691-6.597656c-1.039116-1.594243-2.843698-2.154193-4.621094-2.001953-.480991-3.907637-.971781-8.065469-1.445313-11.839843-.848044-6.048985-7.2960487-6.26257-9.1171874-1.490235zm41.1015624 1.490235c-.469246 3.774983-.971019 7.931543-1.447265 11.839843-1.77831-.153449-3.581429.404888-4.621094 2l-4.310547 6.599609c-.0047.01034-.0093.02076-.01367.03125-.987225 1.637783-.938792 3.123539-.9375 3.859375v8.623047c-.0021.555317.448589 1.006023 1.003906 1.003906h13.00586c.540979-.002.982309-.433802.996094-.974609l.09766-3.271485 9.853515-8.40039c1.500053-1.322991 1.55253-4.188091 1.06251-5.492192l-5.572281-17.310542c-2.042735-5.044606-8.481358-3.600316-9.117188 1.492188zm7.234372-.804688 5.550781 17.228515c.403102 1.303673.342251 2.452682-.544921 3.441406l-10.09961 8.613282c-.216266.183043-.344745.449227-.353515.732421l-.08203 2.746094h-11.035155v-7.626953c-.0015-.835842-.07038-1.63048.650391-2.826172l4.287109-6.570312c1.745843-2.847396 6.050792-.789683 5.293008 2.392665-.462667 1.351142 1.654079 1.917324 1.927734.515625.390092-2.548829-.293422-4.519713-2.3125-5.634766l1.470703-12c.377997-3.587472 4.280541-3.855568 5.248005-1.011805z" transform="matrix(.265 0 0 .265 0 280.067)" font-variant-ligatures="normal" font-variant-position="normal" font-variant-caps="normal" font-variant-numeric="normal" font-variant-alternates="normal" font-feature-settings="normal" text-indent="0" text-align="start" text-decoration-line="none" text-decoration-style="solid" text-decoration-color="#000000" text-transform="none" text-orientation="mixed" white-space="normal" shape-padding="0" isolation="auto" mix-blend-mode="normal" solid-color="#000000" solid-opacity="1" vector-effect="none"/></g></svg>