<svg id="svg4593" height="512" viewBox="0 0 16.933333 16.933334" width="512" xmlns="http://www.w3.org/2000/svg" xmlns:svg="http://www.w3.org/2000/svg"><clipPath id="clipPath5337"><path id="rect5339" d="m34.774 274.321h35.435v25.702h-35.435z"/></clipPath><clipPath id="clipPath4542"><path id="rect4544" d="m-535.214-48.848h501.574v185.586h-501.574z"/></clipPath><clipPath id="clipPath11017"><path id="rect11019" d="m36.669 153.503h29.654v28.999h-29.654z" transform="rotate(-90)" vector-effect="none"/></clipPath><clipPath id="clipPath11444"><path id="rect11446" d="m-143.933 265.779h28.84v29.104h-28.84z" transform="rotate(-90)" vector-effect="none"/></clipPath><clipPath id="clipPath11781"><rect id="rect11783" height="32.411" rx=".634" transform="rotate(-90)" width="32.941" x="-145.124" y="181.377"/></clipPath><clipPath id="clipPath11499"><path id="rect11501" d="m-551.399-9.261h16.064v16.347h-16.064z" vector-effect="none"/></clipPath><g id="layer1" transform="translate(0 -280.067)"><path id="path19301" d="m15.586129 281.82003c-1.014818 0-1.798875.39461-2.391069.76946-.399838.25683-.859213.68523-1.285704.68523h-5.6575414c-.6322663 0-1.1503173.51651-1.1503173 1.14877v1.73633c0 .2283.069423.44059.1855185.62011h-.239262c-.6323615 0-1.1498005.51744-1.1498005 1.1498v2.55437c-.00506.3578.5342268.3578.5291666 0v-2.55437c0-.34816.2724687-.62063.6206339-.62063h1.1942424c0 .70629.00775 1.45901.00775 2.18281 0 .35286.5296834.35286.5296834 0v-2.18281h1.9626709v2.18281c0 .35286.5291667.35286.5291667 0v-2.18281h1.9631878v.74517c0 .35286.529167.35286.529167 0v-.74517h1.96112v2.18281c0 .35286.529167.35286.529167 0v-2.18281h1.265555c.348165 0 .620117.27228.620117.62063v3.57498h-15.61041434c-.14611929.00001-.26456873.11846-.26458333.26458v3.21273c.0000146.14612.11846404.26457.26458333.26458h14.84612234c.712027 0 1.293463-.58143 1.293461-1.29346v-6.02341c0-.63217-.516922-1.1498-1.149284-1.1498h-9.2779865c-.3431617-.005-.6108155-.27542-.6108155-.62011v-1.73633c0-.34826.2728904-.61909.6211506-.61909h5.6575414c.583384 0 1.129253-.48992 1.569408-.76997.485989-.30763 1.117411-.53032 1.841748-.59945v3.34398c-.008.3607.537172.3607.529166 0v-3.69331c.000556-.14612-.11743-.26504-.263549-.26562zm-14.79237901 10.21385h15.34583301v1.91926c.000002.42809-.336204.76429-.764294.76429h-14.58153901z" fill="#00003a" font-variant-ligatures="normal" font-variant-position="normal" font-variant-caps="normal" font-variant-numeric="normal" font-variant-alternates="normal" font-feature-settings="normal" text-indent="0" text-align="start" text-decoration-line="none" text-decoration-style="solid" text-decoration-color="#000000" text-transform="none" text-orientation="mixed" white-space="normal" shape-padding="0" isolation="auto" mix-blend-mode="normal" solid-color="#000000" solid-opacity="1" vector-effect="none"/></g></svg>