<svg id="svg4593" height="512" viewBox="0 0 16.933333 16.933334" width="512" xmlns="http://www.w3.org/2000/svg" xmlns:svg="http://www.w3.org/2000/svg"><clipPath id="clipPath5337"><path id="rect5339" d="m34.774 274.321h35.435v25.702h-35.435z"/></clipPath><clipPath id="clipPath4542"><path id="rect4544" d="m-535.214-48.848h501.574v185.586h-501.574z"/></clipPath><clipPath id="clipPath11017"><path id="rect11019" d="m36.669 153.503h29.654v28.999h-29.654z" transform="rotate(-90)" vector-effect="none"/></clipPath><clipPath id="clipPath11444"><path id="rect11446" d="m-143.933 265.779h28.84v29.104h-28.84z" transform="rotate(-90)" vector-effect="none"/></clipPath><clipPath id="clipPath11781"><rect id="rect11783" height="32.411" rx=".634" transform="rotate(-90)" width="32.941" x="-145.124" y="181.377"/></clipPath><clipPath id="clipPath11499"><path id="rect11501" d="m-551.399-9.261h16.064v16.347h-16.064z" vector-effect="none"/></clipPath><g id="layer1" transform="translate(0 -280.067)"><path id="path4163" d="m1.8846395 280.33227c-.89344346 0-1.62108971.72765-1.6210897 1.62109v9.24801c-.00000001.89344.72764624 1.61902 1.6210897 1.61902h7.6233072v1.8986h-2.0820435v-1.01028c0-.19838-.1322917-.29663-.2645834-.2961-.1322916.00052-.2645833.0998-.2645833.2961v1.01028h-1.5725137c-.8748937 0-1.5880167.71105-1.5880167 1.58595v.16588c-.0005557.14694.1186809.26617.2656168.26561h8.9296871c.146172-.00052.264114-.11944.26355-.26561v-.16588c0-.8749-.710539-1.58595-1.585433-1.58595h-1.572514v-1.8986h5.009514c.893443 0 1.621089-.72558 1.621089-1.61902v-9.24801c0-.89344-.727646-1.62109-1.621089-1.62109zm0 .52916h13.1619875c.609439 0 1.091923.4825 1.091923 1.09193v9.24801c0 .60944-.482484 1.09141-1.091923 1.09141h-13.1619875c-.6094385 0-1.09192308-.48197-1.09192303-1.09141v-9.24801c0-.60943.48248453-1.09193 1.09192303-1.09193zm.5627563.82631c-.1453133.00058-.262969.11824-.2635498.26355v.95911c-.008.36069.5371677.36069.5291666 0v-.69349h.7596436c.3606867.008.3606867-.53717 0-.52917zm11.3006022 0c-.350821.009-.339533.5348.01137.52917h.759643v.69349c.0076.34504.521518.34504.529167 0v-.95911c-.000581-.14531-.118237-.26297-.26355-.26355h-1.02526c-.0038-.00008-.0076-.00008-.01137 0zm-4.7743855 2.10736c-.15347.17562-.3101134.3359-.5059125.3359-.2468599-.008-.3718621-.18529-.5059121-.3359-.634795-.84945-2.2142159-.60992-2.7657227.56793-.3014599.68041-.29923 1.60499.08785 2.68407.3829198 1.06731.5850207 1.72489.7968506 2.16008.2053201.43922.5024671.67541.9394775.67541.6621899 0 .8840605-.57578 1.0252604-1.1188.1111001-.35394-.4365056-.49609-.5115967-.1328-.0742.39484-.2321137.72243-.5136637.72243-.27159.00005-.3856307-.19155-.4630208-.37672-.1753201-.36017-.3891664-1.03357-.7751464-2.10943-.3546599-.98856-.3296525-1.77706-.1018026-2.29133.3030672-.76436 1.3190161-1.07933 1.8830893-.43357.026199.0301.056032.0643.084232.0971-.0703.002-.1461741.006-.1798342.00053-.3737898-.0316-.4314171.52193-.043408.52193.5722.0286 1.2439993-.0152 1.6195394-.28732.1442199-.10709.2394834-.23067.3281452-.33228.6801328-.69247 1.5805748-.21579 1.8825728.43357.227841.51427.251306 1.30277-.103353 2.29133-.385982 1.07586-.598275 1.74926-.773596 2.10943-.107209.234-.233252.37672-.4630213.37672-.3884398 0-.4462314-.46324-.5250325-.76946-.1150991-.52304-.3415485-1.16995-.9219076-1.16995-.3607898-.008-.3607898.53726 0 .52916.3110101.0208.335783.48831.4082439.77153.130719.57132.4642173 1.15569 1.0386962 1.16789.4765703 0 .7552093-.30407.9379273-.67541.211841-.43519.41394-1.09277.796851-2.16008.387141-1.07908.388845-2.00366.08733-2.68407-.415761-1.08066-1.9347934-1.45069-2.7631355-.56789zm-6.5174317 5.79707c-.1491266-.004-.2723592.11539-.2723348.26458v.9586c.0003012.14551.1180382.26348.2635498.26406h1.0252604c.3543873.001.3543873-.53095 0-.52968h-.7596436v-.69298c.0000255-.14314-.1137585-.26035-.2568318-.26458zm12.3196612 0c-.143073.004-.256857.12144-.256832.26458v.69298h-.759643c-.354387-.001-.354387.53095 0 .52968h1.02526c.145512-.00058.263249-.11855.26355-.26406v-.9586c.000024-.14919-.123208-.26891-.272335-.26458zm-9.4516192 5.65598h6.2854042c.552537 0 .962126.42292 1.017509.95912h-8.3204221c.05569-.53586.4652071-.95912 1.0175089-.95912z" fill="#00003a" font-variant-ligatures="normal" font-variant-position="normal" font-variant-caps="normal" font-variant-numeric="normal" font-variant-alternates="normal" font-feature-settings="normal" text-indent="0" text-align="start" text-decoration-line="none" text-decoration-style="solid" text-decoration-color="#000000" text-transform="none" text-orientation="mixed" white-space="normal" shape-padding="0" isolation="auto" mix-blend-mode="normal" solid-color="#000000" solid-opacity="1" vector-effect="none"/></g></svg>