<?xml version="1.0" encoding="iso-8859-1"?>
<!-- Generator: Adobe Illustrator 19.0.0, SVG Export Plug-In . SVG Version: 6.00 Build 0)  -->
<svg version="1.1" id="Capa_1" xmlns="http://www.w3.org/2000/svg" xmlns:xlink="http://www.w3.org/1999/xlink" x="0px" y="0px"
	 viewBox="0 0 512 512" style="enable-background:new 0 0 512 512;" xml:space="preserve">
<g>
	<g>
		<path d="M196.674,82.021c0-1.057,0.988-2.045,3.407-2.045c2.794,0,3.441,1.295,4.668,1.295c1.499,0,2.112-1.874,2.112-2.794
			c0-2.657-4.975-2.998-6.78-2.998c-4.259,0-8.723,1.941-8.723,7.053c0,7.973,10.801,7.258,10.801,11.38
			c0,1.636-1.737,2.249-3.305,2.249c-3.169,0-4.191-2.521-5.793-2.521c-1.294,0-2.316,1.704-2.316,2.862
			c0,2.249,3.748,4.43,8.212,4.43c4.94,0,8.518-2.658,8.518-7.564C207.475,84.781,196.674,85.429,196.674,82.021z"/>
	</g>
</g>
<g>
	<g>
		<path d="M226.421,75.684h-14.72c-1.124,0-1.602,1.227-1.602,2.351c0,1.295,0.579,2.42,1.602,2.42h4.702v18.501
			c0,1.091,1.329,1.636,2.657,1.636c1.329,0,2.658-0.545,2.658-1.636V80.454h4.702c1.021,0,1.602-1.125,1.602-2.42
			C228.022,76.91,227.545,75.684,226.421,75.684z"/>
	</g>
</g>
<g>
	<g>
		<path d="M247.579,98.035l-6.369-20.784c-0.375-1.192-1.908-1.771-3.476-1.771s-3.101,0.579-3.476,1.771l-6.338,20.784
			c-0.034,0.137-0.067,0.272-0.067,0.375c0,1.261,1.941,2.181,3.407,2.181c0.852,0,1.533-0.272,1.737-0.988l1.158-4.259h7.189
			l1.159,4.259c0.204,0.716,0.886,0.988,1.737,0.988c1.465,0,3.407-0.92,3.407-2.181C247.647,98.307,247.613,98.172,247.579,98.035z
			 M235.247,91.255l2.487-9.132l2.487,9.132H235.247z"/>
	</g>
</g>
<g>
	<g>
		<path d="M263.803,75.684h-14.72c-1.124,0-1.602,1.227-1.602,2.351c0,1.295,0.579,2.42,1.602,2.42h4.702v18.501
			c0,1.091,1.329,1.636,2.657,1.636c1.329,0,2.658-0.545,2.658-1.636V80.454h4.702c1.021,0,1.602-1.125,1.602-2.42
			C265.404,76.91,264.927,75.684,263.803,75.684z"/>
	</g>
</g>
<g>
	<g>
		<path d="M271.743,75.684c-1.329,0-2.658,0.477-2.658,1.602v21.67c0,1.091,1.329,1.636,2.658,1.636
			c1.328,0,2.657-0.545,2.657-1.636v-21.67C274.4,76.16,273.071,75.684,271.743,75.684z"/>
	</g>
</g>
<g>
	<g>
		<path d="M287.724,75.684c-4.702,0-8.348,2.181-8.348,8.041v9.029c0,5.86,3.646,8.041,8.348,8.041c4.702,0,8.382-2.181,8.382-8.041
			v-9.029C296.105,77.864,292.426,75.684,287.724,75.684z M290.79,92.754c0,2.352-1.158,3.407-3.066,3.407s-3.032-1.056-3.032-3.407
			v-9.029c0-2.351,1.124-3.407,3.032-3.407s3.066,1.057,3.066,3.407V92.754z"/>
	</g>
</g>
<g>
	<g>
		<path d="M315.836,75.684c-1.329,0-2.658,0.477-2.658,1.602V88.87l-5.52-10.529c-1.295-2.487-2.011-2.657-3.918-2.657
			c-1.329,0-2.658,0.511-2.658,1.636v21.636c0,1.091,1.329,1.636,2.658,1.636c1.328,0,2.657-0.545,2.657-1.636V87.37l6.474,11.79
			c0.647,1.192,1.738,1.431,2.965,1.431c1.328,0,2.657-0.545,2.657-1.636v-21.67C318.493,76.16,317.164,75.684,315.836,75.684z"/>
	</g>
</g>
<g>
	<g>
		<path d="M269.333,206.5H263.5v-10.833c0-4.143-3.357-7.5-7.5-7.5s-7.5,3.357-7.5,7.5V214c0,4.143,3.357,7.5,7.5,7.5h13.333
			c4.143,0,7.5-3.357,7.5-7.5S273.476,206.5,269.333,206.5z"/>
	</g>
</g>
<g>
	<g>
		<path d="M512,269.56v-14.85c0-7.966-6.481-14.447-14.447-14.447H366.268v-34.388c0-4.143-3.357-7.5-7.5-7.5s-7.5,3.357-7.5,7.5
			v2.625v208.157h-45.964V314.818h10.938c6.197,0,11.238-5.041,11.238-11.238v-18.752c0-6.197-5.041-11.239-11.238-11.239H195.758
			c-6.197,0-11.238,5.042-11.238,11.239v18.752c0,6.197,5.041,11.238,11.238,11.238h10.938v101.839h-45.964V387.72
			c0-4.143-3.357-7.5-7.5-7.5s-7.5,3.357-7.5,7.5v28.937H26.321V284.006h119.411v68.817c0,4.143,3.357,7.5,7.5,7.5
			s7.5-3.357,7.5-7.5v-203.58h190.535V170.5c0,4.143,3.357,7.5,7.5,7.5s7.5-3.357,7.5-7.5v-21.257h5.852
			c7.866,0,14.267-6.4,14.267-14.267v-12.232c0-7.866-6.4-14.267-14.267-14.267h-23.688V62.196c0-5.843-4.754-10.597-10.597-10.597
			H174.166c-5.843,0-10.597,4.754-10.597,10.597v46.281h-23.688c-7.866,0-14.267,6.4-14.267,14.267v12.232
			c0,7.866,6.4,14.267,14.267,14.267h5.852v91.02H14.447C6.481,240.263,0,246.744,0,254.71v14.85
			c0,6.892,4.855,12.663,11.321,14.096v133.352C4.855,418.441,0,424.212,0,431.104v14.85c0,7.966,6.481,14.447,14.447,14.447
			h483.105c7.966,0,14.447-6.481,14.447-14.447v-14.85c0-6.892-4.855-12.663-11.321-14.096V283.656
			C507.145,282.222,512,276.451,512,269.56z M178.569,66.6H333.43v41.878H178.569V66.6z M140.614,134.243v-10.766h230.771v10.766
			H140.614z M366.268,284.006h119.411v132.651H366.268V284.006z M199.52,299.818v-11.229h112.96v11.229H199.52z M290.304,314.818
			v101.839h-68.607V314.818H290.304z M15,255.263h130.732v13.743H15V255.263z M497,445.4H15v-13.743h482V445.4z M497,269.006
			H366.268v-13.743H497V269.006z"/>
	</g>
</g>
<g>
	<g>
		<path d="M119.655,294.925H55.313c-6.06,0-10.99,4.931-10.99,10.991v20.438c0,6.061,4.931,10.991,10.99,10.991h64.342
			c6.061,0,10.991-4.931,10.991-10.991v-20.438C130.646,299.855,125.715,294.925,119.655,294.925z M59.322,322.345v-12.42h56.323
			v12.42H59.322z"/>
	</g>
</g>
<g>
	<g>
		<path d="M119.654,352.108H55.313c-6.06,0-10.99,4.931-10.99,10.991v20.438c0,6.061,4.931,10.991,10.99,10.991h64.342
			c6.061,0,10.991-4.931,10.991-10.991V363.1C130.646,357.039,125.715,352.108,119.654,352.108z M59.322,379.528v-12.42h56.323
			v12.42H59.322z"/>
	</g>
</g>
<g>
	<g>
		<path d="M456.688,294.925h-64.342c-6.061,0-10.991,4.931-10.991,10.991v20.438c0,6.061,4.931,10.991,10.991,10.991h64.342
			c6.06,0,10.99-4.931,10.99-10.991v-20.438C467.678,299.855,462.747,294.925,456.688,294.925z M452.678,322.345h-56.323v-12.42
			h56.323V322.345z"/>
	</g>
</g>
<g>
	<g>
		<path d="M456.688,352.108h-64.342c-6.061,0-10.991,4.931-10.991,10.991v20.438c0,6.061,4.931,10.991,10.991,10.991h64.342
			c6.06,0,10.99-4.931,10.99-10.991V363.1C467.678,357.039,462.747,352.108,456.688,352.108z M452.678,379.528h-56.323v-12.42
			h56.323V379.528z"/>
	</g>
</g>
<g>
	<g>
		<path d="M256,168c-25.364,0-46,20.636-46,46s20.636,46,46,46s46-20.636,46-46S281.364,168,256,168z M256,245
			c-17.094,0-31-13.906-31-31s13.906-31,31-31s31,13.906,31,31S273.094,245,256,245z"/>
	</g>
</g>
<g>
</g>
<g>
</g>
<g>
</g>
<g>
</g>
<g>
</g>
<g>
</g>
<g>
</g>
<g>
</g>
<g>
</g>
<g>
</g>
<g>
</g>
<g>
</g>
<g>
</g>
<g>
</g>
<g>
</g>
</svg>
