<?xml version="1.0" encoding="iso-8859-1"?>
<!-- Generator: Adobe Illustrator 19.0.0, SVG Export Plug-In . SVG Version: 6.00 Build 0)  -->
<svg version="1.1" id="Capa_1" xmlns="http://www.w3.org/2000/svg" xmlns:xlink="http://www.w3.org/1999/xlink" x="0px" y="0px"
	 viewBox="0 0 512 512" style="enable-background:new 0 0 512 512;" xml:space="preserve">
<g>
	<g>
		<path d="M501.374,459.579h-10.016v-139.05c0-8.149-6.63-14.779-14.779-14.779h-35.502v-21.647c0-7.541-6.135-13.676-13.675-13.676
			h-139.63c-7.541,0-13.675,6.135-13.675,13.676v21.647H150.634l-10.383-135.076h9.219c5.828,0,11.215-3.399,13.724-8.658
			l23.291-48.804c0.037-0.078,0.059-0.162,0.093-0.241c0.074-0.168,0.138-0.341,0.199-0.515c0.07-0.201,0.132-0.402,0.185-0.607
			c0.05-0.191,0.093-0.383,0.128-0.58c0.024-0.136,0.046-0.272,0.062-0.409c0.034-0.286,0.057-0.575,0.058-0.87
			c0-0.083-0.006-0.165-0.009-0.248c-0.008-0.286-0.033-0.567-0.073-0.845c-0.006-0.041-0.004-0.082-0.011-0.123l-2.758-16.937
			c-1.202-7.397-7.514-12.766-15.008-12.766h-20.21l7.345-19.201c1.629-4.256,1.058-9.039-1.525-12.795
			c-2.584-3.755-6.847-5.997-11.405-5.997h-28.842v-16.17h16.869c4.146,0,7.506-3.36,7.506-7.506s-3.36-7.506-7.506-7.506H82.837
			c-4.146,0-7.506,3.36-7.506,7.506s3.36,7.506,7.506,7.506h16.868v16.17H70.864c-4.558,0-8.822,2.242-11.406,5.998
			c-2.583,3.755-3.154,8.538-1.525,12.793l7.345,19.202H45.069c-7.493,0-13.805,5.367-15.009,12.764l-2.758,16.939
			c-0.007,0.041-0.005,0.082-0.011,0.123c-0.039,0.278-0.064,0.559-0.073,0.845c-0.003,0.083-0.009,0.165-0.009,0.248
			c0.001,0.295,0.023,0.584,0.058,0.87c0.016,0.138,0.039,0.273,0.062,0.409c0.035,0.196,0.079,0.389,0.128,0.58
			c0.053,0.206,0.115,0.407,0.186,0.608c0.062,0.173,0.125,0.346,0.199,0.513c0.035,0.079,0.056,0.163,0.094,0.242l23.292,48.804
			c2.51,5.259,7.897,8.658,13.723,8.658h9.22L63.788,305.75H35.421c-8.149,0-14.779,6.63-14.779,14.779v139.049H10.626
			C4.767,459.579,0,464.345,0,470.204v21.273c0,5.859,4.767,10.626,10.626,10.626h490.748c5.859,0,10.626-4.767,10.626-10.626
			v-21.273C512,464.345,507.233,459.579,501.374,459.579z M289.108,285.438h136.957v20.312H289.108V285.438z M141.862,56.091
			l-8.791,22.981H81.35l-8.79-22.981H141.862z M64.951,155.663c-0.074,0-0.144-0.044-0.176-0.112l-18.179-38.089h18.55
			c4.146,0,7.506-3.36,7.506-7.506s-3.36-7.506-7.506-7.506H43.54l1.336-8.203c0.016-0.095,0.097-0.164,0.194-0.164h124.275h0.009
			c0.096,0,0.177,0.068,0.193,0.164l1.336,8.203h-70.811c-4.146,0-7.506,3.36-7.506,7.506s3.36,7.506,7.506,7.506h67.754
			l-18.178,38.089c-0.032,0.068-0.102,0.112-0.177,0.112H64.951z M135.579,305.75H78.843l10.384-135.076h35.97L135.579,305.75z
			 M496.989,487.092H15.011V474.59h367.747c4.146,0,7.506-3.36,7.506-7.506s-3.36-7.506-7.506-7.506H35.654V320.762h440.692v138.817
			h-58.537c-4.146,0-7.506,3.36-7.506,7.506s3.36,7.506,7.506,7.506h79.18V487.092z"/>
	</g>
</g>
<g>
	<g>
		<path d="M125.252,332.475H59.088c-6.339,0-11.495,5.156-11.495,11.495v25.046c0,6.339,5.156,11.495,11.495,11.495h66.164
			c6.339,0,11.495-5.156,11.495-11.495V343.97C136.747,337.631,131.591,332.475,125.252,332.475z M121.736,365.5H62.604v-18.014
			h59.132V365.5z"/>
	</g>
</g>
<g>
	<g>
		<path d="M234.472,332.475h-66.164c-6.339,0-11.495,5.156-11.495,11.495v25.046c0,6.339,5.156,11.495,11.495,11.495h66.164
			c6.339,0,11.495-5.156,11.495-11.495V343.97C245.967,337.631,240.811,332.475,234.472,332.475z M230.956,365.5h-59.132v-18.014
			h59.132V365.5z"/>
	</g>
</g>
<g>
	<g>
		<path d="M343.692,332.475h-66.164c-6.339,0-11.495,5.156-11.495,11.495v25.046c0,6.339,5.156,11.495,11.495,11.495h66.164
			c6.339,0,11.495-5.156,11.495-11.495V343.97C355.187,337.631,350.031,332.475,343.692,332.475z M340.176,365.5h-59.132v-18.014
			h59.132V365.5z"/>
	</g>
</g>
<g>
	<g>
		<path d="M452.912,332.475h-66.164c-6.339,0-11.495,5.156-11.495,11.495v25.046c0,6.339,5.156,11.495,11.495,11.495h66.164
			c6.339,0,11.495-5.156,11.495-11.495V343.97C464.407,337.631,459.251,332.475,452.912,332.475z M449.396,365.5h-59.132v-18.014
			h59.132V365.5z"/>
	</g>
</g>
<g>
	<g>
		<path d="M125.252,395.597H59.088c-6.339,0-11.495,5.156-11.495,11.495v25.046c0,6.339,5.156,11.495,11.495,11.495h66.164
			c6.339,0,11.495-5.156,11.495-11.495v-25.046C136.747,400.753,131.591,395.597,125.252,395.597z M121.736,428.622H62.604v-18.014
			h59.132V428.622z"/>
	</g>
</g>
<g>
	<g>
		<path d="M234.472,395.597h-66.164c-6.339,0-11.495,5.156-11.495,11.495v25.046c0,6.339,5.156,11.495,11.495,11.495h66.164
			c6.339,0,11.495-5.156,11.495-11.495v-25.046C245.967,400.753,240.811,395.597,234.472,395.597z M230.956,428.622h-59.132v-18.014
			h59.132V428.622z"/>
	</g>
</g>
<g>
	<g>
		<path d="M343.692,395.597h-66.164c-6.339,0-11.495,5.156-11.495,11.495v25.046c0,6.339,5.156,11.495,11.495,11.495h66.164
			c6.339,0,11.495-5.156,11.495-11.495v-25.046C355.187,400.753,350.031,395.597,343.692,395.597z M340.176,428.622h-59.132v-18.014
			h59.132V428.622z"/>
	</g>
</g>
<g>
	<g>
		<path d="M452.912,395.597h-66.164c-6.339,0-11.495,5.156-11.495,11.495v25.046c0,6.339,5.156,11.495,11.495,11.495h66.164
			c6.339,0,11.495-5.156,11.495-11.495v-25.046C464.407,400.753,459.251,395.597,452.912,395.597z M449.396,428.622h-59.132v-18.014
			h59.132V428.622z"/>
	</g>
</g>
<g>
</g>
<g>
</g>
<g>
</g>
<g>
</g>
<g>
</g>
<g>
</g>
<g>
</g>
<g>
</g>
<g>
</g>
<g>
</g>
<g>
</g>
<g>
</g>
<g>
</g>
<g>
</g>
<g>
</g>
</svg>
