<?xml version="1.0" encoding="iso-8859-1"?>
<!-- Generator: Adobe Illustrator 19.0.0, SVG Export Plug-In . SVG Version: 6.00 Build 0)  -->
<svg version="1.1" id="Capa_1" xmlns="http://www.w3.org/2000/svg" xmlns:xlink="http://www.w3.org/1999/xlink" x="0px" y="0px"
	 viewBox="0 0 512 512" style="enable-background:new 0 0 512 512;" xml:space="preserve">
<g>
	<g>
		<path d="M420.07,147.734c-1.115-0.492-2.503-1.103-2.503-1.584c0-0.446,0.796-0.757,1.936-0.757c1.207,0,1.809,0.312,2.392,0.614
			c0.479,0.248,0.974,0.505,1.642,0.505c1.935,0,2.836-2.044,2.836-3.425c0-3.341-5.258-3.601-6.87-3.601
			c-3.944,0-8.549,1.861-8.549,7.106c0,4.652,3.691,6.367,6.386,7.619c1.836,0.853,2.95,1.428,2.95,2.217
			c0,0.924-1.772,0.934-1.847,0.934c-1.257,0-2.019-0.586-2.756-1.154c-0.655-0.504-1.332-1.026-2.251-1.026
			c-1.811,0-3.012,2.097-3.012,3.483c0,2.622,3.713,4.838,8.107,4.838c5.086,0,8.372-2.962,8.372-7.547
			C426.902,150.747,422.791,148.933,420.07,147.734z"/>
	</g>
</g>
<g>
	<g>
		<path d="M444.517,139.664h-12.723c-1.409,0-2.394,1.25-2.394,3.041c0,1.797,1.007,3.101,2.394,3.101h3.055v14.982
			c0,1.426,1.359,2.423,3.306,2.423c1.947,0,3.307-0.997,3.307-2.423v-14.982h3.054c1.387,0,2.394-1.304,2.394-3.101
			C446.91,140.914,445.926,139.664,444.517,139.664z"/>
	</g>
</g>
<g>
	<g>
		<path d="M457.986,139.664c-5.227,0-8.225,2.901-8.225,7.96v7.804c0,5.059,2.998,7.96,8.225,7.96c5.246,0,8.255-2.901,8.255-7.96
			v-7.804C466.241,142.565,463.232,139.664,457.986,139.664z M459.627,155.428c0,1.702-0.789,1.936-1.641,1.936
			c-0.967,0-1.611-0.329-1.611-1.936v-7.804c0-1.606,0.644-1.936,1.611-1.936c0.853,0,1.641,0.234,1.641,1.936V155.428z"/>
	</g>
</g>
<g>
	<g>
		<path d="M479.584,139.664h-6.096c-1.524,0-2.718,1.051-2.718,2.394v18.731c0,1.425,1.36,2.422,3.307,2.422
			c1.947,0,3.307-0.997,3.307-2.423v-5.352h1.906c5.245,0,8.254-2.858,8.254-7.842v-0.147
			C487.544,142.501,484.643,139.664,479.584,139.664z M480.931,147.948c0,1.705-0.83,1.936-1.641,1.936h-1.906v-4.196h1.906
			c0.811,0,1.641,0.23,1.641,1.936V147.948z"/>
	</g>
</g>
<g>
	<g>
		<path d="M227.781,353.465H213.34c-4.14,0-7.496,3.356-7.496,7.496s3.356,7.496,7.496,7.496h14.441c4.14,0,7.496-3.356,7.496-7.496
			S231.921,353.465,227.781,353.465z"/>
	</g>
</g>
<g>
	<g>
		<path d="M178.461,353.466h-33.046c-4.14,0-7.496,3.356-7.496,7.496s3.356,7.496,7.496,7.496h33.046
			c4.139,0,7.496-3.356,7.496-7.496C185.957,356.821,182.601,353.466,178.461,353.466z"/>
	</g>
</g>
<g>
	<g>
		<path d="M214.33,376.944h-55.465c-4.181,0-7.571,3.389-7.571,7.571s3.39,7.571,7.571,7.571h55.465
			c4.181,0,7.571-3.389,7.571-7.571S218.512,376.944,214.33,376.944z"/>
	</g>
</g>
<g>
	<g>
		<path d="M349.883,111.972h-0.7c-3.45,0-6.611,1.251-9.064,3.316l-17.012-7.858c-4.939-15.634-19.556-26.86-36.659-26.86h-36.075
			V68.488c0-7.467-6.075-13.541-13.542-13.541H136.364c-7.467,0-13.542,6.074-13.542,13.541v12.083H86.747
			c-17.103,0-31.721,11.226-36.659,26.86l-17.012,7.858c-2.453-2.066-5.613-3.316-9.063-3.316h-0.7
			C10.458,111.972,0,122.43,0,135.285v34.085c0,6.771,5.508,12.279,12.279,12.279h13.55c6.771,0,12.279-5.508,12.279-12.279v-39.726
			l9.791-4.522l-0.826,14.734c0,0,0,0.001,0,0.002c0,0,0,0,0,0.001l-5.26,93.863c-1.939,34.607-3.097,78.671-3.097,117.872v38.171
			c0,14.022,11.408,25.43,25.43,25.43H66.2v22.663c0,10.469,8.517,18.987,18.987,18.987h24.715c10.469,0,18.987-8.517,18.987-18.987
			v-22.663H244.31v22.663c0,10.469,8.517,18.987,18.987,18.987h24.715c10.469,0,18.987-8.517,18.987-18.987v-22.663h2.054
			c14.022,0,25.43-11.407,25.43-25.43v-38.171c0-39.201-1.158-83.265-3.097-117.872l-5.26-93.863v-0.001c0,0,0-0.001,0-0.002
			l-0.826-14.734l9.791,4.522v39.726c0,6.771,5.508,12.279,12.279,12.279h13.55c6.771,0,12.279-5.508,12.279-12.279v-34.085
			C373.195,122.43,362.737,111.972,349.883,111.972z M23.115,166.656h-8.122v-31.371c0-4.521,3.626-8.213,8.122-8.318V166.656z
			 M137.815,69.939h97.566V80.57h-97.566V69.939z M86.747,95.563h199.701c10.992,0,20.3,7.602,22.794,17.942
			c-4.46-2.371-9.54-3.716-14.919-3.716H78.873c-5.379,0-10.459,1.345-14.92,3.716C66.446,103.165,75.754,95.563,86.747,95.563z
			 M56.782,234.56l3.314-59.139h30.663c4.14,0,7.496-3.356,7.496-7.496s-3.356-7.496-7.496-7.496H60.936l1.106-19.733
			c0.5-8.924,7.893-15.913,16.831-15.913h215.45c8.938,0,16.331,6.989,16.831,15.913l1.106,19.733H125.639
			c-4.14,0-7.496,3.356-7.496,7.496s3.356,7.496,7.496,7.496H313.1l3.314,59.139c1.467,26.171,2.481,57.802,2.882,88.606
			c-29.388,4.046-74.98,6.097-135.726,6.097c-73.902,0-108.658-3.064-129.669-6.072C54.3,292.379,55.314,260.738,56.782,234.56z
			 M109.901,441.851H85.185c-2.203,0-3.994-1.792-3.994-3.994v-22.663h32.703v22.663h0.001
			C113.895,440.059,112.103,441.851,109.901,441.851z M292.004,437.857c0,2.202-1.792,3.994-3.994,3.994h-24.715
			c-2.203,0-3.994-1.792-3.994-3.994v-22.663h32.703V437.857z M319.487,389.764c0,5.755-4.682,10.437-10.437,10.437H64.145
			c-5.755,0-10.437-4.682-10.437-10.437v-38.171c0-4.371,0.017-8.81,0.045-13.282c21.745,2.993,57.307,5.945,129.816,5.945
			c60.089,0,105.715-2.011,135.873-5.981c0.029,4.485,0.045,8.935,0.045,13.318V389.764z M358.203,166.656h-8.122v-39.689
			c4.497,0.105,8.122,3.797,8.122,8.318V166.656z"/>
	</g>
</g>
<g>
	<g>
		<path d="M310.911,353.532c-2.663-3.205-6.724-4.822-10.86-4.323l-40.537,4.885c-4.252,0.512-7.971,3.263-9.707,7.176
			l-5.366,12.094c-1.683,3.795-1.337,8.138,0.926,11.618c2.264,3.48,6.093,5.557,10.243,5.557h40.574
			c5.367,0,10.053-3.441,11.659-8.562L313.171,365C314.419,361.024,313.574,356.738,310.911,353.532z M294.149,375.546h-34.274
			l2.998-6.755l34.709-4.183L294.149,375.546z"/>
	</g>
</g>
<g>
	<g>
		<path d="M128.752,373.363l-5.365-12.094c-1.737-3.913-5.456-6.663-9.707-7.175l-40.536-4.885c0,0,0,0-0.001,0
			c-4.14-0.498-8.197,1.119-10.86,4.323c-2.663,3.205-3.508,7.492-2.261,11.467l5.327,16.978c1.607,5.121,6.292,8.562,11.659,8.562
			h40.574c4.151,0,7.98-2.077,10.244-5.558C130.089,381.501,130.436,377.159,128.752,373.363z M79.046,375.545L79.046,375.545
			l-3.432-10.938l34.709,4.183l2.998,6.755H79.046z"/>
	</g>
</g>
<g>
	<g>
		<path d="M470.17,417.389h-14.12V214.55c31.467-3.756,55.95-30.592,55.95-63.054c0-35.025-28.495-63.521-63.521-63.521
			s-63.521,28.495-63.521,63.521c0,32.462,24.483,59.297,55.95,63.054v202.839h-14.12c-14.764,0-26.776,12.012-26.776,26.776v2.378
			c0,5.795,4.715,10.51,10.511,10.51h75.911c5.796,0,10.511-4.715,10.511-10.51v-2.378
			C496.946,429.401,484.934,417.389,470.17,417.389z M399.951,151.496c0-26.759,21.77-48.528,48.528-48.528
			c26.758,0,48.528,21.769,48.528,48.528c0,26.759-21.77,48.528-48.528,48.528C421.721,200.024,399.951,178.255,399.951,151.496z
			 M415.193,442.061c0.995-5.496,5.815-9.679,11.595-9.679h43.382c5.779,0,10.6,4.182,11.595,9.679H415.193z"/>
	</g>
</g>
<g>
</g>
<g>
</g>
<g>
</g>
<g>
</g>
<g>
</g>
<g>
</g>
<g>
</g>
<g>
</g>
<g>
</g>
<g>
</g>
<g>
</g>
<g>
</g>
<g>
</g>
<g>
</g>
<g>
</g>
</svg>
