<?xml version="1.0" encoding="iso-8859-1"?>
<!-- Generator: Adobe Illustrator 19.0.0, SVG Export Plug-In . SVG Version: 6.00 Build 0)  -->
<svg version="1.1" id="Capa_1" xmlns="http://www.w3.org/2000/svg" xmlns:xlink="http://www.w3.org/1999/xlink" x="0px" y="0px"
	 viewBox="0 0 512 512" style="enable-background:new 0 0 512 512;" xml:space="preserve">
<g>
	<g>
		<path d="M452.5,259.896h-96.833c-4.143,0-7.5,3.357-7.5,7.5s3.357,7.5,7.5,7.5H452.5c4.143,0,7.5-3.357,7.5-7.5
			S456.643,259.896,452.5,259.896z"/>
	</g>
</g>
<g>
	<g>
		<path d="M452.5,346.953h-96.833c-4.143,0-7.5,3.357-7.5,7.5s3.357,7.5,7.5,7.5H452.5c4.143,0,7.5-3.357,7.5-7.5
			S456.643,346.953,452.5,346.953z"/>
	</g>
</g>
<g>
	<g>
		<path d="M407.846,303.424h-52.179c-4.143,0-7.5,3.357-7.5,7.5s3.357,7.5,7.5,7.5h52.179c4.143,0,7.5-3.357,7.5-7.5
			S411.989,303.424,407.846,303.424z"/>
	</g>
</g>
<g>
	<g>
		<path d="M452.5,303.424h-9.757c-4.143,0-7.5,3.357-7.5,7.5s3.357,7.5,7.5,7.5h9.757c4.143,0,7.5-3.357,7.5-7.5
			S456.643,303.424,452.5,303.424z"/>
	</g>
</g>
<g>
	<g>
		<path d="M486.7,91.31H25.3c-13.95,0-25.3,11.35-25.3,25.3v278.781c0,13.95,11.35,25.3,25.3,25.3h461.4
			c13.95,0,25.3-11.35,25.3-25.3V116.609C512,102.659,500.65,91.31,486.7,91.31z M497,395.391c0,5.68-4.62,10.3-10.3,10.3H25.3
			c-5.68,0-10.3-4.62-10.3-10.3V204.5h482V395.391z M497,135.802H97.815c-4.143,0-7.5,3.357-7.5,7.5s3.357,7.5,7.5,7.5H497V189.5H15
			v-38.698h47.918c4.143,0,7.5-3.357,7.5-7.5s-3.357-7.5-7.5-7.5H15v-19.192c0-5.68,4.62-10.3,10.3-10.3h461.4
			c5.68,0,10.3,4.62,10.3,10.3V135.802z"/>
	</g>
</g>
<g>
	<g>
		<path d="M285.336,295.753l-44.892-33.979c-12.148-9.197-27.231-14.262-42.47-14.262H47.871c-7.457,0-13.524,6.066-13.524,13.523
			v99.782c0,7.456,6.067,13.523,13.524,13.523h229.01c11.181,0,20.277-9.097,20.277-20.277v-34.535
			C297.158,310.245,292.738,301.357,285.336,295.753z M49.347,289.443H75.75v33.398H49.347V289.443z M282.158,354.063
			c0,2.91-2.367,5.277-5.277,5.277H49.347v-21.498h114.368c7.969,0,14.452-6.483,14.452-14.452v-34.494
			c0-7.969-6.483-14.452-14.452-14.452H49.347V262.51h148.628c11.99,0,23.857,3.985,33.417,11.222l0.939,0.711h-21.697
			c-7.644,0-13.861,6.218-13.861,13.86v35.677c0,7.644,6.218,13.861,13.861,13.861h71.524V354.063z M90.75,322.841v-33.398h30.083
			v33.398H90.75z M135.833,322.841v-33.398h27.334v33.398H135.833z M282.158,322.841h-70.386v-33.398h40.376l24.135,18.269
			c3.679,2.785,5.875,7.202,5.875,11.815V322.841z"/>
	</g>
</g>
<g>
</g>
<g>
</g>
<g>
</g>
<g>
</g>
<g>
</g>
<g>
</g>
<g>
</g>
<g>
</g>
<g>
</g>
<g>
</g>
<g>
</g>
<g>
</g>
<g>
</g>
<g>
</g>
<g>
</g>
</svg>
