<?xml version="1.0" encoding="iso-8859-1"?>
<!-- Generator: Adobe Illustrator 19.0.0, SVG Export Plug-In . SVG Version: 6.00 Build 0)  -->
<svg version="1.1" id="Capa_1" xmlns="http://www.w3.org/2000/svg" xmlns:xlink="http://www.w3.org/1999/xlink" x="0px" y="0px"
	 viewBox="0 0 512 512" style="enable-background:new 0 0 512 512;" xml:space="preserve">
<g>
	<g>
		<path d="M435.001,74.512c-0.111-0.264-0.241-0.517-0.38-0.764c-14.537-28.766-44.374-48.539-78.746-48.539h-27.162v-1.935
			C328.713,10.44,318.272,0,305.439,0h-98.88c-12.833,0-23.274,10.44-23.274,23.274v1.935h-27.163
			c-34.371,0-64.207,19.771-78.744,48.536c-0.14,0.248-0.271,0.504-0.383,0.769c-5.786,11.732-9.043,24.924-9.043,38.865v142.938
			c0,20.969,0.88,42.009,2.624,62.978c0.003,0.05,0,0.098,0.004,0.148c0,0.012,0.008,0.104,0.009,0.114
			c0.004,0.052,0.015,0.102,0.02,0.153c1.775,21.209,4.434,42.343,7.968,63.254l8.716,51.586
			c2.758,16.322,16.775,28.169,33.328,28.169h39.571c11.211,0,20.785-7.379,23.812-17.91l21.537-0.058l3.874,27.282h-19.313
			c-7.895,0-14.317,6.422-14.317,14.317v11.332c0,7.895,6.423,14.318,14.317,14.318H321.9c7.895,0,14.318-6.423,14.318-14.318
			V486.35c0-7.895-6.423-14.317-14.318-14.317h-19.227l3.762-27.553l21.445-0.057c2.898,10.739,12.579,18.297,23.929,18.297h39.571
			c16.554,0,30.57-11.847,33.328-28.17l8.716-51.585c3.529-20.884,6.186-41.991,7.961-63.172c0.011-0.096,0.016-0.193,0.023-0.29
			c1.755-21.038,2.64-42.149,2.64-63.186V113.379C444.045,99.437,440.788,86.244,435.001,74.512z M198.295,23.274
			c0-4.557,3.707-8.264,8.264-8.264h98.879c4.557,0,8.264,3.707,8.264,8.264v1.935H198.295V23.274z M156.122,40.219h34.649
			c0.007,0,0.013,0.001,0.019,0.001c0.007,0,0.013-0.001,0.019-0.001h130.379c0.006,0,0.013,0.001,0.019,0.001
			c0.006,0,0.013-0.001,0.019-0.001h34.648c24.079,0,45.473,11.698,58.813,29.704H97.31
			C110.65,51.916,132.043,40.219,156.122,40.219z M321.199,487.043h0.007v9.947H190.792v-9.947c0.007,0,0,0,0.007,0H321.199z
			 M220.693,444.711l70.585-0.19l-3.756,27.512h-62.949L220.693,444.711z M186.466,429.793c1.493-7.053,7.805-12.26,15.096-12.26
			h108.873c7.163,0,13.393,5.022,15.025,11.887L186.466,429.793z M418.621,380.465l-8.716,51.584
			c-1.533,9.074-9.325,15.661-18.528,15.661h-39.571c-4.805,0-8.857-3.427-9.66-8.158l-1.57-10.914
			c-2.142-14.888-15.101-26.115-30.142-26.115H201.562c-15.041,0-27.999,11.227-30.141,26.115l-1.57,10.912
			c-0.802,4.732-4.856,8.16-9.661,8.16h-39.571c-9.202,0-16.994-6.586-18.528-15.66l-8.716-51.586
			c-3.019-17.871-5.388-35.907-7.099-54.014h224.973c4.145,0,7.505-3.36,7.505-7.505s-3.36-7.505-7.505-7.505H128.337V151.253
			c0-4.145-3.36-7.505-7.505-7.505s-7.505,3.36-7.505,7.505v160.188H85.014c-1.363-18.364-2.052-36.772-2.052-55.124V113.379
			c0-10.084,2.051-19.698,5.757-28.447h24.608v31.4c0,4.145,3.36,7.505,7.505,7.505s7.505-3.36,7.505-7.505v-31.4h255.397v226.509
			h-37.563c-4.145,0-7.505,3.36-7.505,7.505s3.36,7.505,7.505,7.505h79.55C424.009,344.557,421.64,362.594,418.621,380.465z
			 M429.036,256.317c0,18.351-0.689,36.759-2.052,55.124h-28.163V84.932h24.458c3.706,8.749,5.757,18.363,5.757,28.447V256.317z"/>
	</g>
</g>
<g>
	<g>
		<path d="M168.256,338.08h-50.143c-4.892,0-9.489,2.159-12.613,5.923c-3.124,3.764-4.398,8.68-3.496,13.487l2.702,14.415
			c1.453,7.747,8.228,13.37,16.11,13.37h47.441c9.038,0,16.39-7.352,16.39-16.39V354.47
			C184.646,345.433,177.294,338.08,168.256,338.08z M168.256,370.265h-47.441c-0.664,0-1.235-0.474-1.357-1.126l-2.702-14.416
			c-0.099-0.526,0.106-0.908,0.294-1.135c0.189-0.227,0.526-0.498,1.062-0.498h50.143c0.761,0,1.38,0.619,1.38,1.38v14.415h0.001
			C169.636,369.646,169.017,370.265,168.256,370.265z"/>
	</g>
</g>
<g>
	<g>
		<path d="M406.498,344.004c-3.124-3.764-7.721-5.923-12.613-5.923h-50.143c-9.038-0.001-16.391,7.352-16.391,16.389v14.416
			c0,9.037,7.352,16.39,16.391,16.39h47.44c7.883,0,14.658-5.623,16.109-13.37l2.704-14.415
			C410.896,352.683,409.621,347.767,406.498,344.004z M395.242,354.724l-2.704,14.415c-0.122,0.653-0.693,1.126-1.356,1.126h-47.44
			c-0.761,0-1.381-0.619-1.381-1.38V354.47c0-0.761,0.62-1.38,1.381-1.38h50.143c0.535,0,0.873,0.272,1.062,0.498
			C395.136,353.816,395.341,354.198,395.242,354.724z"/>
	</g>
</g>
<g>
</g>
<g>
</g>
<g>
</g>
<g>
</g>
<g>
</g>
<g>
</g>
<g>
</g>
<g>
</g>
<g>
</g>
<g>
</g>
<g>
</g>
<g>
</g>
<g>
</g>
<g>
</g>
<g>
</g>
</svg>
