<?xml version="1.0" encoding="iso-8859-1"?>
<!-- Generator: Adobe Illustrator 19.0.0, SVG Export Plug-In . SVG Version: 6.00 Build 0)  -->
<svg version="1.1" id="Capa_1" xmlns="http://www.w3.org/2000/svg" xmlns:xlink="http://www.w3.org/1999/xlink" x="0px" y="0px"
	 viewBox="0 0 512 512" style="enable-background:new 0 0 512 512;" xml:space="preserve">
<g>
	<g>
		<path d="M265.845,360.083h-8.253c-4.148,0-7.511,3.362-7.511,7.511s3.363,7.511,7.511,7.511h8.253
			c4.148,0,7.511-3.362,7.511-7.511S269.993,360.083,265.845,360.083z"/>
	</g>
</g>
<g>
	<g>
		<path d="M302.894,360.083h-8.252c-4.148,0-7.511,3.362-7.511,7.511s3.363,7.511,7.511,7.511h8.252
			c4.148,0,7.511-3.362,7.511-7.511S307.042,360.083,302.894,360.083z"/>
	</g>
</g>
<g>
	<g>
		<path d="M339.945,360.083h-8.253c-4.148,0-7.511,3.362-7.511,7.511s3.363,7.511,7.511,7.511h8.253
			c4.148,0,7.511-3.362,7.511-7.511S344.093,360.083,339.945,360.083z"/>
	</g>
</g>
<g>
	<g>
		<path d="M139.254,210.963h-57.61c-4.148,0-7.511,3.362-7.511,7.511s3.363,7.511,7.511,7.511h57.61
			c4.148,0,7.511-3.362,7.511-7.511S143.402,210.963,139.254,210.963z"/>
	</g>
</g>
<g>
	<g>
		<path d="M394.603,309.099L394.603,309.099C479.861,294.29,512,254.004,512,218.474c0-44.509-50.426-96.484-192.542-96.484
			c-74.721,0-152.763,10.222-214.972,28.094l-38.234-40.099c-4.466-4.687-11.602-5.882-17.352-2.902l-34.023,17.628
			c-6.661,3.452-9.636,11.328-6.919,18.322l16.036,41.273C9.814,194.138,0,205.594,0,218.474s9.814,24.336,23.995,34.168
			L7.958,293.915c-2.716,6.994,0.258,14.869,6.92,18.322l34.023,17.628c2.116,1.096,4.42,1.627,6.709,1.627
			c3.931,0,7.82-1.566,10.642-4.527l38.235-40.101c29.849,8.576,63.349,15.384,98.373,20.152v28.914
			c-4.428,2.433-7.438,7.14-7.438,12.539v16.623c0,22.857,18.595,41.452,41.452,41.452h123.788
			c22.857,0,41.452-18.595,41.452-41.452V348.47c0-5.484-3.107-10.251-7.65-12.648c0.045,0.024,0.094,0.043,0.139,0.067V309.099z
			 M22.08,137.899l33.489-17.351l32.84,34.443c-16.367,5.32-35.275,12.497-51.398,21.336L22.08,137.899z M55.568,316.401
			L22.08,299.049l14.93-38.427c16.123,8.839,35.031,16.016,51.398,21.336L55.568,316.401z M360.662,391.523H236.874
			c-14.574,0-26.431-11.856-26.431-26.43v-15.899h176.649v15.899h0.001C387.093,379.667,375.236,391.523,360.662,391.523z
			 M217.882,334.171v-25.246c33.36,3.939,67.805,6.033,101.576,6.033c22.233,0,42.221-1.272,60.124-3.589v22.802H217.882z
			 M319.458,299.936c-74.984,0-153.279-10.448-214.808-28.664c-28.142-8.331-51.412-17.952-67.296-27.823
			c-0.018-0.011-0.035-0.023-0.053-0.034c-0.023-0.015-0.047-0.03-0.07-0.045c-2.202-1.372-4.235-2.741-6.128-4.103
			c16.027,4.651,39.127,9.5,66.828,14.026c56.837,9.287,128.57,16.567,191.887,19.475c0.117,0.005,0.234,0.008,0.351,0.008
			c3.99,0,7.312-3.14,7.497-7.167c0.19-4.144-3.015-7.657-7.158-7.847c-60.077-2.759-126.366-9.308-181.869-17.971
			c-62.184-9.705-83.686-17.647-90.858-21.344c7.149-3.71,28.618-11.677,90.83-21.368c55.406-8.632,121.704-15.157,181.895-17.904
			c4.144-0.189,7.35-3.702,7.161-7.845c-0.189-4.144-3.703-7.354-7.845-7.161c-63.43,2.895-135.164,10.148-191.888,19.4
			c-27.612,4.504-50.64,9.336-66.649,13.979c1.842-1.319,3.815-2.644,5.947-3.973c0.024-0.015,0.047-0.03,0.07-0.045
			c0.018-0.011,0.035-0.023,0.053-0.034c15.884-9.871,39.154-19.491,67.296-27.823c61.529-18.216,139.824-28.664,214.808-28.664
			c60.093,0,108.456,9.753,139.862,28.207c6.249,3.671,11.769,7.652,16.531,11.88c-26.254-9.668-67.697-14.377-126.348-14.377
			c-7.908,0-16.173,0.089-24.568,0.266c-4.147,0.087-7.439,3.52-7.352,7.666c0.088,4.148,3.522,7.455,7.667,7.352
			c8.29-0.174,16.45-0.262,24.252-0.262c59.808,0,102.094,5.13,125.684,15.247c18.273,7.837,21.474,16.928,21.766,24.248
			c0.011,0.412,0.026,0.823,0.026,1.236c0,0.413-0.014,0.824-0.026,1.236c-0.292,7.32-3.493,16.411-21.766,24.248
			c-23.59,10.117-65.876,15.247-125.684,15.247c-7.787,0-15.947-0.089-24.252-0.264c-4.133-0.1-7.58,3.204-7.668,7.351
			c-0.088,4.147,3.203,7.58,7.351,7.667c8.41,0.178,16.676,0.268,24.569,0.268c58.651,0,100.094-4.709,126.348-14.377
			c-4.762,4.227-10.282,8.208-16.531,11.88C427.915,290.183,379.552,299.936,319.458,299.936z"/>
	</g>
</g>
<g>
</g>
<g>
</g>
<g>
</g>
<g>
</g>
<g>
</g>
<g>
</g>
<g>
</g>
<g>
</g>
<g>
</g>
<g>
</g>
<g>
</g>
<g>
</g>
<g>
</g>
<g>
</g>
<g>
</g>
</svg>
