<?xml version="1.0" encoding="iso-8859-1"?>
<!-- Generator: Adobe Illustrator 19.0.0, SVG Export Plug-In . SVG Version: 6.00 Build 0)  -->
<svg version="1.1" id="Capa_1" xmlns="http://www.w3.org/2000/svg" xmlns:xlink="http://www.w3.org/1999/xlink" x="0px" y="0px"
	 viewBox="0 0 512 512" style="enable-background:new 0 0 512 512;" xml:space="preserve">
<g>
	<g>
		<path d="M367.819,44.226h41.03c13.134,0,23.82-10.686,23.82-23.82c0-10.664-8.677-19.341-19.341-19.341h-32.241
			c-5.063,0-9.766,2.28-12.904,6.256l-11.876,15.053c-3.231,4.093-3.824,9.551-1.55,14.244c-0.014-0.028-0.024-0.057-0.038-0.085
			L342.477,52.05l-30.615-5.801C306.271,20.546,283.354,1.233,256,1.233s-50.271,19.313-55.862,45.017l-30.615,5.801l-12.984-16.456
			c0.009-0.018,0.019-0.036,0.028-0.054c2.194-4.659,1.574-10.065-1.616-14.107L142.975,6.255
			c-3.225-4.087-8.252-6.411-13.464-6.247L98.528,1.066C87.93,1.144,79.331,9.79,79.331,20.406c0,13.134,10.686,23.82,23.82,23.82
			c0.057,0,0.114-0.001,0.171-0.002l40.135-0.915l9.617,12.189c0.007-0.002,0.014-0.004,0.021-0.007
			c-6.363,2.362-11.26,7.484-13.415,13.8V69.29h-30.832c-4.156,0-7.524,3.368-7.524,7.524c0,4.156,3.369,7.524,7.524,7.524h31.029
			c3.182,8.524,11.404,14.611,21.024,14.611h45.996c-37.622,7.698-66.011,41.055-66.011,80.919v26.375v45.648v32.657
			c0,4.156,3.369,7.524,7.524,7.524c4.156,0,7.524-3.368,7.524-7.524v-25.133h24.048c8.607,0,15.61-7.003,15.61-15.61v-29.476
			c0-8.607-7.003-15.61-15.61-15.61h-24.048V179.87c0-34.452,25.934-62.942,59.302-67.023l8.7,91.912
			c0.944,9.974,9.21,17.494,19.228,17.494h25.666c10.018,0,18.284-7.52,19.228-17.494l8.7-91.912
			c33.368,4.081,59.302,32.571,59.302,67.023v18.851h-24.048c-8.607,0-15.61,7.003-15.61,15.61v29.476
			c0,8.607,7.003,15.61,15.61,15.61h24.048v76.481c0,13.404-9.044,25.181-21.993,28.642l-12.784,3.416l7.553-24.996
			c3.454-11.429,3.5-23.347,0.133-34.467c-4.642-15.331-14.279-29.108-27.134-38.794c-13.296-10.02-29.147-15.315-45.838-15.315
			c-16.691,0-32.541,5.295-45.838,15.315c-12.855,9.687-22.492,23.464-27.134,38.794c-3.367,11.12-3.321,23.038,0.133,34.468
			l7.553,24.995l-12.784-3.416c-12.95-3.46-21.994-15.238-21.994-28.642v-16.286c0-4.156-3.369-7.524-7.524-7.524
			c-4.156,0-7.524,3.368-7.524,7.524v16.286c0,20.207,13.634,37.963,33.157,43.181l20.075,5.364v55.924
			c0,8.97,7.298,16.268,16.269,16.268h8.486v18.239C218.875,495.346,235.529,512,256,512s37.125-16.654,37.125-37.126v-18.239h8.486
			c8.971,0,16.269-7.298,16.269-16.268v-55.924l20.075-5.364c19.522-5.218,33.157-22.974,33.157-43.181v-84.005v-45.648V179.87
			c0-39.864-28.389-73.221-66.011-80.919h45.996c9.62,0,17.842-6.087,21.024-14.611h31.029c4.156,0,7.524-3.368,7.524-7.524
			s-3.369-7.524-7.524-7.524h-30.831v0.001c-2.154-6.312-7.046-11.432-13.403-13.796c0.003,0.001,0.006,0.002,0.009,0.003
			L367.819,44.226z M379.998,16.643c0.265-0.336,0.662-0.529,1.089-0.529h32.241c2.367,0,4.292,1.925,4.292,4.292
			c0,4.837-3.935,8.772-8.772,8.772h-38.741L379.998,16.643z M103.079,29.178c-4.804-0.039-8.699-3.959-8.699-8.772
			c0-2.367,1.926-4.292,4.292-4.292c0.086,0,0.171-0.001,0.257-0.004l31.094-1.061c0.016-0.001,0.031-0.001,0.047-0.001
			c0.424,0,0.829,0.195,1.092,0.528l10.046,12.733L103.079,29.178z M160.903,83.902c-4.072,0-7.385-3.313-7.385-7.385
			c0-3.545,2.528-6.597,6.01-7.256l39.405-7.466c0.464,7.905,2.544,15.38,5.91,22.107H160.903z M155.936,213.768h24.048v0.001
			c0.31,0,0.561,0.252,0.561,0.561v29.476c0,0.31-0.252,0.561-0.561,0.561h-24.048V213.768z M218.875,441.587h-8.486
			c-0.673,0-1.22-0.547-1.22-1.22V430.21c0-0.673,0.547-1.221,1.22-1.221h8.486V441.587z M218.876,413.94h-0.001h-8.486
			c-0.412,0-0.816,0.032-1.22,0.062v-19.445c3.007,1.879,6.256,3.388,9.707,4.425V413.94z M278.077,474.874L278.077,474.874
			c-0.001,12.173-9.905,22.077-22.077,22.077s-22.076-9.904-22.076-22.077v-74.161h44.153V474.874z M302.832,440.367
			c0,0.673-0.547,1.22-1.22,1.22h-8.486V428.99h8.486c0.673,0,1.22,0.548,1.22,1.221V440.367z M302.833,414.002L302.833,414.002
			c-0.405-0.03-0.809-0.062-1.221-0.062h-8.486v-14.958c3.45-1.038,6.7-2.546,9.707-4.425V414.002z M314.434,338.608l-8.756,28.978
			c-0.389,1.288-0.874,2.523-1.442,3.702c-0.384,0.537-0.696,1.125-0.929,1.754c-0.33,0.569-0.681,1.123-1.05,1.661
			c-0.106,0.141-0.205,0.286-0.3,0.434c-3.984,5.549-10.072,9.278-16.99,10.257c-0.148,0.012-0.293,0.032-0.439,0.053
			c-1.052,0.13-2.116,0.217-3.2,0.217h-50.655c-1.084,0-2.148-0.087-3.2-0.217c-0.145-0.021-0.291-0.041-0.439-0.053
			c-6.919-0.979-13.008-4.709-16.992-10.26c-0.095-0.146-0.192-0.29-0.297-0.429c-0.37-0.539-0.721-1.095-1.052-1.666
			c-0.233-0.628-0.544-1.215-0.927-1.751c-0.568-1.18-1.053-2.416-1.443-3.704l-8.756-28.977
			c-2.592-8.579-2.639-17.484-0.135-25.753c7.742-25.567,31.827-43.423,58.569-43.423s50.827,17.856,58.569,43.423
			C317.073,321.124,317.026,330.029,314.434,338.608z M356.064,244.368h-24.048c-0.31,0-0.561-0.252-0.561-0.561v-29.476
			c0-0.31,0.252-0.561,0.561-0.561h24.048V244.368z M273.079,203.34c-0.208,2.202-2.034,3.864-4.246,3.864h-5.309h-15.049h-5.309
			c-2.212,0-4.038-1.662-4.246-3.864l-8.615-91.014h6.657c0.388,0.137,0.78,0.257,1.17,0.386c0.354,0.117,0.705,0.241,1.062,0.35
			c0.804,0.248,1.611,0.479,2.423,0.69c0.295,0.077,0.594,0.14,0.891,0.212c0.565,0.137,1.13,0.273,1.698,0.393
			c0.346,0.073,0.696,0.135,1.044,0.202c0.533,0.102,1.066,0.2,1.602,0.287c0.352,0.057,0.706,0.108,1.06,0.158
			c0.188,0.027,0.375,0.059,0.563,0.084v30.345c0,4.156,3.369,7.524,7.524,7.524c4.156,0,7.524-3.368,7.524-7.524v-30.345
			c0.188-0.025,0.375-0.057,0.563-0.084c0.354-0.05,0.708-0.101,1.06-0.158c0.536-0.086,1.069-0.185,1.602-0.287
			c0.348-0.067,0.698-0.129,1.044-0.202c0.568-0.12,1.133-0.256,1.698-0.393c0.296-0.072,0.596-0.135,0.891-0.212
			c0.812-0.211,1.62-0.442,2.423-0.69c0.357-0.11,0.708-0.233,1.062-0.35c0.39-0.129,0.782-0.249,1.17-0.386h6.657L273.079,203.34z
			 M270.743,97.869c-0.3,0.112-0.602,0.217-0.904,0.322c-0.317,0.111-0.635,0.221-0.956,0.324c-0.32,0.103-0.642,0.199-0.964,0.294
			c-0.317,0.094-0.635,0.185-0.955,0.272c-0.319,0.086-0.639,0.167-0.959,0.246c-0.336,0.082-0.673,0.16-1.012,0.234
			c-0.309,0.068-0.618,0.133-0.928,0.193c-0.361,0.071-0.725,0.134-1.09,0.195c-0.294,0.049-0.587,0.099-0.882,0.142
			c-0.394,0.057-0.791,0.105-1.188,0.152c-0.272,0.032-0.543,0.067-0.816,0.093c-0.447,0.043-0.898,0.074-1.35,0.103
			c-0.228,0.015-0.455,0.036-0.684,0.047c-0.681,0.033-1.365,0.052-2.054,0.052c-0.689,0-1.373-0.019-2.054-0.052
			c-0.229-0.011-0.456-0.032-0.684-0.047c-0.451-0.029-0.902-0.06-1.35-0.103c-0.273-0.026-0.544-0.061-0.816-0.093
			c-0.397-0.046-0.794-0.094-1.188-0.152c-0.295-0.043-0.588-0.092-0.882-0.142c-0.365-0.061-0.728-0.125-1.09-0.195
			c-0.31-0.061-0.619-0.125-0.928-0.193c-0.339-0.074-0.676-0.152-1.012-0.234c-0.321-0.079-0.641-0.16-0.959-0.246
			c-0.32-0.086-0.638-0.178-0.955-0.272c-0.322-0.095-0.644-0.192-0.964-0.294c-0.321-0.103-0.638-0.214-0.956-0.324
			c-0.302-0.105-0.604-0.21-0.904-0.322c-15.978-5.99-27.384-21.415-27.384-39.459c0-1.637,0.104-3.249,0.286-4.837
			c0.003-0.024,0.007-0.048,0.009-0.073c2.441-20.923,20.265-37.219,41.832-37.219s39.391,16.295,41.832,37.219
			c0.003,0.024,0.006,0.048,0.009,0.073c0.183,1.588,0.286,3.201,0.286,4.837C298.128,76.454,286.722,91.879,270.743,97.869z
			 M351.097,83.902h-43.94c3.366-6.727,5.446-14.201,5.91-22.107l39.405,7.466c3.483,0.659,6.011,3.711,6.011,7.256
			C358.483,80.588,355.17,83.902,351.097,83.902z"/>
	</g>
</g>
<g>
	<g>
		<path d="M256,26.497c-17.596,0-31.912,14.316-31.912,31.913c0,17.596,14.316,31.912,31.912,31.912s31.912-14.316,31.912-31.912
			C287.912,40.813,273.596,26.497,256,26.497z M256,75.273c-9.299,0-16.864-7.565-16.864-16.863c0-9.298,7.565-16.864,16.864-16.864
			s16.864,7.565,16.864,16.864C272.864,67.709,265.299,75.273,256,75.273z"/>
	</g>
</g>
<g>
</g>
<g>
</g>
<g>
</g>
<g>
</g>
<g>
</g>
<g>
</g>
<g>
</g>
<g>
</g>
<g>
</g>
<g>
</g>
<g>
</g>
<g>
</g>
<g>
</g>
<g>
</g>
<g>
</g>
</svg>
