<?xml version="1.0" encoding="iso-8859-1"?>
<!-- Generator: Adobe Illustrator 19.0.0, SVG Export Plug-In . SVG Version: 6.00 Build 0)  -->
<svg version="1.1" id="Capa_1" xmlns="http://www.w3.org/2000/svg" xmlns:xlink="http://www.w3.org/1999/xlink" x="0px" y="0px"
	 viewBox="0 0 512.001 512.001" style="enable-background:new 0 0 512.001 512.001;" xml:space="preserve">
<g>
	<g>
		<path d="M349.819,77.213h-12.136l30.466-40.18h16.935c13.59,0,24.648-11.057,24.648-24.648C409.732,5.556,404.177,0,397.348,0
			H114.652c-6.829,0-12.385,5.556-12.385,12.385c0,13.59,11.057,24.648,24.648,24.648h16.935l30.467,40.18h-12.136
			c-39.98,0-72.506,32.526-72.506,72.506v287.59c0,23.272,18.445,42.31,41.482,43.28v14.457c0,9.349,7.606,16.955,16.955,16.955
			h14.681c4.144,0,7.502-3.359,7.502-7.502v-23.862h171.411v23.862c0,4.144,3.358,7.502,7.502,7.502h14.681
			c9.349,0,16.955-7.606,16.955-16.955v-14.457c23.037-0.97,41.482-20.007,41.482-43.28v-287.59
			C422.325,109.739,389.799,77.213,349.819,77.213z M126.915,22.028c-4.41,0-8.136-2.975-9.281-7.023h276.732
			c-1.145,4.048-4.872,7.023-9.281,7.023H126.915z M162.681,37.033H349.32l-30.466,40.18H193.147L162.681,37.033z M332.098,92.217
			v25.198H179.902V92.217H332.098z M155.29,496.995L155.29,496.995h-7.178c-1.076,0-1.95-0.874-1.95-1.95v-14.41h9.128V496.995z
			 M341.706,465.63L341.706,465.63H170.294v-18.918c0-0.497,0.404-0.903,0.903-0.903h169.606c0.498,0,0.903,0.405,0.903,0.903
			V465.63z M365.838,495.045c0,1.076-0.874,1.95-1.95,1.95h-7.178v-16.36h9.128V495.045z M407.321,339.123H188.745
			c-4.144,0-7.502,3.359-7.502,7.502s3.359,7.502,7.502,7.502h218.576v83.181c0,15.616-12.704,28.322-28.321,28.322h-22.29v-18.918
			c0-8.771-7.136-15.908-15.908-15.908H171.197c-8.771,0-15.908,7.136-15.908,15.908v18.918H133
			c-15.616,0-28.321-12.705-28.321-28.322v-83.181h49.157c4.144,0,7.502-3.359,7.502-7.502s-3.359-7.502-7.502-7.502h-49.157
			V149.718c0-31.707,25.795-57.501,57.501-57.501h2.717v26.789c0,7.396,6.018,13.414,13.414,13.414h155.378
			c7.396,0,13.414-6.018,13.414-13.414V92.217h2.717c31.707,0,57.501,25.795,57.501,57.501V339.123z"/>
	</g>
</g>
<g>
	<g>
		<path d="M341.835,148.85h-171.67c-26.413,0-47.901,21.488-47.901,47.901v107.99c0,8.989,7.313,16.302,16.302,16.302h234.869
			c8.989,0,16.302-7.313,16.302-16.302v-107.99C389.737,170.338,368.248,148.85,341.835,148.85z M163.781,306.039L163.781,306.039
			h-25.215c-0.715,0-1.297-0.582-1.297-1.297v-107.99c0-15.954,11.419-29.288,26.512-32.269V306.039z M374.732,304.741
			L374.732,304.741c0,0.715-0.582,1.297-1.297,1.297h-32.717v-90.08c0-4.144-3.359-7.502-7.502-7.502s-7.502,3.359-7.502,7.502
			v90.08H178.785V163.855h146.929v17.195c0,4.144,3.358,7.502,7.502,7.502c4.144,0,7.502-3.359,7.502-7.502v-17.195h1.118
			c18.139,0,32.896,14.758,32.896,32.896V304.741z"/>
	</g>
</g>
<g>
	<g>
		<path d="M150.333,363.121c-16.008,0-29.031,13.023-29.031,29.031s13.023,29.031,29.031,29.031c16.007,0,29.03-13.023,29.03-29.031
			S166.34,363.121,150.333,363.121z M150.333,406.178c-7.734,0-14.026-6.292-14.026-14.026s6.292-14.026,14.026-14.026
			c7.733,0,14.025,6.292,14.025,14.026C164.358,399.886,158.066,406.178,150.333,406.178z"/>
	</g>
</g>
<g>
	<g>
		<path d="M361.667,363.12c-16.007,0-29.03,13.023-29.03,29.031s13.023,29.031,29.03,29.031c16.008,0,29.031-13.023,29.031-29.031
			S377.675,363.12,361.667,363.12z M361.667,406.178c-7.733,0-14.025-6.292-14.025-14.026s6.292-14.026,14.025-14.026
			c7.734,0,14.026,6.292,14.026,14.026S369.401,406.178,361.667,406.178z"/>
	</g>
</g>
<g>
</g>
<g>
</g>
<g>
</g>
<g>
</g>
<g>
</g>
<g>
</g>
<g>
</g>
<g>
</g>
<g>
</g>
<g>
</g>
<g>
</g>
<g>
</g>
<g>
</g>
<g>
</g>
<g>
</g>
</svg>
