<?xml version="1.0" encoding="iso-8859-1"?>
<!-- Generator: Adobe Illustrator 19.0.0, SVG Export Plug-In . SVG Version: 6.00 Build 0)  -->
<svg version="1.1" id="Capa_1" xmlns="http://www.w3.org/2000/svg" xmlns:xlink="http://www.w3.org/1999/xlink" x="0px" y="0px"
	 viewBox="0 0 512 512" style="enable-background:new 0 0 512 512;" xml:space="preserve">
<g>
	<g>
		<path d="M441.549,300.666h-23.583c-3.191,0-6.171,0.891-8.733,2.415l-14.711-46.355c-5.259-16.574-20.476-27.71-37.864-27.71
			h-25.643l-5.306-18.088c-2.612-8.904-10.914-15.121-20.192-15.121h-99.033c-9.277,0-17.58,6.218-20.192,15.12l-5.306,18.089
			h-25.625c-17.388,0-32.605,11.136-37.864,27.71l-14.714,46.364c-2.566-1.529-5.55-2.424-8.748-2.424H70.451
			c-9.462,0-17.161,7.698-17.161,17.161v11.854c0,9.463,7.699,17.161,17.161,17.161h8.566
			c-7.612,10.999-12.143,24.366-12.143,36.838v42.401c0,16.542,10.839,30.594,25.786,35.444v25.428
			c0,13.811,11.236,25.047,25.046,25.047h25.996c13.811,0,25.047-11.236,25.047-25.047v-23.612h174.502v23.612
			c0,13.811,11.236,25.047,25.047,25.047h25.995c13.811,0,25.047-11.236,25.047-25.047v-26.074
			c15.04-5.59,25.786-20.086,25.786-37.047V383.68c0-12.472-4.531-25.839-12.143-36.838h8.566c9.463,0,17.161-7.698,17.161-17.161
			v-11.854C458.71,308.364,451.012,300.666,441.549,300.666z M200.702,215.154c0.748-2.549,3.125-4.33,5.781-4.33h99.033
			c2.656,0,5.033,1.781,5.781,4.33l4.066,13.861H196.636L200.702,215.154z M131.81,261.268c3.272-10.309,12.736-17.234,23.55-17.234
			c0.009,0,0,0,0.009,0h201.289c10.814,0,20.278,6.926,23.55,17.234l19.841,62.519c-0.024-0.004-0.048-0.008-0.072-0.012
			c-0.512-0.091-1.023-0.193-1.537-0.264c-0.486-0.068-0.979-0.107-1.469-0.157c-0.42-0.043-0.838-0.101-1.258-0.13
			c-0.917-0.064-1.841-0.098-2.772-0.098h-1.437L373.8,267.342c-2.841-8.957-11.065-14.976-20.462-14.976H158.685
			c-9.398,0-17.622,6.019-20.463,14.977l-17.703,55.783h-1.459c-0.927,0-1.846,0.033-2.759,0.097
			c-0.458,0.032-0.913,0.094-1.37,0.141c-0.449,0.047-0.9,0.08-1.345,0.142c-0.54,0.075-1.077,0.181-1.615,0.277L131.81,261.268z
			 M375.747,323.126H136.275l16.262-51.241c0.854-2.692,3.324-4.5,6.148-4.5h194.652c2.823,0,5.293,1.808,6.147,4.5L375.747,323.126
			z M70.451,331.823L70.451,331.823c-1.181,0-2.142-0.961-2.142-2.142v-11.854c0-1.181,0.961-2.142,2.142-2.142h23.583
			c1.181,0,2.142,0.961,2.142,2.142v6.076l-2.457,7.741c-0.084,0.06-0.168,0.119-0.251,0.179H70.451z M143.702,496.981h-25.996
			c-5.529,0-10.028-4.499-10.028-10.028v-23.612h46.051v23.612h0.001C153.73,492.482,149.231,496.981,143.702,496.981z
			 M404.321,486.953c0,5.529-4.499,10.028-10.028,10.028h-25.995c-5.529,0-10.028-4.499-10.028-10.028v-23.612h46.051V486.953z
			 M430.107,423.832L430.107,423.832c0,13.504-10.986,24.49-24.491,24.49H104.135c-12.264,0-22.242-9.977-22.242-22.242v-42.401
			c0-10.447,4.283-22.074,11.456-31.103c1.321-1.663,3.098-3.673,5.283-5.659l10.49,18.896
			c5.644,10.166,17.777,16.735,30.911,16.735h12.054c4.147,0,7.509-3.362,7.509-7.509c0-4.147-3.362-7.509-7.509-7.509h-12.054
			c-7.764,0-14.742-3.535-17.78-9.006l-10.677-19.234c0.576-0.177,1.154-0.328,1.732-0.464c0.11-0.025,0.22-0.049,0.331-0.073
			c0.48-0.106,0.961-0.198,1.443-0.276c0.295-0.047,0.594-0.083,0.893-0.12c0.343-0.043,0.686-0.089,1.029-0.118
			c0.676-0.055,1.36-0.093,2.058-0.093c0.008,0,0,0,0.008,0h273.872c0.704,0,1.394,0.037,2.076,0.093
			c0.368,0.031,0.736,0.082,1.103,0.13c0.282,0.036,0.565,0.069,0.843,0.113c0.522,0.086,1.044,0.188,1.565,0.307
			c0.084,0.019,0.168,0.036,0.251,0.056c0.61,0.146,1.219,0.311,1.826,0.502l-10.645,19.177c-3.038,5.471-10.017,9.006-17.781,9.006
			H187.026c-4.147,0-7.509,3.362-7.509,7.509c0,4.147,3.362,7.509,7.509,7.509h185.153c13.134,0,25.267-6.569,30.911-16.735
			l10.417-18.766c2.12,1.943,3.852,3.902,5.144,5.528c7.173,9.029,11.456,20.657,11.456,31.103V423.832z M441.549,331.822h-23.016
			c-0.076-0.055-0.154-0.11-0.231-0.164l-2.479-7.811v-6.02c0-1.181,0.961-2.142,2.142-2.142h23.583
			c1.181,0,2.142,0.961,2.142,2.142v11.853h0.001C443.691,330.861,442.73,331.822,441.549,331.822z"/>
	</g>
</g>
<g>
	<g>
		<path d="M170.783,418.65l-9.058-20.416c-1.854-4.18-5.828-7.119-10.369-7.671l-39.1-4.742c-4.337-0.535-8.628,1.136-11.477,4.45
			c-2.849,3.312-3.853,7.803-2.685,12.011l5.714,20.608c1.441,5.197,5.837,8.925,11.198,9.499l42.442,4.55
			c0.483,0.052,0.963,0.077,1.439,0.077c4.159,0,8.012-1.945,10.51-5.371C172.181,427.827,172.699,422.969,170.783,418.65z
			 M117.926,417.596l-4.58-16.515l35.101,4.257l7.234,16.305L117.926,417.596z"/>
	</g>
</g>
<g>
	<g>
		<path d="M411.432,390.27c-2.85-3.312-7.135-4.978-11.478-4.449l-39.099,4.742c-4.542,0.551-8.514,3.491-10.369,7.672
			l-9.057,20.414c-1.916,4.319-1.399,9.177,1.385,12.996c2.497,3.426,6.351,5.371,10.51,5.371c0.476,0,0.957-0.025,1.44-0.077
			l42.441-4.55c5.362-0.574,9.757-4.303,11.198-9.499l5.715-20.608C415.285,398.073,414.281,393.582,411.432,390.27z
			 M394.284,417.596l-37.754,4.048l7.234-16.305l35.1-4.257L394.284,417.596z"/>
	</g>
</g>
<g>
	<g>
		<path d="M334.962,419.04l-4.853-18.896c-1.807-7.036-8.142-11.949-15.406-11.949H197.507c-7.264,0-13.598,4.913-15.405,11.948
			l-4.854,18.897c-1.232,4.797-0.198,9.792,2.837,13.706c3.035,3.913,7.616,6.157,12.568,6.157h126.904
			c4.952,0,9.533-2.244,12.568-6.158C335.16,428.832,336.194,423.836,334.962,419.04z M320.257,423.54
			c-0.266,0.343-0.593,0.343-0.7,0.343H192.653c-0.108,0-0.434,0-0.701-0.343c-0.266-0.343-0.185-0.66-0.158-0.764l4.854-18.898
			c0.101-0.392,0.454-0.666,0.858-0.666h117.196c0.405,0,0.758,0.274,0.858,0.667l4.855,18.897
			C320.442,422.881,320.523,423.197,320.257,423.54z"/>
	</g>
</g>
<g>
	<g>
		<path d="M256,28.774c-20.397,0-36.991,16.594-36.991,36.991c0,20.397,16.594,36.991,36.991,36.991
			c20.397,0,36.991-16.594,36.991-36.991C292.991,45.368,276.397,28.774,256,28.774z M256,87.738
			c-12.116,0-21.973-9.857-21.973-21.973c0-12.116,9.857-21.972,21.973-21.972c12.116,0,21.973,9.857,21.973,21.973
			C277.973,77.882,268.115,87.738,256,87.738z"/>
	</g>
</g>
<g>
	<g>
		<path d="M313.97,75.852c-4.07-0.805-8.015,1.858-8.811,5.928c-7.244,37.029-37.462,67.289-49.158,77.829
			c-13.34-12.031-50.749-49.711-50.749-93.844c0-27.982,22.765-50.747,50.747-50.747c22.357,0,41.834,14.328,48.466,35.654
			c1.232,3.96,5.439,6.174,9.401,4.941c3.96-1.232,6.172-5.441,4.941-9.401C310.211,18.571,284.97,0,256,0
			c-36.263,0-65.765,29.503-65.765,65.765c0,25.338,10.62,52.372,30.712,78.178c5.529,7.103,11.04,13.186,15.824,18.06h-24.326
			c-4.147,0-7.509,3.362-7.509,7.509c0,4.147,3.362,7.509,7.509,7.509h87.108c4.148,0,7.509-3.362,7.509-7.509
			c0-4.147-3.362-7.509-7.509-7.509h-24.279c15.316-15.572,37.997-43.463,44.624-77.34C320.694,80.593,318.04,76.648,313.97,75.852z
			"/>
	</g>
</g>
<g>
</g>
<g>
</g>
<g>
</g>
<g>
</g>
<g>
</g>
<g>
</g>
<g>
</g>
<g>
</g>
<g>
</g>
<g>
</g>
<g>
</g>
<g>
</g>
<g>
</g>
<g>
</g>
<g>
</g>
</svg>
