<?xml version="1.0" encoding="iso-8859-1"?>
<!-- Generator: Adobe Illustrator 19.0.0, SVG Export Plug-In . SVG Version: 6.00 Build 0)  -->
<svg version="1.1" id="Capa_1" xmlns="http://www.w3.org/2000/svg" xmlns:xlink="http://www.w3.org/1999/xlink" x="0px" y="0px"
	 viewBox="0 0 512 512" style="enable-background:new 0 0 512 512;" xml:space="preserve">
<g>
	<g>
		<path d="M313.481,387.712h-16.252c-4.191,0-7.589,3.397-7.589,7.589c0,4.192,3.398,7.589,7.589,7.589h16.252
			c4.191,0,7.589-3.397,7.589-7.589C321.07,391.109,317.672,387.712,313.481,387.712z"/>
	</g>
</g>
<g>
	<g>
		<path d="M261.918,387.712H198.52c-4.191,0-7.589,3.397-7.589,7.589c0,4.192,3.398,7.589,7.589,7.589h63.398
			c4.191,0,7.589-3.398,7.589-7.589C269.507,391.109,266.109,387.712,261.918,387.712z"/>
	</g>
</g>
<g>
	<g>
		<path d="M295.992,415.868h-79.984c-4.191,0-7.589,3.397-7.589,7.589c0,4.192,3.398,7.589,7.589,7.589h79.984
			c4.191,0,7.589-3.397,7.589-7.589C303.581,419.265,300.183,415.868,295.992,415.868z"/>
	</g>
</g>
<g>
	<g>
		<path d="M419.898,386.469c-2.992-3.601-7.553-5.418-12.202-4.856l-52.701,6.351c-4.777,0.576-8.957,3.666-10.907,8.062
			l-6.975,15.722c-1.892,4.264-1.503,9.143,1.04,13.053c2.543,3.91,6.845,6.244,11.509,6.244h52.751c6.03,0,11.294-3.866,13.1-9.62
			l6.925-22.072C423.84,394.886,422.891,390.069,419.898,386.469z M401.349,415.868H351.89l5.738-12.934l49.657-5.984
			L401.349,415.868z"/>
	</g>
</g>
<g>
	<g>
		<path d="M174.887,411.749l-6.974-15.722c-1.951-4.397-6.13-7.487-10.907-8.063l-52.701-6.351
			c-4.654-0.56-9.211,1.256-12.203,4.857c-2.992,3.601-3.942,8.417-2.54,12.883l6.926,22.073c1.805,5.754,7.069,9.62,13.099,9.62
			h52.751c4.664,0,8.967-2.334,11.509-6.244C176.39,420.892,176.779,416.012,174.887,411.749z M110.651,415.868l-5.935-18.918
			l49.657,5.984l5.738,12.934H110.651z"/>
	</g>
</g>
<g>
	<g>
		<path d="M463.253,64.381c-3.597,0-6.934,1.124-9.689,3.031l-18.055-6.399c-5.994-19.699-24.305-33.891-45.755-33.891h-49.059
			V15.449C340.695,6.93,333.765,0,325.246,0H186.754c-8.518,0-15.448,6.93-15.448,15.449v11.673h-49.059
			c-21.45,0-39.762,14.192-45.755,33.891l-18.055,6.399c-2.756-1.907-6.092-3.031-9.689-3.031c-15.523,0-28.152,12.63-28.152,28.152
			v44.314c0,7.613,6.194,13.806,13.806,13.806h17.617c7.613,0,13.806-6.194,13.806-13.806V81.459c0-0.187-0.022-0.368-0.028-0.553
			l8.38-2.97l-8.196,146.259c-2.519,44.954-4.023,102.197-4.023,153.125v49.626c0,17.041,13.863,30.904,30.904,30.904h4.827v31.623
			c0,12.421,10.106,22.527,22.528,22.527h32.132c12.422,0,22.527-10.106,22.527-22.527V457.85h162.248v31.623
			c0,12.421,10.106,22.527,22.527,22.527h32.132c12.422,0,22.528-10.106,22.528-22.527V457.85h4.827
			c17.041,0,30.904-13.864,30.904-30.904V377.32c0-50.928-1.504-108.172-4.023-153.125l-8.196-146.259l8.38,2.97
			c-0.006,0.185-0.028,0.366-0.028,0.553v55.388c0,7.613,6.194,13.806,13.806,13.806h17.617c7.613,0,13.806-6.194,13.806-13.806
			V92.533C491.405,77.01,478.776,64.381,463.253,64.381z M50.647,135.475H35.773V92.533c0-7.154,5.82-12.974,12.974-12.974
			c1.047,0,1.9,0.853,1.9,1.9V135.475z M186.753,15.178h138.493c0.149,0,0.27,0.122,0.27,0.271v24.775c0,0.149-0.121,0.27-0.27,0.27
			H186.754c-0.149,0-0.27-0.121-0.27-0.27V15.449h-0.001C186.483,15.3,186.604,15.178,186.753,15.178z M122.247,42.3h49.215
			c1.02,7.537,7.479,13.372,15.292,13.372h138.493c7.813,0,14.272-5.835,15.292-13.372h49.215c16.952,0,31.027,12.987,32.512,29.757
			c-6.344-4.383-14.024-6.948-22.274-6.948H112.009c-8.251,0-15.931,2.566-22.274,6.948C91.22,55.286,105.295,42.3,122.247,42.3z
			 M81.135,225.045l4.423-78.922h34.346c4.191,0,7.589-3.397,7.589-7.589s-3.398-7.589-7.589-7.589H86.409l1.565-27.932
			c0.714-12.744,11.271-22.726,24.035-22.726h287.982c12.764,0,23.321,9.982,24.035,22.726l1.565,27.932h-270.06
			c-4.191,0-7.589,3.397-7.589,7.589s3.398,7.589,7.589,7.589h270.911l4.423,78.922c2.148,38.322,3.552,85.642,3.909,130.296
			c-38.233,5.461-98.303,8.23-178.774,8.23s-140.541-2.769-178.774-8.23C77.583,310.686,78.988,263.367,81.135,225.045z
			 M159.698,489.473c0,4.052-3.297,7.349-7.349,7.349h-32.132c-4.053,0-7.35-3.296-7.35-7.349V457.85h46.831V489.473z
			 M399.133,489.473c0,4.052-3.297,7.349-7.35,7.349h-32.132c-4.052,0-7.349-3.296-7.349-7.349V457.85h46.831V489.473z
			 M434.865,426.946h-0.001c0,8.672-7.054,15.726-15.726,15.726H92.862c-8.671,0-15.726-7.054-15.726-15.726V377.32
			c0-2.209,0.004-4.434,0.01-6.666c39.062,5.371,99.137,8.094,178.855,8.094s139.793-2.723,178.855-8.094
			c0.006,2.231,0.009,4.457,0.009,6.666V426.946z M476.227,135.475h-14.874V81.459c0-1.047,0.852-1.9,1.9-1.9
			c7.154,0,12.974,5.82,12.974,12.974V135.475z"/>
	</g>
</g>
<g>
</g>
<g>
</g>
<g>
</g>
<g>
</g>
<g>
</g>
<g>
</g>
<g>
</g>
<g>
</g>
<g>
</g>
<g>
</g>
<g>
</g>
<g>
</g>
<g>
</g>
<g>
</g>
<g>
</g>
</svg>
