<?xml version="1.0" encoding="iso-8859-1"?>
<!-- Generator: Adobe Illustrator 19.0.0, SVG Export Plug-In . SVG Version: 6.00 Build 0)  -->
<svg version="1.1" id="Capa_1" xmlns="http://www.w3.org/2000/svg" xmlns:xlink="http://www.w3.org/1999/xlink" x="0px" y="0px"
	 viewBox="0 0 512.001 512.001" style="enable-background:new 0 0 512.001 512.001;" xml:space="preserve">
<g>
	<g>
		<path d="M288.688,291.888h-17.171c-4.143,0-7.501,3.358-7.501,7.501c0,4.143,3.358,7.501,7.501,7.501h17.171
			c4.143,0,7.501-3.358,7.501-7.501C296.189,295.246,292.831,291.888,288.688,291.888z"/>
	</g>
</g>
<g>
	<g>
		<path d="M231.752,291.888h-17.171c-4.143,0-7.501,3.358-7.501,7.501c0,4.143,3.358,7.501,7.501,7.501h17.171
			c4.143,0,7.501-3.358,7.501-7.501C239.253,295.246,235.895,291.888,231.752,291.888z"/>
	</g>
</g>
<g>
	<g>
		<path d="M174.816,291.888h-17.171c-4.143,0-7.501,3.358-7.501,7.501c0,4.143,3.358,7.501,7.501,7.501h17.171
			c4.143,0,7.501-3.358,7.501-7.501C182.317,295.246,178.959,291.888,174.816,291.888z"/>
	</g>
</g>
<g>
	<g>
		<path d="M345.624,291.888h-17.171c-4.143,0-7.501,3.358-7.501,7.501c0,4.143,3.358,7.501,7.501,7.501h17.171
			c4.143,0,7.501-3.358,7.501-7.501C353.126,295.246,349.766,291.888,345.624,291.888z"/>
	</g>
</g>
<g>
	<g>
		<g>
			<path d="M0.004,317.21C0,317.113,0.004,317.308,0.004,317.21L0.004,317.21z"/>
			<path d="M508.091,270.655c-0.714-1.583-1.505-3.135-2.407-4.632l-2.303-3.821c-8.706-14.448-23.188-24.62-39.733-27.913
				l-66.513-13.226c-13.309-2.648-26.301-10.69-34.915-16.508l-48.202-32.564c-16.098-10.876-34.545-17.257-53.781-18.672v-13.62
				c0-9.201-7.486-16.686-16.686-16.686H171.87c-9.201,0-16.686,7.486-16.686,16.686v13.63
				c-26.345,1.959-50.863,13.136-69.767,31.972c-13.167,13.118-29.743,22.066-47.934,25.876l-10.462,2.192
				c-15.654,3.278-27.016,17.266-27.016,33.261C0,246.727,0,246.629,0,246.727l0.004,70.484c0,8.504,5.021,16.231,12.792,19.683
				l28.924,12.855c1.777,9.181,6.213,17.944,13.308,25.041c9.467,9.466,21.902,14.199,34.338,14.199
				c12.435,0,24.872-4.733,34.338-14.199c6.048-6.048,10.155-13.31,12.339-21.007h241.705c2.184,7.697,6.291,14.959,12.339,21.007
				c9.467,9.466,21.902,14.199,34.338,14.199c12.435,0,24.872-4.733,34.338-14.199c6.048-6.048,10.155-13.31,12.339-21.007h13.661
				c15.018,0,27.238-12.219,27.238-27.238v-37.8v-0.001C512,282.486,510.648,276.325,508.091,270.655z M492.436,273.105l0.398,0.661
				c0.965,1.601,1.76,3.287,2.395,5.029c1.159,3.176,1.768,6.54,1.768,9.948v0.128h-19.802v-8.562c0-3.972,3.232-7.204,7.204-7.204
				H492.436z M170.187,139.699c0-0.929,0.755-1.684,1.684-1.684h71.681c0.928,0,1.684,0.755,1.684,1.684v13.318h-75.049V139.699z
				 M15.006,273.487h9.904v15.002h-9.904V273.487z M113.095,364.179c-13.084,13.085-34.375,13.083-47.46,0.001
				c-13.084-13.085-13.084-34.375,0-47.46c13.084-13.086,34.375-13.086,47.46,0C126.18,329.806,126.18,351.095,113.095,364.179z
				 M448.154,364.179c-13.085,13.084-34.375,13.083-47.459,0c-13.084-13.084-13.084-34.375,0-47.459
				c6.338-6.339,14.765-9.83,23.73-9.83s17.391,3.491,23.729,9.83C461.238,329.806,461.238,351.095,448.154,364.179z
				 M484.763,338.778h-11.84c-0.405-11.872-5.118-23.623-14.16-32.667c-9.172-9.171-21.367-14.223-34.338-14.223
				s-25.167,5.052-34.338,14.223c-9.042,9.043-13.755,20.794-14.16,32.667H137.865c-0.405-11.872-5.118-23.623-14.16-32.667
				c-18.934-18.933-49.742-18.933-68.676,0c0,0,0,0,0,0.001c-7.614,7.614-12.16,17.15-13.65,27.061l-22.49-9.989
				c-2.358-1.048-3.881-3.393-3.881-5.974v-13.717h13.153c6.48,0,11.752-5.272,11.752-11.752v-21.503
				c0-6.48-5.272-11.752-11.752-11.752H15.006v-11.855c0-8.933,6.345-16.746,15.088-18.576l10.463-2.192
				c21.041-4.407,40.215-14.757,55.447-29.931c17.856-17.79,41.507-27.674,66.678-27.899h0.001c0.001,0,0.001,0,0.002,0
				c0.292-0.003,0.583-0.011,0.875-0.011h88.475l0.636,0.013c0.017,0,0.034,0,0.051,0c18.924,0.134,37.202,5.788,52.896,16.39
				l48.202,32.564c10.508,7.099,24.596,15.65,40.386,18.79l66.513,13.227c7.356,1.463,14.16,4.752,19.849,9.435
				c-10.427,1.82-18.38,10.93-18.38,21.87v11.496c0,6.654,5.414,12.068,12.069,12.068h22.737v22.669h0.002
				C496.998,333.29,491.51,338.778,484.763,338.778z"/>
		</g>
	</g>
</g>
<g>
	<g>
		<path d="M358.94,231.627c-3.144-1.729-6.249-3.626-9.228-5.639l-48.204-32.565c-14.665-9.907-31.772-15.143-49.47-15.143h-88.476
			c-23.542,0-45.693,9.151-62.373,25.768c-8.539,8.508-18.265,15.623-28.908,21.148c-6.377,3.312-10.34,9.831-10.34,17.011
			c0,10.575,8.603,19.178,19.177,19.178h26.126c4.143,0,7.501-3.358,7.501-7.501c0-4.143-3.358-7.501-7.501-7.501H81.118
			c-2.302,0-4.175-1.873-4.175-4.175c0-1.559,0.863-2.976,2.25-3.697c11.999-6.229,22.961-14.248,32.583-23.835
			c13.848-13.795,32.24-21.393,51.785-21.393h31.858v53.1h-53.271c-4.143,0-7.501,3.358-7.501,7.501
			c0,4.143,3.358,7.501,7.501,7.501h216.837c6.109,0,11.078-4.97,11.078-11.079C370.063,242.559,365.801,235.402,358.94,231.627z
			 M210.422,246.385L210.422,246.385v-53.101h41.616c14.693,0,28.897,4.347,41.072,12.572l48.204,32.565
			c3.357,2.268,6.856,4.406,10.397,6.353c0.759,0.418,1.413,0.968,1.936,1.611H210.422z"/>
	</g>
</g>
<g>
	<g>
		<path d="M442.272,322.602c-4.768-4.768-11.106-7.393-17.848-7.393c-6.743,0-13.081,2.625-17.848,7.393
			c-4.761,4.761-7.384,11.1-7.384,17.848c0,6.748,2.622,13.087,7.384,17.848c4.767,4.767,11.106,7.393,17.848,7.393
			c6.742,0,13.081-2.625,17.848-7.393c4.767-4.767,7.393-11.106,7.393-17.848C449.666,333.709,447.041,327.369,442.272,322.602z
			 M431.663,347.69c-1.933,1.934-4.504,2.999-7.239,2.999c-2.735,0-5.306-1.065-7.24-2.999c-1.929-1.928-2.99-4.499-2.99-7.239
			s1.062-5.311,2.99-7.239c1.933-1.934,4.505-2.999,7.24-2.999s5.306,1.065,7.239,2.999c1.933,1.933,2.999,4.505,2.999,7.239
			S433.597,345.756,431.663,347.69z"/>
	</g>
</g>
<g>
	<g>
		<path d="M107.214,322.602c-4.768-4.768-11.106-7.393-17.848-7.393c-6.743,0-13.081,2.625-17.848,7.393
			c-4.761,4.761-7.384,11.1-7.384,17.848c0,6.748,2.622,13.087,7.384,17.848c4.767,4.767,11.106,7.393,17.848,7.393
			c6.743,0,13.081-2.625,17.847-7.393c4.768-4.767,7.394-11.106,7.394-17.848C114.607,333.709,111.981,327.369,107.214,322.602z
			 M96.604,347.69c-1.933,1.934-4.503,2.999-7.238,2.999s-5.306-1.065-7.24-2.999c-1.929-1.928-2.99-4.499-2.99-7.239
			s1.062-5.311,2.99-7.239c1.933-1.934,4.505-2.999,7.24-2.999s5.306,1.065,7.239,2.999c1.933,1.934,2.999,4.505,2.999,7.239
			S98.539,345.755,96.604,347.69z"/>
	</g>
</g>
<g>
</g>
<g>
</g>
<g>
</g>
<g>
</g>
<g>
</g>
<g>
</g>
<g>
</g>
<g>
</g>
<g>
</g>
<g>
</g>
<g>
</g>
<g>
</g>
<g>
</g>
<g>
</g>
<g>
</g>
</svg>
