<?xml version="1.0" encoding="iso-8859-1"?>
<!-- Generator: Adobe Illustrator 19.0.0, SVG Export Plug-In . SVG Version: 6.00 Build 0)  -->
<svg version="1.1" id="Capa_1" xmlns="http://www.w3.org/2000/svg" xmlns:xlink="http://www.w3.org/1999/xlink" x="0px" y="0px"
	 viewBox="0 0 511.999 511.999" style="enable-background:new 0 0 511.999 511.999;" xml:space="preserve">
<g>
	<g>
		<path d="M356.981,325.291c-4.142,0-7.499,3.357-7.499,7.499v17.165c0,4.142,3.357,7.499,7.499,7.499
			c4.142,0,7.499-3.357,7.499-7.499V332.79C364.48,328.648,361.123,325.291,356.981,325.291z"/>
	</g>
</g>
<g>
	<g>
		<path d="M356.981,268.376c-4.142,0-7.499,3.357-7.499,7.499v17.165c0,4.142,3.357,7.499,7.499,7.499
			c4.142,0,7.499-3.357,7.499-7.499v-17.165C364.48,271.733,361.123,268.376,356.981,268.376z"/>
	</g>
</g>
<g>
	<g>
		<path d="M356.981,211.46c-4.142,0-7.499,3.357-7.499,7.499v17.166c0,4.142,3.357,7.499,7.499,7.499
			c4.142,0,7.499-3.357,7.499-7.499V218.96C364.48,214.817,361.123,211.46,356.981,211.46z"/>
	</g>
</g>
<g>
	<g>
		<path d="M356.981,154.546c-4.142,0-7.499,3.357-7.499,7.499v17.165c0,4.142,3.357,7.499,7.499,7.499
			c4.142,0,7.499-3.357,7.499-7.499v-17.165C364.48,157.903,361.123,154.546,356.981,154.546z"/>
	</g>
</g>
<g>
	<g>
		<path d="M462.961,159.018h-59.489c-4.142,0-7.499,3.357-7.499,7.499c0,4.142,3.357,7.499,7.499,7.499h59.489
			c4.142,0,7.499-3.357,7.499-7.499C470.459,162.375,467.102,159.018,462.961,159.018z"/>
	</g>
</g>
<g>
	<g>
		<path d="M462.961,218.674h-59.489c-4.142,0-7.499,3.357-7.499,7.499c0,4.142,3.357,7.499,7.499,7.499h59.489
			c4.142,0,7.499-3.357,7.499-7.499C470.46,222.031,467.102,218.674,462.961,218.674z"/>
	</g>
</g>
<g>
	<g>
		<path d="M462.961,278.328h-59.489c-4.142,0-7.499,3.357-7.499,7.499c0,4.142,3.357,7.499,7.499,7.499h59.489
			c4.142,0,7.499-3.357,7.499-7.499C470.459,281.685,467.102,278.328,462.961,278.328z"/>
	</g>
</g>
<g>
	<g>
		<path d="M462.961,337.984h-59.489c-4.142,0-7.499,3.357-7.499,7.499c0,4.142,3.357,7.499,7.499,7.499h59.489
			c4.142,0,7.499-3.357,7.499-7.499C470.46,341.341,467.102,337.984,462.961,337.984z"/>
	</g>
</g>
<g>
	<g>
		<path d="M137.431,303.563h-11.504c-4.142,0-7.499,3.357-7.499,7.499c0,4.142,3.357,7.499,7.499,7.499h11.504
			c4.142,0,7.499-3.357,7.499-7.499C144.93,306.92,141.573,303.563,137.431,303.563z"/>
	</g>
</g>
<g>
	<g>
		<path d="M229.218,303.562h-11.505c-4.142,0-7.499,3.357-7.499,7.499c0,4.142,3.358,7.499,7.499,7.499h11.505
			c4.142,0,7.499-3.357,7.499-7.499C236.717,306.919,233.36,303.562,229.218,303.562z"/>
	</g>
</g>
<g>
	<g>
		<path d="M278.027,179.695h-12.37c-2.666-19.844-19.698-35.2-40.26-35.2h-95.651c-20.562,0-37.594,15.356-40.26,35.2h-12.37
			c-7.313,0-13.262,5.949-13.262,13.262v17.967c0,11.474,9.335,20.81,20.81,20.81h4.449v86.564c0,11.233,7.23,20.804,17.279,24.319
			v10.302c0,8.044,6.544,14.588,14.588,14.588h15.249c8.044,0,14.588-6.544,14.588-14.588v-8.861h53.511v8.861
			c0,8.044,6.544,14.588,14.587,14.588h15.249c8.044,0,14.588-6.544,14.588-14.588v-10.302
			c10.049-3.514,17.279-13.085,17.279-24.319v-86.564h4.449c11.474,0,20.81-9.335,20.81-20.81v-17.967
			C291.29,185.643,285.34,179.695,278.027,179.695z M89.114,216.735h-0.001h-4.449c-3.205,0-5.812-2.608-5.812-5.812v-16.232h10.262
			V216.735z M104.109,194.691h21.828c4.142,0,7.499-3.357,7.499-7.499c0-4.142-3.357-7.499-7.499-7.499h-21.243
			c2.5-11.534,12.78-20.203,25.051-20.203h95.651c12.271,0,22.552,8.669,25.052,20.203h-89.62c-4.142,0-7.499,3.357-7.499,7.499
			c0,4.142,3.357,7.499,7.499,7.499h90.206v0v83.531c-18.21,1.463-42.862,2.205-73.462,2.205c-30.601,0-55.253-0.742-73.463-2.205
			V194.691z M135.82,352.507h-14.431v-8.452h14.431V352.507z M233.755,352.507h-14.43v-8.452h14.43V352.507z M251.036,318.297
			c0,5.671-4.413,10.321-9.983,10.723c-0.067,0.002-0.132-0.003-0.199,0l-125.939,0.039l-0.623-0.039
			c-0.065-0.003-0.13,0.001-0.195,0c-5.572-0.401-9.986-5.051-9.986-10.723v-25.032c18.506,1.432,43.149,2.159,73.463,2.159
			c30.312,0,54.956-0.727,73.462-2.159V318.297z M276.294,210.924L276.294,210.924c-0.001,3.204-2.608,5.812-5.813,5.812h-4.449
			V194.69h10.262V210.924z"/>
	</g>
</g>
<g>
	<g>
		<path d="M491.381,105.297H375.276c-5.49,0-9.956,4.466-9.956,9.956c0,4.599-3.741,8.339-8.339,8.339
			c-4.598,0-8.339-3.74-8.339-8.339c0-5.49-4.466-9.956-9.956-9.956H20.619C9.25,105.297,0,114.547,0,125.916v260.166
			c0,11.37,9.25,20.619,20.619,20.619h318.066c5.49,0,9.956-4.466,9.956-9.956c0-4.598,3.741-8.339,8.339-8.339
			c4.598,0,8.339,3.741,8.339,8.339c0,5.49,4.466,9.956,9.956,9.956H491.38c11.369,0,20.619-9.249,20.619-20.619V125.916
			C512,114.547,502.75,105.297,491.381,105.297z M497.004,386.082h-0.001c0,3.1-2.522,5.622-5.622,5.622H379.769
			c-2.311-10.453-11.651-18.295-22.789-18.295s-20.478,7.842-22.789,18.295H20.619c-3.1,0-5.622-2.522-5.622-5.622V125.916
			c0-3.1,2.522-5.622,5.622-5.622h313.573c2.311,10.453,11.651,18.295,22.789,18.295s20.478-7.842,22.789-18.295h111.612
			c3.1,0,5.622,2.522,5.622,5.622V386.082z"/>
	</g>
</g>
<g>
</g>
<g>
</g>
<g>
</g>
<g>
</g>
<g>
</g>
<g>
</g>
<g>
</g>
<g>
</g>
<g>
</g>
<g>
</g>
<g>
</g>
<g>
</g>
<g>
</g>
<g>
</g>
<g>
</g>
</svg>
