<?xml version="1.0" encoding="iso-8859-1"?>
<!-- Generator: Adobe Illustrator 19.0.0, SVG Export Plug-In . SVG Version: 6.00 Build 0)  -->
<svg version="1.1" id="Capa_1" xmlns="http://www.w3.org/2000/svg" xmlns:xlink="http://www.w3.org/1999/xlink" x="0px" y="0px"
	 viewBox="0 0 512 512" style="enable-background:new 0 0 512 512;" xml:space="preserve">
<g>
	<g>
		<path d="M498.435,287.674c-2.712-6.249-8.31-10.817-14.975-12.222l-25.82-5.441V218.68h7.58c6.889,0,12.494-5.605,12.494-12.495
			v-17.401c0-6.89-5.605-12.494-12.494-12.494h-44.869v-68.502H440.6c7.057,0,12.798-5.741,12.798-12.797V78.195
			c0-7.057-5.741-12.798-12.798-12.798h-54.58c-4.14,0-7.496,3.356-7.496,7.496s3.356,7.496,7.496,7.496h52.386v12.406H85.535
			V80.389h265.606c4.14,0,7.496-3.356,7.496-7.496s-3.356-7.496-7.496-7.496h-19.703L310.57,12.491
			C307.576,4.904,300.37,0,292.213,0h-72.425c-8.158,0-15.364,4.904-18.358,12.493l-20.868,52.905H83.34
			c-7.056,0-12.797,5.741-12.797,12.798v16.795c0,7.056,5.741,12.797,12.797,12.797h8.309v68.502H58.72
			c-6.889,0-12.494,5.604-12.494,12.494v17.401c0,6.89,5.605,12.495,12.494,12.495h7.58v48.815l-37.76,7.957
			c-6.665,1.405-12.263,5.973-14.975,12.222c-2.712,6.247-2.228,13.456,1.296,19.283c0.05,0.082,0.101,0.163,0.153,0.243
			l126.661,192.38c5.12,7.777,13.736,12.42,23.047,12.42h182.556c9.311,0,17.927-4.643,23.048-12.42l126.813-192.623
			C500.663,301.13,501.148,293.921,498.435,287.674z M215.375,17.995c0.719-1.824,2.452-3.003,4.413-3.003h72.425
			c1.961,0,3.693,1.179,4.413,3.002l18.698,47.404H196.677L215.375,17.995z M106.641,107.787H405.36v68.502H106.641V107.787z
			 M61.217,203.688v-12.406h401.505v12.406c-0.006,0,0,0-0.006,0H61.217z M442.648,218.68v48.172l-178.162-37.545
			c-5.632-1.187-11.341-1.187-16.973,0c0,0,0,0-0.001,0L81.291,264.336V218.68H442.648z M452.225,347.924l-191.883-40.437
			c-2.879-0.606-5.801-0.606-8.686,0L147.03,329.535c-4.051,0.854-6.643,4.829-5.789,8.881c0.854,4.051,4.828,6.639,8.881,5.789
			l104.625-22.048c0.832-0.176,1.674-0.176,2.503,0l186.115,39.222l-85.562,129.958c-2.339,3.551-6.274,5.672-10.526,5.672H164.722
			c-4.253,0-8.188-2.121-10.525-5.672L68.634,361.378l47.362-9.982c4.051-0.854,6.643-4.829,5.789-8.881
			c-0.854-4.051-4.834-6.64-8.881-5.789l-53.129,11.197l-11.304-17.169l202.132-42.597c3.582-0.753,7.212-0.753,10.792,0
			l202.133,42.597L452.225,347.924z M484.37,299.1l-11.982,18.2l-207.901-43.813c-5.632-1.187-11.342-1.187-16.974,0L39.613,317.3
			L27.63,299.1c-0.976-1.684-1.092-3.665-0.314-5.457c0.794-1.827,2.367-3.111,4.316-3.521l218.972-46.146
			c3.58-0.753,7.213-0.753,10.791,0l218.949,46.141c0.024,0.005,0,0,0.024,0.005c1.949,0.411,3.522,1.694,4.316,3.521
			C485.462,295.435,485.346,297.417,484.37,299.1z"/>
	</g>
</g>
<g>
	<g>
		<path d="M194.132,115.218h-61.509c-6.299,0-11.423,5.124-11.423,11.423v25.658c0,6.299,5.124,11.423,11.423,11.423h61.509
			c6.298,0,11.422-5.124,11.422-11.423v-25.658C205.554,120.342,200.43,115.218,194.132,115.218z M190.562,148.731H136.19V130.21
			h54.372V148.731z"/>
	</g>
</g>
<g>
	<g>
		<path d="M286.755,115.218h-61.509c-6.299,0-11.423,5.124-11.423,11.423v25.658c0,6.299,5.124,11.423,11.423,11.423h61.509
			c6.299,0,11.423-5.124,11.423-11.423v-25.658C298.178,120.342,293.054,115.218,286.755,115.218z M283.186,148.731h-54.372V130.21
			h54.372V148.731z"/>
	</g>
</g>
<g>
	<g>
		<path d="M379.378,115.218h-61.509c-6.298,0-11.422,5.124-11.422,11.423v25.658c0,6.299,5.124,11.423,11.422,11.423h61.509
			c6.299,0,11.423-5.124,11.423-11.423v-25.658C390.801,120.342,385.677,115.218,379.378,115.218z M375.809,148.731h-54.371V130.21
			h54.371V148.731z"/>
	</g>
</g>
<g>
</g>
<g>
</g>
<g>
</g>
<g>
</g>
<g>
</g>
<g>
</g>
<g>
</g>
<g>
</g>
<g>
</g>
<g>
</g>
<g>
</g>
<g>
</g>
<g>
</g>
<g>
</g>
<g>
</g>
</svg>
