<?xml version="1.0" encoding="iso-8859-1"?>
<!-- Generator: Adobe Illustrator 19.0.0, SVG Export Plug-In . SVG Version: 6.00 Build 0)  -->
<svg version="1.1" id="Capa_1" xmlns="http://www.w3.org/2000/svg" xmlns:xlink="http://www.w3.org/1999/xlink" x="0px" y="0px"
	 viewBox="0 0 512 512" style="enable-background:new 0 0 512 512;" xml:space="preserve">
<g>
	<g>
		<path d="M285.523,110.347l-22.01-13.087V66.144c0-4.149-3.363-7.512-7.512-7.512s-7.512,3.363-7.512,7.512v35.389
			c-0.001,2.65,1.395,5.103,3.672,6.457l25.683,15.271c1.204,0.716,2.527,1.056,3.832,1.056c2.562,0,5.059-1.312,6.464-3.674
			C290.261,117.077,289.089,112.467,285.523,110.347z"/>
	</g>
</g>
<g>
	<g>
		<path d="M256,4.764c-53.359,0-96.77,43.41-96.77,96.77s43.411,96.769,96.77,96.769s96.77-43.41,96.77-96.77
			C352.77,48.173,309.359,4.764,256,4.764z M256,183.279c-45.075,0-81.745-36.671-81.745-81.745S210.925,19.788,256,19.788
			c45.074,0,81.745,36.671,81.745,81.745C337.745,146.607,301.075,183.279,256,183.279z"/>
	</g>
</g>
<g>
	<g>
		<path d="M256,31.017c-38.882,0-70.515,31.633-70.515,70.516c0,38.882,31.633,70.515,70.515,70.515
			c38.883,0,70.516-31.633,70.516-70.515C326.516,62.65,294.883,31.017,256,31.017z M256,157.023
			c-30.598,0-55.491-24.892-55.491-55.49c0-30.598,24.893-55.491,55.491-55.491s55.491,24.893,55.491,55.491
			C311.491,132.131,286.598,157.023,256,157.023z"/>
	</g>
</g>
<g>
	<g>
		<path d="M499.63,391.639h-20.804v-90.345c0-15.272-12.425-27.697-27.697-27.697h-76.375c-15.272,0-27.697,12.425-27.697,27.697
			v25.613c0,4.149,3.363,7.512,7.512,7.512s7.512-3.363,7.512-7.512v-25.613c0-6.988,5.685-12.673,12.673-12.673h76.375
			c6.988,0,12.673,5.685,12.673,12.673v90.345h-101.72V361.86c0-4.149-3.363-7.512-7.512-7.512s-7.512,3.363-7.512,7.512v29.778
			h-25.173v-90.345c0-15.272-12.425-27.697-27.697-27.697h-76.375c-15.273,0-27.697,12.425-27.697,27.697v90.345h-25.173v-90.345
			c0-15.272-12.425-27.697-27.697-27.697H60.872c-15.273,0-27.697,12.425-27.697,27.697v90.345H12.37
			c-6.821,0-12.37,5.55-12.37,12.371v22.393c0,6.822,5.549,12.37,12.37,12.37h36.581v53.438h-3.435
			c-4.149,0-7.512,3.363-7.512,7.512s3.363,7.512,7.512,7.512H67.41c4.149,0,7.512-3.363,7.512-7.512s-3.363-7.512-7.512-7.512
			h-3.435v-53.438h15.043c4.149,0,7.512-3.363,7.512-7.512s-3.363-7.512-7.512-7.512H15.024v-17.087h481.952c0.007,0,0,0,0.007,0
			c0.006,0.002-0.014,0.002-0.007,0.002v17.087H113.972c-4.149,0-7.512,3.363-7.512,7.512s3.363,7.512,7.512,7.512h334.053v53.438
			h-3.434c-4.149,0-7.512,3.363-7.512,7.512s3.363,7.512,7.512,7.512h21.894c4.149,0,7.512-3.363,7.512-7.512
			s-3.363-7.512-7.512-7.512h-3.435v-53.438h36.58c6.822,0,12.37-5.549,12.37-12.37V404.01
			C512,397.189,506.451,391.639,499.63,391.639z M149.919,391.639H48.198v-90.345c0-6.988,5.685-12.673,12.673-12.673h76.375
			c6.988,0,12.673,5.685,12.673,12.673V391.639z M306.861,391.639h-0.001H205.14v-90.345c0-6.988,5.685-12.673,12.673-12.673h76.375
			c6.988,0,12.673,5.685,12.673,12.673V391.639z"/>
	</g>
</g>
<g>
</g>
<g>
</g>
<g>
</g>
<g>
</g>
<g>
</g>
<g>
</g>
<g>
</g>
<g>
</g>
<g>
</g>
<g>
</g>
<g>
</g>
<g>
</g>
<g>
</g>
<g>
</g>
<g>
</g>
</svg>
