<?xml version="1.0" encoding="iso-8859-1"?>
<!-- Generator: Adobe Illustrator 19.0.0, SVG Export Plug-In . SVG Version: 6.00 Build 0)  -->
<svg version="1.1" id="Capa_1" xmlns="http://www.w3.org/2000/svg" xmlns:xlink="http://www.w3.org/1999/xlink" x="0px" y="0px"
	 viewBox="0 0 512.002 512.002" style="enable-background:new 0 0 512.002 512.002;" xml:space="preserve">
<g>
	<g>
		<path d="M182.784,89.383h-25.862c-2.083,0-3.015,2.176-3.015,4.332c0,2.621,1.24,4.452,3.015,4.452h8.06v32.306
			c0,2.112,2.525,3.074,4.871,3.074c2.346,0,4.87-0.962,4.87-3.074V98.167h8.06c1.775,0,3.015-1.831,3.015-4.452
			C185.799,91.56,184.867,89.383,182.784,89.383z"/>
	</g>
</g>
<g>
	<g>
		<path d="M198.828,89.383c-2.247,0-4.871,0.79-4.871,3.016v38.074c0,2.112,2.525,3.074,4.871,3.074s4.87-0.962,4.87-3.074V92.399
			C203.7,90.174,201.076,89.383,198.828,89.383z"/>
	</g>
</g>
<g>
	<g>
		<path d="M238.997,116.564c-3.073,0-4.647,0.982-4.81,3c-0.178,2.31-0.447,5.801-5.068,5.801c-3.481,0-5.246-1.947-5.246-5.785
			v-15.864c0.001-3.842,1.746-5.788,5.187-5.788c4.927,0,5.067,3.64,5.127,5.198c0.111,1.993,1.749,3.004,4.87,3.004
			c3.084,0,4.87-0.758,4.87-4.631c0-7.359-5.977-12.114-15.227-12.114c-9.258,0-14.569,5.223-14.569,14.33v15.864
			c0,9.106,5.31,14.329,14.569,14.329c9.25,0,15.227-4.991,15.227-12.713C243.927,117.321,242.12,116.564,238.997,116.564z"/>
	</g>
</g>
<g>
	<g>
		<path d="M283.945,127.369l-12.31-18.855l9.732-12.225c0.527-0.724,0.637-1.441,0.637-1.914c0-2.523-3.269-4.991-5.709-4.991
			c-1.114,0-1.971,0.459-2.619,1.403l-10.829,15.347V92.399c0-2.225-2.624-3.016-4.87-3.016c-2.247,0-4.871,0.79-4.871,3.016v38.074
			c0,2.112,2.525,3.074,4.871,3.074s4.87-0.962,4.87-3.074v-10.767l2.299-2.957l10.08,15.325c0.741,1.199,1.918,1.832,3.403,1.832
			c2.887,0,5.828-2.458,5.828-4.871C284.456,128.479,284.281,127.905,283.945,127.369z"/>
	</g>
</g>
<g>
	<g>
		<path d="M317.424,125.003h-15.843v-9.774h8.779c2.071,0,3.015-1.935,3.015-3.733c0-1.914-1.036-3.853-3.015-3.853h-8.779v-9.715
			h15.843c1.775,0,3.015-1.782,3.015-4.332c0-2.097-0.933-4.212-3.015-4.212h-21.312c-2.058,0-4.272,0.963-4.272,3.075v38.014
			c0,2.112,2.215,3.074,4.272,3.074h21.312c2.083,0,3.015-2.115,3.015-4.212C320.439,126.785,319.199,125.003,317.424,125.003z"/>
	</g>
</g>
<g>
	<g>
		<path d="M355.078,89.383h-25.862c-2.083,0-3.015,2.176-3.015,4.332c0,2.621,1.24,4.452,3.015,4.452h8.06v32.306
			c0,2.112,2.525,3.074,4.871,3.074s4.87-0.962,4.87-3.074V98.167h8.06c1.775,0,3.015-1.831,3.015-4.452
			C358.094,91.56,357.161,89.383,355.078,89.383z"/>
	</g>
</g>
<g>
	<g>
		<path d="M344.594,376.271c-5.106,0-9.26-4.154-9.26-9.261c0-4.164-3.375-7.539-7.539-7.539H184.206
			c-4.164,0-7.539,3.375-7.539,7.539c0,5.107-4.154,9.261-9.26,9.261c-4.164,0-7.539,3.375-7.539,7.539v44.807
			c0,4.164,3.375,7.539,7.539,7.539c5.106,0,9.26,4.154,9.26,9.26c0,4.164,3.375,7.539,7.539,7.539h143.588
			c4.164,0,7.539-3.375,7.539-7.539c0-5.106,4.154-9.26,9.26-9.26c4.164,0,7.539-3.375,7.539-7.539V383.81
			C352.133,379.646,348.758,376.271,344.594,376.271z M337.056,422.273c-7.367,2.406-13.199,8.237-15.605,15.604h-130.9
			c-2.406-7.367-8.237-13.198-15.605-15.604v-32.118h0.001c7.367-2.406,13.199-8.238,15.605-15.605h130.899
			c2.406,7.367,8.237,13.199,15.605,15.605V422.273z"/>
	</g>
</g>
<g>
	<g>
		<path d="M456.687,466.115h-0.632V79.379h-0.001c7.438-0.195,13.433-6.294,13.433-13.778V50.449c0-0.429-0.044-0.846-0.113-1.256
			C467.781,21.532,445.07,0,417.237,0H94.764C66.932,0,44.221,21.532,42.628,49.193c-0.069,0.409-0.113,0.827-0.113,1.256v15.153
			c0,7.484,5.995,13.582,13.433,13.778v386.735h-0.632c-7.058,0-12.801,5.743-12.801,12.802v20.284
			c0,7.058,5.742,12.801,12.801,12.801h401.371c7.059,0,12.801-5.743,12.801-12.801v-20.284
			C469.487,471.858,463.745,466.115,456.687,466.115z M94.764,15.078h322.471c17.324,0,31.867,11.721,35.991,27.832H58.774
			C62.899,26.799,77.44,15.078,94.764,15.078z M454.409,496.922H57.592v-15.73h396.816V496.922z M117.696,331.235H71.026v-173.9
			h288.2c4.164,0,7.539-3.375,7.539-7.539s-3.375-7.539-7.539-7.539h-288.2v-62.86h369.951v62.859h-46.672
			c-4.164,0-7.539,3.375-7.539,7.539s3.375,7.539,7.539,7.539h46.672v173.9H302.52v-36.5c0-24.77-20.152-44.921-44.921-44.921
			h-3.196c-24.769,0-44.921,20.151-44.921,44.921v36.5h-56.706c-4.164,0-7.539,3.375-7.539,7.539s3.375,7.539,7.539,7.539h288.2
			v119.802H71.026V346.313h46.672c4.164,0,7.539-3.375,7.539-7.539S121.86,331.235,117.696,331.235z M287.442,294.734v36.5H224.56
			v-36.5c0-16.455,13.388-29.843,29.843-29.843h3.196C274.054,264.891,287.442,278.279,287.442,294.734z M454.409,64.319H57.592
			v-6.332h396.816V64.319z"/>
	</g>
</g>
<g>
</g>
<g>
</g>
<g>
</g>
<g>
</g>
<g>
</g>
<g>
</g>
<g>
</g>
<g>
</g>
<g>
</g>
<g>
</g>
<g>
</g>
<g>
</g>
<g>
</g>
<g>
</g>
<g>
</g>
</svg>
