<?xml version="1.0" encoding="iso-8859-1"?>
<!-- Generator: Adobe Illustrator 19.0.0, SVG Export Plug-In . SVG Version: 6.00 Build 0)  -->
<svg version="1.1" id="Capa_1" xmlns="http://www.w3.org/2000/svg" xmlns:xlink="http://www.w3.org/1999/xlink" x="0px" y="0px"
	 viewBox="0 0 512 512" style="enable-background:new 0 0 512 512;" xml:space="preserve">
<g>
	<g>
		<path d="M499.662,425.717V233.545c6.893-0.542,12.338-6.312,12.338-13.342c0-18.852-15.338-34.19-34.191-34.19H326.603v-11.647
			c0-7.177-5.839-13.016-13.016-13.016h-53.789l-61.638-55.571l60.079-51.396h51.395c6.834,0,12.404-5.46,12.61-12.245h51.394
			c4.166,0,7.543-3.377,7.543-7.543c0-4.166-3.377-7.543-7.543-7.543h-51.394c-0.206-6.784-5.776-12.245-12.61-12.245H202.365
			c-6.834,0-12.404,5.46-12.61,12.245h-51.394c-4.166,0-7.543,3.377-7.543,7.543c0,4.166,3.377,7.543,7.543,7.543h51.394
			c0.206,6.784,5.776,12.245,12.61,12.245h32.81l-49.48,42.2c-2.627,2.24-4.162,5.505-4.211,8.956
			c-0.05,3.452,1.392,6.76,3.955,9.077l51.775,46.734h-38.802c-7.177,0-13.016,5.839-13.016,13.016v11.647H34.191
			C15.338,186.014,0,201.351,0,220.203c0,7.03,5.445,12.8,12.338,13.342v192.172C5.526,425.776,0,431.332,0,438.158v16.185
			c0,6.862,5.584,12.446,12.446,12.446h32.478c3.508,17.322,18.85,30.404,37.191,30.404s33.683-13.081,37.191-30.404h19.273
			c3.508,17.322,18.85,30.404,37.191,30.404c18.343,0,33.684-13.081,37.192-30.404h86.074c3.508,17.322,18.85,30.404,37.192,30.404
			c18.342,0,33.684-13.081,37.191-30.404h19.273c3.508,17.322,18.85,30.404,37.191,30.404s33.684-13.081,37.191-30.404h32.478
			c6.862,0,12.446-5.584,12.446-12.446v-16.185C512,431.332,506.474,425.776,499.662,425.717z M204.822,39.297v-9.403h102.356v9.403
			H204.822z M200.483,176.437h111.035v9.577H200.483V176.437z M34.191,201.099h443.618c9.965,0,18.172,7.669,19.031,17.414h-67.878
			c-4.166,0-7.543,3.377-7.543,7.543c0,4.166,3.377,7.543,7.543,7.543h55.614v26.67h-40.717c-9.669,0-17.536,7.867-17.536,17.536
			v50.104h-11.066V284.7c0-13.471-10.959-24.431-24.43-24.431H343.44c-13.472,0-24.432,10.96-24.432,24.431v43.209h-14.883V284.7
			c0-13.471-10.96-24.431-24.431-24.431h-47.387c-13.471,0-24.431,10.96-24.431,24.431v43.209h-14.883V284.7
			c0-13.471-10.96-24.431-24.431-24.431h-47.387c-13.471,0-24.431,10.96-24.431,24.431v43.209H85.677v-50.104
			c0-9.669-7.867-17.536-17.536-17.536H27.424v-26.67h366.441c4.166,0,7.543-3.377,7.543-7.543s-3.377-7.543-7.543-7.543H15.16
			C16.019,208.768,24.226,201.099,34.191,201.099z M443.859,388.573h40.717v37.137h-69.32v-82.715c0-0.007,0,0,0-0.007
			c0.001-0.006,0.001,0.014,0.001,0.007h11.066v28.043C426.323,380.707,434.19,388.573,443.859,388.573z M443.859,373.488
			c-1.351,0-2.45-1.099-2.45-2.449c0-0.007,0,0,0-0.007v-93.226c0-1.351,1.099-2.451,2.45-2.451h40.717v98.133H443.859z
			 M400.171,388.574v37.137h-66.078v-37.137H400.171z M334.093,373.488V284.7c0-5.153,4.193-9.345,9.346-9.345h47.387
			c5.152,0,9.344,4.192,9.344,9.345v88.788H334.093z M222.109,388.574h67.783c7.848,0,14.233-6.385,14.233-14.233v-31.345h14.883
			v82.716H192.993v-82.716h14.883v31.345C207.875,382.189,214.26,388.574,222.109,388.574z M222.961,373.488V284.7
			c0-5.153,4.192-9.345,9.345-9.345h47.387c5.153,0,9.345,4.192,9.345,9.345v88.788H222.961z M177.907,388.574v37.137h-66.078
			v-37.137H177.907z M111.829,373.488V284.7c0-5.153,4.192-9.345,9.345-9.345h47.387c5.153,0,9.345,4.192,9.345,9.345v88.788
			H111.829z M70.591,277.806v93.226v0.007c0,1.35-1.099,2.449-2.45,2.449H27.424v-98.133h40.717
			C69.492,275.355,70.591,276.454,70.591,277.806z M82.115,482.106c-9.963,0-18.459-6.408-21.582-15.318h43.164
			C100.574,475.699,92.078,482.106,82.115,482.106z M175.771,482.106c-9.963,0-18.459-6.408-21.582-15.318h43.165
			C194.23,475.699,185.735,482.106,175.771,482.106z M336.229,482.106c-9.964,0-18.46-6.408-21.583-15.318h43.165
			C354.688,475.699,346.192,482.106,336.229,482.106z M429.885,482.106c-9.963,0-18.459-6.408-21.582-15.318h43.164
			C448.344,475.699,439.848,482.106,429.885,482.106z M496.914,451.702H15.086v-10.905H40.62c4.166,0,7.543-3.377,7.543-7.543
			c0-4.166-3.377-7.543-7.543-7.543H27.424v-37.137h40.717c9.669,0,17.536-7.866,17.536-17.535v-28.043h11.066c0,0.007,0,0,0,0.007
			v82.71H75.796c-4.166,0-7.543,3.377-7.543,7.543c0,4.166,3.377,7.543,7.543,7.543h421.118V451.702z"/>
	</g>
</g>
<g>
</g>
<g>
</g>
<g>
</g>
<g>
</g>
<g>
</g>
<g>
</g>
<g>
</g>
<g>
</g>
<g>
</g>
<g>
</g>
<g>
</g>
<g>
</g>
<g>
</g>
<g>
</g>
<g>
</g>
</svg>
