<?xml version="1.0" encoding="iso-8859-1"?>
<!-- Generator: Adobe Illustrator 19.0.0, SVG Export Plug-In . SVG Version: 6.00 Build 0)  -->
<svg version="1.1" id="Capa_1" xmlns="http://www.w3.org/2000/svg" xmlns:xlink="http://www.w3.org/1999/xlink" x="0px" y="0px"
	 viewBox="0 0 512 512" style="enable-background:new 0 0 512 512;" xml:space="preserve">
<g>
	<g>
		<path d="M253.732,299.117H240.04c-4.143,0-7.5,3.357-7.5,7.5s3.357,7.5,7.5,7.5h13.692c4.143,0,7.5-3.357,7.5-7.5
			S257.875,299.117,253.732,299.117z"/>
	</g>
</g>
<g>
	<g>
		<path d="M205.143,299.117h-130.7c-4.143,0-7.5,3.357-7.5,7.5s3.357,7.5,7.5,7.5h130.699c4.143,0,7.5-3.357,7.5-7.5
			S209.285,299.117,205.143,299.117z"/>
	</g>
</g>
<g>
	<g>
		<path d="M491.293,216.481l-89.972-68.104c-23.052-17.447-51.667-27.057-80.574-27.057H19.909c-10.793,0-19.573,8.78-19.573,19.573
			v199.983c0,10.793,8.78,19.573,19.573,19.573h6.592c1.14,5.631,3.54,10.809,6.889,15.231H7.5c-4.143,0-7.5,3.357-7.5,7.5
			s3.357,7.5,7.5,7.5h496.613c4.143,0,7.5-3.357,7.5-7.5s-3.357-7.5-7.5-7.5h-59.875c3.349-4.422,5.749-9.6,6.889-15.231h27.765
			c18.256,0,33.108-14.853,33.108-33.108v-64.077v-5.138C512,241.864,504.259,226.297,491.293,216.481z M410.006,173.765
			L410.006,173.765l72.234,54.678c0.559,0.423,1.102,0.862,1.633,1.314c0.178,0.152,0.347,0.313,0.522,0.468
			c0.347,0.307,0.694,0.613,1.028,0.932c0.201,0.191,0.391,0.391,0.587,0.587c0.295,0.295,0.592,0.589,0.876,0.893
			c0.201,0.215,0.394,0.437,0.589,0.656c0.266,0.297,0.531,0.595,0.786,0.9c0.194,0.232,0.38,0.469,0.568,0.705
			c0.243,0.305,0.484,0.611,0.718,0.923c0.183,0.245,0.359,0.494,0.536,0.743c0.223,0.314,0.443,0.63,0.656,0.951
			c0.17,0.256,0.336,0.516,0.499,0.776c0.204,0.324,0.403,0.651,0.597,0.981c0.156,0.266,0.309,0.533,0.458,0.803
			c0.186,0.335,0.365,0.674,0.541,1.015c0.14,0.273,0.28,0.546,0.413,0.822c0.168,0.347,0.328,0.699,0.486,1.051
			c0.124,0.277,0.248,0.554,0.365,0.834c0.151,0.362,0.292,0.728,0.432,1.094c0.106,0.278,0.215,0.554,0.314,0.834
			c0.135,0.381,0.258,0.767,0.381,1.152c0.087,0.272,0.178,0.541,0.259,0.815c0.121,0.413,0.228,0.831,0.335,1.249
			c0.065,0.251,0.136,0.5,0.195,0.753c0.115,0.491,0.213,0.987,0.308,1.483c0.035,0.183,0.079,0.365,0.111,0.549
			c0.121,0.684,0.223,1.371,0.305,2.063c0.015,0.124,0.021,0.249,0.034,0.374c0.058,0.532,0.108,1.066,0.142,1.602H346.119
			c-2.894,0-5.248-2.354-5.248-5.248v-71.503c0-2.895,2.354-5.249,5.248-5.249H410.006z M15.336,173.765H75v13.07
			c0,4.143,3.357,7.5,7.5,7.5s7.5-3.357,7.5-7.5v-13.07h107.5v82H90v-34.032c0-4.143-3.357-7.5-7.5-7.5s-7.5,3.357-7.5,7.5v34.032
			H15.336V173.765z M63.48,375.681c-9.906,0-18.347-6.372-21.453-15.23h42.906C81.827,369.309,73.386,375.681,63.48,375.681z
			 M93.571,375.682c3.349-4.422,5.749-9.6,6.889-15.231h28.041c1.14,5.631,3.54,10.809,6.889,15.231H93.571z M165.48,375.681
			c-9.906,0-18.347-6.372-21.453-15.23h42.906C183.827,369.309,175.386,375.681,165.48,375.681z M195.571,375.682
			c3.349-4.422,5.749-9.6,6.889-15.231h72.707c1.14,5.631,3.54,10.809,6.889,15.231H195.571z M312.146,375.681
			c-9.906,0-18.347-6.372-21.453-15.23H333.6C330.494,369.309,322.053,375.681,312.146,375.681z M342.238,375.682
			c3.349-4.422,5.749-9.6,6.889-15.231h28.04c1.14,5.631,3.54,10.809,6.889,15.231H342.238z M414.146,375.681
			c-9.906,0-18.347-6.372-21.453-15.23H435.6C432.494,369.309,424.053,375.681,414.146,375.681z M497,327.342
			c0,9.985-8.123,18.108-18.108,18.108H19.909c-2.521,0-4.573-2.052-4.573-4.573v-70.112h259.987
			c10.85,0,19.677-8.827,19.677-19.677v-72.647c0-10.85-8.827-19.677-19.677-19.677H15.336v-17.871c0-2.521,2.052-4.573,4.573-4.573
			h300.838c24.765,0,49.276,7.966,69.351,22.444h-43.979c-11.165,0-20.248,9.084-20.248,20.249v71.503
			c0,11.165,9.083,20.248,20.248,20.248H497V327.342z M212.5,255.765v-82h62.823c2.579,0,4.677,2.098,4.677,4.677v72.646
			c0,2.579-2.098,4.677-4.677,4.677H212.5z"/>
	</g>
</g>
<g>
</g>
<g>
</g>
<g>
</g>
<g>
</g>
<g>
</g>
<g>
</g>
<g>
</g>
<g>
</g>
<g>
</g>
<g>
</g>
<g>
</g>
<g>
</g>
<g>
</g>
<g>
</g>
<g>
</g>
</svg>
