<?xml version="1.0" encoding="iso-8859-1"?>
<!-- Generator: Adobe Illustrator 19.0.0, SVG Export Plug-In . SVG Version: 6.00 Build 0)  -->
<svg version="1.1" id="Capa_1" xmlns="http://www.w3.org/2000/svg" xmlns:xlink="http://www.w3.org/1999/xlink" x="0px" y="0px"
	 viewBox="0 0 512 512" style="enable-background:new 0 0 512 512;" xml:space="preserve">
<g>
	<g>
		<path d="M511.927,250.896c-0.007-8.631-6.755-15.872-15.362-16.486l-74.989-5.362l-8.647-88.016
			c-1.432-14.582-13.56-25.578-28.212-25.578H24.361C10.928,115.453,0,126.383,0,139.817v190.587
			c0,13.433,10.928,24.361,24.361,24.361h23.775c3.625,23.627,24.09,41.781,48.715,41.781s45.09-18.153,48.715-41.781h220.867
			c3.625,23.627,24.09,41.781,48.715,41.781c24.626,0,45.09-18.153,48.716-41.781h20.619c15.173,0,27.517-12.344,27.517-27.524
			L511.927,250.896z M496.956,293.7h-15.461c-1.191,0-2.16-0.969-2.16-2.16v-12.026c0-1.191,0.969-2.16,2.16-2.16h15.445
			L496.956,293.7z M405.213,216.034l1.235,12.571h-73.67v-12.571H405.213z M403.739,201.023h-70.96v-45.034h66.536L403.739,201.023z
			 M96.851,381.534c-18.899,0-34.274-15.376-34.274-34.275s15.375-34.274,34.274-34.274s34.274,15.375,34.274,34.274
			C131.126,366.157,115.751,381.534,96.851,381.534z M224.1,228.606H84.3c-4.145,0-7.506,3.36-7.506,7.506s3.36,7.506,7.506,7.506
			h139.8v96.137h-78.534c-3.625-23.627-24.09-41.78-48.715-41.78s-45.09,18.153-48.715,41.78H24.361c-5.156,0-9.35-4.195-9.35-9.35
			v-86.787h34.364c4.145,0,7.506-3.36,7.506-7.506s-3.36-7.506-7.506-7.506H15.011v-88.789c0-5.156,4.194-9.351,9.35-9.351h360.355
			c6.372,0,11.721,4.424,13.026,10.512H38.699c-7.477,0-13.56,6.083-13.56,13.559v47.939c0,7.476,6.083,13.559,13.56,13.559H224.1
			V228.606z M155.924,155.989v45.034h-51.039v-45.034H155.924z M89.875,155.989v45.034H40.15v-45.034H89.875z M224.1,201.023
			h-53.165v-45.034H224.1V201.023z M317.767,208.529v131.225h-31.822v-83.122c0-4.146-3.36-7.506-7.506-7.506
			s-7.506,3.36-7.506,7.506v83.122h-31.822V155.989h31.822v65.719c0,4.146,3.36,7.506,7.506,7.506c4.146,0,7.506-3.36,7.506-7.506
			v-65.719h31.822V208.529z M415.149,381.534c-18.899,0-34.274-15.376-34.274-34.275s15.375-34.274,34.274-34.274
			s34.275,15.375,34.275,34.274C449.423,366.157,434.048,381.534,415.149,381.534z M484.483,339.753h-20.619
			c-3.626-23.627-24.09-41.78-48.716-41.78c-24.625,0-45.089,18.153-48.715,41.78h-33.655v-96.137h81.949l80.767,5.766
			c0.797,0.058,1.42,0.727,1.421,1.527l0.011,11.434h-15.431c-9.468,0-17.171,7.703-17.171,17.171v12.026
			c0,9.468,7.703,17.171,17.171,17.171h15.475l0.018,18.536C496.989,334.143,491.379,339.753,484.483,339.753z"/>
	</g>
</g>
<g>
	<g>
		<path d="M96.851,321.641c-14.125,0-25.617,11.492-25.617,25.617s11.492,25.617,25.617,25.617s25.617-11.492,25.617-25.617
			S110.977,321.641,96.851,321.641z M96.851,357.865c-5.848,0-10.606-4.758-10.606-10.606c0-5.848,4.758-10.606,10.606-10.606
			c5.848,0,10.606,4.758,10.606,10.606C107.457,353.107,102.7,357.865,96.851,357.865z"/>
	</g>
</g>
<g>
	<g>
		<path d="M415.149,321.641c-14.125,0-25.617,11.492-25.617,25.617s11.492,25.617,25.617,25.617s25.617-11.492,25.617-25.617
			S429.273,321.641,415.149,321.641z M415.149,357.865c-5.848,0-10.606-4.758-10.606-10.606c0-5.848,4.758-10.606,10.606-10.606
			c5.848,0,10.606,4.758,10.606,10.606C425.754,353.107,420.997,357.865,415.149,357.865z"/>
	</g>
</g>
<g>
</g>
<g>
</g>
<g>
</g>
<g>
</g>
<g>
</g>
<g>
</g>
<g>
</g>
<g>
</g>
<g>
</g>
<g>
</g>
<g>
</g>
<g>
</g>
<g>
</g>
<g>
</g>
<g>
</g>
</svg>
