<?xml version="1.0" encoding="iso-8859-1"?>
<!-- Generator: Adobe Illustrator 19.0.0, SVG Export Plug-In . SVG Version: 6.00 Build 0)  -->
<svg version="1.1" id="Capa_1" xmlns="http://www.w3.org/2000/svg" xmlns:xlink="http://www.w3.org/1999/xlink" x="0px" y="0px"
	 viewBox="0 0 512 512" style="enable-background:new 0 0 512 512;" xml:space="preserve">
<g>
	<g>
		<path d="M512,108.771c0-0.361-0.034-0.713-0.083-1.06c-1.724-37.701-32.927-67.844-71.046-67.844H71.129
			c-38.119,0-69.322,30.143-71.046,67.844C0.034,108.058,0,108.41,0,108.771c0,0.251,0.013,0.5,0.038,0.745
			C0.027,110.01,0,110.5,0,110.997v15.913c0,6.313,5.136,11.449,11.45,11.449h8.663v318.762h-1.278c-4.145,0-7.506,3.36-7.506,7.506
			c0,4.146,3.36,7.506,7.506,7.506h45.701c4.145,0,7.506-3.36,7.506-7.506s-3.36-7.506-7.506-7.506h-1.277v-63.058h8.661v10.855
			c0,7.257,5.904,13.162,13.162,13.162h14.634v40.035c0,7.614,6.195,13.809,13.809,13.809h11.763
			c7.615,0,13.809-6.195,13.809-13.809V418.08H318.4c4.145,0,7.506-3.36,7.506-7.506s-3.36-7.506-7.506-7.506H86.931v-9.006h338.138
			v9.006h-71.746c-4.145,0-7.506,3.36-7.506,7.506c0,4.146,3.36,7.506,7.506,7.506h19.58v40.035c0,7.614,6.195,13.809,13.809,13.809
			h11.763c7.615,0,13.809-6.195,13.809-13.809V418.08h14.634c7.257,0,13.162-5.905,13.162-13.162v-10.855h8.661v63.058h-1.277
			c-4.145,0-7.506,3.36-7.506,7.506s3.36,7.506,7.506,7.506h45.701c4.145,0,7.506-3.36,7.506-7.506c0-4.146-3.36-7.506-7.506-7.506
			h-1.278V138.359h8.663c6.313,0,11.45-5.136,11.45-11.449v-15.913c0-0.497-0.027-0.987-0.038-1.481
			C511.987,109.27,512,109.022,512,108.771z M114.726,418.08h9.359v38.833h-9.359V418.08z M397.274,456.913h-9.359V418.08h9.359
			V456.913z M48.247,457.122H35.124V138.359h13.123V457.122z M91.2,314.371v64.681H63.258V173.339h185.236v109.454H122.778
			C105.366,282.793,91.2,296.959,91.2,314.371z M106.211,379.052v-64.681c0-9.135,7.432-16.567,16.567-16.567h266.443
			c9.135,0,16.567,7.432,16.567,16.567v64.681H106.211z M448.742,379.052H420.8v-64.681c0-17.413-14.166-31.579-31.579-31.579
			H263.506V173.339h185.236V379.052z M448.742,158.328H63.258V138.36h385.484V158.328z M476.876,457.122h-13.123V138.359h13.123
			V457.122z M15.011,123.348v-7.072h64.002c4.145,0,7.506-3.36,7.506-7.506s-3.36-7.506-7.506-7.506h-63.14
			c4.623-26.319,27.632-46.387,55.256-46.387H440.87c27.624,0,50.633,20.067,55.256,46.387h-382.12c-4.145,0-7.506,3.36-7.506,7.506
			s3.36,7.506,7.506,7.506h382.982v7.072H15.011z"/>
	</g>
</g>
<g>
</g>
<g>
</g>
<g>
</g>
<g>
</g>
<g>
</g>
<g>
</g>
<g>
</g>
<g>
</g>
<g>
</g>
<g>
</g>
<g>
</g>
<g>
</g>
<g>
</g>
<g>
</g>
<g>
</g>
</svg>
