<?xml version="1.0" encoding="iso-8859-1"?>
<!-- Generator: Adobe Illustrator 19.0.0, SVG Export Plug-In . SVG Version: 6.00 Build 0)  -->
<svg version="1.1" id="Capa_1" xmlns="http://www.w3.org/2000/svg" xmlns:xlink="http://www.w3.org/1999/xlink" x="0px" y="0px"
	 viewBox="0 0 512 512" style="enable-background:new 0 0 512 512;" xml:space="preserve">
<g>
	<g>
		<path d="M504.494,398.401c-21.94,0-32.206-4.134-44.093-8.921c-10.083-4.061-20.51-8.26-36.973-10.128
			c-4.108-0.457-7.836,2.493-8.304,6.611c-0.467,4.119,2.493,7.837,6.612,8.304c14.438,1.638,23.482,5.28,33.058,9.137
			c12.217,4.921,24.85,10.008,49.7,10.008c4.145,0,7.506-3.36,7.506-7.506C512,401.761,508.64,398.401,504.494,398.401z"/>
	</g>
</g>
<g>
	<g>
		<path d="M395.061,385.965c-0.467-4.119-4.183-7.074-8.304-6.613c-16.462,1.868-26.889,6.067-36.974,10.128
			c-11.886,4.787-22.151,8.921-44.092,8.921c-21.94,0-32.204-4.134-44.09-8.921c-12.911-5.2-27.546-11.094-55.306-11.094
			s-42.394,5.894-55.306,11.094c-11.885,4.787-22.15,8.921-44.088,8.921c-21.939,0-32.204-4.134-44.09-8.921
			c-12.911-5.2-27.546-11.094-55.305-11.094c-4.145,0-7.506,3.36-7.506,7.506c0,4.146,3.36,7.506,7.506,7.506
			c24.85,0,36.919,4.861,49.698,10.008c12.216,4.92,24.848,10.008,49.697,10.008c24.847,0,37.479-5.087,49.697-10.008
			c12.777-5.146,24.846-10.008,49.697-10.008c24.851,0,36.92,4.861,49.698,10.008c12.217,4.92,24.849,10.008,49.698,10.008
			s37.482-5.087,49.701-10.008c9.576-3.856,18.621-7.499,33.057-9.137C392.568,393.802,395.528,390.085,395.061,385.965z"/>
	</g>
</g>
<g>
	<g>
		<path d="M504.494,366.64c-23.396,0-34.811-4.597-46.897-9.464c-7.595-3.059-15.345-6.178-25.816-8.223l75.417-96.762
			c2.455-3.15,2.892-7.336,1.139-10.924c-1.753-3.589-5.322-5.818-9.316-5.818h-107.9l-39.832-82.162
			c-2.694-5.726-8.523-9.426-14.851-9.426H173.282l-15.179-36.352c-2.264-5.421-7.523-8.924-13.397-8.924h-42.658
			c-8.006,0-14.518,6.513-14.518,14.519v30.757H73.435c-9.049,0-16.412,7.362-16.412,16.412v94.616H16.936
			c-3.241,0-6.339,1.547-8.287,4.138s-2.574,5.997-1.673,9.111l23.17,80.103c-6.394-1.006-13.778-1.616-22.64-1.616
			c-4.145,0-7.506,3.36-7.506,7.506c0,4.146,3.36,7.506,7.506,7.506c23.394,0,34.809,4.597,46.894,9.464
			c12.88,5.188,26.198,10.551,52.502,10.551c26.303,0,39.621-5.363,52.501-10.551c12.085-4.867,23.499-9.464,46.893-9.464
			c23.395,0,34.809,4.597,46.894,9.464c12.88,5.188,26.199,10.551,52.502,10.551c26.305,0,39.624-5.363,52.504-10.551
			c12.086-4.867,23.501-9.464,46.897-9.464s34.811,4.597,46.897,9.464c12.881,5.188,26.199,10.551,52.504,10.551
			c4.145,0,7.506-3.36,7.506-7.506C512,370,508.64,366.64,504.494,366.64z M102.541,113.598h41.837l12.637,30.264h-54.474V113.598z
			 M405.093,346.626c-26.305,0-39.624,5.363-52.505,10.551c-12.086,4.867-23.501,9.464-46.897,9.464
			c-23.395,0-34.81-4.597-46.894-9.464c-12.88-5.188-26.198-10.551-52.502-10.551c-26.303,0-39.622,5.363-52.501,10.551
			c-12.085,4.867-23.499,9.464-46.893,9.464c-23.394,0-34.809-4.597-46.894-9.464c-4.168-1.678-8.384-3.374-13.068-4.902
			l-23.826-82.374h62.443c4.145,0,7.506-3.36,7.506-7.506s-3.36-7.506-7.506-7.506h-13.52v-94.616c0-0.772,0.628-1.4,1.4-1.4
			c0.009,0,0,0,0.009,0h262.994c0.54,0,1.038,0.316,1.306,0.883l36.696,75.693h-42.189c-5.074,0-9.962,1.85-13.764,5.21
			l-14.465,12.783c-1.056,0.933-2.413,1.447-3.823,1.447H120.48c-4.145,0-7.506,3.36-7.506,7.506s3.36,7.506,7.506,7.506H300.2
			c5.075,0,9.963-1.85,13.764-5.21l14.465-12.783c1.056-0.933,2.413-1.447,3.823-1.447h157.264l-75.14,96.406
			C411.468,346.709,408.382,346.626,405.093,346.626z"/>
	</g>
</g>
<g>
	<g>
		<path d="M127.229,174.686H101.87c-6.362,0-11.538,5.176-11.538,11.538v23.264c0,6.361,5.176,11.537,11.538,11.537h25.359
			c6.362,0,11.537-5.176,11.537-11.537v-23.264C138.766,179.862,133.591,174.686,127.229,174.686z M123.755,206.013h-18.411v-16.316
			h18.411V206.013z"/>
	</g>
</g>
<g>
	<g>
		<path d="M189.026,174.686h-25.359c-6.362,0-11.538,5.176-11.538,11.538v23.264c0.001,6.361,5.176,11.537,11.538,11.537h25.359
			c6.362,0,11.537-5.176,11.537-11.537v-23.264C200.563,179.862,195.388,174.686,189.026,174.686z M185.552,206.013h-18.411v-16.316
			h18.411V206.013z"/>
	</g>
</g>
<g>
	<g>
		<path d="M250.823,174.686h-25.359c-6.362,0-11.538,5.176-11.538,11.538v23.264c0,6.361,5.176,11.537,11.538,11.537h25.359
			c6.362,0,11.537-5.176,11.537-11.537v-23.264C262.36,179.862,257.185,174.686,250.823,174.686z M247.349,206.013h-18.411v-16.316
			h18.411V206.013z"/>
	</g>
</g>
<g>
	<g>
		<path d="M334.086,207.372l-9.772-26.115c-1.469-3.93-5.275-6.57-9.471-6.57H287.26c-6.362,0-11.538,5.176-11.538,11.538v23.264
			c0.001,6.36,5.177,11.536,11.538,11.536h37.356c3.314,0,6.42-1.626,8.309-4.349C334.814,213.953,335.248,210.474,334.086,207.372z
			 M290.734,206.013v-16.316h20.711l6.105,16.316H290.734z"/>
	</g>
</g>
<g>
</g>
<g>
</g>
<g>
</g>
<g>
</g>
<g>
</g>
<g>
</g>
<g>
</g>
<g>
</g>
<g>
</g>
<g>
</g>
<g>
</g>
<g>
</g>
<g>
</g>
<g>
</g>
<g>
</g>
</svg>
