<?xml version="1.0" encoding="iso-8859-1"?>
<!-- Generator: Adobe Illustrator 19.0.0, SVG Export Plug-In . SVG Version: 6.00 Build 0)  -->
<svg version="1.1" id="Capa_1" xmlns="http://www.w3.org/2000/svg" xmlns:xlink="http://www.w3.org/1999/xlink" x="0px" y="0px"
	 viewBox="0 0 512.002 512.002" style="enable-background:new 0 0 512.002 512.002;" xml:space="preserve">
<g>
	<g>
		<path d="M136.713,280.409c-18.053,0-32.741,14.687-32.741,32.741c0,18.053,14.688,32.74,32.741,32.74
			c18.053,0,32.74-14.687,32.74-32.74C169.453,295.096,154.766,280.409,136.713,280.409z M136.713,330.91
			c-9.794,0-17.762-7.968-17.762-17.761c0-9.794,7.968-17.761,17.762-17.761c9.793,0,17.761,7.968,17.761,17.761
			C154.473,322.942,146.506,330.91,136.713,330.91z"/>
	</g>
</g>
<g>
	<g>
		<path d="M375.286,280.409c-18.053,0-32.74,14.687-32.74,32.741c0,18.053,14.687,32.74,32.74,32.74
			c18.053,0,32.741-14.687,32.741-32.74C408.027,295.096,393.339,280.409,375.286,280.409z M375.286,330.91
			c-9.793,0-17.761-7.968-17.761-17.761c0-9.794,7.968-17.761,17.761-17.761c9.794,0,17.762,7.968,17.762,17.761
			S385.08,330.91,375.286,330.91z"/>
	</g>
</g>
<g>
	<g>
		<path d="M402.73,118.314c-0.019-0.17-0.043-0.339-0.072-0.508l-10.709-60.332c-2.83-15.944-16.636-27.516-32.83-27.516h-37.332
			c-4.137,0-7.49,3.353-7.49,7.49c0,4.137,3.353,7.49,7.49,7.49h37.332c8.918,0,16.522,6.373,18.081,15.154l10.664,60.079
			c1.895,17.653,3.307,35.672,4.2,53.564c0.054,1.093-0.481,1.827-0.805,2.167c-0.323,0.339-1.026,0.907-2.114,0.907H122.853
			c-1.088,0-1.791-0.569-2.114-0.907c-0.324-0.34-0.858-1.075-0.805-2.167c0.893-17.892,2.305-35.911,4.2-53.564l10.664-60.078
			c1.558-8.781,9.162-15.154,18.081-15.154h133.917c4.137,0,7.49-3.353,7.49-7.49c0-4.137-3.353-7.49-7.49-7.49H152.879
			c-16.193,0-30,11.572-32.83,27.515l-10.709,60.332c-0.029,0.168-0.054,0.337-0.072,0.508c-1.939,18.017-3.384,36.413-4.295,54.675
			c-0.243,4.876,1.548,9.701,4.913,13.238c3.363,3.534,8.09,5.562,12.967,5.562h266.293c4.877,0,9.604-2.027,12.966-5.562
			c3.365-3.537,5.156-8.362,4.912-13.238C406.114,154.727,404.669,136.332,402.73,118.314z"/>
	</g>
</g>
<g>
	<g>
		<path d="M159.205,204.361h-44.792c-5.696,0-10.33,4.634-10.33,10.33v20.274c0,5.696,4.634,10.33,10.33,10.33h44.792
			c5.696,0,10.33-4.634,10.33-10.33v-20.274C169.536,208.995,164.901,204.361,159.205,204.361z M154.556,230.316h-35.494V219.34
			h35.494V230.316z"/>
	</g>
</g>
<g>
	<g>
		<path d="M397.585,204.361h-44.792c-5.696,0-10.33,4.634-10.33,10.33v20.274c0,5.696,4.634,10.33,10.33,10.33h44.792
			c5.696,0,10.33-4.634,10.33-10.33v-20.274C407.916,208.995,403.282,204.361,397.585,204.361z M392.937,230.316h-35.494V219.34
			h35.494V230.316z"/>
	</g>
</g>
<g>
	<g>
		<path d="M475.425,103.07H465.15c-8.135,0-14.753,6.618-14.753,14.753v69.196c0,3.819,2.1,7.151,5.201,8.92
			c-1.991,3.594-5.18,6.483-9.196,8.093l-8.321,2.954c0,0.002,0,0.003,0,0.005c-0.436-30.742-2.293-61.479-5.564-91.883
			l-8.391-77.977C421.849,15.963,404.076,0,382.786,0H129.213c-21.29,0-39.063,15.963-41.341,37.131l-8.391,77.976
			c-3.271,30.401-5.129,61.137-5.565,91.878l-8.32-2.954c-4.016-1.61-7.205-4.499-9.196-8.093c3.101-1.769,5.201-5.101,5.201-8.92
			v-69.196c0-8.135-6.618-14.753-14.753-14.753H36.573c-13.089,0-23.738,10.649-23.738,23.738v31.982
			c0,17.382,11.583,32.104,27.433,36.87c2.661,10.055,9.898,18.396,19.948,22.353c0.079,0.031,0.159,0.061,0.239,0.089l13.37,4.747
			c0-0.001,0-0.002,0-0.002c0.023,13.434,0.309,26.858,0.878,40.245c0,0.004,0,0.008,0,0.013l0.003,0.059c0,0.003,0,0.005,0,0.008
			c0.002,0.04,0.004,0.081,0.006,0.122c0.001,0.018,0.001,0.036,0.002,0.053l0.003,0.057c0,0.001,0,0.001,0,0.002
			c0.911,21.295,2.513,42.699,4.765,63.622l0.418,3.884h-6.226c-10.865,0-19.703,8.839-19.703,19.704v42.678
			c0,9.839,7.255,17.992,16.692,19.449v60.513c0,16.042,13.051,29.093,29.093,29.093h13.097c16.041,0,29.093-13.051,29.093-29.093
			v-1.969h2.065c12.299,0,22.306-10.007,22.306-22.306v-6.844h30.501v1.407c0,8.716,7.09,15.806,15.805,15.806h7.737v23.56
			c0,16.042,13.051,29.093,29.093,29.093h13.097c16.041,0,29.093-13.051,29.093-29.093v-23.56h7.77
			c8.716,0,15.806-7.09,15.806-15.806v-1.407h30.468v6.844c0,12.299,10.007,22.306,22.306,22.306h2.065v1.969
			c0,16.042,13.051,29.093,29.093,29.093h13.097c16.041,0,29.093-13.051,29.093-29.093v-60.513
			c9.437-1.457,16.692-9.61,16.692-19.449v-42.678c0-10.865-8.838-19.704-19.703-19.704h-6.226l0.418-3.884
			c2.255-20.95,3.857-42.368,4.767-63.661c0-0.004,0.001-0.009,0.001-0.013l0.002-0.059c0.002-0.041,0.004-0.082,0.006-0.123
			c0-0.008,0-0.016,0-0.025c0.57-13.409,0.857-26.856,0.88-40.313c0,0.005,0,0.011,0,0.016l13.371-4.747
			c0.08-0.028,0.16-0.058,0.239-0.089c10.049-3.957,17.287-12.298,19.948-22.353h-0.001c15.85-4.766,27.433-19.487,27.433-36.87
			v-31.982C499.163,113.719,488.515,103.07,475.425,103.07z M46.621,181.834c-10.718-2.188-18.807-11.689-18.807-23.044v-31.982
			c0-4.829,3.929-8.758,8.758-8.758h10.049V181.834z M73.673,398.018v-0.001c-2.605,0-4.724-2.119-4.724-4.724v-42.678
			c0-2.605,2.119-4.724,4.724-4.724h7.838l5.609,52.127H73.673z M126.965,473.254c0,7.782-6.331,14.113-14.113,14.113H99.754
			c-7.782,0-14.113-6.331-14.113-14.113v-60.258h3.893c5.102,16.371,19.893,28.141,37.431,29.074V473.254z M144.008,456.306h-2.065
			v-14.171h9.391v6.844h0.001C151.335,453.019,148.049,456.306,144.008,456.306z M220.358,444.368h-7.737
			c-0.455,0-0.826-0.371-0.826-0.827v-9.66c0-0.456,0.371-0.827,0.826-0.827h7.737V444.368z M220.358,418.075h-7.737
			c-0.279,0-0.551,0.027-0.826,0.042v-12.314c2.614,1.946,5.493,3.536,8.563,4.723V418.075z M276.661,482.907
			c0,7.782-6.331,14.113-14.113,14.113h-13.097c-7.782,0-14.113-6.331-14.113-14.113v-69.911h41.323V482.907z M299.41,444.368h-7.77
			v-11.314h7.77c0.398,0,0.715,0.288,0.794,0.663l0.033,9.824C300.237,443.997,299.866,444.368,299.41,444.368z M291.641,418.075
			v-7.549c3.07-1.188,5.949-2.777,8.563-4.723v12.312c-0.265-0.013-0.526-0.04-0.794-0.04H291.641z M306.724,357.116L299,382.676
			c-2.316,7.664-8.495,13.212-16.052,14.837c-0.203,0.033-0.402,0.073-0.599,0.122c-1.304,0.242-2.641,0.381-4.01,0.381h-44.68
			c-1.368,0-2.706-0.139-4.01-0.381c-0.197-0.049-0.396-0.089-0.599-0.122c-7.557-1.625-13.736-7.173-16.052-14.837l-7.724-25.559
			c-2.238-7.406-2.279-15.09-0.119-22.222c6.722-22.194,27.629-37.695,50.844-37.695c23.215,0,44.123,15.501,50.844,37.695
			C309.004,342.027,308.963,349.711,306.724,357.116z M367.99,456.305c-4.04,0-7.327-3.287-7.327-7.327v-6.844h9.391v14.171H367.99z
			 M315.184,427.154v-46.245l5.881-19.461c3.094-10.243,3.134-20.927,0.115-30.894c-4.147-13.694-12.753-26.001-24.235-34.653
			c-11.877-8.95-26.035-13.68-40.945-13.68c-14.909,0-29.067,4.731-40.945,13.68c-11.482,8.652-20.089,20.958-24.235,34.652
			c-3.019,9.968-2.979,20.652,0.115,30.895l5.881,19.46v46.246h-67.602c-13.261,0-24.387-9.683-26.309-22.693
			c-0.002-0.014-0.002-0.028-0.004-0.042c-0.051-0.342-0.099-0.684-0.137-1.03c0-0.001,0-0.002,0-0.003l-7.073-65.734
			c-0.001-0.015-0.003-0.029-0.005-0.043l-1.311-12.186c-1.95-18.124-3.406-36.617-4.34-55.082h58.856c4.137,0,7.49-3.353,7.49-7.49
			c0-4.137-3.353-7.49-7.49-7.49H89.4c-1.624-46.214,0.042-92.82,4.975-138.652l8.391-77.976
			c1.457-13.542,12.828-23.754,26.448-23.754h253.572c13.62,0,24.991,10.212,26.448,23.754l8.391,77.977
			c4.932,45.833,6.597,92.441,4.974,138.652H183.741c-4.137,0-7.49,3.353-7.49,7.49c0,4.137,3.353,7.49,7.49,7.49h238.224
			c-0.932,18.454-2.389,36.947-4.341,55.082l-1.311,12.186c-0.002,0.014-0.003,0.029-0.005,0.043l-7.073,65.735
			c0,0.001,0,0.002,0,0.002c-0.038,0.352-0.089,0.7-0.138,1.046c-0.002,0.011-0.001,0.023-0.003,0.034
			c-1.926,13.006-13.049,22.684-26.307,22.684H315.184z M426.359,473.254L426.359,473.254c-0.001,7.782-6.332,14.113-14.114,14.113
			h-13.097c-7.782,0-14.113-6.331-14.113-14.113v-31.185c17.537-0.933,32.328-12.703,37.43-29.074h3.894V473.254z M438.326,345.888
			L438.326,345.888c2.605,0.001,4.724,2.12,4.724,4.725v42.678c0,2.605-2.119,4.724-4.724,4.724h-13.447l5.609-52.127H438.326z
			 M484.184,158.79c0,11.355-8.089,20.856-18.807,23.044V118.05h10.049c4.829,0,8.758,3.929,8.758,8.758V158.79z"/>
	</g>
</g>
<g>
</g>
<g>
</g>
<g>
</g>
<g>
</g>
<g>
</g>
<g>
</g>
<g>
</g>
<g>
</g>
<g>
</g>
<g>
</g>
<g>
</g>
<g>
</g>
<g>
</g>
<g>
</g>
<g>
</g>
</svg>
