<?xml version="1.0" encoding="iso-8859-1"?>
<!-- Generator: Adobe Illustrator 19.0.0, SVG Export Plug-In . SVG Version: 6.00 Build 0)  -->
<svg version="1.1" id="Capa_1" xmlns="http://www.w3.org/2000/svg" xmlns:xlink="http://www.w3.org/1999/xlink" x="0px" y="0px"
	 viewBox="0 0 512 512" style="enable-background:new 0 0 512 512;" xml:space="preserve">
<g>
	<g>
		<path d="M408.303,210.823l-46.999-61.89c-2.506-3.299-7.21-3.944-10.514-1.438c-3.3,2.507-3.943,7.213-1.437,10.514l46.999,61.89
			c4.482,5.903,5.19,13.389,1.895,20.028c-3.294,6.638-9.686,10.601-17.097,10.601h-10.01l-0.199-24.375
			c-0.004-0.532-0.024-1.061-0.053-1.589c-0.008-0.149-0.023-0.297-0.033-0.445c-0.026-0.381-0.056-0.762-0.096-1.141
			c-0.017-0.164-0.039-0.326-0.059-0.488c-0.043-0.363-0.091-0.725-0.147-1.085c-0.025-0.164-0.054-0.326-0.081-0.489
			c-0.061-0.356-0.126-0.71-0.198-1.063c-0.033-0.162-0.068-0.324-0.104-0.485c-0.077-0.348-0.16-0.694-0.248-1.039
			c-0.042-0.163-0.083-0.325-0.127-0.487c-0.092-0.337-0.191-0.673-0.294-1.008c-0.05-0.164-0.099-0.327-0.152-0.49
			c-0.107-0.33-0.223-0.657-0.341-0.984c-0.057-0.159-0.112-0.32-0.172-0.478c-0.023-0.061-0.043-0.124-0.067-0.185
			c-0.16-3.93-1.512-7.661-3.962-10.885l-53.096-69.92c-13.499-17.777-34.043-27.972-56.363-27.972
			c-22.322,0-42.865,10.195-56.364,27.972l-60.382,79.514c-2.197,2.894-3.029,6.407-2.616,9.768
			c-2.143,1.486-4.165,3.189-6.033,5.102c-4.947,5.066-8.456,11.182-10.34,17.855c-2.985-2.377-5.314-5.604-6.657-9.39
			c-2.339-6.595-1.232-13.601,3.037-19.224L221.248,78.911c3.791-4.992,8.51-8.978,13.822-11.83
			c0.042-0.022,0.083-0.043,0.124-0.066c6.074-3.235,12.919-4.987,20.075-4.987c7.538,0,14.739,1.929,21.048,5.506
			c0.204,0.136,0.415,0.262,0.633,0.378c4.707,2.778,8.904,6.476,12.339,10.999l39.046,51.418c2.506,3.299,7.211,3.944,10.513,1.438
			c3.3-2.506,3.944-7.213,1.437-10.513l-39.046-51.418c-3.793-4.995-8.281-9.236-13.262-12.676V19.339
			C287.978,8.675,279.303,0,268.64,0h-25.239c-10.663,0-19.338,8.675-19.338,19.339v36.795c-5.591,3.603-10.593,8.206-14.766,13.702
			L104.044,208.439c-7.384,9.724-9.29,21.867-5.23,33.316c3.36,9.476,10.364,16.932,19.264,20.811l0.512,34.945
			c0.131,8.939,2.458,17.773,6.733,25.566l44.787,94.107l-2.653,33.813h-2.803c-8.32,0-15.09,6.77-15.09,15.09v30.823
			c0,8.321,6.77,15.09,15.09,15.09h151.723c8.32,0,15.09-6.769,15.09-15.09v-30.823c0-7.657-5.738-13.986-13.136-14.949
			l-1.622-30.348l37.184-47.056c0.17-0.215,0.328-0.44,0.474-0.673c6.834-10.926,10.426-23.566,10.385-36.505l0.16-47.713
			c4.197-5.663,6.441-12.499,6.383-19.672l-0.03-3.637h9.889c13.04,0,24.743-7.256,30.539-18.937
			C417.488,234.917,416.189,221.208,408.303,210.823z M239.07,19.339c0-2.389,1.943-4.332,4.331-4.332h25.239
			c2.388,0,4.331,1.943,4.331,4.332v30.443c-5.631-1.799-11.58-2.761-17.702-2.761c-5.578,0-11.017,0.788-16.199,2.288V19.339z
			 M210.935,142.966c10.638-14.007,26.825-22.041,44.413-22.041s33.775,8.034,44.412,22.041l38.556,50.773
			c-0.017,0-0.035-0.001-0.052-0.001c-0.085,0-0.173,0-0.259,0.001c-7.982,0.062-15.501,2.971-21.413,8.225
			c-5.657-10.155-16.503-17.027-28.9-17.027c-0.086,0-0.173,0-0.26,0.001c-7.757,0.061-15.085,2.773-20.952,7.697
			c-5.357-11.073-16.704-18.713-29.775-18.713c-0.087,0-0.175,0-0.262,0.001c-8.832,0.069-17.109,3.574-23.305,9.87
			c-0.835,0.848-1.614,1.736-2.345,2.655c-5.819-6.873-14.39-11.336-24.004-11.685L210.935,142.966z M269.835,215.455
			c0.534-3.806,2.243-7.332,4.989-10.122c3.383-3.438,7.904-5.352,12.727-5.39c0.048,0,0.094-0.001,0.142-0.001
			c9.886,0,17.971,8.005,18.052,17.908l0.04,4.95c-0.14,1.281-0.215,2.576-0.205,3.884l0.295,36.232
			c-0.553,3.761-2.255,7.244-4.972,10.004c-3.383,3.438-7.904,5.352-12.727,5.39c-9.941,0.043-18.113-7.955-18.195-17.906
			l-0.062-7.659c0.13-1.245,0.2-2.503,0.189-3.774L269.835,215.455z M247.953,245.079c-0.012-1.518-0.134-3.016-0.362-4.486
			c-0.987-6.371-3.959-12.211-8.602-16.774c-3.071-3.018-6.677-5.272-10.591-6.673c-0.017-0.006-0.033-0.013-0.05-0.019
			c-0.377-0.134-0.758-0.257-1.14-0.375c-0.061-0.019-0.122-0.041-0.183-0.06c-0.305-0.092-0.613-0.172-0.921-0.254
			c-0.142-0.038-0.282-0.081-0.424-0.117c-0.293-0.073-0.589-0.134-0.884-0.198c-0.16-0.034-0.318-0.075-0.478-0.107
			c-0.299-0.059-0.601-0.106-0.903-0.156c-0.16-0.026-0.318-0.059-0.478-0.082c-0.281-0.042-0.565-0.071-0.848-0.104
			c-0.183-0.021-0.365-0.049-0.548-0.067c-0.249-0.024-0.5-0.037-0.751-0.055c-0.22-0.016-0.438-0.037-0.659-0.048
			c-0.229-0.011-0.459-0.011-0.689-0.017c-0.242-0.006-0.482-0.018-0.725-0.018l-0.068-8.339c-0.039-4.824,1.803-9.374,5.187-12.812
			c3.383-3.438,7.903-5.352,12.726-5.389c0.048,0,0.095-0.001,0.143-0.001c9.886,0,17.971,8.004,18.052,17.907l0.063,7.663
			c-0.13,1.244-0.199,2.501-0.189,3.77l0.273,33.52c-0.535,3.805-2.244,7.33-4.989,10.119c-1.314,1.336-2.8,2.441-4.408,3.296
			c1.657-3.812,2.545-7.992,2.511-12.285L247.953,245.079z M172.691,195.132c3.383-3.438,7.904-5.352,12.727-5.39
			c0.048,0,0.095-0.001,0.143-0.001c9.885,0,17.97,8.004,18.051,17.907l0.065,7.957l-36.108,0.334l-0.065-7.995
			C167.465,203.12,169.306,198.57,172.691,195.132z M349.743,336.555c0.031,10.02-2.696,19.765-7.89,28.21l-38.676,48.944
			c-1.132,1.433-1.703,3.229-1.605,5.053l1.723,32.235h-77.598c-4.144,0-7.503,3.359-7.503,7.503s3.359,7.503,7.503,7.503h90.68
			c0.047,0,0.083,0.037,0.083,0.084v30.823c0,0.046-0.037,0.083-0.083,0.083H164.653c-0.046,0-0.083-0.037-0.083-0.083v-30.823
			c0-0.047,0.036-0.084,0.083-0.084h26.127h0.003c4.144,0,7.503-3.359,7.503-7.503s-3.359-7.503-7.503-7.503h-8.274l2.718-34.641
			c0.002-0.024,0-0.048,0.002-0.072c0.012-0.169,0.014-0.339,0.014-0.51c0-0.08,0.004-0.161,0.001-0.241
			c-0.005-0.159-0.02-0.318-0.035-0.477c-0.009-0.092-0.014-0.184-0.026-0.275c-0.018-0.133-0.045-0.266-0.07-0.398
			c-0.021-0.115-0.04-0.23-0.067-0.343c-0.025-0.106-0.058-0.21-0.088-0.315c-0.039-0.137-0.077-0.274-0.123-0.408
			c-0.031-0.09-0.069-0.178-0.104-0.267c-0.056-0.144-0.113-0.288-0.178-0.427c-0.012-0.026-0.02-0.052-0.032-0.077l-45.745-96.119
			c-0.067-0.14-0.138-0.278-0.213-0.414c-3.156-5.69-4.874-12.164-4.97-18.72l-0.573-39.095c-0.003-0.233,0.004-0.463,0.007-0.695
			c0.001-0.033,0-0.065,0.001-0.098c0.092-7.061,2.791-13.657,7.662-18.646c2.399-2.457,5.188-4.371,8.221-5.68
			c0.021-0.01,0.044-0.017,0.066-0.027c3.024-1.295,6.289-1.99,9.65-2.021l59.942-0.553c3.7-0.016,7.21,1.402,9.899,4.046
			c0.357,0.351,0.694,0.717,1.01,1.097c1.583,1.9,2.658,4.153,3.154,6.586c0.198,0.974,0.304,1.976,0.312,2.997l0.064,7.837
			c0.047,5.724-3.127,11.022-8.087,13.498c-1.884,0.94-3.906,1.426-6.012,1.444l-21.232,0.181
			c-6.942,0.059-13.461,2.852-18.359,7.864c-5.027,5.146-7.741,11.979-7.644,19.243c0,0.012,0,0.023,0,0.035
			c0,0.001,0,0.001,0,0.002c0.004,0.244,0.02,0.487,0.047,0.729c0.014,0.128,0.039,0.253,0.06,0.38
			c0.018,0.112,0.032,0.225,0.056,0.336c0.031,0.148,0.073,0.291,0.112,0.435c0.025,0.089,0.045,0.18,0.073,0.268
			c0.044,0.14,0.097,0.274,0.149,0.41c0.035,0.092,0.066,0.185,0.105,0.276c0.052,0.121,0.112,0.237,0.17,0.355
			c0.05,0.102,0.096,0.205,0.151,0.305c0.055,0.101,0.118,0.196,0.178,0.294c0.068,0.111,0.132,0.223,0.206,0.331
			c0.059,0.087,0.126,0.168,0.189,0.252c0.082,0.11,0.162,0.223,0.251,0.329c0.1,0.119,0.209,0.231,0.316,0.344
			c0.067,0.071,0.131,0.144,0.201,0.213c0.169,0.165,0.346,0.322,0.53,0.471c0.005,0.004,0.01,0.009,0.015,0.013
			c12.676,10.165,19.458,23.708,20.159,40.253c0.171,4.032,3.494,7.186,7.491,7.186c0.107,0,0.215-0.002,0.323-0.007
			c4.141-0.175,7.355-3.674,7.179-7.814c-0.832-19.648-8.437-35.99-22.606-48.645c0.497-2.07,1.519-3.967,3.024-5.507
			c2.084-2.133,4.837-3.321,7.753-3.346l21.231-0.181c3.334-0.028,6.568-0.617,9.653-1.753c0.084,0.022,0.169,0.036,0.253,0.057
			c0.509,0.129,1.021,0.245,1.536,0.349c0.181,0.037,0.362,0.075,0.543,0.108c0.583,0.108,1.168,0.203,1.757,0.279
			c0.195,0.025,0.392,0.043,0.587,0.064c0.446,0.05,0.892,0.09,1.34,0.122c0.214,0.015,0.427,0.031,0.642,0.042
			c0.563,0.029,1.128,0.047,1.694,0.047c0.087,0,0.174,0,0.261-0.001c7.757-0.06,15.085-2.773,20.952-7.697
			c5.357,11.073,16.704,18.713,29.775,18.713c0.087,0,0.175,0,0.262-0.001c8.053-0.063,15.639-2.99,21.612-8.276
			c5.552,10.173,16.349,17.078,28.703,17.078c0.086,0,0.173,0,0.259-0.001c3.813-0.03,7.52-0.708,10.998-1.98L349.743,336.555z
			 M351.209,281.836c-3.313,3.365-7.738,5.239-12.46,5.276c-0.047,0-0.093,0.001-0.14,0.001c-9.678,0-17.593-7.836-17.672-17.53
			l-0.046-5.685c0.14-1.29,0.215-2.593,0.205-3.91l-0.296-36.204c0.546-3.67,2.211-7.067,4.864-9.762
			c3.312-3.366,7.737-5.239,12.46-5.276c0.047,0,0.093-0.001,0.14-0.001c7.225,0,13.462,4.369,16.195,10.615
			c0.12,0.274,0.217,0.555,0.322,0.834c0.103,0.273,0.217,0.54,0.306,0.819c0.081,0.252,0.138,0.509,0.207,0.764
			c0.086,0.315,0.183,0.626,0.251,0.947c0.045,0.213,0.068,0.432,0.105,0.647c0.064,0.367,0.137,0.732,0.178,1.106
			c0.065,0.594,0.101,1.193,0.106,1.798l0.259,31.756l0.092,11.263C356.325,274.016,354.521,278.47,351.209,281.836z"/>
	</g>
</g>
<g>
</g>
<g>
</g>
<g>
</g>
<g>
</g>
<g>
</g>
<g>
</g>
<g>
</g>
<g>
</g>
<g>
</g>
<g>
</g>
<g>
</g>
<g>
</g>
<g>
</g>
<g>
</g>
<g>
</g>
</svg>
