<?xml version="1.0" encoding="iso-8859-1"?>
<!-- Generator: Adobe Illustrator 19.0.0, SVG Export Plug-In . SVG Version: 6.00 Build 0)  -->
<svg version="1.1" id="Capa_1" xmlns="http://www.w3.org/2000/svg" xmlns:xlink="http://www.w3.org/1999/xlink" x="0px" y="0px"
	 viewBox="0 0 511.999 511.999" style="enable-background:new 0 0 511.999 511.999;" xml:space="preserve">
<g>
	<g>
		<path d="M306.058,237.619h-18.68c-4.146,0-7.506,3.36-7.506,7.506s3.36,7.506,7.506,7.506h18.68c4.146,0,7.506-3.36,7.506-7.506
			S310.204,237.619,306.058,237.619z"/>
	</g>
</g>
<g>
	<g>
		<path d="M441.485,322.513c-4.769-4.772-11.112-7.399-17.858-7.399s-13.089,2.627-17.858,7.397
			c-4.765,4.765-7.39,11.108-7.39,17.859c0,6.751,2.625,13.094,7.389,17.859c4.771,4.771,11.113,7.398,17.859,7.398
			c6.746,0,13.088-2.627,17.857-7.397c4.771-4.77,7.398-11.112,7.398-17.859C448.882,333.625,446.255,327.282,441.485,322.513z
			 M430.869,347.615c-1.935,1.935-4.506,3-7.243,3c-2.736,0-5.309-1.066-7.245-3.001c-1.929-1.929-2.992-4.502-2.992-7.244
			c0-2.742,1.063-5.315,2.993-7.244c1.934-1.935,4.507-3,7.244-3c2.736,0,5.309,1.065,7.243,3c1.936,1.935,3.001,4.508,3.001,7.244
			C433.87,343.105,432.805,345.678,430.869,347.615z"/>
	</g>
</g>
<g>
	<g>
		<path d="M106.231,322.51c-4.769-4.769-11.111-7.396-17.857-7.396c-6.746,0-13.089,2.627-17.86,7.397
			c-9.846,9.847-9.846,25.87,0.001,35.718c4.771,4.77,11.113,7.397,17.859,7.397c6.745,0,13.088-2.627,17.857-7.397
			c4.771-4.77,7.398-11.112,7.398-17.86C113.629,333.622,111.002,327.28,106.231,322.51z M95.618,347.614
			c-1.935,1.935-4.508,3.001-7.243,3.001c-2.736,0-5.309-1.066-7.244-3.001c-3.995-3.994-3.995-10.494-0.001-14.488
			c1.936-1.935,4.509-3.001,7.245-3.001s5.308,1.066,7.244,3.001c1.935,1.935,3,4.507,3,7.244
			C98.618,343.107,97.553,345.678,95.618,347.614z"/>
	</g>
</g>
<g>
	<g>
		<path d="M496.327,219.265l-64.316-16.98c-1.895-0.5-3.593-1.533-4.908-2.987l-61.535-67.976
			c-4.752-5.249-11.537-8.259-18.617-8.259h-43.782c-4.146,0-7.506,3.36-7.506,7.506s3.36,7.506,7.506,7.506h43.782
			c2.848,0,5.576,1.21,7.487,3.321l61.535,67.976c3.271,3.615,7.492,6.183,12.206,7.427l64.315,16.98
			c2.646,0.698,4.494,3.097,4.494,5.833v11.518h-21.845c-4.845,0-9.354,2.175-12.369,5.968c-1.567,1.972-2.605,4.24-3.099,6.625
			H146.892c-4.145,0-7.506,3.36-7.506,7.506c0,4.145,3.36,7.506,7.506,7.506h314.767l1.955,8.446
			c1.668,7.205,7.998,12.236,15.393,12.236h17.981v23.883c0,3.326-2.706,6.032-6.033,6.032H470.95
			c-2.026-8.76-6.45-16.804-12.966-23.319c-18.946-18.945-49.771-18.944-68.717,0c-6.515,6.515-10.94,14.559-12.966,23.319H135.67
			c-1.981-8.551-6.287-16.668-12.938-23.319c-18.945-18.945-49.771-18.945-68.716,0c-6.516,6.515-10.94,14.559-12.966,23.319H25.502
			c-5.785,0-10.491-4.706-10.491-10.49v-40.107h96.957c4.145,0,7.506-3.36,7.506-7.506c0-4.145-3.36-7.506-7.506-7.506H15.011
			v-46.836c0-1.045,0.155-2.081,0.462-3.08l22.41-72.966c0.508-1.654,2.012-2.765,3.743-2.765h226.621
			c4.146,0,7.506-3.36,7.506-7.506s-3.36-7.506-7.506-7.506H41.626c-8.366,0-15.637,5.373-18.092,13.37L1.124,209.4
			C0.378,211.826,0,214.346,0,216.885v101.955c0,14.062,11.44,25.502,25.502,25.502h14.454c0.924,11.48,5.826,22.151,14.059,30.385
			c9.472,9.472,21.915,14.209,34.358,14.209s24.885-4.736,34.358-14.209c8.463-8.463,13.134-19.298,14.036-30.385h238.441
			c0.924,11.48,5.826,22.151,14.059,30.385c9.473,9.472,21.916,14.209,34.359,14.209c12.442,0,24.885-4.736,34.358-14.209
			c8.233-8.234,13.135-18.905,14.059-30.385h18.912c11.603,0,21.044-9.44,21.044-21.044v-83.688
			C512,230.067,505.556,221.7,496.327,219.265z M112.117,364.112c-13.092,13.092-34.395,13.092-47.487,0
			c-6.342-6.342-9.835-14.774-9.835-23.744c0-8.969,3.493-17.401,9.835-23.743c6.546-6.546,15.145-9.819,23.744-9.819
			s17.198,3.273,23.744,9.819C125.209,329.719,125.209,351.021,112.117,364.112z M447.369,364.112
			c-13.093,13.092-34.395,13.091-47.486,0c-6.343-6.342-9.836-14.774-9.836-23.744c0-8.969,3.493-17.401,9.835-23.743
			c0.001,0,0.001,0,0.001,0c6.546-6.546,15.144-9.819,23.743-9.819s17.198,3.273,23.743,9.819
			c6.343,6.342,9.836,14.774,9.836,23.743C457.205,349.339,453.712,357.771,447.369,364.112z M496.991,284.404h-0.002h-17.981
			c-0.369,0-0.686-0.251-0.769-0.611l-3.862-16.686c-0.022-0.092-0.086-0.371,0.151-0.668c0.237-0.298,0.524-0.298,0.618-0.298
			h21.845V284.404z"/>
	</g>
</g>
<g>
	<g>
		<path d="M257.499,150.083H62.033c-8.629,0-16.128,5.542-18.662,13.79l-16.02,52.163c-0.219,0.714-0.331,1.457-0.331,2.204
			c0,4.934,4.015,8.949,8.949,8.949h221.53c6.45,0,11.698-5.248,11.698-11.698v-53.71
			C269.197,155.33,263.949,150.083,257.499,150.083z M254.186,212.177H44.239l13.482-43.897c0.585-1.906,2.318-3.186,4.312-3.186
			h192.153V212.177z"/>
	</g>
</g>
<g>
	<g>
		<path d="M394.077,203.076l-42.16-46.573c-3.694-4.08-8.969-6.42-14.472-6.42H291.57c-6.45,0-11.697,5.248-11.697,11.698v53.71
			c0,6.45,5.247,11.698,11.697,11.698h91.809c5.789,0,10.842-3.287,13.19-8.578C398.917,213.32,397.962,207.367,394.077,203.076z
			 M294.883,212.177v-47.083h0.001h42.56c1.271,0,2.49,0.541,3.343,1.483l41.279,45.6H294.883z"/>
	</g>
</g>
<g>
</g>
<g>
</g>
<g>
</g>
<g>
</g>
<g>
</g>
<g>
</g>
<g>
</g>
<g>
</g>
<g>
</g>
<g>
</g>
<g>
</g>
<g>
</g>
<g>
</g>
<g>
</g>
<g>
</g>
</svg>
