<?xml version="1.0" encoding="iso-8859-1"?>
<!-- Generator: Adobe Illustrator 19.0.0, SVG Export Plug-In . SVG Version: 6.00 Build 0)  -->
<svg version="1.1" id="Capa_1" xmlns="http://www.w3.org/2000/svg" xmlns:xlink="http://www.w3.org/1999/xlink" x="0px" y="0px"
	 viewBox="0 0 511.999 511.999" style="enable-background:new 0 0 511.999 511.999;" xml:space="preserve">
<g>
	<g>
		<path d="M281.664,28.179h-51.329c-4.142,0-7.499,3.358-7.499,7.499s3.358,7.499,7.499,7.499h51.329
			c4.142,0,7.499-3.358,7.499-7.499S285.806,28.179,281.664,28.179z"/>
	</g>
</g>
<g>
	<g>
		<path d="M212.562,342.593h-25.917c-1.98,0-2.82,2.16-2.82,4.14c0,2.28,1.02,4.259,2.82,4.259h8.279v32.576
			c0,1.92,2.34,2.88,4.679,2.88c2.34,0,4.679-0.96,4.679-2.88v-32.576h8.279c1.8,0,2.82-1.98,2.82-4.259
			C215.382,344.753,214.541,342.593,212.562,342.593z"/>
	</g>
</g>
<g>
	<g>
		<path d="M254.559,381.949l-11.219-36.595c-0.66-2.1-3.359-3.12-6.119-3.12s-5.459,1.02-6.119,3.12l-11.159,36.595
			c-0.06,0.24-0.12,0.48-0.12,0.66c0,2.22,3.419,3.84,5.999,3.84c1.5,0,2.699-0.48,3.06-1.74l2.039-7.499h12.659l2.04,7.499
			c0.36,1.26,1.559,1.74,3.059,1.74c2.58,0,6-1.62,6-3.84C254.679,382.429,254.619,382.189,254.559,381.949z M232.841,370.01
			l4.38-16.078l4.38,16.078H232.841z"/>
	</g>
</g>
<g>
	<g>
		<path d="M296.794,380.509l-10.378-16.018l9.959-15.958c0.42-0.66,0.6-1.26,0.6-1.86c0-2.52-3.42-4.44-6.059-4.44
			c-1.32,0-2.22,0.48-2.82,1.56l-7.979,13.918l-7.979-13.918c-0.6-1.08-1.5-1.56-2.82-1.56c-2.64,0-6.06,1.92-6.06,4.44
			c0,0.6,0.18,1.2,0.6,1.86l9.959,15.958l-10.379,16.018c-0.36,0.6-0.54,1.14-0.54,1.68c0,2.58,3.659,4.619,6.239,4.619
			c0.96,0,1.8-0.3,2.22-0.96l8.759-14.878l8.759,14.878c0.36,0.66,1.26,0.96,2.22,0.96c2.58,0,6.239-2.039,6.239-4.619
			C297.334,381.649,297.154,381.109,296.794,380.509z"/>
	</g>
</g>
<g>
	<g>
		<path d="M313.234,342.593c-2.34,0-4.68,0.84-4.68,2.82v38.155c0,1.92,2.34,2.88,4.68,2.88c2.34,0,4.679-0.96,4.679-2.88v-38.155
			C317.914,343.434,315.575,342.593,313.234,342.593z"/>
	</g>
</g>
<g>
	<g>
		<path d="M392.523,0H119.476C102.505,0,88.7,13.806,88.7,30.776v450.447c0,16.97,13.806,30.776,30.776,30.776h273.048
			c16.97,0,30.776-13.806,30.776-30.776V30.776C423.299,13.806,409.494,0,392.523,0z M408.302,56.358h-0.002h-38.997
			c-4.142,0-7.499,3.358-7.499,7.499s3.358,7.499,7.499,7.499h38.997v369.287h-230.25c-4.142,0-7.499,3.358-7.499,7.499
			c0,4.142,3.358,7.499,7.499,7.499h230.251v25.581c0,8.7-7.078,15.777-15.778,15.777H119.476c-8.699,0-15.778-7.078-15.778-15.777
			v-25.581h39.459c4.142,0,7.499-3.358,7.499-7.499c0-4.142-3.358-7.499-7.499-7.499h-39.459V71.356h230.251
			c4.142,0,7.499-3.358,7.499-7.499s-3.358-7.499-7.499-7.499h-230.25V30.776c0-8.7,7.078-15.778,15.778-15.778h273.048
			c8.699,0,15.778,7.078,15.778,15.778V56.358z"/>
	</g>
</g>
<g>
	<g>
		<path d="M299.497,276.375h-24.293c4.777-4.868,10.281-10.942,15.804-18.036c20.065-25.772,30.671-52.77,30.671-78.075
			c0-36.215-29.463-65.678-65.678-65.678c-36.215,0-65.678,29.463-65.678,65.678c0,25.305,10.606,52.303,30.671,78.075
			c5.522,7.094,11.025,13.168,15.803,18.036h-24.293c-4.142,0-7.499,3.358-7.499,7.499s3.358,7.499,7.499,7.499h86.993
			c4.142,0,7.499-3.358,7.499-7.499S303.638,276.375,299.497,276.375z M255.993,273.989c-13.324-11.986-50.673-49.535-50.673-93.725
			c0.001-27.945,22.735-50.679,50.68-50.679s50.679,22.734,50.679,50.679C306.679,224.348,269.305,261.985,255.993,273.989z"/>
	</g>
</g>
<g>
	<g>
		<path d="M255.999,143.321c-20.37,0-36.942,16.572-36.942,36.943c0,20.37,16.572,36.942,36.942,36.942s36.942-16.572,36.942-36.942
			S276.37,143.321,255.999,143.321z M255.999,202.208c-12.1,0-21.944-9.844-21.944-21.944c0-12.1,9.844-21.944,21.944-21.944
			c12.1,0,21.944,9.844,21.944,21.944C277.944,192.364,268.1,202.208,255.999,202.208z"/>
	</g>
</g>
<g>
	<g>
		<path d="M337.328,322.519H174.671c-13.875,0-25.163,11.288-25.163,25.163v35.73c0,13.875,11.288,25.163,25.163,25.163h162.657
			c13.875,0,25.163-11.288,25.163-25.163v-35.73C362.491,333.807,351.203,322.519,337.328,322.519z M347.492,383.412
			L347.492,383.412c-0.001,5.605-4.561,10.165-10.165,10.165H174.671c-5.605,0-10.164-4.56-10.164-10.165v-35.73
			c0-5.605,4.56-10.164,10.164-10.164h162.657c5.605,0,10.164,4.56,10.164,10.164V383.412z"/>
	</g>
</g>
<g>
</g>
<g>
</g>
<g>
</g>
<g>
</g>
<g>
</g>
<g>
</g>
<g>
</g>
<g>
</g>
<g>
</g>
<g>
</g>
<g>
</g>
<g>
</g>
<g>
</g>
<g>
</g>
<g>
</g>
</svg>
