<?xml version="1.0" encoding="iso-8859-1"?>
<!-- Generator: Adobe Illustrator 19.0.0, SVG Export Plug-In . SVG Version: 6.00 Build 0)  -->
<svg version="1.1" id="Capa_1" xmlns="http://www.w3.org/2000/svg" xmlns:xlink="http://www.w3.org/1999/xlink" x="0px" y="0px"
	 viewBox="0 0 512 512" style="enable-background:new 0 0 512 512;" xml:space="preserve">
<g>
	<g>
		<path d="M231.45,71.195h-17.648c-1.348,0-1.92,1.471-1.92,2.819c0,1.552,0.695,2.9,1.92,2.9h5.638v22.182
			c0,1.307,1.594,1.961,3.187,1.961s3.186-0.654,3.186-1.961V76.914h5.637c1.226,0,1.92-1.348,1.92-2.9
			C233.37,72.665,232.798,71.195,231.45,71.195z"/>
	</g>
</g>
<g>
	<g>
		<path d="M259.026,97.993l-7.641-24.919c-0.449-1.43-2.287-2.124-4.167-2.124c-1.879,0-3.717,0.694-4.166,2.124l-7.599,24.919
			c-0.041,0.164-0.082,0.327-0.082,0.449c0,1.512,2.328,2.614,4.085,2.614c1.022,0,1.839-0.327,2.084-1.184l1.389-5.107h8.62
			l1.389,5.107c0.246,0.857,1.063,1.184,2.084,1.184c1.757,0,4.086-1.103,4.086-2.614C259.108,98.319,259.066,98.156,259.026,97.993
			z M244.235,89.864l2.982-10.948l2.982,10.948H244.235z"/>
	</g>
</g>
<g>
	<g>
		<path d="M286.762,97.012l-7.068-10.907l6.781-10.866c0.286-0.45,0.409-0.858,0.409-1.266c0-1.716-2.328-3.023-4.125-3.023
			c-0.899,0-1.512,0.327-1.921,1.062l-5.433,9.477l-5.434-9.477c-0.409-0.736-1.021-1.062-1.92-1.062
			c-1.797,0-4.126,1.307-4.126,3.023c0,0.409,0.122,0.817,0.408,1.266l6.782,10.866l-7.067,10.907
			c-0.246,0.409-0.368,0.776-0.368,1.144c0,1.757,2.492,3.145,4.249,3.145c0.653,0,1.226-0.204,1.511-0.654l5.965-10.131
			l5.965,10.131c0.245,0.449,0.858,0.654,1.511,0.654c1.757,0,4.249-1.389,4.249-3.145C287.13,97.788,287.008,97.42,286.762,97.012z
			"/>
	</g>
</g>
<g>
	<g>
		<path d="M296.931,71.195c-1.594,0-3.186,0.572-3.186,1.92v25.981c0,1.307,1.593,1.961,3.186,1.961
			c1.594,0,3.186-0.654,3.186-1.961V73.115C300.117,71.767,298.525,71.195,296.931,71.195z"/>
	</g>
</g>
<g>
	<g>
		<path d="M492.214,197.086h-30.022c-4.624,0-8.872,1.606-12.245,4.274l-19.566-61.651c-6.423-20.24-25.005-33.838-46.24-33.838
			h-30.199l-11.177-38.106c-3.068-10.461-12.826-17.768-23.728-17.768H192.963c-10.902,0-20.66,7.306-23.728,17.768l-11.177,38.106
			H127.88c-21.235,0-39.817,13.598-46.239,33.838l-19.57,61.665c-3.375-2.676-7.631-4.288-12.263-4.288H19.786
			C8.876,197.086,0,205.962,0,216.872v15.091c0,10.91,8.876,19.785,19.786,19.785h14.877
			c-10.832,14.196-17.369,32.231-17.369,48.957v53.979c0,20.666,13.894,38.137,32.827,43.595v33.9
			c0,16.445,13.379,29.824,29.824,29.824h33.094c16.445,0,29.824-13.379,29.824-29.824v-32.121h226.274v32.121
			c0,16.445,13.379,29.824,29.824,29.824h33.094c16.445,0,29.824-13.379,29.824-29.824v-34.66
			c19.062-6.445,32.827-24.488,32.827-45.698v-51.116c0-16.727-6.537-34.762-17.369-48.957h14.877
			c10.91,0,19.786-8.876,19.786-19.785v-15.091C512,205.962,503.124,197.086,492.214,197.086z M183.626,71.986
			c1.207-4.116,5.047-6.991,9.337-6.991h126.075c4.29,0,8.13,2.875,9.337,6.991l9.939,33.885H173.686L183.626,71.986z
			 M69.593,227.163c0.062-0.158,0.127-0.314,0.179-0.478l26.163-82.439c4.437-13.983,17.274-23.377,31.944-23.377h256.245
			c0.008,0,0,0,0.008,0c0.009,0,0,0,0.009,0c14.67,0,27.507,9.395,31.945,23.377l26.32,82.931v0.018
			c-3.899-0.984-7.933-1.516-12.074-1.516h-3.337L404,153.226c-3.346-10.543-13.024-17.627-24.085-17.627h-44.869
			c-4.141,0-7.499,3.357-7.499,7.499c0,4.141,3.357,7.499,7.499,7.499h44.869c4.496,0,8.431,2.879,9.791,7.166l21.556,67.917
			H100.767l21.554-67.916c1.36-4.286,5.295-7.167,9.791-7.167h168.044c4.141,0,7.499-3.357,7.499-7.499
			c0-4.141-3.357-7.499-7.499-7.499H132.113c-11.061,0-20.741,7.084-24.086,17.628l-22.994,72.452h-3.366
			c-4.141,0-8.175,0.532-12.074,1.516V227.163z M19.786,236.751c-2.641,0-4.789-2.148-4.789-4.788v-15.091
			c0-2.64,2.148-4.788,4.789-4.788h30.022c2.64,0,4.788,2.148,4.788,4.788v16.653c-1.65,0.995-3.26,2.073-4.828,3.226H19.786z
			 M127.867,432.18L127.867,432.18c-0.001,8.176-6.653,14.827-14.828,14.827H79.945c-8.176,0-14.827-6.652-14.827-14.827v-32.121
			h62.749V432.18z M446.884,432.18h-0.001c0,8.176-6.652,14.827-14.827,14.827h-33.094c-8.176,0-14.827-6.652-14.827-14.827v-32.121
			h62.336c0.138,0,0.274-0.009,0.413-0.01V432.18z M479.71,300.705v51.116c0,18.329-14.911,33.24-33.24,33.24H62.667
			c-16.75,0-30.377-13.627-30.377-30.377v-53.979c0-20.257,10.03-38.096,22.921-48.957h1.609l13.996,25.212
			c6.827,12.297,21.566,20.244,37.549,20.244h23.257c4.141,0,7.499-3.357,7.499-7.499c0-4.142-3.357-7.499-7.499-7.499h-23.257
			c-10.621,0-20.212-4.917-24.436-12.525l-14.336-25.824v-0.785c4.054-1.55,8.136-2.396,12.074-2.396h348.665
			c4.169,0,8.212,0.772,12.074,2.161v1.412c0,0.028,0.004,0.055,0.004,0.083l-14.072,25.349
			c-4.224,7.609-13.816,12.525-24.436,12.525h-237.39c-4.141,0-7.499,3.357-7.499,7.499c0,4.142,3.357,7.499,7.499,7.499h237.391
			c15.983,0,30.722-7.946,37.548-20.244l13.996-25.212h1.665C470.723,263.696,479.71,283.346,479.71,300.705z M497.003,231.963
			c0,2.64-2.148,4.788-4.789,4.788h-29.982c-1.568-1.152-3.178-2.231-4.828-3.226v-7.506c0-0.026,0-0.052,0-0.077v-9.069
			c0-2.64,2.148-4.788,4.788-4.788h30.022c2.641,0,4.789,2.148,4.789,4.788V231.963z"/>
	</g>
</g>
<g>
	<g>
		<path d="M145.629,346.061l-11.53-25.99c-2.069-4.664-6.5-7.942-11.565-8.556l-49.776-6.036c-4.836-0.589-9.622,1.268-12.8,4.962
			c-3.178,3.694-4.298,8.702-2.995,13.397l7.275,26.235c1.607,5.794,6.509,9.953,12.488,10.594l54.031,5.792
			c0.539,0.058,1.074,0.086,1.606,0.086c4.638,0,8.935-2.169,11.721-5.99C147.189,356.297,147.766,350.878,145.629,346.061z
			 M78.611,345.785l-7.027-25.342l48.904,5.931l11.134,25.093L78.611,345.785z"/>
	</g>
</g>
<g>
	<g>
		<path d="M452.31,310.441c-3.178-3.695-7.965-5.549-12.8-4.963l-49.776,6.036c-5.065,0.614-9.497,3.893-11.565,8.556l-11.531,25.99
			c-2.137,4.817-1.559,10.235,1.546,14.494c2.786,3.821,7.083,5.99,11.721,5.99c0.532,0,1.068-0.028,1.606-0.086l54.031-5.792
			c5.979-0.641,10.881-4.799,12.488-10.594l7.275-26.234C456.607,319.143,455.488,314.134,452.31,310.441z M433.657,345.785
			l-53.01,5.682l11.133-25.093l48.904-5.931L433.657,345.785z"/>
	</g>
</g>
<g>
	<g>
		<path d="M354.528,346.236l-6.18-24.059c-2.067-8.043-9.311-13.661-17.615-13.661H181.536c-8.306,0-15.549,5.618-17.615,13.661
			l-6.18,24.058c-1.409,5.484-0.227,11.197,3.244,15.671s8.708,7.041,14.371,7.041h161.557c5.663,0,10.901-2.566,14.371-7.041
			C354.755,357.431,355.936,351.719,354.528,346.236z M339.433,352.715c-0.358,0.461-1.161,1.235-2.521,1.235H175.356
			c-1.36,0-2.163-0.774-2.52-1.235c-0.358-0.461-0.908-1.432-0.569-2.749l6.18-24.058c0.362-1.41,1.633-2.396,3.089-2.396h149.197
			c1.457,0,2.728,0.985,3.09,2.396l6.179,24.058C340.34,351.283,339.791,352.254,339.433,352.715z"/>
	</g>
</g>
<g>
</g>
<g>
</g>
<g>
</g>
<g>
</g>
<g>
</g>
<g>
</g>
<g>
</g>
<g>
</g>
<g>
</g>
<g>
</g>
<g>
</g>
<g>
</g>
<g>
</g>
<g>
</g>
<g>
</g>
</svg>
