<?xml version="1.0" encoding="iso-8859-1"?>
<!-- Generator: Adobe Illustrator 19.0.0, SVG Export Plug-In . SVG Version: 6.00 Build 0)  -->
<svg version="1.1" id="Capa_1" xmlns="http://www.w3.org/2000/svg" xmlns:xlink="http://www.w3.org/1999/xlink" x="0px" y="0px"
	 viewBox="0 0 512 512" style="enable-background:new 0 0 512 512;" xml:space="preserve">
<g>
	<g>
		<path d="M132.29,229.744c0-6.205,5.301-9.954,14.609-9.954c10.858,0,13.832,4.913,17.84,4.913c4.654,0,6.722-5.947,6.722-8.92
			c0-8.532-16.934-10.342-24.562-10.342c-14.867,0-31.414,6.593-31.414,25.855c0,30.638,41.497,24.691,41.497,44.083
			c-0.001,7.756-6.723,11.246-14.479,11.246c-13.186,0-16.676-9.954-21.977-9.954c-4.007,0-7.368,5.43-7.368,9.049
			c0,7.498,12.927,16.03,29.862,16.03c17.84,0,30.768-9.566,30.768-28.053C173.788,240.215,132.29,245.774,132.29,229.744z"/>
	</g>
</g>
<g>
	<g>
		<path d="M242.816,206.087h-54.684c-3.619,0-5.3,3.878-5.3,7.498c0,4.137,1.939,7.627,5.3,7.627h19.004v74.075
			c0,3.49,4.136,5.3,8.403,5.3c4.137,0,8.403-1.81,8.403-5.3v-74.075h18.875c3.361,0,5.3-3.62,5.3-7.627
			C248.115,209.965,246.435,206.087,242.816,206.087z"/>
	</g>
</g>
<g>
	<g>
		<path d="M288.705,206.087c-17.064,0-30.251,8.015-30.251,29.604v36.067c0,21.589,13.186,29.604,30.251,29.604
			s30.38-8.015,30.38-29.604v-36.067C319.085,214.102,305.77,206.087,288.705,206.087z M302.28,271.759
			c0,10.213-5.172,14.867-13.574,14.867c-8.532,0-13.444-4.654-13.444-14.867v-36.067c0-10.213,4.913-14.867,13.444-14.867
			c8.403,0,13.574,4.654,13.574,14.867V271.759z"/>
	</g>
</g>
<g>
	<g>
		<path d="M369.499,206.087h-25.984c-3.878,0-6.335,2.456-6.335,5.171v84.029c-0.002,3.49,4.135,5.3,8.401,5.3
			c4.137,0,8.404-1.81,8.404-5.3v-29.992h14.479c17.064,0,30.38-8.145,30.38-29.345v-0.776
			C398.844,213.973,385.916,206.087,369.499,206.087z M382.036,237.243c0,10.084-5.171,14.867-13.573,14.867h-14.479v-31.285h14.479
			c8.403,0,13.573,4.783,13.573,14.867V237.243z"/>
	</g>
</g>
<g>
	<g>
		<path d="M509.072,245.037L392.03,42.315c-3.904-6.762-11.18-10.963-18.988-10.963H138.959c-7.809,0-15.084,4.201-18.988,10.963
			L2.928,245.037c-3.904,6.762-3.904,15.164,0,21.926L119.97,469.685c3.904,6.762,11.18,10.963,18.988,10.963h234.083
			c7.809,0,15.084-4.201,18.988-10.963l117.042-202.723C512.976,260.201,512.976,251.799,509.072,245.037z M256,46.482
			c24.473,0,44.383,19.91,44.383,44.383s-19.91,44.383-44.383,44.383c-24.473,0-44.383-19.91-44.383-44.383
			C211.617,66.392,231.527,46.482,256,46.482z M256,465.518c-24.473,0-44.383-19.91-44.383-44.383
			c0-24.473,19.91-44.383,44.383-44.383c24.473,0,44.383,19.91,44.383,44.383C300.383,445.607,280.473,465.518,256,465.518z
			 M495.969,259.398L378.926,462.12c-1.21,2.096-3.465,3.398-5.885,3.398h-77.448c12.213-10.907,19.921-26.759,19.921-44.383
			c0-32.816-26.697-59.514-59.514-59.514s-59.514,26.698-59.514,59.514c0,17.625,7.707,33.477,19.921,44.383h-77.448
			c-2.42,0-4.675-1.302-5.885-3.398L16.031,259.398c-1.21-2.096-1.21-4.699,0-6.795L133.074,49.88
			c1.21-2.096,3.464-3.398,5.885-3.398h77.448c-12.213,10.907-19.921,26.759-19.921,44.383c0,32.816,26.697,59.514,59.514,59.514
			s59.514-26.698,59.514-59.514c0-17.624-7.707-33.477-19.921-44.383h77.448c2.42,0,4.675,1.302,5.885,3.398l117.042,202.723
			C497.178,254.698,497.178,257.302,495.969,259.398z"/>
	</g>
</g>
<g>
	<g>
		<path d="M256,388.482c-18.004,0-32.652,14.648-32.652,32.652c0,18.004,14.648,32.652,32.652,32.652s32.652-14.648,32.652-32.652
			C288.652,403.129,274.004,388.482,256,388.482z M256,438.655c-9.662,0-17.521-7.86-17.521-17.521
			c0-9.662,7.86-17.521,17.521-17.521s17.521,7.86,17.521,17.521S265.662,438.655,256,438.655z"/>
	</g>
</g>
<g>
	<g>
		<path d="M256,58.214c-18.004,0-32.652,14.648-32.652,32.652c0,18.004,14.648,32.652,32.652,32.652
			c18.004,0,32.652-14.648,32.652-32.652C288.652,72.862,274.004,58.214,256,58.214z M256,108.387
			c-9.661,0-17.521-7.86-17.521-17.521c0-9.661,7.859-17.521,17.521-17.521s17.521,7.86,17.521,17.521
			C273.521,100.528,265.661,108.387,256,108.387z"/>
	</g>
</g>
<g>
	<g>
		<path d="M478.849,249.175L373.335,66.422c-2.429-4.21-6.958-6.826-11.82-6.826h-24.016c-4.179,0-7.565,3.387-7.565,7.565
			c0,4.178,3.387,7.565,7.565,7.565h23.159L465.317,256L360.658,437.274h-23.169c-4.179,0-7.565,3.387-7.565,7.565
			c0,4.178,3.387,7.565,7.565,7.565h24.026c4.862,0,9.391-2.616,11.818-6.824l105.516-182.757
			C481.279,258.614,481.279,253.384,478.849,249.175z"/>
	</g>
</g>
<g>
	<g>
		<path d="M174.57,437.275h-23.228L46.683,256L151.342,74.726h23.238c4.178,0,7.565-3.387,7.565-7.565
			c0-4.178-3.387-7.565-7.565-7.565h-24.094c-4.862,0-9.392,2.616-11.819,6.824L33.151,249.176c-2.43,4.209-2.43,9.439,0,13.648
			l105.514,182.755c2.429,4.21,6.959,6.826,11.821,6.826h24.084c4.179,0,7.565-3.387,7.565-7.565
			C182.135,440.662,178.748,437.275,174.57,437.275z"/>
	</g>
</g>
<g>
</g>
<g>
</g>
<g>
</g>
<g>
</g>
<g>
</g>
<g>
</g>
<g>
</g>
<g>
</g>
<g>
</g>
<g>
</g>
<g>
</g>
<g>
</g>
<g>
</g>
<g>
</g>
<g>
</g>
</svg>
