<?xml version="1.0" encoding="iso-8859-1"?>
<!-- Generator: Adobe Illustrator 19.0.0, SVG Export Plug-In . SVG Version: 6.00 Build 0)  -->
<svg version="1.1" id="Capa_1" xmlns="http://www.w3.org/2000/svg" xmlns:xlink="http://www.w3.org/1999/xlink" x="0px" y="0px"
	 viewBox="0 0 512.001 512.001" style="enable-background:new 0 0 512.001 512.001;" xml:space="preserve">
<g>
	<g>
		<path d="M364.607,292.739H147.394c-4.147,0-7.507,3.361-7.507,7.507s3.36,7.507,7.507,7.507h217.213
			c4.147,0,7.507-3.361,7.507-7.507S368.753,292.739,364.607,292.739z"/>
	</g>
</g>
<g>
	<g>
		<path d="M364.606,330.025H204.405c-4.147,0-7.507,3.361-7.507,7.507s3.361,7.507,7.507,7.507h160.201
			c4.147,0,7.507-3.361,7.507-7.507S368.753,330.025,364.606,330.025z"/>
	</g>
</g>
<g>
	<g>
		<path d="M169.475,330.025h-22.081c-4.147,0-7.507,3.361-7.507,7.507s3.36,7.507,7.507,7.507h22.081
			c4.147,0,7.507-3.361,7.507-7.507S173.621,330.025,169.475,330.025z"/>
	</g>
</g>
<g>
	<g>
		<path d="M231.565,75.823H107.306c-11.334,0-20.556,9.222-20.556,20.557v76.502c0,11.335,9.222,20.556,20.556,20.556h124.259
			c11.334,0,20.556-9.221,20.556-20.556V96.38C252.121,85.045,242.899,75.823,231.565,75.823z M237.107,172.882L237.107,172.882
			c-0.001,3.056-2.487,5.542-5.543,5.542H107.306c-3.056,0-5.542-2.486-5.542-5.542V96.38c0-3.056,2.486-5.542,5.542-5.542h124.259
			c3.056,0,5.542,2.486,5.542,5.542V172.882z"/>
	</g>
</g>
<g>
	<g>
		<path d="M404.694,75.823H280.685c-11.334,0-20.556,9.222-20.556,20.557v76.502c0,11.335,9.222,20.556,20.556,20.556h124.008
			c11.334,0,20.556-9.221,20.556-20.556V96.38C425.25,85.045,416.028,75.823,404.694,75.823z M410.235,172.882
			c0,3.056-2.486,5.542-5.542,5.542H280.685c-3.056,0-5.542-2.486-5.542-5.542V96.38c0-3.056,2.486-5.542,5.542-5.542h124.008
			c3.056,0,5.542,2.486,5.542,5.542V172.882z"/>
	</g>
</g>
<g>
	<g>
		<path d="M497.717,81.994H481.06c-2.098-7.631-9.079-13.261-17.368-13.261h-14.418V56.792c0-29.211-23.765-52.976-52.976-52.976
			H115.702c-29.211,0-52.976,23.765-52.976,52.976v11.941H48.308c-8.289,0-15.27,5.63-17.368,13.261H14.283
			C6.407,81.994,0,88.401,0,96.277v84.545c0,7.875,6.407,14.283,14.283,14.283H30.28v3.957c0,10.178,5.49,19.638,14.328,24.688
			c0.079,0.045,0.158,0.089,0.239,0.131l17.88,9.371v59.312c-19.477,2.494-34.583,19.165-34.583,39.308v73.909
			c0,17.356,13.893,31.519,31.141,31.976v44.394c0,14.354,11.678,26.032,26.032,26.032h39.846c14.354,0,26.032-11.678,26.032-26.032
			V437.78h209.61v44.373c0,14.354,11.678,26.032,26.032,26.032h39.846c14.354,0,26.032-11.678,26.032-26.032v-44.394
			c17.248-0.457,31.141-14.62,31.141-31.976v-73.909c0-20.144-15.106-36.814-34.583-39.308v-59.312l17.88-9.371
			c0.081-0.043,0.16-0.086,0.24-0.131c8.838-5.05,14.328-14.51,14.328-24.688v-3.957h15.997c7.876,0,14.283-6.407,14.283-14.283
			V96.277C512,88.401,505.593,81.994,497.717,81.994z M30.28,180.09H15.015V97.009H30.28V180.09z M62.726,216.3l-10.775-5.647
			c-4.109-2.398-6.657-6.828-6.657-11.591v-11.464V89.501v-2.74c0-1.662,1.352-3.014,3.014-3.014h14.418V216.3z M201.947,18.83
			h108.106v5.268c0,1.2-0.977,2.177-2.177,2.177H204.124c-1.2,0-2.177-0.977-2.177-2.177V18.83z M77.741,64.813h255.526
			c4.147,0,7.507-3.361,7.507-7.507c0-4.146-3.361-7.507-7.507-7.507H78.398C81.691,32.196,97.16,18.83,115.702,18.83h71.23v5.268
			c0,9.48,7.713,17.192,17.192,17.192h103.752c9.479,0,17.192-7.712,17.192-17.192V18.83h71.23
			c18.542,0,34.011,13.366,37.304,30.968h-65.404c-4.147,0-7.507,3.361-7.507,7.507s3.361,7.507,7.507,7.507h66.061v139.637H77.741
			V64.813z M77.741,219.464h356.518v72.766h-27.068v-22.569c0-19.778-16.09-35.868-35.867-35.868H140.676
			c-19.777,0-35.867,16.09-35.867,35.868v22.569H77.741V219.464z M392.176,277.169V362H119.824v-84.831H392.176z M121.244,262.154
			c3.022-7.795,10.582-13.346,19.432-13.346h230.648c8.85,0,16.41,5.551,19.432,13.346H121.244z M67.787,307.245h37.023V362H43.16
			v-30.127h-0.001C43.159,318.293,54.207,307.245,67.787,307.245z M136.18,482.152c0,6.075-4.942,11.018-11.018,11.018H85.317
			c-6.075,0-11.018-4.942-11.018-11.018V437.78h61.881V482.152z M426.683,493.17h-39.846c-6.075,0-11.018-4.942-11.018-11.018
			V437.78H437.7v44.372h0.001C437.701,488.227,432.759,493.17,426.683,493.17z M468.842,405.782h-0.001
			c0,9.365-7.619,16.983-16.983,16.983H60.142c-9.365,0-16.983-7.618-16.983-16.983v-28.767h425.683V405.782z M468.841,331.873V362
			h-61.65v-54.755h37.023C457.794,307.245,468.841,318.293,468.841,331.873z M466.706,89.501v98.096v11.464
			c0,4.763-2.547,9.194-6.657,11.591l-10.775,5.647V83.748h14.418c1.662,0,3.014,1.352,3.014,3.014V89.501z M496.985,180.09
			L496.985,180.09H481.72V97.009h15.265V180.09z"/>
	</g>
</g>
<g>
	<g>
		<path d="M75.803,312.025c-13.01,0-23.594,10.584-23.594,23.594c0,13.01,10.585,23.594,23.594,23.594
			c13.009,0,23.594-10.585,23.594-23.594C99.397,322.609,88.813,312.025,75.803,312.025z M75.803,344.199
			c-4.731,0-8.58-3.849-8.58-8.58c0-4.731,3.849-8.579,8.58-8.579c4.731,0,8.58,3.849,8.58,8.579
			C84.383,340.349,80.534,344.199,75.803,344.199z"/>
	</g>
</g>
<g>
	<g>
		<path d="M436.197,312.025c-13.009,0-23.594,10.584-23.594,23.594c0,13.01,10.585,23.594,23.594,23.594
			c13.009,0,23.594-10.585,23.594-23.594C459.791,322.609,449.206,312.025,436.197,312.025z M436.197,344.199
			c-4.732,0-8.58-3.849-8.58-8.58c0-4.731,3.849-8.579,8.58-8.579c4.731,0,8.58,3.848,8.58,8.579
			C444.777,340.35,440.929,344.199,436.197,344.199z"/>
	</g>
</g>
<g>
</g>
<g>
</g>
<g>
</g>
<g>
</g>
<g>
</g>
<g>
</g>
<g>
</g>
<g>
</g>
<g>
</g>
<g>
</g>
<g>
</g>
<g>
</g>
<g>
</g>
<g>
</g>
<g>
</g>
</svg>
