<?xml version="1.0" encoding="iso-8859-1"?>
<!-- Generator: Adobe Illustrator 19.0.0, SVG Export Plug-In . SVG Version: 6.00 Build 0)  -->
<svg version="1.1" id="Capa_1" xmlns="http://www.w3.org/2000/svg" xmlns:xlink="http://www.w3.org/1999/xlink" x="0px" y="0px"
	 viewBox="0 0 512 512" style="enable-background:new 0 0 512 512;" xml:space="preserve">
<g>
	<g>
		<path d="M255.999,20.321c-18.298,0-33.185,14.887-33.185,33.185c0,18.298,14.887,33.185,33.185,33.185
			c18.298,0,33.185-14.887,33.185-33.185C289.183,35.208,274.297,20.321,255.999,20.321z M255.999,71.686
			c-10.025,0-18.18-8.155-18.18-18.18c0-10.025,8.155-18.18,18.18-18.18c10.025,0,18.18,8.155,18.18,18.18
			C274.179,63.53,266.024,71.686,255.999,71.686z"/>
	</g>
</g>
<g>
	<g>
		<path d="M255.999,93.345c-18.298,0-33.185,14.887-33.185,33.185c0,18.298,14.887,33.185,33.185,33.185
			c18.298,0,33.185-14.887,33.185-33.185C289.184,108.232,274.297,93.345,255.999,93.345z M255.999,144.71
			c-10.025,0-18.18-8.155-18.18-18.18c0-10.025,8.155-18.18,18.18-18.18c10.025,0,18.18,8.155,18.18,18.18
			C274.179,136.555,266.024,144.71,255.999,144.71z"/>
	</g>
</g>
<g>
	<g>
		<path d="M255.999,166.37c-18.298,0-33.185,14.887-33.185,33.185c0,18.298,14.887,33.185,33.185,33.185
			c18.298,0,33.185-14.887,33.185-33.185C289.183,181.256,274.297,166.37,255.999,166.37z M255.999,217.734
			c-10.025,0-18.18-8.155-18.18-18.18c0-10.024,8.155-18.18,18.18-18.18c10.025,0,18.18,8.155,18.18,18.18
			C274.179,209.579,266.024,217.734,255.999,217.734z"/>
	</g>
</g>
<g>
	<g>
		<path d="M360.427,170.384c-1.713-2.514-4.553-4.015-7.596-4.015h-38.157v-6.705c15.902-0.74,29.753-10.597,35.625-25.544
			l11.087-28.221c1.113-2.832,0.754-6.024-0.96-8.539c-1.713-2.514-4.553-4.015-7.596-4.015h-38.157V86.64
			c15.904-0.741,29.755-10.598,35.627-25.545l11.087-28.221c1.113-2.832,0.754-6.024-0.96-8.539
			c-1.713-2.514-4.553-4.015-7.596-4.015h-38.157v-2.274C314.672,8.096,306.576,0,296.624,0h-81.251
			c-9.951,0-18.047,8.096-18.047,18.047v2.274h-38.157c-3.043,0-5.883,1.501-7.596,4.015c-1.714,2.514-2.073,5.707-0.96,8.54
			l11.087,28.22c5.872,14.947,19.723,24.804,35.627,25.545v6.705h-38.158c-3.043,0-5.883,1.501-7.596,4.015
			c-1.714,2.514-2.073,5.707-0.96,8.54l11.086,28.219c5.872,14.948,19.723,24.805,35.627,25.546v6.705h-38.157
			c-3.043,0-5.883,1.501-7.596,4.015c-1.714,2.514-2.073,5.707-0.96,8.54l11.087,28.22c5.872,14.947,19.723,24.804,35.627,25.545
			v2.323c0,9.951,8.096,18.048,18.047,18.048h18.148v123.913c0,4.143,3.359,7.502,7.502,7.502s7.502-3.359,7.502-7.502V253.06
			h14.946v218.879h-14.946v-59.035c0-4.143-3.359-7.502-7.502-7.502s-7.502,3.359-7.502,7.502v60.076
			c-10.414,3.091-18.035,12.743-18.035,24.147v4.897c0,5.501,4.475,9.976,9.975,9.976h61.075c5.501,0,9.976-4.475,9.976-9.976
			v-4.897c0-11.404-7.621-21.057-18.035-24.147V253.06h18.147c9.951,0,18.048-8.096,18.048-18.048v-2.323
			c15.904-0.741,29.755-10.598,35.627-25.545l11.087-28.221C362.5,176.091,362.141,172.899,360.427,170.384z M197.327,217.662
			L197.327,217.662c-9.688-0.721-18.062-6.841-21.662-16.005l-7.968-20.283h29.63V217.662z M197.327,144.638L197.327,144.638
			c-9.688-0.721-18.062-6.841-21.662-16.005l-7.968-20.283h29.63V144.638z M197.327,71.613L197.327,71.613
			c-9.688-0.721-18.062-6.841-21.662-16.005l-7.968-20.283h29.63V71.613z M281.506,496.995h-51.015
			c0.071-5.555,4.611-10.051,10.182-10.051h30.649C276.894,486.944,281.435,491.441,281.506,496.995z M299.667,235.012
			c0,1.678-1.365,3.043-3.043,3.043h-81.251c-1.678,0-3.042-1.365-3.042-3.043V18.047c0-1.678,1.365-3.042,3.042-3.042h81.251
			c1.678,0,3.043,1.365,3.043,3.042V235.012z M344.302,108.35l-7.968,20.283c-3.6,9.163-11.974,15.284-21.661,16.005V108.35H344.302
			z M344.302,35.326l-7.968,20.283c-3.6,9.163-11.974,15.284-21.661,16.005V35.326H344.302z M336.334,201.658
			c-3.6,9.163-11.974,15.284-21.661,16.005v-36.288h29.629L336.334,201.658z"/>
	</g>
</g>
<g>
</g>
<g>
</g>
<g>
</g>
<g>
</g>
<g>
</g>
<g>
</g>
<g>
</g>
<g>
</g>
<g>
</g>
<g>
</g>
<g>
</g>
<g>
</g>
<g>
</g>
<g>
</g>
<g>
</g>
</svg>
