<?xml version="1.0" encoding="iso-8859-1"?>
<!-- Generator: Adobe Illustrator 19.0.0, SVG Export Plug-In . SVG Version: 6.00 Build 0)  -->
<svg version="1.1" id="Capa_1" xmlns="http://www.w3.org/2000/svg" xmlns:xlink="http://www.w3.org/1999/xlink" x="0px" y="0px"
	 viewBox="0 0 512 512" style="enable-background:new 0 0 512 512;" xml:space="preserve">
<g>
	<g>
		<path d="M167.015,124.646h-38.496c-4.17,0-7.55,3.38-7.55,7.55s3.38,7.55,7.55,7.55h38.496c4.17,0,7.55-3.38,7.55-7.55
			S171.185,124.646,167.015,124.646z"/>
	</g>
</g>
<g>
	<g>
		<path d="M189.924,58.726h-84.315c-8.225,0-14.916,6.692-14.916,14.916v80.601c0,8.225,6.692,14.916,14.916,14.916h84.315
			c8.225,0,14.916-6.691,14.916-14.916V73.642C204.84,65.417,198.148,58.726,189.924,58.726z M189.74,154.059h-83.946V73.827h83.946
			V154.059z"/>
	</g>
</g>
<g>
	<g>
		<path d="M424.966,141.429H235.501v-27.486c0-4.17-3.38-7.55-7.55-7.55c-4.17,0-7.55,3.38-7.55,7.55v85.93H75.134V43.166H220.4
			v35.607c0,4.17,3.38,7.55,7.55,7.55c4.17,0,7.55-3.38,7.55-7.55V42.914c0-8.187-6.661-14.848-14.848-14.848h-19.908v-15.81
			C200.744,5.498,195.247,0,188.489,0h-81.444C100.288,0,94.79,5.498,94.79,12.255v15.81H74.881
			c-8.187,0-14.848,6.661-14.848,14.848v164.509v202.413c0,4.17,3.38,7.55,7.55,7.55c4.17,0,7.55-3.38,7.55-7.55V214.974h145.266
			V496.9H75.134v-51.933c0-4.17-3.38-7.55-7.55-7.55c-4.17,0-7.55,3.38-7.55,7.55v52.185c0,8.187,6.661,14.848,14.848,14.848
			h145.772c8.187,0,14.848-6.661,14.848-14.848V267.663l57.524,49.065c5.075,4.329,11.302,6.445,17.501,6.445
			c7.636,0,15.229-3.214,20.561-9.465c9.661-11.327,8.306-28.401-3.02-38.062l-92.566-78.955v-1.264h189.466
			c14.887,0,26.999-12.111,26.999-26.999S439.854,141.429,424.966,141.429z M109.89,15.101h75.754v12.965H109.89V15.101z
			 M318.267,287.134c4.991,4.258,5.589,11.783,1.331,16.773c-4.257,4.992-11.783,5.59-16.774,1.332l-67.323-57.424v-31.277
			L318.267,287.134z M424.966,180.326H235.501V156.53h189.466c6.561,0,11.898,5.337,11.898,11.898
			C436.864,174.988,431.527,180.326,424.966,180.326z"/>
	</g>
</g>
<g>
</g>
<g>
</g>
<g>
</g>
<g>
</g>
<g>
</g>
<g>
</g>
<g>
</g>
<g>
</g>
<g>
</g>
<g>
</g>
<g>
</g>
<g>
</g>
<g>
</g>
<g>
</g>
<g>
</g>
</svg>
