<?xml version="1.0" encoding="iso-8859-1"?>
<!-- Generator: Adobe Illustrator 19.0.0, SVG Export Plug-In . SVG Version: 6.00 Build 0)  -->
<svg version="1.1" id="Capa_1" xmlns="http://www.w3.org/2000/svg" xmlns:xlink="http://www.w3.org/1999/xlink" x="0px" y="0px"
	 viewBox="0 0 512.001 512.001" style="enable-background:new 0 0 512.001 512.001;" xml:space="preserve">
<g>
	<g>
		<path d="M144.42,232.25c-1.604-3.755-5.947-5.499-9.702-3.896l-19.101,8.156l-28.704-5.711c-4.004-0.797-7.896,1.804-8.692,5.808
			c-0.796,4.004,1.804,7.895,5.808,8.692l7.508,1.494l-23.55,10.056l-11.514-6.789c-3.516-2.074-8.048-0.903-10.122,2.614
			c-2.073,3.517-0.903,8.049,2.614,10.122l12.879,7.592c1.812,1.067,3.865,1.609,5.925,1.609c1.553,0,3.111-0.308,4.57-0.931
			l33.058-14.116l-3.893,14.698c-1.045,3.946,1.307,7.992,5.253,9.038c0.634,0.168,1.27,0.248,1.897,0.248
			c3.272,0,6.263-2.189,7.141-5.501l6.845-25.845l17.885-7.637C144.279,240.348,146.023,236.005,144.42,232.25z"/>
	</g>
</g>
<g>
	<g>
		<path d="M461.586,397.235c-3.879-1.274-8.056,0.837-9.329,4.717l-4.17,12.7l-24.329,7.989l4.655-6.078
			c2.482-3.241,1.867-7.881-1.374-10.363c-3.239-2.481-7.88-1.866-10.363,1.374l-17.795,23.236l-19.732,6.48
			c-3.879,1.273-5.99,5.45-4.717,9.329c1.024,3.114,3.916,5.088,7.023,5.088c0.764,0,1.542-0.119,2.308-0.371l18.476-6.067
			l22.201,14.899c1.264,0.849,2.696,1.255,4.112,1.255c2.381,0,4.718-1.148,6.144-3.274c2.275-3.39,1.371-7.982-2.019-10.257
			l-12.626-8.473l34.151-11.215c3.506-1.151,6.287-3.932,7.438-7.438l4.663-14.202C467.577,402.685,465.465,398.509,461.586,397.235
			z"/>
	</g>
</g>
<g>
	<g>
		<path d="M447.912,223.793h-23.509c-4.082,0-7.392,3.309-7.392,7.392s3.309,7.392,7.392,7.392h23.509
			c4.082,0,7.392-3.309,7.392-7.392S451.995,223.793,447.912,223.793z"/>
	</g>
</g>
<g>
	<g>
		<path d="M389.544,223.793H237.365c-4.082,0-7.392,3.309-7.392,7.392c0,4.083,3.31,7.392,7.392,7.392h152.179
			c4.082,0,7.392-3.309,7.392-7.392C396.936,227.102,393.627,223.793,389.544,223.793z"/>
	</g>
</g>
<g>
	<g>
		<path d="M447.912,262.795H237.365c-4.082,0-7.392,3.309-7.392,7.392c0,4.082,3.309,7.392,7.392,7.392h210.547
			c4.082,0,7.392-3.309,7.392-7.392S451.995,262.795,447.912,262.795z"/>
	</g>
</g>
<g>
	<g>
		<path d="M274.635,403.384H64.088c-4.082,0-7.392,3.309-7.392,7.392s3.309,7.392,7.392,7.392h210.547
			c4.082,0,7.392-3.309,7.392-7.392C282.027,406.694,278.718,403.384,274.635,403.384z"/>
	</g>
</g>
<g>
	<g>
		<path d="M274.635,442.619H121.989c-4.082,0-7.392,3.309-7.392,7.392c0,4.082,3.309,7.392,7.392,7.392h152.646
			c4.082,0,7.392-3.309,7.392-7.392C282.026,445.928,278.717,442.619,274.635,442.619z"/>
	</g>
</g>
<g>
	<g>
		<path d="M87.597,442.618H64.088c-4.082,0-7.392,3.309-7.392,7.392c0,4.083,3.309,7.392,7.392,7.392h23.509
			c4.082,0,7.392-3.309,7.392-7.392C94.989,445.928,91.68,442.618,87.597,442.618z"/>
	</g>
</g>
<g>
	<g>
		<path d="M511.926,369.741c-0.742-7.28-6.908-12.979-14.38-12.979h-45.961v-29.486h45.96v0.001c7.971,0,14.455-6.485,14.455-14.455
			V194.756c0-7.97-6.484-14.455-14.455-14.455h-45.961V19.905c0-6.419-5.222-11.641-11.641-11.641H415.53
			c-6.419,0-11.641,5.222-11.641,11.641v160.396H108.111V19.905c0-6.419-5.222-11.641-11.641-11.641H72.056
			c-6.419,0-11.641,5.222-11.641,11.641v160.396h-45.96c-7.472,0-13.638,5.699-14.38,12.979C0.025,193.764,0,194.258,0,194.756
			v118.066c0,0.498,0.025,0.99,0.075,1.476c0.742,7.28,6.908,12.979,14.38,12.979h45.961v29.486H14.455
			C6.484,356.762,0,363.246,0,371.217v118.066c0,7.97,6.484,14.455,14.455,14.455h320.062h163.029
			c7.473,0,13.638-5.699,14.38-12.979c0.049-0.485,0.075-0.978,0.075-1.476V371.217
			C512.001,370.719,511.976,370.227,511.926,369.741z M418.672,23.047h18.129v157.254h-18.129V23.047z M184.875,195.084h312.341
			v117.409H184.875V195.084z M436.801,327.277v29.486h-18.129v-29.486H436.801z M75.199,23.047h18.129v157.254H75.199V23.047z
			 M14.783,312.493V195.084h155.308v117.409H14.783z M93.328,327.277v29.486H75.199v-29.486H93.328z M14.783,488.954V371.546
			h312.341v117.409H14.783z M108.111,356.762v-29.486h295.778v29.486H108.111z M497.217,488.954H341.908V371.546h155.309V488.954z"
			/>
	</g>
</g>
<g>
</g>
<g>
</g>
<g>
</g>
<g>
</g>
<g>
</g>
<g>
</g>
<g>
</g>
<g>
</g>
<g>
</g>
<g>
</g>
<g>
</g>
<g>
</g>
<g>
</g>
<g>
</g>
<g>
</g>
</svg>
