<?xml version="1.0" encoding="iso-8859-1"?>
<!-- Generator: Adobe Illustrator 19.0.0, SVG Export Plug-In . SVG Version: 6.00 Build 0)  -->
<svg version="1.1" id="Capa_1" xmlns="http://www.w3.org/2000/svg" xmlns:xlink="http://www.w3.org/1999/xlink" x="0px" y="0px"
	 viewBox="0 0 512 512" style="enable-background:new 0 0 512 512;" xml:space="preserve">
<g>
	<g>
		<path d="M288.963,262.194c-6.096-1.778-12.436-3.042-18.842-3.758c-4.13-0.464-7.833,2.505-8.292,6.625
			c-0.461,4.12,2.505,7.832,6.625,8.293c5.55,0.621,11.037,1.715,16.309,3.251c0.701,0.205,1.408,0.302,2.103,0.302
			c3.251,0,6.247-2.129,7.202-5.407C295.229,267.521,292.943,263.354,288.963,262.194z"/>
	</g>
</g>
<g>
	<g>
		<path d="M250.174,265.015c-0.442-4.121-4.13-7.106-8.263-6.662c-6.552,0.703-12.941,2.007-18.988,3.875
			c-3.961,1.224-6.18,5.426-4.957,9.386c0.996,3.223,3.964,5.292,7.169,5.292c0.733,0,1.48-0.108,2.216-0.336
			c5.129-1.584,10.566-2.692,16.162-3.292C247.634,272.836,250.617,269.136,250.174,265.015z"/>
	</g>
</g>
<g>
	<g>
		<path d="M106.806,309.706c-13.041,0-23.65,10.609-23.65,23.65c0,13.041,10.609,23.65,23.65,23.65
			c13.041,0,23.65-10.61,23.65-23.65C130.456,320.316,119.847,309.706,106.806,309.706z M106.806,341.996
			c-4.763,0-8.639-3.876-8.639-8.64c0-4.764,3.876-8.64,8.639-8.64c4.763,0,8.639,3.876,8.639,8.64
			C115.445,338.12,111.569,341.996,106.806,341.996z"/>
	</g>
</g>
<g>
	<g>
		<path d="M405.194,309.705c-13.041,0-23.65,10.61-23.65,23.65c0,13.04,10.609,23.65,23.65,23.65c13.041,0,23.65-10.61,23.65-23.65
			C428.844,320.315,418.235,309.705,405.194,309.705z M405.194,341.995c-4.763,0-8.639-3.876-8.639-8.64
			c0-4.764,3.876-8.64,8.639-8.64s8.639,3.876,8.639,8.64C413.833,338.119,409.957,341.995,405.194,341.995z"/>
	</g>
</g>
<g>
	<g>
		<path d="M494.126,303.827l-176.122-48.799c-5.569-12.681-13.77-24.412-24.342-34.581c-3.047-2.93-6.412-5.413-9.992-7.469
			l-2.674-23.639h11.031c4.146,0,7.505-3.36,7.505-7.505s-3.36-7.505-7.505-7.505h-12.729l-3.091-27.33
			c-0.949-8.384-8.027-14.707-16.465-14.707h-7.482c-8.438,0-15.516,6.323-16.465,14.708l-3.091,27.329h-12.729
			c-4.146,0-7.505,3.36-7.505,7.505c0,4.145,3.36,7.505,7.505,7.505h11.031l-2.674,23.639c-3.58,2.056-6.945,4.539-9.992,7.47
			c-10.571,10.169-18.773,21.899-24.342,34.581l-176.123,48.8C7.35,306.743,0,316.407,0,327.328c0,6.292,2.629,12.372,7.214,16.682
			c4.244,3.99,9.9,6.214,15.7,6.214c0.464,0,0.93-0.014,1.397-0.043l9.682-0.598c4.137-0.256,7.284-3.817,7.028-7.954
			c-0.255-4.137-3.805-7.279-7.954-7.029l-9.682,0.598c-2.183,0.139-4.285-0.619-5.889-2.126c-1.602-1.506-2.484-3.547-2.484-5.746
			c0-4.198,2.826-7.913,6.872-9.035l48.381-13.405c-6.14,7.863-9.812,17.742-9.812,28.468c0,25.56,20.794,46.354,46.354,46.354
			s46.354-20.794,46.354-46.354c0-19.668-12.319-36.503-29.641-43.224l64.696-17.926c-1.819,7.599-2.754,15.417-2.754,23.345v9.322
			c0,6.987,1.237,13.744,3.52,20.094l-8.831,0.546c-4.137,0.256-7.284,3.817-7.028,7.954c0.245,3.979,3.55,7.043,7.484,7.043
			c0.155,0,0.313-0.005,0.47-0.015l15.488-0.957c9.515,13.548,24.538,23.723,42.718,27.759c5.468,1.214,11.093,1.821,16.717,1.821
			c5.624,0,11.249-0.607,16.717-1.821c18.18-4.036,33.203-14.211,42.718-27.759l15.552,0.961c0.158,0.01,0.315,0.015,0.47,0.015
			c3.934,0,7.239-3.064,7.484-7.043c0.256-4.137-2.891-7.698-7.028-7.954l-8.894-0.55c2.283-6.35,3.52-13.107,3.52-20.094v-9.322
			c0-7.928-0.935-15.746-2.754-23.345l64.695,17.926c-17.322,6.721-29.641,23.556-29.641,43.224
			c0,25.56,20.794,46.354,46.354,46.354s46.354-20.794,46.354-46.354c0-10.726-3.672-20.605-9.812-28.468l48.381,13.405
			c4.046,1.121,6.872,4.837,6.872,9.035c0,2.199-0.882,4.239-2.484,5.746c-1.604,1.506-3.697,2.257-5.89,2.126l-9.662-0.597
			c-4.15-0.266-7.698,2.892-7.953,7.029c-0.256,4.137,2.891,7.698,7.029,7.954l9.661,0.597c0.466,0.029,0.931,0.043,1.397,0.043
			c5.799,0,11.456-2.224,15.7-6.214c4.585-4.31,7.214-10.39,7.214-16.682C512,316.407,504.65,306.743,494.126,303.827z
			 M138.149,333.356c0,17.283-14.06,31.343-31.343,31.343c-17.283,0-31.343-14.06-31.343-31.343
			c0-17.283,14.06-31.343,31.343-31.343C124.089,302.013,138.149,316.073,138.149,333.356z M250.709,148.686
			c0.09-0.79,0.755-1.385,1.55-1.385h7.482c0.795,0,1.46,0.596,1.55,1.384l6.594,58.292c-7.809-1.66-15.96-1.66-23.769,0
			L250.709,148.686z M305.3,327.543c-0.205,0.301-0.394,0.614-0.555,0.945c-7.245,11.759-19.804,20.719-35.28,24.154
			c-8.808,1.955-18.12,1.956-26.93,0c-15.479-3.436-28.041-12.398-35.285-24.162c-0.156-0.319-0.338-0.622-0.536-0.914
			c-4.004-6.838-6.243-14.571-6.243-22.694v-9.322c0-10.697,2.015-21.175,5.867-31.061c0.148-0.311,0.275-0.631,0.38-0.961
			c4.779-11.85,12.214-22.824,22.027-32.263c2.76-2.655,5.876-4.812,9.213-6.475c0.376-0.141,0.737-0.311,1.084-0.508
			c5.312-2.443,11.132-3.674,16.958-3.674c5.803,0,11.603,1.222,16.899,3.648c0.374,0.217,0.766,0.403,1.175,0.553
			c3.326,1.661,6.43,3.812,9.18,6.457c9.81,9.437,17.245,20.408,22.024,32.255c0.106,0.336,0.236,0.662,0.387,0.979
			c3.85,9.884,5.863,20.359,5.863,31.053v9.32h0.001C311.529,312.987,309.295,320.711,305.3,327.543z M405.194,364.699
			c-17.283,0-31.343-14.06-31.343-31.343c0-17.283,14.06-31.343,31.343-31.343c17.283,0,31.343,14.06,31.343,31.343
			C436.537,350.638,422.477,364.699,405.194,364.699z"/>
	</g>
</g>
<g>
</g>
<g>
</g>
<g>
</g>
<g>
</g>
<g>
</g>
<g>
</g>
<g>
</g>
<g>
</g>
<g>
</g>
<g>
</g>
<g>
</g>
<g>
</g>
<g>
</g>
<g>
</g>
<g>
</g>
</svg>
