<?xml version="1.0" encoding="iso-8859-1"?>
<!-- Generator: Adobe Illustrator 19.0.0, SVG Export Plug-In . SVG Version: 6.00 Build 0)  -->
<svg version="1.1" id="Capa_1" xmlns="http://www.w3.org/2000/svg" xmlns:xlink="http://www.w3.org/1999/xlink" x="0px" y="0px"
	 viewBox="0 0 512.001 512.001" style="enable-background:new 0 0 512.001 512.001;" xml:space="preserve">
<g>
	<g>
		<path d="M390.023,323.772l-52.064-21.504v-69.502c0-4.141-3.357-7.499-7.499-7.499c-4.142,0-7.499,3.357-7.499,7.499v74.518
			c0,3.036,1.831,5.772,4.636,6.931l56.7,23.419c0.937,0.387,1.907,0.57,2.861,0.57c2.946,0,5.739-1.747,6.933-4.638
			C395.674,329.738,393.852,325.353,390.023,323.772z"/>
	</g>
</g>
<g>
	<g>
		<path d="M330.641,190.254c-4.142,0-7.499,3.357-7.499,7.499v8.295c0.001,4.141,3.357,7.499,7.499,7.499s7.499-3.357,7.499-7.499
			v-8.295C338.141,193.612,334.784,190.254,330.641,190.254z"/>
	</g>
</g>
<g>
	<g>
		<path d="M330.642,401.021c-4.142,0-7.499,3.358-7.499,7.499v8.295c0,4.141,3.357,7.499,7.499,7.499
			c4.142,0,7.499-3.357,7.499-7.499v-8.295C338.141,404.379,334.784,401.021,330.642,401.021z"/>
	</g>
</g>
<g>
	<g>
		<path d="M440.174,299.785h-8.295c-4.142,0-7.499,3.357-7.499,7.499c0,4.142,3.357,7.499,7.499,7.499h8.295
			c4.142,0,7.499-3.357,7.499-7.499C447.672,303.142,444.315,299.785,440.174,299.785z"/>
	</g>
</g>
<g>
	<g>
		<path d="M229.407,299.785h-8.296c-4.142,0-7.499,3.357-7.499,7.499c0,4.142,3.357,7.499,7.499,7.499h8.296
			c4.142,0,7.499-3.357,7.499-7.499C236.905,303.142,233.548,299.785,229.407,299.785z"/>
	</g>
</g>
<g>
	<g>
		<path d="M413.395,379.432l-5.865-5.865c-2.929-2.928-7.676-2.928-10.606,0c-2.928,2.928-2.928,7.676,0,10.605l5.865,5.865
			c1.465,1.464,3.384,2.196,5.303,2.196s3.838-0.732,5.303-2.196C416.323,387.109,416.323,382.361,413.395,379.432z"/>
	</g>
</g>
<g>
	<g>
		<path d="M264.36,230.397l-5.865-5.865c-2.929-2.928-7.677-2.928-10.606,0c-2.928,2.928-2.928,7.677,0,10.605l5.865,5.865
			c1.465,1.464,3.384,2.196,5.303,2.196s3.838-0.732,5.303-2.196C267.288,238.073,267.288,233.325,264.36,230.397z"/>
	</g>
</g>
<g>
	<g>
		<path d="M413.396,224.531c-2.929-2.928-7.677-2.928-10.606,0l-5.865,5.865c-2.928,2.928-2.928,7.676,0,10.605
			c1.465,1.464,3.384,2.196,5.303,2.196s3.838-0.732,5.303-2.196l5.865-5.865C416.323,232.208,416.323,227.46,413.396,224.531z"/>
	</g>
</g>
<g>
	<g>
		<path d="M264.36,373.567c-2.929-2.929-7.677-2.929-10.606,0l-5.865,5.865c-2.928,2.928-2.928,7.677,0,10.605
			c1.465,1.464,3.384,2.196,5.303,2.196c1.919,0,3.838-0.732,5.303-2.196l5.865-5.865
			C267.288,381.244,267.288,376.495,264.36,373.567z"/>
	</g>
</g>
<g>
	<g>
		<path d="M337.961,128.627V91.252h43.373c3.763,0,6.825,3.062,6.825,6.825s-3.062,6.825-6.825,6.825h-5.959
			c-4.142,0-7.499,3.357-7.499,7.499c0,4.142,3.357,7.499,7.499,7.499h5.959c12.033,0,21.823-9.789,21.823-21.823
			s-9.789-21.823-21.823-21.823h-43.373v-5.301c13.412-0.076,24.299-11.007,24.299-24.435c0-11.181-4.314-21.732-12.147-29.709
			L335.811,2.245C334.402,0.809,332.473,0,330.461,0c-2.012,0-3.941,0.809-5.351,2.245l-14.3,14.565
			c-7.833,7.978-12.146,18.528-12.146,29.709c0,13.429,10.887,24.359,24.299,24.435v5.301H52.635
			C46.29,61.183,31.37,50.573,14.016,50.573c-6.327,0-11.475,5.148-11.475,11.475v438.478c0,6.327,5.148,11.475,11.475,11.475
			c23.093,0,41.88-18.787,41.88-41.88V267.256c7.003-16.463,18.781-38.528,37.827-60.634c22.031-25.57,49.374-46.232,81.271-61.414
			c40.028-19.052,87.432-29.511,140.902-31.088h7.065v14.521c-95.051,4.038-171.139,82.616-171.139,178.643
			c0,98.601,80.218,178.819,178.818,178.819c98.601,0,178.819-80.218,178.819-178.819
			C509.461,211.136,433.18,132.481,337.961,128.627z M40.899,470.12c0,13.629-10.196,24.921-23.36,26.652V65.8
			c13.164,1.731,23.36,13.024,23.36,26.652V470.12z M313.661,46.518c0-7.226,2.788-14.045,7.85-19.202l8.95-9.115l8.949,9.115
			c5.063,5.156,7.851,11.975,7.851,19.201c0,5.206-4.236,9.441-9.442,9.441h-14.716C317.896,55.96,313.661,51.725,313.661,46.518z
			 M315.786,99.121L315.786,99.121c-0.073,0.001-0.146,0.002-0.22,0.004c-55.833,1.634-105.467,12.663-147.525,32.782
			c-33.835,16.186-62.842,38.24-86.217,65.55c-10.688,12.487-19.193,24.881-25.928,36.374V92.452c0-0.402-0.019-0.8-0.031-1.2
			h267.096v7.869H315.786z M330.641,471.105c-90.331,0-163.82-73.49-163.82-163.821s73.489-163.821,163.82-163.821
			s163.821,73.49,163.821,163.821S420.973,471.105,330.641,471.105z"/>
	</g>
</g>
<g>
	<g>
		<path d="M471.044,317.186c-4.118-0.505-7.852,2.416-8.358,6.527c-8.182,66.483-64.949,116.618-132.044,116.618
			c-67.093,0-123.859-50.133-132.043-116.614c-0.506-4.111-4.253-7.03-8.358-6.526c-4.111,0.506-7.033,4.248-6.526,8.359
			c9.107,73.986,72.273,129.779,146.928,129.779c74.658,0,137.824-55.795,146.929-129.784
			C478.077,321.434,475.154,317.692,471.044,317.186z"/>
	</g>
</g>
<g>
	<g>
		<path d="M477.517,288.595c-9.294-73.745-72.437-129.356-146.876-129.356c-74.184,0-137.299,55.396-146.811,128.857
			c-0.532,4.107,2.366,7.868,6.474,8.4c4.107,0.524,7.868-2.366,8.399-6.474c8.547-66.008,65.269-115.785,131.939-115.785
			c66.898,0,123.644,49.97,131.995,116.234c0.478,3.79,3.707,6.562,7.43,6.562c0.313,0,0.629-0.02,0.947-0.06
			C475.124,296.456,478.034,292.705,477.517,288.595z"/>
	</g>
</g>
<g>
</g>
<g>
</g>
<g>
</g>
<g>
</g>
<g>
</g>
<g>
</g>
<g>
</g>
<g>
</g>
<g>
</g>
<g>
</g>
<g>
</g>
<g>
</g>
<g>
</g>
<g>
</g>
<g>
</g>
</svg>
