<?xml version="1.0" encoding="iso-8859-1"?>
<!-- Generator: Adobe Illustrator 19.0.0, SVG Export Plug-In . SVG Version: 6.00 Build 0)  -->
<svg version="1.1" id="Capa_1" xmlns="http://www.w3.org/2000/svg" xmlns:xlink="http://www.w3.org/1999/xlink" x="0px" y="0px"
	 viewBox="0 0 511.999 511.999" style="enable-background:new 0 0 511.999 511.999;" xml:space="preserve">
<g>
	<g>
		<path d="M153.098,96.781L142.27,61.465c-0.637-2.026-3.242-3.011-5.906-3.011c-2.663,0-5.268,0.984-5.905,3.011L119.69,96.781
			c-0.058,0.232-0.116,0.463-0.116,0.637c0,2.142,3.3,3.705,5.79,3.705c1.448,0,2.605-0.463,2.953-1.679l1.969-7.237h12.216
			l1.969,7.237c0.347,1.216,1.505,1.679,2.953,1.679c2.489,0,5.79-1.563,5.79-3.705C153.214,97.244,153.156,97.013,153.098,96.781z
			 M132.138,85.26l4.226-15.517l4.227,15.517H132.138z"/>
	</g>
</g>
<g>
	<g>
		<path d="M190.955,95.739l-7.062-12.795c4.053-1.564,7.005-5.269,7.005-11.753c0-9.437-6.311-12.39-14.242-12.39H164.67
			c-1.679,0-2.779,1.273-2.779,2.721v36.822c0,1.853,2.258,2.779,4.516,2.779c2.258,0,4.516-0.926,4.516-2.779V84.391h3.821
			l7.932,15.401c0.637,1.216,1.737,1.679,2.895,1.679c2.663,0,5.674-2.432,5.674-4.69C191.245,96.491,191.187,96.086,190.955,95.739
			z M176.655,77.443h-5.732V66.676h5.732c3.242,0,5.21,1.331,5.21,5.384C181.866,76.112,179.898,77.443,176.655,77.443z"/>
	</g>
</g>
<g>
	<g>
		<path d="M230.09,95.739l-7.065-12.795c4.053-1.564,7.006-5.269,7.006-11.753c0-9.437-6.31-12.39-14.242-12.39h-11.984
			c-1.679,0-2.779,1.273-2.779,2.721v36.822c0,1.853,2.258,2.779,4.516,2.779s4.516-0.926,4.516-2.779V84.391h3.821l7.932,15.401
			c0.637,1.216,1.737,1.679,2.895,1.679c2.663,0,5.674-2.432,5.674-4.69C230.38,96.491,230.322,96.086,230.09,95.739z
			 M215.788,77.443h-5.732V66.676h5.732c3.242,0,5.21,1.331,5.21,5.384C220.999,76.112,219.031,77.443,215.788,77.443z"/>
	</g>
</g>
<g>
	<g>
		<path d="M244.674,58.801c-2.258,0-4.516,0.81-4.516,2.721v36.822c0,1.853,2.258,2.779,4.516,2.779s4.516-0.926,4.516-2.779V61.522
			C249.19,59.611,246.932,58.801,244.674,58.801z"/>
	</g>
</g>
<g>
	<g>
		<path d="M285.72,58.801c-1.447,0-2.605,0.463-2.953,1.679l-8.048,29.701l-8.106-29.701c-0.347-1.215-1.505-1.679-2.953-1.679
			c-2.489,0-5.789,1.563-5.789,3.705c0,0.174,0.058,0.405,0.115,0.637l10.828,35.317c0.637,2.027,3.242,3.011,5.905,3.011
			c2.663,0,5.268-0.984,5.905-3.011l10.769-35.317c0.058-0.232,0.116-0.463,0.116-0.637C291.51,60.364,288.209,58.801,285.72,58.801
			z"/>
	</g>
</g>
<g>
	<g>
		<path d="M328.676,96.781l-10.828-35.317c-0.637-2.026-3.242-3.011-5.906-3.011c-2.663,0-5.268,0.984-5.905,3.011l-10.769,35.317
			c-0.058,0.232-0.115,0.463-0.115,0.637c0,2.142,3.3,3.705,5.789,3.705c1.448,0,2.605-0.463,2.953-1.679l1.969-7.237h12.216
			l1.969,7.237c0.347,1.216,1.506,1.679,2.953,1.679c2.489,0,5.79-1.563,5.79-3.705C328.792,97.244,328.733,97.013,328.676,96.781z
			 M307.716,85.26l4.226-15.517l4.227,15.517H307.716z"/>
	</g>
</g>
<g>
	<g>
		<path d="M359.701,93.249h-13.2V61.522c0-1.911-2.258-2.721-4.516-2.721s-4.517,0.81-4.517,2.721v36.822
			c0,1.853,1.969,2.779,3.937,2.779H359.7c1.738,0,2.605-1.968,2.605-3.937C362.307,95.218,361.439,93.249,359.701,93.249z"/>
	</g>
</g>
<g>
	<g>
		<path d="M379.324,69.569c0-1.795,1.679-3.474,5.79-3.474c4.747,0,5.847,2.2,7.931,2.2c2.547,0,3.589-3.185,3.589-4.748
			c0-4.516-8.453-5.095-11.521-5.095c-7.237,0-14.822,3.3-14.822,11.985c0,13.548,18.352,12.332,18.352,19.337
			c0,2.779-2.953,3.821-5.616,3.821c-5.384,0-7.121-4.285-9.843-4.285c-2.2,0-3.936,2.895-3.936,4.863
			c0,3.821,6.368,7.526,13.953,7.526c8.396,0,14.474-4.516,14.474-12.853C397.678,74.259,379.324,75.359,379.324,69.569z"/>
	</g>
</g>
<g>
	<g>
		<path d="M491.487,31.172H20.514C9.203,31.172,0,40.374,0,51.686v408.626c0,11.312,9.203,20.514,20.514,20.514h470.972
			c11.312,0,20.513-9.203,20.513-20.514V51.686C512,40.374,502.798,31.172,491.487,31.172z M496.766,460.311
			c0,2.911-2.368,5.28-5.279,5.28H20.514c-2.911,0-5.28-2.369-5.28-5.28V128.727H56.62c4.207,0,7.617-3.41,7.617-7.617
			c0-4.207-3.41-7.617-7.617-7.617H15.234V51.686c0-2.911,2.369-5.28,5.28-5.28h470.972c2.911,0,5.279,2.368,5.279,5.28v61.806
			H92.061c-4.207,0-7.617,3.41-7.617,7.617s3.41,7.617,7.617,7.617h404.705V460.311z"/>
	</g>
</g>
<g>
	<g>
		<path d="M441.2,336.059l-7.072-5.848c-22.118-18.291-48.712-30.795-76.909-36.158l-46.593-8.864l-23.214-35.375
			c-2.308-3.517-7.031-4.496-10.548-2.189c-3.517,2.308-4.497,7.03-2.189,10.547l15.13,23.056l-44.188-8.406l-28.984-81.123
			l16.478,3.135l22.129,33.72c2.31,3.518,7.031,4.497,10.548,2.189c3.517-2.308,4.497-7.03,2.189-10.547L245.2,185.493
			c-1.842-2.806-4.789-4.775-8.087-5.403l-22.399-4.262c-4.375-0.832-8.896,0.754-11.793,4.139
			c-2.897,3.386-3.765,8.095-2.266,12.292l27.605,77.262l-84.238-16.025c-1.144-0.218-2.111-0.982-2.588-2.044l-21.183-47.219
			c-1.503-3.348-4.4-5.808-7.946-6.747l-18.351-4.863c-3.933-1.042-8.099-0.052-11.142,2.65c-3.045,2.701-4.522,6.72-3.953,10.749
			l9.373,66.342c3.473,24.606,22.114,44.717,46.456,50.057l74.788,15.679l-64.143,73.26c-2.935,3.353-3.857,8.052-2.405,12.265
			c1.452,4.213,5.073,7.348,9.45,8.18l23.79,4.526c0.763,0.145,1.535,0.216,2.306,0.216c2.558,0,5.092-0.787,7.2-2.273
			l110.607-77.977l122.532,25.688c13.768,2.883,27.393-5.241,31.038-18.498C452.609,353.452,449.213,342.685,441.2,336.059z
			 M435.161,359.449c-1.516,5.513-7.33,8.862-13.223,7.626l-125.775-26.366c-2.071-0.433-4.225,0.011-5.952,1.229l-112.354,79.208
			l-17.868-3.399l69.529-79.411c1.783-2.036,2.352-4.865,1.494-7.432c-0.858-2.567-3.013-4.485-5.661-5.041l-87.466-18.336
			c-18.088-3.969-31.979-18.954-34.567-37.292l-8.714-61.68l12.357,3.274l20.573,45.859c2.513,5.598,7.611,9.625,13.639,10.772
			l213.198,40.558c25.68,4.885,49.902,16.273,70.047,32.932l7.072,5.848C434.892,350.611,436.332,355.184,435.161,359.449z"/>
	</g>
</g>
<g>
</g>
<g>
</g>
<g>
</g>
<g>
</g>
<g>
</g>
<g>
</g>
<g>
</g>
<g>
</g>
<g>
</g>
<g>
</g>
<g>
</g>
<g>
</g>
<g>
</g>
<g>
</g>
<g>
</g>
</svg>
