<?xml version="1.0" encoding="iso-8859-1"?>
<!-- Generator: Adobe Illustrator 19.0.0, SVG Export Plug-In . SVG Version: 6.00 Build 0)  -->
<svg version="1.1" id="Capa_1" xmlns="http://www.w3.org/2000/svg" xmlns:xlink="http://www.w3.org/1999/xlink" x="0px" y="0px"
	 viewBox="0 0 511.999 511.999" style="enable-background:new 0 0 511.999 511.999;" xml:space="preserve">
<g>
	<g>
		<path d="M152.456,78.197c3.068-1.331,4.921-4.4,4.921-9.09c0-8.221-5.79-10.305-11.579-10.305H133.93
			c-1.969,0-3.937,0.926-3.937,2.779v36.822c0,1.447,1.506,2.721,3.937,2.721h12.853c6.542,0,11.637-3.3,11.637-12.448v-1.216
			C158.419,81.671,155.987,79.528,152.456,78.197z M138.966,66.676h6.079c2.2,0,3.3,2.026,3.3,4.053c0,1.969-1.1,3.995-3.3,3.995
			h-6.079V66.676z M149.387,87.924c0,3.705-1.737,5.326-4.632,5.326h-5.79V81.671h5.79c2.895,0,4.632,1.39,4.632,5.326V87.924z"/>
	</g>
</g>
<g>
	<g>
		<path d="M199.059,96.781l-10.828-35.317c-0.637-2.026-3.242-3.011-5.906-3.011c-2.663,0-5.268,0.984-5.905,3.011l-10.769,35.317
			c-0.058,0.232-0.116,0.463-0.116,0.637c0,2.142,3.3,3.705,5.79,3.705c1.448,0,2.605-0.463,2.953-1.679l1.969-7.237h12.216
			l1.969,7.237c0.347,1.216,1.505,1.679,2.953,1.679c2.489,0,5.79-1.563,5.79-3.705C199.175,97.244,199.117,97.013,199.059,96.781z
			 M178.099,85.26l4.226-15.517l4.227,15.517H178.099z"/>
	</g>
</g>
<g>
	<g>
		<path d="M233.097,78.891h-9.727c-1.737,0-2.722,1.795-2.722,3.474c0,1.795,0.984,3.474,2.722,3.474h3.416v1.968
			c0,3.937-1.969,5.79-5.211,5.79s-5.152-1.853-5.152-5.79V72.465c-0.002-3.937,1.908-5.79,5.209-5.79
			c4.921,0,5.095,3.126,5.153,5.21c0.058,2.084,2.084,2.722,4.516,2.722c3.069,0,4.516-0.811,4.516-4.285
			c0-7.353-6.253-11.521-14.532-11.521c-7.584,0-13.895,3.705-13.895,13.664v15.342c0,9.959,6.195,13.664,14.185,13.664
			s14.243-3.705,14.243-13.664v-6.079C235.818,80.223,234.834,78.891,233.097,78.891z"/>
	</g>
</g>
<g>
	<g>
		<path d="M271.591,78.891h-9.727c-1.737,0-2.721,1.795-2.721,3.474c0,1.795,0.984,3.474,2.721,3.474h3.416v1.968
			c0,3.937-1.969,5.79-5.211,5.79s-5.153-1.853-5.153-5.79V72.465c0.001-3.937,1.912-5.79,5.212-5.79
			c4.921,0,5.095,3.126,5.153,5.21c0.058,2.084,2.084,2.722,4.516,2.722c3.069,0,4.516-0.811,4.516-4.285
			c0-7.353-6.253-11.521-14.532-11.521c-7.585,0-13.895,3.705-13.895,13.664v15.342c0,9.959,6.195,13.664,14.184,13.664
			c7.99,0,14.243-3.705,14.243-13.664v-6.079C274.313,80.223,273.329,78.891,271.591,78.891z"/>
	</g>
</g>
<g>
	<g>
		<path d="M315.474,96.781l-10.828-35.317c-0.637-2.026-3.242-3.011-5.906-3.011c-2.663,0-5.268,0.984-5.905,3.011l-10.769,35.317
			c-0.058,0.232-0.116,0.463-0.116,0.637c0,2.142,3.3,3.705,5.79,3.705c1.448,0,2.605-0.463,2.953-1.679l1.969-7.237h12.216
			l1.969,7.237c0.347,1.216,1.505,1.679,2.953,1.679c2.489,0,5.79-1.563,5.79-3.705C315.59,97.244,315.532,97.013,315.474,96.781z
			 M294.514,85.26l4.226-15.517l4.227,15.517H294.514z"/>
	</g>
</g>
<g>
	<g>
		<path d="M349.512,78.891h-9.727c-1.737,0-2.721,1.795-2.721,3.474c0,1.795,0.984,3.474,2.721,3.474h3.416v1.968
			c0,3.937-1.969,5.79-5.211,5.79s-5.152-1.853-5.152-5.79V72.465c-0.002-3.937,1.908-5.79,5.209-5.79
			c4.921,0,5.095,3.126,5.153,5.21c0.058,2.084,2.084,2.722,4.516,2.722c3.069,0,4.516-0.811,4.516-4.285
			c0-7.353-6.253-11.521-14.532-11.521c-7.584,0-13.895,3.705-13.895,13.664v15.342c0,9.959,6.195,13.664,14.185,13.664
			s14.243-3.705,14.243-13.664v-6.079C352.233,80.223,351.249,78.891,349.512,78.891z"/>
	</g>
</g>
<g>
	<g>
		<path d="M387.312,93.249h-15.517v-9.842h8.685c1.911,0,2.721-1.853,2.721-3.416c0-1.853-0.984-3.531-2.721-3.531h-8.685v-9.785
			c0,0,15.517,0,15.517,0c1.737,0,2.721-1.853,2.721-3.995c0-1.853-0.811-3.879-2.721-3.879H366.7c-1.968,0-3.936,0.926-3.936,2.779
			v36.764c0,1.853,1.968,2.779,3.936,2.779h20.612c1.91,0,2.721-2.026,2.721-3.879C390.033,95.103,389.049,93.249,387.312,93.249z"
			/>
	</g>
</g>
<g>
	<g>
		<path d="M403.146,194.419h-92.73v-12.012c0-16.064-13.069-29.133-29.133-29.133h-50.567c-16.064,0-29.133,13.069-29.133,29.133
			v12.012h-92.73c-13.251,0-24.031,10.78-24.031,24.031v196.084c0.001,13.251,10.781,24.031,24.031,24.031h294.293
			c13.251,0,24.031-10.78,24.031-24.031V218.45C427.177,205.199,416.397,194.419,403.146,194.419z M216.817,182.408
			c0-7.664,6.235-13.899,13.899-13.899h50.567c7.664,0,13.899,6.235,13.899,13.899v12.012h-78.365V182.408z M124.749,423.331
			h-15.895c-4.85,0-8.797-3.946-8.797-8.797V218.45c0-4.851,3.946-8.797,8.797-8.797h15.895V423.331z M158.814,423.331h-18.831
			V209.653h18.831V423.331z M337.953,423.331H174.048V209.653h163.905V423.331z M411.943,414.534c0,4.851-3.946,8.797-8.797,8.797
			h-15.895v-35.713c0-4.207-3.41-7.617-7.617-7.617c-4.207,0-7.617,3.41-7.617,7.617v35.713h-18.831V209.653h18.831v142.524
			c0,4.207,3.41,7.617,7.617,7.617c4.207,0,7.617-3.41,7.617-7.617V209.653h15.895c4.85,0,8.797,3.946,8.797,8.797V414.534z"/>
	</g>
</g>
<g>
	<g>
		<path d="M491.486,31.172H20.514C9.203,31.172,0,40.374,0,51.686v408.626c0,11.312,9.203,20.514,20.514,20.514h470.971
			c11.312,0,20.514-9.203,20.514-20.514V51.686C512,40.374,502.797,31.172,491.486,31.172z M496.766,460.312
			c0,2.911-2.369,5.28-5.28,5.28H20.514c-2.911,0-5.28-2.369-5.28-5.28V128.727H56.62c4.207,0,7.617-3.41,7.617-7.617
			c0-4.207-3.41-7.617-7.617-7.617H15.234V51.686c0-2.911,2.369-5.28,5.28-5.28h470.971c2.911,0,5.28,2.368,5.28,5.28v61.807H92.061
			c-4.207,0-7.617,3.41-7.617,7.617c0,4.207,3.41,7.617,7.617,7.617h404.705V460.312z"/>
	</g>
</g>
<g>
</g>
<g>
</g>
<g>
</g>
<g>
</g>
<g>
</g>
<g>
</g>
<g>
</g>
<g>
</g>
<g>
</g>
<g>
</g>
<g>
</g>
<g>
</g>
<g>
</g>
<g>
</g>
<g>
</g>
</svg>
