<?xml version="1.0" encoding="iso-8859-1"?>
<!-- Generator: Adobe Illustrator 19.0.0, SVG Export Plug-In . SVG Version: 6.00 Build 0)  -->
<svg version="1.1" id="Capa_1" xmlns="http://www.w3.org/2000/svg" xmlns:xlink="http://www.w3.org/1999/xlink" x="0px" y="0px"
	 viewBox="0 0 511.999 511.999" style="enable-background:new 0 0 511.999 511.999;" xml:space="preserve">
<g>
	<g>
		<path d="M80.9,58.801H70.653c-2.374,0-3.937,1.273-3.937,2.721v36.88c0,1.447,1.564,2.721,3.937,2.721H80.9
			c7.99,0,14.243-3.705,14.243-13.664V72.465C95.143,62.507,88.89,58.801,80.9,58.801z M86.111,87.46c0,3.937-1.969,5.79-5.211,5.79
			h-5.152V66.676H80.9c3.242,0,5.211,1.853,5.211,5.79V87.46z"/>
	</g>
</g>
<g>
	<g>
		<path d="M130.745,93.249h-15.516v-9.842h8.684c1.911,0,2.721-1.853,2.721-3.416c0-1.853-0.984-3.531-2.721-3.531h-8.684v-9.785
			c0,0,15.516,0,15.516,0c1.737,0,2.722-1.853,2.722-3.995c0-1.853-0.811-3.879-2.722-3.879h-20.611
			c-1.969,0-3.937,0.926-3.937,2.779v36.764c0,1.853,1.969,2.779,3.937,2.779h20.611c1.911,0,2.722-2.026,2.722-3.879
			C133.467,95.103,132.483,93.249,130.745,93.249z"/>
	</g>
</g>
<g>
	<g>
		<path d="M158.066,58.801h-11.984c-2.026,0-3.358,1.273-3.358,2.721v36.822c0,1.853,2.258,2.779,4.516,2.779
			c2.258,0,4.516-0.926,4.516-2.779V85.839h5.732c7.989,0,14.242-3.705,14.242-13.432v-0.29
			C171.73,62.39,165.709,58.801,158.066,58.801z M162.698,73.101c0,3.937-1.968,5.79-5.21,5.79h-5.732V66.676h5.732
			c3.242,0,5.21,1.853,5.21,5.79V73.101z"/>
	</g>
</g>
<g>
	<g>
		<path d="M209.474,96.781l-10.827-35.317c-0.637-2.026-3.242-3.011-5.905-3.011c-2.663,0-5.269,0.984-5.906,3.011l-10.769,35.317
			c-0.058,0.232-0.116,0.463-0.116,0.637c0,2.142,3.3,3.705,5.79,3.705c1.448,0,2.605-0.463,2.953-1.679l1.969-7.237h12.216
			l1.968,7.237c0.348,1.216,1.506,1.679,2.953,1.679c2.489,0,5.79-1.563,5.79-3.705C209.59,97.244,209.532,97.013,209.474,96.781z
			 M188.516,85.26l4.227-15.517l4.226,15.517H188.516z"/>
	</g>
</g>
<g>
	<g>
		<path d="M247.334,95.739l-7.065-12.795c4.053-1.564,7.006-5.269,7.006-11.753c0-9.437-6.31-12.39-14.242-12.39h-11.984
			c-1.679,0-2.779,1.273-2.779,2.721v36.822c0,1.853,2.258,2.779,4.516,2.779s4.516-0.926,4.516-2.779V84.391h3.821l7.932,15.401
			c0.637,1.216,1.737,1.679,2.895,1.679c2.663,0,5.674-2.432,5.674-4.69C247.624,96.491,247.566,96.086,247.334,95.739z
			 M233.033,77.444h-5.732V66.676h5.732c3.242,0,5.21,1.331,5.21,5.384C238.243,76.112,236.275,77.444,233.033,77.444z"/>
	</g>
</g>
<g>
	<g>
		<path d="M282.009,58.801h-25.011c-1.91,0-2.721,2.084-2.721,3.994c0,2.2,0.984,4.111,2.721,4.111h7.99v31.438
			c0,1.853,2.258,2.779,4.516,2.779s4.516-0.926,4.516-2.779V66.908h7.989c1.737,0,2.721-1.911,2.721-4.111
			C284.73,60.885,283.919,58.801,282.009,58.801z"/>
	</g>
</g>
<g>
	<g>
		<path d="M318.132,58.801c-2.316,0-4.516,0.81-4.516,2.721v26.285c0,3.937-2.084,5.79-5.558,5.79s-5.558-1.853-5.558-5.79V61.522
			c0-1.911-2.316-2.721-4.516-2.721c-2.316,0-4.516,0.81-4.516,2.721v26.285c0,9.959,6.369,13.664,14.59,13.664
			c8.164,0,14.59-3.705,14.59-13.664V61.522C322.647,59.611,320.331,58.801,318.132,58.801z"/>
	</g>
</g>
<g>
	<g>
		<path d="M363.113,95.739l-7.065-12.795c4.053-1.564,7.006-5.269,7.006-11.753c0-9.437-6.31-12.39-14.242-12.39h-11.984
			c-1.679,0-2.779,1.273-2.779,2.721v36.822c0,1.853,2.258,2.779,4.516,2.779s4.516-0.926,4.516-2.779V84.391h3.821l7.932,15.401
			c0.637,1.216,1.737,1.679,2.895,1.679c2.663,0,5.674-2.432,5.674-4.69C363.403,96.491,363.345,96.086,363.113,95.739z
			 M348.811,77.444h-5.732V66.676h5.732c3.242,0,5.21,1.331,5.21,5.384S352.053,77.444,348.811,77.444z"/>
	</g>
</g>
<g>
	<g>
		<path d="M397.729,93.249h-15.517v-9.842h8.685c1.911,0,2.721-1.853,2.721-3.416c0-1.853-0.984-3.531-2.721-3.531h-8.685v-9.785
			c0,0,15.517,0,15.517,0c1.737,0,2.721-1.853,2.721-3.995c0-1.853-0.811-3.879-2.721-3.879h-20.612
			c-1.968,0-3.936,0.926-3.936,2.779v36.764c0,1.853,1.968,2.779,3.936,2.779h20.612c1.91,0,2.721-2.026,2.721-3.879
			C400.45,95.103,399.466,93.249,397.729,93.249z"/>
	</g>
</g>
<g>
	<g>
		<path d="M417.756,69.57c0-1.795,1.679-3.474,5.79-3.474c4.747,0,5.848,2.2,7.931,2.2c2.548,0,3.59-3.185,3.59-4.748
			c0-4.516-8.453-5.095-11.521-5.095c-7.237,0-14.822,3.3-14.822,11.985c0,13.548,18.353,12.332,18.353,19.337
			c0,2.779-2.953,3.821-5.616,3.821c-5.384,0-7.122-4.285-9.843-4.285c-2.2,0-3.937,2.895-3.937,4.863
			c0,3.821,6.369,7.526,13.953,7.526c8.395,0,14.474-4.516,14.474-12.853C436.109,74.259,417.756,75.359,417.756,69.57z"/>
	</g>
</g>
<g>
	<g>
		<path d="M491.486,31.172H20.514C9.203,31.172,0,40.374,0,51.686v408.626c0,11.312,9.203,20.514,20.514,20.514h470.971
			c11.312,0,20.514-9.203,20.514-20.514V51.686C512,40.374,502.797,31.172,491.486,31.172z M496.766,460.312
			c0,2.911-2.369,5.28-5.28,5.28H20.514c-2.911,0-5.28-2.369-5.28-5.28V128.727H56.62c4.207,0,7.617-3.41,7.617-7.617
			c0-4.207-3.41-7.617-7.617-7.617H15.234V51.686c0-2.911,2.369-5.28,5.28-5.28h470.971c2.911,0,5.28,2.368,5.28,5.28v61.807H92.061
			c-4.207,0-7.617,3.41-7.617,7.617c0,4.207,3.41,7.617,7.617,7.617h404.705V460.312z"/>
	</g>
</g>
<g>
	<g>
		<path d="M456.662,221.856c-2.718-10.046-11.109-17.598-21.379-19.24l-9.06-1.448c-28.344-4.53-57.602-1.799-84.618,7.894
			l-44.643,16.019L258.74,206.26c-3.774-1.859-8.34-0.305-10.198,3.469c-1.858,3.774-0.305,8.34,3.469,10.198l25.003,12.312
			l-42.337,15.191l-66.156-55.175l15.788-5.665l34.902,17.185c3.775,1.86,8.341,0.306,10.198-3.469
			c1.858-3.774,0.305-8.34-3.469-10.198l-35.96-17.707c-3.013-1.483-6.552-1.681-9.709-0.548l-21.461,7.7
			c-4.194,1.505-7.282,5.166-8.059,9.554c-0.777,4.388,0.866,8.887,4.288,11.74l63.008,52.549l-80.71,28.961
			c-1.095,0.39-2.316,0.226-3.267-0.448l-42.221-29.924c-2.994-2.121-6.738-2.771-10.275-1.779l-18.279,5.127
			c-3.919,1.099-7.005,4.067-8.255,7.94s-0.482,8.085,2.055,11.267l41.756,52.397c15.485,19.436,41.754,27.298,65.438,19.541
			l72.392-24.461l-18.068,95.681c-0.827,4.379,0.765,8.896,4.154,11.789c2.287,1.951,5.175,2.979,8.1,2.979
			c1.411,0,2.831-0.239,4.196-0.729l22.792-8.178c3.16-1.133,5.765-3.538,7.147-6.598l55.704-123.334l118.608-40.077
			C452.632,249.05,460.252,235.129,456.662,221.856z M434.437,239.117L312.69,280.254c-2.002,0.677-3.633,2.155-4.503,4.081
			l-56.583,125.281l-17.121,6.143l19.585-103.715c0.502-2.659-0.444-5.385-2.486-7.161c-1.407-1.224-3.188-1.87-4.999-1.87
			c-0.817,0-1.64,0.131-2.437,0.401l-84.665,28.608c-17.599,5.764-37.173-0.094-48.713-14.579l-38.824-48.714l12.31-3.452
			l41.007,29.063c5.007,3.549,11.445,4.43,17.221,2.357l204.268-73.295c24.604-8.829,51.254-11.314,77.069-7.19l9.06,1.448
			c4.359,0.697,7.923,3.905,9.077,8.174C443.449,231.353,440.146,237.188,434.437,239.117z"/>
	</g>
</g>
<g>
</g>
<g>
</g>
<g>
</g>
<g>
</g>
<g>
</g>
<g>
</g>
<g>
</g>
<g>
</g>
<g>
</g>
<g>
</g>
<g>
</g>
<g>
</g>
<g>
</g>
<g>
</g>
<g>
</g>
</svg>
