<?xml version="1.0" encoding="iso-8859-1"?>
<!-- Generator: Adobe Illustrator 19.0.0, SVG Export Plug-In . SVG Version: 6.00 Build 0)  -->
<svg version="1.1" id="Capa_1" xmlns="http://www.w3.org/2000/svg" xmlns:xlink="http://www.w3.org/1999/xlink" x="0px" y="0px"
	 viewBox="0 0 511.998 511.998" style="enable-background:new 0 0 511.998 511.998;" xml:space="preserve">
<g>
	<g>
		<path d="M497.757,307.13l-4.712-51.431c-0.004-0.044-0.009-0.088-0.014-0.132c-1.394-12.738-12.049-22.365-24.836-22.489
			l-89.706-5.485c-0.505-0.031-0.949-0.318-1.186-0.764L349.6,174.473c-8.272-15.435-24.289-25.023-41.802-25.023h-4.673V141.4
			c0-10.106-8.222-18.328-18.328-18.328h-29.436c-10.107,0-18.329,8.222-18.329,18.328v8.049H104.888
			c-15.815,0-30.872,5.002-43.543,14.465c-12.671,9.463-21.743,22.48-26.233,37.644c-0.057,0.193-0.106,0.387-0.147,0.584
			l-12.409,58.951c-0.132,0.477-0.561,0.805-1.059,0.805c-8.868,0-16.082,7.215-16.082,16.083v33.212
			C2.1,314.182,0,318.493,0,323.299v9.529c0,8.997,7.32,16.316,16.316,16.316h31.96c1.421,9.565,5.801,18.77,13.148,26.117
			c9.111,9.11,21.076,13.665,33.043,13.665c11.967,0,23.932-4.555,33.043-13.665c7.347-7.347,11.727-16.553,13.148-26.117h225.415
			c1.421,9.565,5.801,18.77,13.148,26.117c9.111,9.11,21.076,13.665,33.043,13.665c11.966,0,23.931-4.555,33.042-13.665
			c7.347-7.347,11.727-16.553,13.148-26.117h37.228c8.996,0,16.316-7.319,16.316-16.316v-9.529
			C512,315.005,505.776,308.153,497.757,307.13z M255.362,138.055h29.436c1.845,0,3.345,1.5,3.345,3.345v8.049h-36.126V141.4h-0.001
			C252.016,139.555,253.517,138.055,255.362,138.055z M48.467,334.161H16.316c-0.735,0-1.333-0.598-1.333-1.333v-9.529
			c0-0.736,0.598-1.333,1.333-1.333h36.048C50.493,325.865,49.195,329.971,48.467,334.161z M116.915,364.667
			c-12.376,12.377-32.519,12.377-44.896,0c-12.378-12.377-12.378-32.516-0.002-44.894c0.001-0.001,0.003-0.003,0.004-0.004
			c6.188-6.187,14.317-9.281,22.445-9.281c8.129,0,16.26,3.095,22.448,9.283C129.294,332.149,129.294,352.289,116.915,364.667z
			 M434.712,364.667c-12.376,12.378-32.518,12.377-44.895,0c-12.378-12.378-12.378-32.518,0-44.896
			c6.188-6.189,14.318-9.283,22.448-9.283c8.129,0,16.259,3.095,22.447,9.283C447.09,332.149,447.09,352.289,434.712,364.667z
			 M442.937,306.983L442.937,306.983c-18.336-15.981-46.262-15.256-63.715,2.195c-7.056,7.056-11.367,15.828-12.957,24.984H140.468
			c-1.591-9.156-5.901-17.928-12.957-24.984c-17.453-17.452-45.379-18.176-63.716-2.195H20.398v-29.001c0-0.606,0.494-1.1,1.099-1.1
			c7.507,0,13.946-5.104,15.659-12.413c0.013-0.055,0.024-0.111,0.036-0.166l12.371-58.77c7.305-24.213,30.013-41.1,55.325-41.1
			h202.91c11.979,0,22.937,6.559,28.577,17.083l27.686,52.322c2.661,5.025,7.839,8.362,13.513,8.709l89.914,5.498
			c0.152,0.009,0.305,0.014,0.457,0.014c5.222,0,9.591,3.901,10.186,9.083l4.566,49.841H442.937z M497.018,332.828L497.018,332.828
			c-0.001,0.735-0.599,1.333-1.334,1.333h-37.419c-0.728-4.189-2.026-8.296-3.897-12.196h36.453c0.003,0,0.007,0,0.01,0h4.854
			c0.735,0,1.333,0.598,1.333,1.333V332.828z"/>
	</g>
</g>
<g>
	<g>
		<path d="M111.752,324.935c-4.617-4.617-10.756-7.159-17.284-7.159c-6.53,0-12.668,2.542-17.285,7.159
			c-9.53,9.531-9.53,25.039,0,34.569c4.617,4.617,10.755,7.16,17.285,7.16c6.529,0,12.666-2.542,17.284-7.159
			c4.617-4.616,7.16-10.755,7.16-17.285C118.912,335.69,116.369,329.552,111.752,324.935z M101.158,348.909
			c-1.788,1.788-4.164,2.772-6.691,2.772c-2.527,0-4.903-0.984-6.69-2.771c-3.689-3.689-3.689-9.691,0-13.381
			c1.786-1.787,4.162-2.771,6.69-2.771c2.528,0,4.904,0.984,6.69,2.771c1.787,1.787,2.771,4.163,2.771,6.691
			C103.928,344.747,102.944,347.122,101.158,348.909z"/>
	</g>
</g>
<g>
	<g>
		<path d="M429.549,324.935c-4.617-4.617-10.755-7.159-17.284-7.159c-6.53,0-12.668,2.542-17.285,7.159
			c-9.53,9.531-9.53,25.039,0,34.569c4.617,4.617,10.755,7.16,17.285,7.16c6.529,0,12.666-2.542,17.284-7.159
			c4.617-4.616,7.16-10.755,7.16-17.285C436.709,335.69,434.166,329.552,429.549,324.935z M418.956,348.909
			c-1.788,1.788-4.164,2.772-6.691,2.772c-2.527,0-4.903-0.984-6.69-2.771c-3.689-3.689-3.689-9.691,0-13.381
			c1.786-1.787,4.162-2.771,6.69-2.771s4.904,0.984,6.69,2.771c1.787,1.787,2.771,4.163,2.771,6.691
			C421.726,344.747,420.742,347.122,418.956,348.909z"/>
	</g>
</g>
<g>
	<g>
		<path d="M346.31,224.429l-19.126-35.683c-4.881-9.107-14.332-14.764-24.665-14.764H124.641c-21.782,0-41.396,14.562-47.698,35.413
			c-0.021,0.069-0.042,0.139-0.06,0.209l-4.535,16.744c-1.457,5.382-0.35,11.009,3.038,15.438c3.389,4.428,8.53,6.968,14.106,6.968
			h13.165c4.138,0,7.491-3.354,7.491-7.491c0-4.137-3.354-7.491-7.491-7.491H89.492c-1.194,0-1.895-0.683-2.207-1.091
			c-0.311-0.407-0.787-1.263-0.475-2.416l4.505-16.633c4.44-14.529,18.13-24.667,33.327-24.667h31.63v44.807h-18.758
			c-4.138,0-7.491,3.354-7.491,7.491c0,4.137,3.354,7.491,7.491,7.491h193.989c5.903,0,11.255-3.022,14.315-8.084
			C348.84,235.671,349.031,229.612,346.31,224.429z M237.033,233.771h-65.78v-44.807h65.78V233.771z M332.993,232.919
			c-0.192,0.318-0.642,0.853-1.491,0.853h-79.486v-44.807h50.503c4.801,0,9.192,2.628,11.459,6.859l19.005,35.458l0.078,0.148
			C333.318,231.919,333.295,232.421,332.993,232.919z"/>
	</g>
</g>
<g>
</g>
<g>
</g>
<g>
</g>
<g>
</g>
<g>
</g>
<g>
</g>
<g>
</g>
<g>
</g>
<g>
</g>
<g>
</g>
<g>
</g>
<g>
</g>
<g>
</g>
<g>
</g>
<g>
</g>
</svg>
