<?xml version="1.0" encoding="iso-8859-1"?>
<!-- Generator: Adobe Illustrator 19.0.0, SVG Export Plug-In . SVG Version: 6.00 Build 0)  -->
<svg version="1.1" id="Capa_1" xmlns="http://www.w3.org/2000/svg" xmlns:xlink="http://www.w3.org/1999/xlink" x="0px" y="0px"
	 viewBox="0 0 512 512" style="enable-background:new 0 0 512 512;" xml:space="preserve">
<g>
	<g>
		<path d="M229.125,366.5c-4.143,0-7.5,3.357-7.5,7.5v14.5c0,4.143,3.357,7.5,7.5,7.5s7.5-3.357,7.5-7.5V374
			C236.625,369.857,233.268,366.5,229.125,366.5z"/>
	</g>
</g>
<g>
	<g>
		<path d="M282.875,366.5c-4.143,0-7.5,3.357-7.5,7.5v14.5c0,4.143,3.357,7.5,7.5,7.5s7.5-3.357,7.5-7.5V374
			C290.375,369.857,287.018,366.5,282.875,366.5z"/>
	</g>
</g>
<g>
	<g>
		<path d="M436.169,177.333h-36.806c-4.143,0-7.5,3.358-7.5,7.5c0,4.142,3.357,7.5,7.5,7.5h36.806
			c31.931,0,58.16,24.807,60.473,56.158h-113.07c-10.417,0-18.892,8.475-18.892,18.893v120.882c0,10.417,8.475,18.893,18.892,18.893
			h113.254v35.485H341.889v-177.18c0-9.354-7.61-16.963-16.964-16.963H186.832c-9.354,0-16.963,7.61-16.963,16.963v177.18H88.071
			c-4.143,0-7.5,3.358-7.5,7.5c0,4.142,3.357,7.5,7.5,7.5h81.798V497H24.203c-4.979,0-9.029-4.051-9.029-9.03v-30.327h38.001
			c4.143,0,7.5-3.358,7.5-7.5c0-4.142-3.357-7.5-7.5-7.5H15.174v-35.485h113.254c10.417,0,18.892-8.475,18.892-18.893V267.384
			c0-10.417-8.475-18.893-18.892-18.893H15.358c2.313-31.351,28.542-56.158,60.473-56.158c0.026,0,0,0,0.026,0h288.542h0.009
			c4.143,0,7.5-3.358,7.5-7.5c0-4.142-3.357-7.5-7.5-7.5h-22.952l-8.838-29.418c-2.862-9.531-11.473-15.934-21.425-15.934h-48.821
			l39.95-34.009c1.674-1.425,2.639-3.513,2.639-5.711s-0.965-4.286-2.639-5.711l-45.074-38.372H378.66
			c7.859,0,14.253-6.394,14.253-14.253v-4.011h88.027c4.143,0,7.5-3.357,7.5-7.5s-3.357-7.5-7.5-7.5h-88.027v-0.662
			C392.913,6.394,386.52,0,378.66,0H133.34c-7.859,0-14.253,6.394-14.253,14.253v0.662H31.06c-4.143,0-7.5,3.357-7.5,7.5
			s3.357,7.5,7.5,7.5h88.027v4.011c0,7.859,6.394,14.253,14.253,14.253h100.767l51.782,44.083l-46.658,39.72h-38.424
			c-9.952,0-18.563,6.403-21.425,15.934l-8.839,29.418H75.831c-41.718,0-75.657,33.94-75.657,75.658V487.97
			c0,13.25,10.779,24.03,24.029,24.03h463.594c13.25,0,24.029-10.78,24.029-24.03v-88.312V255.991v-3
			C511.826,211.273,477.887,177.333,436.169,177.333z M134.087,33.179V15h243.826v18.179H134.087z M193.748,152.231
			c0.943-3.14,3.78-5.25,7.06-5.25h110.385c3.279,0,6.116,2.11,7.06,5.25l7.542,25.102H186.206L193.748,152.231z M15.174,263.491
			h113.254c2.146,0,3.892,1.746,3.892,3.893v120.882c0,2.146-1.746,3.893-3.892,3.893H15.174V263.491z M248.5,497h-63.631V265.463
			c0-1.083,0.881-1.963,1.963-1.963H248.5V497z M263.5,497V263.5h61.425c1.083,0,1.964,0.881,1.964,1.963V497H263.5z
			 M383.572,392.159c-2.146,0-3.892-1.746-3.892-3.893V267.384c0-2.146,1.746-3.893,3.892-3.893h113.254v128.668H383.572z
			 M496.827,487.97h-0.001c0,4.979-4.051,9.03-9.029,9.03H341.889v-39.356h154.938V487.97z"/>
	</g>
</g>
<g>
</g>
<g>
</g>
<g>
</g>
<g>
</g>
<g>
</g>
<g>
</g>
<g>
</g>
<g>
</g>
<g>
</g>
<g>
</g>
<g>
</g>
<g>
</g>
<g>
</g>
<g>
</g>
<g>
</g>
</svg>
