<?xml version="1.0" encoding="iso-8859-1"?>
<!-- Generator: Adobe Illustrator 19.0.0, SVG Export Plug-In . SVG Version: 6.00 Build 0)  -->
<svg version="1.1" id="Capa_1" xmlns="http://www.w3.org/2000/svg" xmlns:xlink="http://www.w3.org/1999/xlink" x="0px" y="0px"
	 viewBox="0 0 512 512" style="enable-background:new 0 0 512 512;" xml:space="preserve">
<g>
	<g>
		<path d="M437.019,74.981C388.666,26.629,324.38,0,256,0C187.624,0,123.33,26.631,74.981,74.981C26.629,123.333,0,187.62,0,256
			s26.628,132.667,74.98,181.019C123.333,485.372,187.62,512,256,512s132.667-26.628,181.02-74.981
			C485.371,388.667,512,324.38,512,256S485.371,123.333,437.019,74.981z M426.406,426.407
			C380.889,471.924,320.371,496.991,256,496.991s-124.889-25.068-170.406-70.585C40.077,380.889,15.009,320.371,15.009,256
			S40.076,131.11,85.593,85.593C131.11,40.076,191.629,15.009,256,15.009s124.889,25.068,170.406,70.585
			c45.518,45.517,70.585,106.035,70.585,170.406S471.924,380.89,426.406,426.407z"/>
	</g>
</g>
<g>
	<g>
		<path d="M392.797,89.073C353.923,57.1,306.62,40.201,256,40.201c-57.642,0-111.834,22.447-152.593,63.206
			C62.648,144.166,40.201,198.358,40.2,256c0,50.619,16.9,97.923,48.872,136.797c1.345,1.635,3.317,2.626,5.431,2.729
			c0.122,0.006,0.244,0.009,0.365,0.009c1.985,0,3.895-0.788,5.306-2.198l293.163-293.162c1.496-1.497,2.291-3.556,2.189-5.67
			C395.423,92.391,394.433,90.418,392.797,89.073z M95.528,376.758C69.119,341.883,55.209,300.312,55.209,256
			c0-53.634,20.886-104.057,58.81-141.981c37.924-37.924,88.348-58.81,141.981-58.81c44.311,0,85.883,13.91,120.757,40.319
			L95.528,376.758z"/>
	</g>
</g>
<g>
	<g>
		<path d="M422.928,119.202c-1.345-1.635-3.317-2.626-5.432-2.729c-2.124-0.103-4.174,0.692-5.671,2.189L118.663,411.825
			c-1.497,1.497-2.292,3.556-2.189,5.671c0.103,2.114,1.094,4.087,2.729,5.431C158.077,454.9,205.381,471.799,256,471.799
			c0.003,0-0.001,0,0.002,0c57.639,0,111.835-22.449,152.592-63.206c40.76-40.76,63.206-94.952,63.205-152.593
			C471.8,205.382,454.901,158.078,422.928,119.202z M397.98,397.981c-37.924,37.924-88.347,58.81-141.981,58.81
			c-44.311,0-85.882-13.91-120.758-40.319l281.23-281.229c26.41,34.876,40.32,76.447,40.319,120.758
			C456.791,309.633,435.905,360.056,397.98,397.981z"/>
	</g>
</g>
<g>
	<g>
		<path d="M439.453,223.247h-92.735c-4.145,0-7.504,3.36-7.504,7.504s3.359,7.504,7.504,7.504h10.741v35.489h-63.327
			c-4.145,0-7.504,3.36-7.504,7.504c0,4.144,3.359,7.504,7.504,7.504h70.831h74.49c1.814,0,3.544-0.369,5.117-1.036
			c4.721-2,8.042-6.681,8.042-12.123v-39.187C452.612,229.15,446.709,223.247,439.453,223.247z M437.604,273.744h-65.136v-35.488
			h65.136V273.744z"/>
	</g>
</g>
<g>
	<g>
		<path d="M215.66,223.247H88.556c-7.256,0-13.159,5.903-13.159,13.159v39.187c0,7.256,5.903,13.159,13.159,13.159h79.393
			c4.144,0,7.504-3.36,7.504-7.504c0-4.144-3.36-7.504-7.504-7.504h-51.863v-35.489h99.573c4.144,0,7.504-3.36,7.504-7.504
			S219.804,223.247,215.66,223.247z M101.079,273.744L101.079,273.744H90.406v-35.489h10.673V273.744z"/>
	</g>
</g>
<g>
	<g>
		<path d="M214.03,118.987c-0.581-10.461-6.455-18.577-16.117-22.268c-13.708-5.236-31.954-0.226-44.367,12.187
			c-6.647,6.647-7.465,14.618-8.061,20.438c-0.768,7.493-1.027,10.017-9.633,11.888c-20.785,4.518-32.173,25.952-30.464,57.338
			c0.209,3.855,2.877,7.017,6.638,7.873c0.65,0.148,1.301,0.219,1.942,0.219c3.075,0,5.932-1.65,7.472-4.457
			c11.141-20.298,20.021-20.633,29.424-20.989c7.484-0.283,17.733-0.67,24.249-13.231c8.055-15.53,15.926-19.075,22.87-22.203
			C207.676,141.416,215.012,136.671,214.03,118.987z M197.84,128.593c-0.919,1.206-3.171,2.221-6.023,3.505
			c-7.794,3.51-19.572,8.816-30.029,28.976c-2.393,4.613-4.358,4.874-11.492,5.144c-7.497,0.283-17.687,0.667-28.371,10.511
			c2.158-9.436,6.924-18.613,17.113-20.828c19.239-4.182,20.525-16.724,21.376-25.024c0.539-5.259,1.008-8.622,3.743-11.357
			c6.884-6.884,15.238-9.858,21.977-9.858c2.389,0,4.574,0.374,6.42,1.079c4.114,1.572,6.235,4.542,6.488,9.08
			C199.285,124.207,198.87,127.241,197.84,128.593z"/>
	</g>
</g>
<g>
</g>
<g>
</g>
<g>
</g>
<g>
</g>
<g>
</g>
<g>
</g>
<g>
</g>
<g>
</g>
<g>
</g>
<g>
</g>
<g>
</g>
<g>
</g>
<g>
</g>
<g>
</g>
<g>
</g>
</svg>
