<?xml version="1.0" encoding="iso-8859-1"?>
<!-- Generator: Adobe Illustrator 19.0.0, SVG Export Plug-In . SVG Version: 6.00 Build 0)  -->
<svg version="1.1" id="Capa_1" xmlns="http://www.w3.org/2000/svg" xmlns:xlink="http://www.w3.org/1999/xlink" x="0px" y="0px"
	 viewBox="0 0 511.999 511.999" style="enable-background:new 0 0 511.999 511.999;" xml:space="preserve">
<g>
	<g>
		<g>
			<path d="M500.11,355.307c-7.225-8.192-16.766-13.422-26.957-15.318l22.103-17.586c3.191-2.538,5.167-6.328,5.422-10.396
				l0.573-9.137l1.066-16.985c0.165-2.628-0.389-5.243-1.604-7.576l-56.465-118.075c-0.053-0.11-0.108-0.219-0.167-0.327
				c-1.399-2.591-3.524-4.667-6.144-6.002l-112.99-57.64c-1.769-0.902-3.672-1.423-5.658-1.549L48.77,77.746
				c-7.866-0.491-15.461,2.107-21.376,7.323c-5.914,5.216-9.443,12.423-9.931,20.215L5.393,270.162c0,0.001,0,0.001,0,0.002
				l-5.337,72.895c-0.032,0.503-0.05,1.004-0.056,1.504c-0.001,0.071,0.002,0.141,0.002,0.212c-0.002,0.434,0.002,0.866,0.018,1.297
				c0.001,0.017,0.002,0.033,0.003,0.05c0.266,6.759,2.821,13.17,7.356,18.313c4.536,5.143,10.578,8.479,17.251,9.587
				c0.016,0.003,0.031,0.006,0.047,0.009c0.42,0.069,0.843,0.126,1.267,0.177c0.014,0.002,0.027,0.004,0.041,0.006
				c-0.627,14.733,4.372,29.085,14.297,40.339c11.345,12.863,27.207,19.434,43.142,19.433c13.512,0,27.077-4.725,37.985-14.344
				c11.241-9.914,17.992-23.509,19.222-38.185l254.365,15.956c0.303,0.019,0.605,0.028,0.907,0.028c3.259,0,6.421-1.099,8.987-3.141
				l12.125-9.647c-0.512,11.994,3.451,24.126,11.77,33.558c8.401,9.526,20.009,15.209,32.685,16.005
				c1.018,0.064,2.031,0.095,3.042,0.095c11.578,0,22.626-4.164,31.386-11.89c9.526-8.401,15.21-20.009,16.005-32.685
				C512.7,377.059,508.511,364.832,500.11,355.307z M32.389,106.299c0.243-3.882,1.984-7.437,4.901-10.01
				c2.683-2.366,6.066-3.641,9.611-3.641c0.309,0,0.62,0.01,0.932,0.029l270.411,16.962l112.725,57.505l56.311,117.754
				c0.031,0.065,0.063,0.129,0.095,0.193l-0.586,9.348l-13.029-0.867l0.335-5.336c0.179-2.848-0.421-5.681-1.736-8.21l-4.461-9.521
				c-0.003-0.007-0.006-0.013-0.009-0.02l-12.478-26.628c-1.754-3.741-6.208-5.351-9.948-3.599
				c-3.741,1.753-5.352,6.207-3.599,9.948l8.503,18.146l-2.439,0.553c-5.806-7.234-15.615-10.468-24.811-7.659l-3.703-8.36
				c-2.029-4.557-5.965-7.88-10.799-9.117l-32.722-8.364c-4.002-1.02-8.076,1.393-9.1,5.395c-1.023,4.003,1.392,8.077,5.395,9.1
				l32.721,8.364c0.375,0.096,0.68,0.354,0.837,0.706l3.375,7.583l-2.813,1.081c-4.096,1.574-7.333,4.648-9.116,8.657
				c-1.782,4.008-1.897,8.472-0.323,12.566l2.412,6.276c0.616,1.602,1.467,3.066,2.508,4.37l-41.585,55.863l-14.734-0.924
				l1.825-31.249c0.228-3.64-0.328-7.176-1.526-10.437c8.022-1.57,14.314-8.395,14.85-16.926
				c0.636-10.136-7.093-18.901-17.23-19.537l-40.483-2.539l7.887-108.715c6.126-0.013,11.289-4.799,11.678-10.999l0.9-14.351
				l87.458,44.615c0.1,0.051,0.187,0.125,0.252,0.215l15.722,33.552c1.273,2.715,3.967,4.308,6.779,4.308
				c1.063,0,2.143-0.228,3.169-0.709c3.741-1.753,5.352-6.207,3.599-9.948l-15.862-33.85c-0.06-0.129-0.125-0.256-0.192-0.381
				c-1.519-2.811-3.825-5.064-6.669-6.515l-95.635-48.786c-0.275-0.402-0.566-0.795-0.893-1.166
				c-2.073-2.351-4.938-3.753-8.066-3.95l-189.674-11.898c-6.46-0.406-12.04,4.519-12.446,10.976l-1.538,24.519
				c-0.196,3.128,0.838,6.145,2.911,8.497c2.073,2.35,4.938,3.753,8.065,3.949l8.447,0.53l-5.043,63.62
				c-0.326,4.119,2.748,7.722,6.866,8.048c0.202,0.016,0.401,0.024,0.599,0.024c3.863,0,7.138-2.973,7.449-6.89l5.063-63.865
				l127.52,7.999l-7.885,108.689l-40.882-2.564c-4.917-0.313-9.647,1.314-13.337,4.569s-5.892,7.751-6.2,12.662
				c-0.532,8.498,4.823,16.01,12.537,18.599c-1.612,3.104-2.617,6.568-2.848,10.24l-1.822,31.217l-32.331-2.028
				c-0.463-0.029-0.857-0.333-1.004-0.772l-15.502-46.5c-1.232-3.692-3.759-6.812-7.116-8.785l-20.123-11.82
				c-0.003-0.002-0.005-0.004-0.008-0.006c-0.078-0.047-0.146-0.103-0.209-0.164c-0.026-0.026-0.046-0.051-0.068-0.077
				c-0.034-0.04-0.066-0.083-0.094-0.127c-0.019-0.03-0.04-0.062-0.055-0.09c-0.085-0.168-0.133-0.355-0.126-0.551l1.76-22.203
				c0.326-4.119-2.748-7.722-6.866-8.048c-4.108-0.329-7.721,2.747-8.048,6.866l-1.455,18.362l-98.709-6.324L32.389,106.299z
				 M415.893,305.615c1.56-0.124,3.112-0.466,4.613-1.043l21.528-8.274c5.764-2.215,9.56-7.347,10.366-13.068l4.465-1.013
				l2.023,4.318c0.06,0.129,0.125,0.256,0.192,0.381c0.063,0.117,0.092,0.249,0.084,0.383l-0.673,10.728
				c-0.004,0.07-0.031,0.134-0.055,0.199c-0.014,0.04-0.032,0.083-0.058,0.128c-0.043,0.069-0.09,0.137-0.155,0.188l-73.149,58.2
				c-0.139,0.11-0.318,0.166-0.49,0.154l-6.559-0.411L415.893,305.615z M410.864,282.37c0.112-0.253,0.344-0.592,0.812-0.771
				l15.253-5.863c0.963-0.37,1.953-0.545,2.928-0.545c3.217,0,6.25,1.919,7.553,5.042c0.001,0.002,0.001,0.004,0.002,0.006
				c0.034,0.082,0.073,0.166,0.109,0.249c0.156,0.447,0.068,0.829-0.041,1.073c-0.112,0.253-0.345,0.592-0.812,0.771l-21.529,8.275
				c-0.327,0.125-0.616,0.113-0.85,0.057c-0.055-0.015-0.108-0.035-0.163-0.048c-0.036-0.013-0.076-0.024-0.107-0.038
				c-0.253-0.112-0.592-0.345-0.771-0.812l-2.413-6.276C410.655,283.023,410.752,282.623,410.864,282.37z M124.51,138.39
				l1.134-18.079l183.234,11.494l-1.134,18.079L124.51,138.39z M295.862,164.129l-13.519,186.353l-9.676-0.607l13.519-186.353
				L295.862,164.129z M300.244,310.499l26.353,1.653c3.75,1.9,6.038,5.842,5.768,10.137l-1.823,31.216l-7.158-0.449l-26.109-1.638
				L300.244,310.499z M301.326,295.577l0.501-6.9l40.629,2.548c1.904,0.119,3.355,1.765,3.236,3.669s-1.758,3.375-3.669,3.236
				L301.326,295.577z M221.117,290.545c-1.904-0.119-3.355-1.765-3.236-3.669c0.078-1.244,0.763-2.024,1.164-2.378
				s1.261-0.942,2.504-0.858l40.736,2.555l-0.501,6.9L221.117,290.545z M260.703,308.018l-2.969,40.92l-31.986-2.006l1.824-31.249
				c0.267-4.265,3.03-7.888,6.988-9.305L260.703,308.018z M111.515,408.421c-17.584,15.507-44.504,13.818-60.011-3.764
				c-7.253-8.224-10.95-18.689-10.589-29.455l13.409,0.841c-0.122,7.146,2.385,14.202,7.257,19.726
				c5.138,5.826,12.238,9.303,19.991,9.789c0.622,0.039,1.241,0.058,1.859,0.058c7.082,0,13.839-2.547,19.195-7.272
				c5.493-4.843,8.895-11.431,9.674-18.665l13.401,0.841C124.715,391.248,119.739,401.168,111.515,408.421z M69.292,376.982
				l28.045,1.759c-0.507,3.244-2.111,6.184-4.606,8.383c-2.828,2.494-6.46,3.741-10.223,3.503c-3.764-0.236-7.212-1.924-9.707-4.754
				C70.594,383.372,69.393,380.217,69.292,376.982z M395.731,382.469L28.609,359.44c-3.005-0.188-5.743-1.281-7.965-2.991
				c-3.333-2.565-5.505-6.52-5.679-10.902c-0.019-0.487-0.014-0.979,0.017-1.474l4.79-65.425l103.037,6.601
				c0.59,0.725,1.249,1.399,1.967,2.019c0.036,0.031,0.072,0.061,0.108,0.092c0.299,0.253,0.608,0.496,0.927,0.73
				c0.074,0.054,0.146,0.11,0.221,0.163c0.366,0.258,0.74,0.506,1.131,0.736l20.123,11.82c0.238,0.14,0.416,0.36,0.503,0.62
				l15.502,46.499c2.085,6.253,7.682,10.559,14.26,10.972l207.071,12.957c0.006,0,0.007,0,0.013,0c0.005,0,0.005,0,0.009,0.001
				l0.235-0.011c0.204-0.003,0.407-0.015,0.611-0.026c0.258-0.014,0.514-0.031,0.77-0.058c0.207-0.021,0.413-0.049,0.618-0.078
				c0.249-0.036,0.496-0.077,0.742-0.125c0.207-0.04,0.412-0.083,0.617-0.132c0.242-0.057,0.481-0.122,0.72-0.191
				c0.202-0.058,0.403-0.116,0.602-0.182c0.24-0.079,0.475-0.169,0.711-0.26c0.191-0.074,0.382-0.145,0.571-0.226
				c0.244-0.105,0.482-0.223,0.72-0.341c0.172-0.085,0.346-0.165,0.515-0.256c0.264-0.143,0.521-0.301,0.777-0.46
				c0.135-0.084,0.274-0.159,0.407-0.247c0.386-0.255,0.763-0.525,1.128-0.815l73.149-58.2c0.407-0.324,0.792-0.67,1.161-1.029
				c0.117-0.113,0.223-0.235,0.336-0.352c0.186-0.192,0.379-0.379,0.554-0.581l16.265,1.082l-0.092,1.469L395.731,382.469z
				 M464.87,387.86c-0.989,0.379-2.066,0.352-3.033-0.078c-0.967-0.43-1.709-1.211-2.089-2.199l-10.28-26.749l2.991-2.38
				c1.345-0.533,2.713-0.951,4.089-1.296l10.6,27.58C467.933,384.777,466.911,387.075,464.87,387.86z M486.004,411.201
				c-6.529,5.758-14.905,8.628-23.596,8.084c-8.688-0.545-16.644-4.44-22.401-10.969c-9.711-11.01-10.753-27.375-2.732-39.51
				l8.51,22.143c1.813,4.718,5.355,8.448,9.974,10.502c2.46,1.094,5.069,1.643,7.683,1.643c2.293,0,4.591-0.422,6.796-1.27
				c9.739-3.743,14.618-14.713,10.876-24.453l-8.519-22.167c6.156,1.59,11.864,4.973,16.295,9.999
				C500.776,378.68,499.481,399.315,486.004,411.201z"/>
			<path d="M384.645,371.858l-0.008,0l-0.014-0.001C384.344,371.858,384.936,371.876,384.645,371.858z"/>
		</g>
	</g>
</g>
<g>
</g>
<g>
</g>
<g>
</g>
<g>
</g>
<g>
</g>
<g>
</g>
<g>
</g>
<g>
</g>
<g>
</g>
<g>
</g>
<g>
</g>
<g>
</g>
<g>
</g>
<g>
</g>
<g>
</g>
</svg>
