<?xml version="1.0" encoding="iso-8859-1"?>
<!-- Generator: Adobe Illustrator 19.0.0, SVG Export Plug-In . SVG Version: 6.00 Build 0)  -->
<svg version="1.1" id="Capa_1" xmlns="http://www.w3.org/2000/svg" xmlns:xlink="http://www.w3.org/1999/xlink" x="0px" y="0px"
	 viewBox="0 0 512.002 512.002" style="enable-background:new 0 0 512.002 512.002;" xml:space="preserve">
<g>
	<g>
		<path d="M173.266,420.891l-8.813-19.863c-1.833-4.131-5.759-7.035-10.246-7.58l-38.044-4.614
			c-4.286-0.524-8.525,1.124-11.34,4.396c-2.816,3.272-3.807,7.71-2.654,11.87l5.56,20.051c1.424,5.133,5.767,8.818,11.065,9.386
			l41.296,4.426c0.477,0.051,0.952,0.076,1.423,0.076c4.109,0,7.917-1.922,10.384-5.307
			C174.648,429.959,175.16,425.159,173.266,420.891z M121.812,419.767l-4.342-15.656l33.749,4.093l6.854,15.449L121.812,419.767z"/>
	</g>
</g>
<g>
	<g>
		<path d="M407.385,393.23c-2.815-3.272-7.054-4.917-11.34-4.396l-38.044,4.614c-4.487,0.544-8.413,3.448-10.247,7.581
			l-8.812,19.863c-1.894,4.268-1.382,9.069,1.368,12.841c2.468,3.385,6.275,5.307,10.385,5.307c0.47,0,0.945-0.025,1.423-0.077
			l41.296-4.426c5.297-0.568,9.639-4.252,11.064-9.386l5.561-20.051C411.192,400.94,410.2,396.503,407.385,393.23z M390.397,419.766
			l-36.26,3.887l6.854-15.449l33.748-4.093L390.397,419.766z"/>
	</g>
</g>
<g>
	<g>
		<path d="M333.024,421.305l-4.724-18.388c-1.781-6.932-8.023-11.773-15.18-11.773H199.089c-7.157,0-13.4,4.841-15.181,11.773
			l-4.723,18.388c-1.214,4.726-0.195,9.649,2.796,13.505c2.99,3.856,7.505,6.067,12.385,6.067h123.477
			c4.88,0,9.394-2.212,12.385-6.067C333.219,430.954,334.238,426.032,333.024,421.305z M318.368,425.611
			c-0.199,0.257-0.436,0.257-0.525,0.257H194.366c-0.089,0-0.325,0-0.525-0.257c-0.2-0.257-0.141-0.487-0.119-0.572l4.723-18.387
			c0.076-0.294,0.341-0.499,0.644-0.499H313.12c0.303,0,0.568,0.205,0.643,0.499l4.723,18.387
			C318.509,425.124,318.568,425.353,318.368,425.611z"/>
	</g>
</g>
<g>
	<g>
		<path d="M436.54,305.978h-22.946c-3.052,0-5.911,0.826-8.385,2.248l-14.238-44.863c-5.144-16.209-20.025-27.099-37.031-27.099
			h-26.105l-3.817-13.014c-2.565-8.746-10.723-14.854-19.837-14.854h-96.358c-9.114,0-17.271,6.108-19.837,14.854l-3.817,13.014
			h-26.089c-17.005,0-31.887,10.89-37.031,27.099l-14.24,44.872c-2.477-1.427-5.341-2.256-8.399-2.256H75.463
			c-9.316,0-16.895,7.579-16.895,16.896v11.534c0,9.316,7.579,16.896,16.895,16.896h7.957c-7.302,10.676-11.636,23.59-11.636,35.644
			v41.256c0,16.133,10.538,29.843,25.09,34.63v24.599c0,13.547,11.021,24.568,24.568,24.568h25.293
			c13.547,0,24.568-11.021,24.568-24.568v-22.776h169.394v22.776c0,13.547,11.021,24.568,24.568,24.568h25.294
			c13.547,0,24.568-11.021,24.568-24.568v-25.235c14.641-5.502,25.09-19.642,25.09-36.182v-39.069
			c0-12.054-4.334-24.968-11.636-35.644h7.957c9.316,0,16.895-7.579,16.895-16.896v-11.534
			C453.435,313.557,445.856,305.978,436.54,305.978z M202.387,227.473c0.703-2.396,2.938-4.069,5.435-4.069h96.358
			c2.497,0,4.732,1.673,5.435,4.069l2.578,8.79H199.809L202.387,227.473z M135.355,267.902c3.157-9.947,12.29-16.63,22.726-16.63
			h31.801c0.016,0,0.031,0,0.047,0H322.19c0.008,0,0.016,0.002,0.024,0.002c0.009,0,0.018-0.002,0.027-0.002h31.7
			c10.436,0,19.568,6.683,22.726,16.63l19.207,60.521c-2.167-0.374-4.375-0.591-6.629-0.591h-1.253l-17.183-54.139
			c-2.792-8.798-10.869-14.709-20.099-14.709H161.314c-9.23,0-17.307,5.912-20.099,14.71l-17.181,54.138h-1.275
			c-2.248,0-4.45,0.216-6.611,0.588L135.355,267.902z M162.872,327.832H139.78l15.741-49.599c0.805-2.536,3.133-4.24,5.793-4.24
			h189.394c2.66,0,4.988,1.704,5.793,4.24l15.742,49.599H197.788c-4.144,0-7.504,3.36-7.504,7.504c0,4.144,3.36,7.504,7.504,7.504
			h191.449h0.006c1.305,0,2.595,0.118,3.87,0.33l-6.944,12.508c-2.921,5.261-9.644,8.661-17.127,8.661H143.166
			c-7.483,0-14.206-3.4-17.127-8.661l-6.964-12.544c1.215-0.192,2.444-0.294,3.685-0.294h40.112c4.145,0,7.504-3.36,7.504-7.504
			C170.376,331.192,167.017,327.832,162.872,327.832z M75.463,336.292L75.463,336.292c-1.04,0.001-1.886-0.845-1.886-1.886v-11.534
			c0-1.04,0.846-1.887,1.886-1.887h22.945c1.041,0,1.887,0.847,1.887,1.887v5.881l-2.361,7.439c-0.047,0.033-0.094,0.066-0.141,0.1
			H75.463z M156.296,487.432L156.296,487.432c-0.001,5.271-4.289,9.559-9.56,9.559h-25.293c-5.271,0-9.559-4.288-9.559-9.559
			v-22.776h44.412V487.432z M400.12,487.432c0,5.271-4.288,9.559-9.559,9.559h-25.294c-5.271,0-9.559-4.288-9.559-9.559v-22.776
			h44.412V487.432z M406.118,449.204c-0.738,0.144-1.483,0.255-2.23,0.328c-0.008,0.001-0.016,0.001-0.024,0.002
			c-0.762,0.074-1.526,0.112-2.287,0.112c-0.003,0,0,0-0.003,0H108.241h-0.003c-11.824,0-21.444-9.62-21.444-21.444v-41.256
			c0-13.469,7.643-28.954,18.604-37.526l7.518,13.543c5.526,9.953,17.4,16.384,30.249,16.384h225.877
			c12.849,0,24.723-6.431,30.249-16.385l7.455-13.43c10.885,8.594,18.462,24.002,18.462,37.413v39.07h0.001
			C425.209,437.492,416.983,447.081,406.118,449.204z M436.54,336.294h-22.329c-0.041-0.029-0.081-0.058-0.121-0.086l-2.383-7.508
			v-5.827c0-1.04,0.846-1.887,1.886-1.887h22.946c1.04,0,1.886,0.847,1.886,1.887v11.534h0.001
			C438.426,335.448,437.58,336.294,436.54,336.294z"/>
	</g>
</g>
<g>
	<g>
		<path d="M381.594,52.023c-12.335-12.335-26.279-22.737-41.443-30.915c-3.649-1.968-8.2-0.605-10.167,3.043
			s-0.605,8.2,3.043,10.167c13.881,7.486,26.65,17.014,37.955,28.318c2.644,2.644,2.644,6.945,0,9.589
			c-1.281,1.28-2.984,1.986-4.795,1.986c-1.81,0-3.513-0.705-4.794-1.986c-28.152-28.152-65.58-43.655-105.391-43.655
			c-39.811,0-77.24,15.504-105.39,43.654c-2.643,2.643-6.944,2.644-9.589,0c-2.644-2.644-2.644-6.945,0-9.589
			c30.713-30.712,71.546-47.626,114.979-47.626c15.666,0,31.132,2.203,45.966,6.549c3.98,1.168,8.147-1.114,9.311-5.092
			c1.165-3.977-1.114-8.146-5.092-9.311C289.982,2.407,273.097,0,256.002,0c-47.442,0-92.045,18.475-125.591,52.022
			c-4.116,4.115-6.382,9.587-6.382,15.407s2.266,11.292,6.382,15.407c8.495,8.497,22.319,8.496,30.814,0.001
			c25.315-25.316,58.974-39.258,94.777-39.258c35.802,0,69.462,13.942,94.778,39.258c4.116,4.116,9.589,6.383,15.409,6.382
			s11.291-2.268,15.405-6.382C390.09,74.341,390.09,60.518,381.594,52.023z"/>
	</g>
</g>
<g>
	<g>
		<path d="M343.234,92.474c-23.265-23.266-54.245-36.079-87.232-36.079c-0.002,0,0.001,0-0.001,0
			c-32.984,0-63.967,12.815-87.231,36.079c-4.115,4.115-6.382,9.587-6.382,15.407s2.266,11.292,6.382,15.407
			c4.116,4.116,9.587,6.382,15.407,6.382s11.292-2.266,15.407-6.382c15.044-15.043,35.08-23.328,56.419-23.328
			s41.374,8.285,56.418,23.328c4.115,4.116,9.586,6.382,15.406,6.382s11.292-2.266,15.407-6.382
			c4.116-4.115,6.382-9.587,6.382-15.407S347.349,96.589,343.234,92.474z M332.622,112.676c-1.281,1.281-2.983,1.986-4.794,1.986
			c-1.811,0-3.514-0.705-4.795-1.986c-17.878-17.878-41.682-27.724-67.03-27.724c-25.346,0-49.154,9.847-67.031,27.724
			c-1.281,1.281-2.984,1.986-4.795,1.986c-1.811,0-3.513-0.705-4.794-1.986c-1.281-1.281-1.986-2.984-1.986-4.795
			c0-1.811,0.705-3.514,1.986-4.794c20.43-20.432,47.641-31.683,76.619-31.683c28.978,0,56.188,11.252,76.62,31.683
			c1.281,1.28,1.986,2.983,1.986,4.794C334.608,109.692,333.903,111.395,332.622,112.676z"/>
	</g>
</g>
<g>
	<g>
		<path d="M305.346,132.453c-13.166-13.166-30.69-20.417-49.345-20.417c-18.655,0-36.177,7.252-49.343,20.417
			c-8.496,8.496-8.496,22.319,0,30.814c8.495,8.496,22.318,8.496,30.814,0c4.936-4.935,11.517-7.653,18.53-7.653
			c7.013,0,13.594,2.718,18.53,7.652c4.115,4.116,9.587,6.383,15.407,6.383s11.292-2.266,15.407-6.382
			C313.842,154.771,313.842,140.948,305.346,132.453z M294.734,152.655c-1.281,1.281-2.984,1.986-4.795,1.986
			c-1.811,0-3.513-0.705-4.795-1.987c-7.771-7.77-18.12-12.048-29.142-12.048c-11.022,0-21.371,4.279-29.142,12.049
			c-2.644,2.644-6.945,2.643-9.589,0c-2.644-2.644-2.644-6.945,0-9.589c10.331-10.331,24.086-16.021,38.731-16.021
			c14.646,0,28.401,5.689,38.732,16.021C297.377,145.71,297.377,150.011,294.734,152.655z"/>
	</g>
</g>
<g>
</g>
<g>
</g>
<g>
</g>
<g>
</g>
<g>
</g>
<g>
</g>
<g>
</g>
<g>
</g>
<g>
</g>
<g>
</g>
<g>
</g>
<g>
</g>
<g>
</g>
<g>
</g>
<g>
</g>
</svg>
