<?xml version="1.0" encoding="iso-8859-1"?>
<!-- Generator: Adobe Illustrator 19.0.0, SVG Export Plug-In . SVG Version: 6.00 Build 0)  -->
<svg version="1.1" id="Capa_1" xmlns="http://www.w3.org/2000/svg" xmlns:xlink="http://www.w3.org/1999/xlink" x="0px" y="0px"
	 viewBox="0 0 512 512" style="enable-background:new 0 0 512 512;" xml:space="preserve">
<g>
	<g>
		<path d="M452.658,108.326c-11.369-21.135-27.849-37.616-48.984-48.984c-4.552-2.449-10.059-1.646-13.703,1.998l-13.42,13.42
			c-2.659,2.66-3.865,6.462-3.226,10.171c0.638,3.691,3.034,6.852,6.41,8.457h0.001c17.98,8.541,30.333,20.894,38.876,38.878
			c1.604,3.375,4.767,5.771,8.457,6.408c0.655,0.113,1.313,0.169,1.968,0.169c3.048,0,6.013-1.204,8.203-3.394l13.42-13.42
			C454.304,118.385,455.106,112.878,452.658,108.326z M429.983,121.491c-9.182-17.315-22.16-30.294-39.475-39.475l8.254-8.254
			c16.942,9.583,29.891,22.533,39.475,39.475L429.983,121.491z"/>
	</g>
</g>
<g>
	<g>
		<path d="M506.726,319.207l-13.429-13.429c-0.729-0.729-1.516-1.364-2.33-1.942c-0.166-0.117-0.323-0.25-0.492-0.361
			c-6.986-4.607-16.5-3.84-22.644,2.303l-13.013,13.014l-8.489-27.334l22.379-22.38c0.001-0.001,0.001-0.001,0.002-0.002l9.67-9.67
			c3.401-3.4,5.275-7.922,5.275-12.732s-1.874-9.332-5.274-12.732l-13.429-13.429c-0.001,0-0.001,0-0.001,0
			c-7.021-7.02-18.443-7.018-25.465,0l-9.671,9.671c-0.001,0.001-0.001,0.002-0.002,0.002l-1.92,1.92l-11.305-36.397l16.026-12.8
			c25.145-20.223,43.623-48.809,53.433-82.666c6.914-23.86,7.3-42.403,7.315-45.356c0.798-9.855-2.738-19.497-9.743-26.516
			c-7.01-6.996-16.659-10.53-26.507-9.733c-2.952,0.016-21.497,0.401-45.356,7.315c-33.857,9.811-62.443,28.288-82.683,53.453
			L316.292,95.41l-36.397-11.305l11.594-11.593c7.019-7.021,7.019-18.444,0-25.465l-13.43-13.429
			c-3.401-3.401-7.923-5.273-12.732-5.273c-1.202,0-2.387,0.117-3.54,0.346c-3.46,0.686-6.642,2.377-9.192,4.928l-32.052,32.052
			l-27.335-8.49l3.331-3.331c0.004-0.004,0.009-0.008,0.013-0.012l9.669-9.67c1.275-1.275,2.336-2.708,3.164-4.255
			c1.38-2.578,2.112-5.472,2.112-8.477c0-4.81-1.874-9.331-5.274-12.732l-13.43-13.43c-0.434-0.434-0.888-0.842-1.357-1.226
			c-0.059-0.048-0.122-0.087-0.181-0.135c-0.417-0.332-0.842-0.651-1.283-0.943c0,0-0.001-0.001-0.002-0.001
			C187.054,1.04,183.638,0,180.061,0c-3.56,0-6.958,1.031-9.865,2.943c-0.016,0.01-0.033,0.019-0.049,0.029
			c-0.424,0.281-0.832,0.588-1.234,0.906c-0.075,0.06-0.156,0.11-0.23,0.171c-0.468,0.383-0.921,0.791-1.355,1.224l-33.473,33.473
			L89.894,25.093c-11.155-3.466-23.221-0.487-31.48,7.775L42.546,48.735c-4.486,4.487-6.934,10.582-6.82,16.889
			c0.008,0.421,0.027,0.843,0.057,1.265c0.396,5.485,2.708,10.602,6.471,14.499c0.868,0.899,1.814,1.734,2.831,2.493
			l175.681,131.134l-91.682,114.791L33.37,316.319c-4.62-0.651-9.342,0.929-12.639,4.226L4.376,336.901
			c-3.361,3.361-4.898,7.987-4.218,12.692c0.681,4.704,3.466,8.705,7.642,10.975l71.943,39.118
			c-3.568,8.933-6.057,18.304-7.353,27.92c-0.447,3.329,0.658,6.599,3.033,8.973c2.027,2.027,4.707,3.128,7.518,3.128
			c0.481,0,0.968-0.032,1.454-0.098c9.616-1.295,18.987-3.784,27.92-7.352l39.117,71.941c2.27,4.176,6.271,6.962,10.976,7.643
			c0.731,0.106,1.462,0.158,2.186,0.158c3.928,0,7.668-1.538,10.506-4.376l16.356-16.356c3.296-3.296,4.875-8.02,4.226-12.637
			l-13.487-95.714l114.791-91.682L428.12,466.916c4.048,5.424,10.242,8.814,16.992,9.302c0.563,0.041,1.124,0.061,1.684,0.061
			c6.156,0,12.082-2.437,16.47-6.824l15.867-15.867c8.261-8.261,11.24-20.325,7.774-31.482l-13.654-43.961l23.79-23.791
			c0.004-0.004,0.009-0.007,0.013-0.012l9.669-9.67c3.401-3.401,5.275-7.923,5.275-12.732
			C512,327.129,510.126,322.607,506.726,319.207z M450.093,231.118c1.008-1.006,2.558-1.143,3.718-0.418
			c0.021,0.013,0.043,0.02,0.063,0.033c0.167,0.11,0.324,0.238,0.471,0.384l13.43,13.43c0.766,0.766,0.88,1.661,0.88,2.125
			c0,0.465-0.114,1.359-0.881,2.125l-4.367,4.367l-17.68-17.68L450.093,231.118z M435.12,246.092l17.68,17.68l-11.498,11.499
			l-8.38-26.98L435.12,246.092z M263.202,44.225c0.766-0.766,1.66-0.88,2.125-0.88c0.465,0,1.36,0.114,2.126,0.88l13.429,13.429
			c1.172,1.172,1.172,3.08,0.001,4.252l-4.368,4.367l-17.68-17.68L263.202,44.225z M248.228,59.2l17.68,17.68l-2.199,2.198
			l-26.98-8.38L248.228,59.2z M177.934,15.881c0.137-0.137,0.286-0.254,0.441-0.359c0.019-0.013,0.038-0.027,0.057-0.039
			c0.156-0.1,0.318-0.186,0.485-0.255c0.01-0.004,0.019-0.007,0.028-0.011c0.173-0.069,0.351-0.122,0.531-0.157
			c0.007-0.001,0.014-0.002,0.021-0.004c0.371-0.07,0.752-0.07,1.123-0.001c0.009,0.002,0.017,0.003,0.025,0.005
			c0.178,0.035,0.354,0.087,0.524,0.155c0.012,0.005,0.025,0.009,0.037,0.014c0.165,0.068,0.325,0.153,0.478,0.251
			c0.021,0.014,0.042,0.029,0.064,0.043c0.153,0.104,0.301,0.221,0.437,0.356l13.429,13.429h0.001
			c0.287,0.287,0.483,0.593,0.615,0.886c0.221,0.49,0.266,0.948,0.266,1.239c0,0.291-0.045,0.749-0.266,1.239
			c-0.133,0.294-0.328,0.599-0.616,0.887l-4.367,4.367l-17.68-17.68L177.934,15.881z M162.961,30.854l17.68,17.68l-3.62,3.62
			l-26.98-8.38L162.961,30.854z M54.057,71.86c-1.961-1.463-3.138-3.613-3.313-6.053c-0.022-0.305-0.028-0.607-0.018-0.907
			c0.069-2.098,0.913-4.045,2.427-5.559l4.126-4.126l57.445,42.879c3.32,2.479,8.02,1.795,10.497-1.524
			c2.478-3.319,1.795-8.019-1.524-10.496l-55.7-41.577l1.023-1.023c4.31-4.311,10.606-5.864,16.425-4.056l220.795,68.577
			l-57.21,71.631l-97.331-72.651c-3.318-2.478-8.018-1.795-10.497,1.524c-2.478,3.319-1.795,8.019,1.524,10.496l96.937,72.357
			l-9.532,11.935L54.057,71.86z M15.053,347.438l16.224-16.266l86.932,12.249l-21.16,26.493c-4.08,5.109-7.706,10.532-10.862,16.203
			L15.053,347.438z M164.562,496.947l-38.679-71.134c5.67-3.156,11.094-6.782,16.202-10.862l26.496-21.162l12.267,86.872
			L164.562,496.947z M132.725,403.23c-12.977,10.365-28.263,17.41-44.514,20.559c3.15-16.25,10.195-31.537,20.559-44.514
			l215.919-270.342c0.005-0.006,0.01-0.012,0.015-0.018l16.077-20.13c43.942-54.636,115.197-55.15,116.583-55.15
			c0.007,0,0.012,0,0.016,0c0.242-0.003,0.496-0.008,0.744-0.031c5.535-0.506,10.967,1.454,14.891,5.372
			c3.928,3.935,5.89,9.366,5.382,14.9c-0.022,0.241-0.032,0.493-0.031,0.734c0.004,0.72-0.249,72.455-55.129,116.593L132.725,403.23
			z M468.526,442.981l-1.022,1.022l-41.602-55.736c-2.478-3.319-7.177-4.001-10.497-1.524c-3.319,2.478-4.002,7.177-1.524,10.496
			l42.905,57.481l-4.127,4.127c-1.729,1.729-4.024,2.585-6.465,2.409c-2.44-0.176-4.59-1.353-6.053-3.313L308.712,281.868
			l11.934-9.532l72.357,96.937c1.473,1.973,3.73,3.014,6.017,3.014c1.561,0,3.134-0.485,4.48-1.49
			c3.319-2.478,4.002-7.177,1.524-10.497l-72.651-97.331l71.631-57.211l13.213,42.541c0.007,0.023,0.015,0.047,0.022,0.07
			l13.385,43.097c0.007,0.023,0.015,0.046,0.022,0.069l13.493,43.443c0.009,0.031,0.019,0.061,0.029,0.092l13.379,43.075
			c0.009,0.031,0.019,0.061,0.029,0.091l15.007,48.318C474.39,432.376,472.835,438.67,468.526,442.981z M468.225,361.958
			l-8.38-26.98l3.619-3.62l17.68,17.68L468.225,361.958z M496.118,334.065l-4.367,4.367l-17.68-17.68l4.366-4.367
			c1.174-1.171,3.08-1.173,4.252,0l13.43,13.43c0.766,0.766,0.88,1.66,0.88,2.125C496.999,332.404,496.885,333.298,496.118,334.065z
			"/>
	</g>
</g>
<g>
</g>
<g>
</g>
<g>
</g>
<g>
</g>
<g>
</g>
<g>
</g>
<g>
</g>
<g>
</g>
<g>
</g>
<g>
</g>
<g>
</g>
<g>
</g>
<g>
</g>
<g>
</g>
<g>
</g>
</svg>
