<?xml version="1.0" encoding="iso-8859-1"?>
<!-- Generator: Adobe Illustrator 19.0.0, SVG Export Plug-In . SVG Version: 6.00 Build 0)  -->
<svg version="1.1" id="Capa_1" xmlns="http://www.w3.org/2000/svg" xmlns:xlink="http://www.w3.org/1999/xlink" x="0px" y="0px"
	 viewBox="0 0 512 512" style="enable-background:new 0 0 512 512;" xml:space="preserve">
<g>
	<g>
		<path d="M218.279,211.978h-99.658c-4.142,0-7.499,3.358-7.499,7.499c0,4.142,3.357,7.499,7.499,7.499h99.658
			c4.142,0,7.499-3.358,7.499-7.499C225.778,215.335,222.421,211.978,218.279,211.978z"/>
	</g>
</g>
<g>
	<g>
		<path d="M218.279,239.321h-99.658c-4.142,0-7.499,3.358-7.499,7.499c0,4.142,3.357,7.499,7.499,7.499h99.658
			c4.142,0,7.499-3.358,7.499-7.499C225.778,242.678,222.421,239.321,218.279,239.321z"/>
	</g>
</g>
<g>
	<g>
		<path d="M424.592,135.562H316.605c-4.142,0-7.499,3.358-7.499,7.499s3.357,7.499,7.499,7.499h107.987
			c4.142,0,7.499-3.358,7.499-7.499S428.734,135.562,424.592,135.562z"/>
	</g>
</g>
<g>
	<g>
		<path d="M207.947,63.516H88.957c-4.142,0-7.499,3.358-7.499,7.499c0,4.142,3.357,7.499,7.499,7.499h118.99
			c4.142,0,7.499-3.358,7.499-7.499C215.446,66.873,212.089,63.516,207.947,63.516z"/>
	</g>
</g>
<g>
	<g>
		<path d="M207.947,90.847h-61.931c-4.142,0-7.499,3.358-7.499,7.499c0,4.142,3.357,7.499,7.499,7.499h61.931
			c4.142,0,7.499-3.358,7.499-7.499S212.089,90.847,207.947,90.847z"/>
	</g>
</g>
<g>
	<g>
		<path d="M111.122,90.847H88.957c-4.142,0-7.499,3.358-7.499,7.499c0,4.142,3.357,7.499,7.499,7.499h22.165
			c4.142,0,7.499-3.358,7.499-7.499S115.264,90.847,111.122,90.847z"/>
	</g>
</g>
<g>
	<g>
		<path d="M424.592,162.508h-15.809c-4.142,0-7.499,3.358-7.499,7.499s3.357,7.499,7.499,7.499h15.809
			c4.142,0,7.499-3.358,7.499-7.499S428.734,162.508,424.592,162.508z"/>
	</g>
</g>
<g>
	<g>
		<path d="M373.889,162.508h-57.284c-4.142,0-7.499,3.358-7.499,7.499s3.357,7.499,7.499,7.499h57.284
			c4.142,0,7.499-3.358,7.499-7.499S378.032,162.508,373.889,162.508z"/>
	</g>
</g>
<g>
	<g>
		<path d="M488.715,147.382l-34.037-34.649c-2.492-2.537-5.961-3.993-9.519-3.993H293.054V24.146
			C293.054,10.832,282.222,0,268.909,0c-13.314,0-24.146,10.832-24.146,24.146v14.173H66.84c-3.557,0-7.027,1.455-9.519,3.992
			L23.284,76.96c-5.064,5.156-5.064,13.545,0,18.701l34.037,34.649c2.492,2.537,5.961,3.993,9.519,3.993h177.922v50.853H109.334
			c-3.557,0-7.027,1.455-9.519,3.993l-34.037,34.649c-5.065,5.156-5.065,13.545,0,18.701l34.037,34.649
			c2.492,2.538,5.961,3.993,9.519,3.993h135.428v188.96c-11.536,3.134-20.046,13.693-20.046,26.207v5.443
			c0,5.651,4.597,10.249,10.248,10.249h67.889c5.651,0,10.248-4.598,10.248-10.249v-5.443c0-12.515-8.511-23.073-20.047-26.207
			V204.725h152.105c3.557,0,7.027-1.455,9.519-3.993l34.037-34.649C493.78,160.927,493.78,152.538,488.715,147.382z M268.909,14.999
			c5.044,0,9.147,4.104,9.147,9.147V469.15h-18.294V24.146h-0.001C259.761,19.102,263.864,14.999,268.909,14.999z M67.535,119.305
			L67.535,119.305l-32.41-32.994l32.41-32.993h177.228v65.987H67.535z M110.029,266.142l-32.411-32.994l32.411-32.993h134.733
			v65.987H110.029z M298.103,496.308v0.693h-58.388v-0.693c0-6.705,5.455-12.16,12.159-12.16h34.069
			C292.648,484.149,298.103,489.603,298.103,496.308z M444.464,189.726h-151.41v-65.987h151.41l32.41,32.994L444.464,189.726z"/>
	</g>
</g>
<g>
</g>
<g>
</g>
<g>
</g>
<g>
</g>
<g>
</g>
<g>
</g>
<g>
</g>
<g>
</g>
<g>
</g>
<g>
</g>
<g>
</g>
<g>
</g>
<g>
</g>
<g>
</g>
<g>
</g>
</svg>
