<?xml version="1.0" encoding="iso-8859-1"?>
<!-- Generator: Adobe Illustrator 19.0.0, SVG Export Plug-In . SVG Version: 6.00 Build 0)  -->
<svg version="1.1" id="Capa_1" xmlns="http://www.w3.org/2000/svg" xmlns:xlink="http://www.w3.org/1999/xlink" x="0px" y="0px"
	 viewBox="0 0 512 512" style="enable-background:new 0 0 512 512;" xml:space="preserve">
<g>
	<g>
		<path d="M151.405,102.403c-0.818-4.054-4.768-6.676-8.823-5.859c-21.055,4.252-39.51,16.303-51.968,33.934
			c-2.387,3.378-1.583,8.052,1.795,10.438c1.313,0.927,2.821,1.373,4.315,1.373c2.35,0,4.664-1.103,6.123-3.168
			c10.242-14.496,25.406-24.403,42.699-27.895C149.601,110.407,152.223,106.457,151.405,102.403z"/>
	</g>
</g>
<g>
	<g>
		<path d="M297.51,247.982l-57.917,0.007c-4.136,0-7.489,3.354-7.488,7.49c0,4.136,3.354,7.489,7.49,7.488l57.917-0.006
			c4.136,0,7.488-3.354,7.488-7.49C305,251.334,301.646,247.982,297.51,247.982z"/>
	</g>
</g>
<g>
	<g>
		<path d="M107.17,224.24c-10.923-12.555-16.939-28.647-16.939-45.313c0-0.942,0.019-1.879,0.056-2.811
			c0.164-4.133-3.053-7.617-7.186-7.781c-4.129-0.17-7.617,3.053-7.781,7.186c-0.045,1.133-0.068,2.279-0.068,3.406
			c0,20.279,7.322,39.862,20.617,55.144c1.482,1.703,3.562,2.574,5.654,2.574c1.744,0,3.495-0.605,4.913-1.839
			C109.557,232.091,109.885,227.361,107.17,224.24z"/>
	</g>
</g>
<g>
	<g>
		<path d="M245.811,94.88h-57.917c-4.136,0-7.489,3.353-7.489,7.489c0,4.136,3.353,7.489,7.489,7.489h57.917
			c4.136,0,7.489-3.353,7.489-7.489C253.3,98.233,249.947,94.88,245.811,94.88z"/>
	</g>
</g>
<g>
	<g>
		<path d="M347.665,94.88h-57.917c-4.137,0-7.489,3.353-7.489,7.489c0,4.136,3.352,7.489,7.489,7.489h57.917
			c4.137,0,7.489-3.353,7.489-7.489C355.154,98.233,351.801,94.88,347.665,94.88z"/>
	</g>
</g>
<g>
	<g>
		<path d="M394.103,285.227c-12.034-17.92-30.196-30.408-51.144-35.163c-4.033-0.918-8.045,1.612-8.961,5.646
			c-0.916,4.034,1.611,8.046,5.645,8.961c17.205,3.906,32.13,14.172,42.024,28.906c1.445,2.153,3.813,3.316,6.225,3.316
			c1.435,0,2.886-0.412,4.168-1.273C395.495,293.314,396.408,288.661,394.103,285.227z"/>
	</g>
</g>
<g>
	<g>
		<path d="M351.039,404.174c-1.052-4-5.147-6.389-9.148-5.34c-5.715,1.502-11.641,2.264-17.611,2.264h-38.181
			c-4.137,0-7.489,3.353-7.489,7.489c0,4.136,3.353,7.489,7.489,7.489h38.181c7.254,0,14.461-0.927,21.419-2.755
			C349.699,412.269,352.09,408.175,351.039,404.174z"/>
	</g>
</g>
<g>
	<g>
		<path d="M242.162,401.098h-56.598c-4.136,0-7.489,3.353-7.489,7.489c0,4.136,3.353,7.489,7.489,7.489h56.598
			c4.136,0,7.489-3.353,7.489-7.489C249.651,404.451,246.298,401.098,242.162,401.098z"/>
	</g>
</g>
<g>
	<g>
		<path d="M408.316,330.624c-0.065-4.096-3.405-7.37-7.486-7.37c-0.04,0-0.081,0-0.122,0.001c-4.136,0.066-7.435,3.472-7.368,7.608
			c0.006,0.388,0.01,0.777,0.01,1.166c0,17.269-6.405,33.798-18.035,46.542c-2.788,3.055-2.572,7.792,0.484,10.581
			c1.436,1.311,3.244,1.957,5.046,1.957c2.031,0,4.057-0.822,5.534-2.441c14.154-15.51,21.949-35.625,21.949-56.639
			C408.328,331.56,408.324,331.091,408.316,330.624z"/>
	</g>
</g>
<g>
	<g>
		<path d="M195.656,247.994l-36.356,0.004c-6.529,0-12.988-0.908-19.196-2.701c-3.98-1.145-8.126,1.145-9.272,5.119
			c-1.147,3.974,1.144,8.126,5.118,9.273c7.559,2.181,15.415,3.288,23.351,3.288l36.357-0.004c4.136-0.002,7.489-3.355,7.488-7.491
			C203.146,251.346,199.792,247.993,195.656,247.994z"/>
	</g>
</g>
<g>
	<g>
		<path d="M81.195,345.113c-22.665,0-41.105,18.439-41.105,41.105s18.44,41.105,41.105,41.105c22.665,0,41.105-18.439,41.105-41.105
			S103.86,345.113,81.195,345.113z M81.195,412.344c-14.406,0-26.126-11.72-26.126-26.126s11.72-26.126,26.126-26.126
			s26.127,11.72,26.127,26.126S95.601,412.344,81.195,412.344z"/>
	</g>
</g>
<g>
	<g>
		<path d="M125.862,497.022h-25.25c20.382-20.252,54.495-61.509,54.495-110.803c0.001-40.756-33.156-73.913-73.912-73.913
			c-40.755,0-73.912,33.157-73.912,73.913c0,14.207,2.896,28.848,8.607,43.516c1.501,3.854,5.841,5.763,9.696,4.261
			c3.854-1.5,5.762-5.842,4.261-9.696c-5.034-12.929-7.586-25.742-7.586-38.082c0-32.496,26.438-58.934,58.934-58.934
			c32.496,0,58.934,26.438,58.934,58.934c0,51.572-44.309,95.387-58.945,108.45c-7.49-6.657-22.718-21.312-35.812-40.975
			c-2.294-3.442-6.943-4.375-10.385-2.082c-3.443,2.293-4.375,6.942-2.082,10.385c9.775,14.678,20.534,26.654,28.93,35.026H36.528
			c-4.136,0-7.489,3.353-7.489,7.489c0,4.136,3.353,7.489,7.489,7.489h89.334c4.136,0,7.489-3.353,7.489-7.489
			S129.998,497.022,125.862,497.022z"/>
	</g>
</g>
<g>
	<g>
		<path d="M503.57,65.483l-15.326-26.368l15.326-26.368c1.52-2.616,1.528-5.871,0.019-8.494C502.079,1.63,499.261,0,496.235,0
			h-45.463c-4.137,0-7.489,3.353-7.489,7.489s3.353,7.489,7.489,7.489h34.176l-11.551,19.873c-1.528,2.63-1.528,5.897,0,8.526
			l11.551,19.874h-71.862V14.979h2.84c4.137,0,7.489-3.353,7.489-7.489S420.062,0,415.926,0h-10.329
			c-4.137,0-7.489,3.353-7.489,7.489v168.279h-20.37c-4.137,0-7.489,3.353-7.489,7.489c0,4.136,3.353,7.489,7.489,7.489h55.719
			c4.137,0,7.489-3.353,7.489-7.489c0-4.136-3.353-7.489-7.489-7.489h-20.37V78.23h83.149c3.026,0,5.843-1.63,7.353-4.253
			S505.091,68.099,503.57,65.483z"/>
	</g>
</g>
<g>
</g>
<g>
</g>
<g>
</g>
<g>
</g>
<g>
</g>
<g>
</g>
<g>
</g>
<g>
</g>
<g>
</g>
<g>
</g>
<g>
</g>
<g>
</g>
<g>
</g>
<g>
</g>
<g>
</g>
</svg>
