<?xml version="1.0" encoding="iso-8859-1"?>
<!-- Generator: Adobe Illustrator 19.0.0, SVG Export Plug-In . SVG Version: 6.00 Build 0)  -->
<svg version="1.1" id="Capa_1" xmlns="http://www.w3.org/2000/svg" xmlns:xlink="http://www.w3.org/1999/xlink" x="0px" y="0px"
	 viewBox="0 0 511.999 511.999" style="enable-background:new 0 0 511.999 511.999;" xml:space="preserve">
<g>
	<g>
		<path d="M480.087,485.988l-22.378-131.007c-2.417-14.151-12.456-25.518-26.2-29.664l-78.617-23.72
			c3.647-2.241,7.029-4.981,10.054-8.204c9.257-9.861,13.884-22.726,13.029-36.224l-6.111-96.528v-0.649
			c0-1.169-0.089-2.317-0.259-3.44l-2.252-35.581c-0.262-4.135-3.822-7.275-7.961-7.013c-4.135,0.262-7.275,3.826-7.013,7.961
			l1.018,16.09c-2.046-0.601-4.208-0.929-6.446-0.929h-0.511c-2.219-3.415-5.932-5.775-10.303-6.167
			c-79.54-7.157-102.446-30.919-119.171-48.268c-3.425-3.553-9.065-3.816-16.762-0.783c-13.454,5.302-36.356,22.439-36.856,53.037
			c0,0.041-0.001,0.082-0.001,0.123v2.121c-1.639,0.121-3.224,0.43-4.75,0.879l2.376-37.54c0.915-14.453,6.546-27.938,15.871-38.606
			c0.052,0.089,0.105,0.178,0.158,0.265c0.001,0.001,0.001,0.002,0.002,0.003c0.263,0.433,0.554,0.844,0.851,1.251
			c0.068,0.094,0.126,0.196,0.196,0.288c0.262,0.345,0.55,0.665,0.835,0.989c0.123,0.139,0.233,0.29,0.359,0.426
			c0.284,0.303,0.593,0.581,0.897,0.864c0.146,0.136,0.281,0.285,0.431,0.415c0.404,0.351,0.83,0.676,1.264,0.99
			c0.063,0.046,0.121,0.1,0.185,0.145c2.007,1.413,4.302,2.416,6.749,2.913l43.957,8.925c7.722,1.568,15.494,2.352,23.27,2.352
			c7.774,0,15.55-0.784,23.269-2.352l43.959-8.925c1.645-0.334,3.212-0.915,4.679-1.678c0.169-0.088,0.345-0.16,0.511-0.253
			c0.303-0.17,0.589-0.368,0.881-0.555c0.224-0.143,0.458-0.272,0.676-0.426c0.293-0.206,0.566-0.439,0.846-0.662
			c0.2-0.159,0.41-0.305,0.603-0.472c0.211-0.184,0.403-0.39,0.606-0.583c0.242-0.231,0.493-0.452,0.723-0.696
			c0.127-0.135,0.237-0.286,0.359-0.426c0.285-0.324,0.573-0.644,0.835-0.989c0.07-0.092,0.128-0.195,0.196-0.288
			c0.296-0.407,0.588-0.818,0.851-1.251c0.001-0.001,0.001-0.002,0.002-0.003c0.051-0.084,0.102-0.169,0.151-0.254
			c6.661,7.636,11.495,16.763,14.006,26.655c1.019,4.016,5.099,6.447,9.118,5.426c4.016-1.019,6.445-5.101,5.426-9.118
			c-4.393-17.308-14.56-32.695-28.735-43.624l-8.168-28.274c-1.197-4.142-3.84-7.596-7.271-9.896
			c-0.419-0.321-0.866-0.593-1.333-0.816C315.598,0.811,312.65,0,309.568,0h-107.14c-3.081,0-6.029,0.811-8.617,2.239
			c-0.468,0.223-0.916,0.495-1.334,0.816c-3.431,2.3-6.074,5.754-7.271,9.896l-8.163,28.257
			c-18.305,14.093-29.578,35.2-31.042,58.324l-3.629,57.326c-0.141,1.027-0.239,2.068-0.239,3.134v0.649l-6.111,96.528
			c-0.855,13.498,3.773,26.362,13.029,36.224c3.025,3.223,6.407,5.962,10.054,8.204l-78.617,23.72
			c-13.744,4.147-23.783,15.514-26.2,29.664l-9.142,53.525c-0.697,4.084,2.048,7.96,6.132,8.658c4.081,0.695,7.96-2.048,8.658-6.132
			l9.142-53.525c1.453-8.503,7.485-15.334,15.744-17.826l55.079-16.619l-9.237,5.85c-3.283,2.052-5.402,5.583-5.666,9.446
			c-0.264,3.863,1.352,7.651,4.325,10.132l38.495,32.127l-13.071,17.723c-2.123,2.879-2.864,6.526-2.033,10.006
			c0.754,3.158,2.725,5.854,5.472,7.528l83.149,67.185c2.537,5.866,8.125,9.577,14.663,9.577c6.572,0,12.187-3.749,14.705-9.67
			l83.105-67.092c2.747-1.674,4.72-4.37,5.474-7.529c0.831-3.48,0.09-7.127-2.033-10.007l-13.07-17.722l38.496-32.128
			c2.973-2.481,4.589-6.269,4.325-10.132c-0.265-3.863-2.383-7.394-5.633-9.425l-9.293-5.877l55.101,16.625
			c8.259,2.492,14.292,9.323,15.744,17.826l22.378,131.007c0.494,2.893-0.795,4.94-1.607,5.904
			c-0.812,0.963-2.613,2.578-5.548,2.578h-41.27l-8.127-55.142c-0.604-4.098-4.408-6.93-8.516-6.328
			c-4.099,0.604-6.932,4.417-6.328,8.516l7.804,52.954h-291.41l7.804-52.954c0.604-4.099-2.229-7.912-6.328-8.516
			c-4.104-0.602-7.912,2.23-8.516,6.328l-8.127,55.142h-41.27c-2.935,0-4.736-1.615-5.548-2.578s-2.102-3.011-1.607-5.904
			l7.344-42.995c0.697-4.084-2.048-7.96-6.132-8.658c-4.084-0.694-7.961,2.048-8.658,6.132l-7.344,42.995
			c-1.107,6.481,0.69,13.08,4.93,18.106c4.24,5.025,10.442,7.907,17.016,7.907h404.285c6.574,0,12.777-2.882,17.016-7.907
			C479.396,499.068,481.193,492.469,480.087,485.988z M293.727,15.005L270.84,31.419c-8.878,6.367-20.806,6.367-29.684,0
			l-22.887-16.414H293.727z M189.53,52.043l9.377-32.46l33.504,24.029c7.054,5.059,15.321,7.589,23.587,7.589
			c8.266,0,16.533-2.53,23.587-7.589l33.504-24.029l9.377,32.46c0.231,0.799,0.083,1.473-0.109,1.934
			c-0.065,0.156-0.136,0.288-0.198,0.391c-0.248,0.409-0.826,1.129-1.918,1.351l-43.958,8.925
			c-3.365,0.683-6.741,1.196-10.124,1.537c-0.846,0.085-1.692,0.16-2.538,0.224c-2.539,0.192-5.08,0.288-7.622,0.288
			c-4.236,0-8.471-0.267-12.695-0.801c-2.535-0.32-5.065-0.737-7.589-1.249l-43.957-8.925c-1.093-0.222-1.671-0.941-1.92-1.351
			c-0.063-0.105-0.134-0.239-0.2-0.397C189.446,53.511,189.3,52.84,189.53,52.043z M361.001,258.117
			c0.59,9.318-2.605,18.199-8.995,25.007c-6.39,6.807-15.052,10.556-24.388,10.556h-11.813c-2.326-3.15-3.878-7.251-3.878-11.139
			v-25.146c0.278-0.239,0.555-0.478,0.831-0.715c9.706-8.358,31.294-29.672,35.25-56.72c3.28-0.15,6.379-0.997,9.16-2.389
			L361.001,258.117z M157.219,158.909c0.02-0.11,0.036-0.222,0.051-0.334c0.671-3.686,3.898-6.491,7.774-6.491h5.805
			c4.143,0,7.502-3.359,7.502-7.502v-9.497c0.26-14.721,7.655-24.674,13.819-30.433c6.25-5.84,12.749-8.807,15.892-9.64
			c22.454,22.919,50.032,43.771,125.673,50.748c0.566,3.584,3.668,6.324,7.41,6.324h5.806c3.876,0,7.103,2.805,7.774,6.491
			c0.015,0.112,0.031,0.224,0.051,0.334c0.049,0.355,0.083,0.715,0.083,1.083v17.078c0,4.361-3.547,7.909-7.908,7.909h-5.828
			c-4.081,0-7.413,3.262-7.5,7.341c-0.364,16.966-11.824,36.775-30.654,52.989c-14.186,12.215-25.126,20.245-46.971,20.51
			c-21.844-0.264-32.784-8.295-46.971-20.51c-18.831-16.214-30.29-36.023-30.654-52.989c-0.087-4.079-3.42-7.341-7.5-7.341h-5.828
			c-4.361,0-7.908-3.548-7.908-7.909v-17.078h-0.001C157.136,159.624,157.17,159.264,157.219,158.909z M310.639,309.516
			l-25.326,78.938c-19.371,1.276-39.297,1.275-58.667-0.002l-25.318-78.914c8.737-6.152,13.746-17.365,13.746-26.997v-13.497
			c10.046,6.507,22.619,11.576,40.841,11.779c0.028,0,0.056,0,0.084,0c0.028,0,0.056,0,0.084,0
			c18.222-0.203,30.795-5.272,40.841-11.779v13.497C296.923,292.161,301.92,303.36,310.639,309.516z M150.995,258.117l3.833-60.546
			c2.781,1.392,5.88,2.239,9.16,2.389c3.956,27.048,25.544,48.363,35.25,56.72c0.276,0.238,0.554,0.477,0.831,0.715v25.146
			c0,3.889-1.552,7.99-3.878,11.139h-11.813c-9.337,0-17.998-3.749-24.388-10.556C153.6,276.316,150.405,267.435,150.995,258.117z
			 M168.525,404.938l12.983-17.604c3.798-5.15,2.924-12.395-1.988-16.494l-37.542-31.332l44.091-27.923
			c0.156,0.239,0.281,0.501,0.371,0.781l21.997,68.562l24.366,75.946L168.525,404.938z M257.161,476.198
			c-0.045,0.14-0.062,0.282-0.098,0.423l-0.098,0.306c-0.085,0.263-0.226,0.705-0.967,0.705c-0.74,0-0.882-0.442-0.967-0.705
			l-23.468-73.148c8.106,0.429,16.283,0.662,24.435,0.662c8.14,0,16.304-0.232,24.397-0.66L257.161,476.198z M332.477,370.84
			c-4.913,4.099-5.786,11.345-1.988,16.495l12.982,17.603l-64.307,51.915l18.887-58.868c0.005-0.014,0.009-0.029,0.014-0.043
			l27.455-85.573c0.089-0.278,0.224-0.528,0.376-0.763l44.121,27.905L332.477,370.84z"/>
	</g>
</g>
<g>
</g>
<g>
</g>
<g>
</g>
<g>
</g>
<g>
</g>
<g>
</g>
<g>
</g>
<g>
</g>
<g>
</g>
<g>
</g>
<g>
</g>
<g>
</g>
<g>
</g>
<g>
</g>
<g>
</g>
</svg>
