<?xml version="1.0" encoding="iso-8859-1"?>
<!-- Generator: Adobe Illustrator 19.0.0, SVG Export Plug-In . SVG Version: 6.00 Build 0)  -->
<svg version="1.1" id="Capa_1" xmlns="http://www.w3.org/2000/svg" xmlns:xlink="http://www.w3.org/1999/xlink" x="0px" y="0px"
	 viewBox="0 0 512 512" style="enable-background:new 0 0 512 512;" xml:space="preserve">
<g>
	<g>
		<path d="M465.974,487.109l-20.92-122.472c-2.292-13.414-11.808-24.189-24.836-28.119l-94.954-28.65
			c-4.01-1.21-8.283-1.063-12.156,0.318c-2.598-2.989-4.332-7.259-4.332-11.188v-20.132c6.681-5.437,12.193-11.401,16.597-17.001
			c13.305-16.921,20.516-35.566,22.475-48.474h3.852c11.641,0,21.112-9.471,21.112-21.112v-10.525c0-7.448-3.815-14.02-9.736-17.781
			V120.9c24.527-12.034,29.852-26.091,29.852-36.003c0-16.959-15.789-38.183-41.205-55.389C335.445,18.488,301.362,0,256,0
			s-79.445,18.488-95.724,29.508c-25.416,17.206-41.205,38.43-41.205,55.389c0,9.912,5.325,23.969,29.852,36.003v41.073
			c-5.921,3.761-9.736,10.333-9.736,17.781v10.525c0,11.641,9.471,21.112,21.112,21.112h3.852
			c1.959,12.908,9.17,31.553,22.475,48.474c4.404,5.6,9.916,11.564,16.597,17.001v20.132c0,3.929-1.734,8.199-4.332,11.188
			c-3.872-1.381-8.146-1.528-12.156-0.318l-94.954,28.65c-13.028,3.93-22.544,14.705-24.836,28.119l-7.451,43.62
			c-0.698,4.085,2.049,7.963,6.134,8.661c4.085,0.697,7.963-2.049,8.661-6.134l7.451-43.619c1.206-7.058,5.873-12.843,12.375-15.549
			l3.818,12.44c0.974,3.174,3.125,5.778,6.058,7.333c1.819,0.965,3.804,1.454,5.807,1.454c1.225,0,2.457-0.183,3.662-0.553
			l48.524-14.893c6.55-2.01,10.243-8.975,8.234-15.526l-3.748-12.212l3.119-0.941l32.925,46.073
			c3.466,4.85,8.894,7.523,14.524,7.522c2.362,0,4.76-0.47,7.061-1.449l2.394-1.017l10.102,11.743l-19.25,105.4h-96.989
			l7.213-48.942c0.604-4.1-2.23-7.914-6.33-8.519c-4.105-0.605-7.914,2.23-8.519,6.33l-7.536,51.131H67.026
			c-2.545,0-4.107-1.401-4.812-2.236c-0.705-0.835-1.822-2.611-1.394-5.12l7.531-44.087c0.698-4.085-2.049-7.963-6.134-8.661
			c-4.084-0.697-7.963,2.049-8.661,6.134l-7.531,44.087c-1.059,6.202,0.661,12.516,4.718,17.325C54.8,509.242,60.735,512,67.026,512
			h377.948c6.291,0,12.226-2.758,16.283-7.566C465.314,499.625,467.033,493.311,465.974,487.109z M111.524,357.184l-3.075-10.019
			l43.65-13.17l3.011,9.812L111.524,357.184z M359.901,333.995l43.65,13.17l-3.075,10.019l-43.587-13.377L359.901,333.995z
			 M316.579,323.25c0.01-0.007,0.02-0.015,0.03-0.022l0.402-0.301c0.698-0.523,1.531-0.819,2.385-0.87
			c0.512-0.03,1.032,0.028,1.533,0.179l6.307,1.903l-29.961,41.925c-0.799,1.118-2.24,1.524-3.506,0.987l-22.822-9.695
			L316.579,323.25z M300.536,316.504L256,349.792l-44.537-33.288c4.219-5.498,6.768-12.518,6.768-19.506v-10.195
			c10.565,5.526,23.107,9.221,37.768,9.221c14.661,0,27.203-3.695,37.768-9.221v10.195
			C293.768,303.986,296.317,311.005,300.536,316.504z M271.009,373.689l-7.072,8.221h-15.873l-7.072-8.221L256,367.313
			L271.009,373.689z M348.069,159.501c-2.925,0.537-6.402,1.463-9.915,3.055c-0.337,0.133-0.663,0.289-0.974,0.467
			c-0.201,0.098-0.403,0.189-0.604,0.292v-15.993c4.253-1.986,8.111-4.166,11.493-6.535V159.501z M250.303,140.543
			c1.624,1.448,3.661,2.172,5.698,2.172c2.035,0,4.071-0.724,5.693-2.17l18.609-16.574h64.425
			c-3.511,3.886-9.579,7.834-17.911,11.345c-0.376,0.118-0.735,0.271-1.083,0.444c-15.963,6.504-39.819,11.403-69.734,11.403
			c-29.915,0-53.771-4.899-69.734-11.403c-0.348-0.173-0.707-0.326-1.083-0.444c-8.332-3.512-14.4-7.459-17.911-11.345h64.425
			L250.303,140.543z M231.949,104.096l22.619,3.88c0.95,0.161,1.914,0.161,2.88-0.002l22.604-3.877L256,125.518L231.949,104.096z
			 M351.701,196.382h-3.297V174.77c1.893-0.499,3.618-0.749,4.882-0.873c2.648,0.704,4.518,3.059,4.518,5.856v10.525h0.001
			C357.805,193.644,355.067,196.382,351.701,196.382z M163.596,196.382h-3.297c-3.366,0-6.104-2.738-6.104-6.104v-10.525
			c0-2.8,1.874-5.156,4.526-5.858c1.268,0.124,2.99,0.375,4.875,0.872V196.382z M283.677,56.478
			c-11.369-1.214-22.251-1.832-32.345-1.836c-0.031,0-0.058,0-0.089,0c-32.324,0-64.436,7.116-85.687,13.089
			c-9.912,2.785-16.835,11.92-16.835,22.215v13.746c-9.518-5.884-14.642-12.377-14.642-18.794c0-13.419,17.941-31.676,34.61-42.961
			C183.545,31.88,214.642,15.009,256,15.009c41.358,0,72.455,16.871,87.311,26.928c16.669,11.284,34.61,29.542,34.61,42.961
			c0,6.417-5.124,12.91-14.642,18.794V90.223c0-10.551-7.141-19.745-17.366-22.357c-8.607-2.199-17.51-4.198-26.46-5.94
			c-4.067-0.792-8.008,1.864-8.8,5.932c-0.792,4.068,1.864,8.008,5.932,8.8c8.667,1.687,17.284,3.622,25.612,5.75
			c3.576,0.914,6.073,4.128,6.073,7.816v18.738h-51.115l9.694-8.634c2.882-2.568,3.693-6.63,2.018-10.108
			c-1.675-3.478-5.356-5.37-9.16-4.722L256,92.994l-43.705-7.496c-3.801-0.652-7.486,1.244-9.162,4.722
			c-1.675,3.478-0.864,7.54,2.018,10.108c0,0,0,0,0.001,0l9.693,8.633H163.73V89.945c0-3.599,2.421-6.792,5.887-7.766
			c20.345-5.718,51.01-12.529,81.626-12.529c0.026,0,0.057,0,0.084,0c9.565,0.004,19.913,0.593,30.757,1.751
			c4.125,0.44,7.819-2.543,8.259-6.665C290.783,60.615,287.798,56.918,283.677,56.478z M173.842,162.554
			c-3.512-1.59-6.987-2.516-9.911-3.053v-18.714c3.383,2.369,7.24,4.549,11.493,6.535v15.992c-0.2-0.102-0.399-0.192-0.6-0.289
			C174.51,162.845,174.182,162.688,173.842,162.554z M198.425,250.588c-12.874-16.373-19.82-35.849-19.82-45.861v-22.154
			c0.495,0.073,0.994,0.122,1.496,0.122c1.338,0,2.689-0.262,3.978-0.8c3.86-1.611,6.354-5.352,6.354-9.531v-19.3
			c19.163,6.004,42.68,9.108,65.567,9.108c22.887,0,46.404-3.104,65.567-9.108v19.3c0,4.179,2.494,7.921,6.354,9.531
			c1.289,0.538,2.64,0.8,3.978,0.8c0.503,0,1.001-0.049,1.496-0.122v22.154c0,10.013-6.946,29.488-19.82,45.861
			c-4.261,5.419-9.738,11.241-16.479,16.33c-0.223,0.15-0.437,0.312-0.642,0.484c-10.435,7.711-23.845,13.613-40.455,13.613
			s-30.02-5.903-40.455-13.613c-0.205-0.172-0.419-0.335-0.642-0.484C208.162,261.829,202.686,256.007,198.425,250.588z
			 M218.23,367.051c-1.266,0.539-2.708,0.132-3.506-0.986l-29.961-41.925l6.307-1.903c0.721-0.217,1.478-0.236,2.199-0.081
			c0.615,0.132,1.204,0.387,1.719,0.772l0.4,0.299c0.012,0.009,0.023,0.017,0.035,0.026l45.629,34.105L218.23,367.051z
			 M232.601,496.991l18.277-100.073h10.244l18.277,100.073H232.601z M449.786,494.755c-0.705,0.835-2.267,2.236-4.812,2.236h-38.158
			l-7.536-51.131c-0.604-4.1-4.413-6.934-8.519-6.33c-4.1,0.604-6.934,4.418-6.33,8.519l7.213,48.942h-96.989l-19.25-105.4
			l10.102-11.743l2.394,1.017c2.302,0.978,4.699,1.448,7.061,1.448c5.629,0,11.058-2.673,14.524-7.522l32.925-46.073l3.119,0.941
			l-3.748,12.213c-2.009,6.55,1.685,13.515,8.234,15.525l48.523,14.893c1.205,0.37,2.436,0.553,3.662,0.553
			c2.002,0,3.988-0.49,5.807-1.454c2.933-1.556,5.084-4.16,6.057-7.332l3.818-12.441c6.502,2.706,11.17,8.491,12.375,15.548
			l20.92,122.472C451.608,492.144,450.49,493.92,449.786,494.755z"/>
	</g>
</g>
<g>
	<g>
		<path d="M384.351,402.993c-1.643-3.412-5.253-5.271-8.987-4.632l-35.932,6.164l-35.93-6.163c-3.735-0.643-7.344,1.219-8.989,4.631
			c-1.645,3.412-0.85,7.397,1.977,9.918c0.001,0,0.002,0.001,0.003,0.002l37.352,33.268c1.593,1.418,3.589,2.128,5.587,2.128
			c1.998,0,3.994-0.709,5.587-2.128l37.355-33.27C385.201,410.391,385.995,406.405,384.351,402.993z M339.432,431.058
			l-15.721-14.002l14.307,2.454c0.939,0.161,1.89,0.16,2.835-0.001l14.301-2.453L339.432,431.058z"/>
	</g>
</g>
<g>
</g>
<g>
</g>
<g>
</g>
<g>
</g>
<g>
</g>
<g>
</g>
<g>
</g>
<g>
</g>
<g>
</g>
<g>
</g>
<g>
</g>
<g>
</g>
<g>
</g>
<g>
</g>
<g>
</g>
</svg>
